<?xml version="1.0" encoding="UTF-8"?>
<svg xmlns="http://www.w3.org/2000/svg" xmlns:xlink="http://www.w3.org/1999/xlink" width="37.5pt" height="37.499999pt" viewBox="0 0 37.5 37.499999" version="1.2">
<defs>
<clipPath id="clip1">
  <path d="M 0 0 L 37.007812 0 L 37.007812 37.007812 L 0 37.007812 Z M 0 0 "/>
</clipPath>
</defs>
<g id="surface1">
<g clip-path="url(#clip1)" clip-rule="nonzero">
<path style=" stroke:none;fill-rule:nonzero;fill:rgb(100%,100%,100%);fill-opacity:1;" d="M 0 37.5 L 37.5 37.5 L 37.5 0 L 0 0 Z M 0 37.5 "/>
</g>
<path style=" stroke:none;fill-rule:evenodd;fill:rgb(0%,0%,0%);fill-opacity:1;" d="M 15.261719 20.570312 L 14.792969 22.742188 L 13.71875 22.742188 L 15.496094 14.875 L 16.765625 14.875 L 18.4375 22.742188 L 17.351562 22.742188 L 16.894531 20.570312 Z M 16.765625 19.695312 L 16.40625 17.816406 C 16.300781 17.277344 16.195312 16.578125 16.113281 16.019531 L 16.066406 16.019531 C 15.984375 16.589844 15.867188 17.3125 15.761719 17.816406 L 15.390625 19.695312 Z M 22.535156 14.664062 L 22.535156 21.28125 C 22.535156 21.714844 22.558594 22.34375 22.582031 22.742188 L 21.636719 22.742188 L 21.566406 22.054688 L 21.53125 22.054688 C 21.34375 22.449219 20.914062 22.835938 20.339844 22.835938 C 19.289062 22.835938 18.648438 21.691406 18.648438 19.929688 C 18.648438 17.921875 19.5 16.976562 20.398438 16.976562 C 20.855469 16.976562 21.214844 17.1875 21.414062 17.617188 L 21.4375 17.617188 L 21.4375 14.664062 Z M 21.4375 19.230469 C 21.4375 19.125 21.4375 18.996094 21.425781 18.878906 C 21.367188 18.363281 21.074219 17.921875 20.679688 17.921875 C 19.988281 17.921875 19.757812 18.878906 19.757812 19.929688 C 19.757812 21.097656 20.058594 21.914062 20.644531 21.914062 C 20.890625 21.914062 21.214844 21.785156 21.402344 21.109375 C 21.425781 21.015625 21.4375 20.875 21.4375 20.746094 Z M 25.148438 22.835938 C 24.015625 22.835938 23.199219 21.867188 23.199219 19.917969 C 23.199219 17.851562 24.167969 16.976562 25.207031 16.976562 C 26.328125 16.976562 27.132812 17.980469 27.132812 19.894531 C 27.132812 22.148438 26.023438 22.835938 25.160156 22.835938 Z M 25.183594 21.972656 C 25.859375 21.972656 26.011719 20.769531 26.011719 19.90625 C 26.011719 19.054688 25.859375 17.839844 25.160156 17.839844 C 24.4375 17.839844 24.296875 19.054688 24.296875 19.90625 C 24.296875 20.851562 24.460938 21.972656 25.171875 21.972656 Z M 27.792969 14.664062 L 28.890625 14.664062 L 28.890625 17.710938 L 28.914062 17.710938 C 29.207031 17.199219 29.601562 16.976562 30.105469 16.976562 C 31.074219 16.976562 31.679688 18.074219 31.679688 19.8125 C 31.679688 21.84375 30.851562 22.835938 29.917969 22.835938 C 29.359375 22.835938 29.042969 22.53125 28.796875 22.03125 L 28.75 22.03125 L 28.691406 22.742188 L 27.746094 22.742188 C 27.769531 22.355469 27.792969 21.714844 27.792969 21.28125 Z M 28.890625 20.734375 C 28.890625 20.863281 28.902344 20.992188 28.9375 21.085938 C 29.113281 21.773438 29.453125 21.914062 29.671875 21.914062 C 30.328125 21.914062 30.570312 21.050781 30.570312 19.882812 C 30.570312 18.796875 30.316406 17.921875 29.660156 17.921875 C 29.300781 17.921875 29.007812 18.351562 28.925781 18.761719 C 28.902344 18.878906 28.890625 19.03125 28.890625 19.148438 Z M 33.300781 20.128906 C 33.3125 21.585938 33.941406 21.949219 34.605469 21.949219 C 35.003906 21.949219 35.34375 21.855469 35.585938 21.738281 L 35.75 22.53125 C 35.414062 22.707031 34.898438 22.800781 34.398438 22.800781 C 32.972656 22.800781 32.226562 21.726562 32.226562 19.976562 C 32.226562 18.121094 33.078125 16.976562 34.257812 16.976562 C 35.4375 16.976562 35.984375 18.109375 35.984375 19.53125 C 35.984375 19.8125 35.972656 19.988281 35.960938 20.140625 Z M 34.945312 19.34375 C 34.957031 18.339844 34.605469 17.804688 34.175781 17.804688 C 33.601562 17.804688 33.347656 18.632812 33.3125 19.34375 Z M 34.945312 19.34375 "/>
<path style=" stroke:none;fill-rule:evenodd;fill:rgb(79.998779%,12.939453%,19.219971%);fill-opacity:1;" d="M 7.535156 14.894531 L 10.8125 14.894531 L 10.8125 22.742188 Z M 5.226562 14.894531 L 1.949219 14.894531 L 1.949219 22.742188 Z M 6.382812 17.789062 L 8.472656 22.742188 L 7.101562 22.742188 L 6.476562 21.164062 L 4.949219 21.164062 Z M 6.382812 17.789062 "/>
<path style=" stroke:none;fill-rule:evenodd;fill:rgb(0%,0%,0%);fill-opacity:1;" d="M 35.890625 16.960938 C 35.960938 16.960938 36.019531 16.984375 36.066406 17.035156 C 36.117188 17.085938 36.140625 17.144531 36.140625 17.214844 C 36.140625 17.355469 36.027344 17.46875 35.890625 17.46875 C 35.753906 17.46875 35.640625 17.355469 35.640625 17.214844 C 35.640625 17.144531 35.664062 17.085938 35.710938 17.035156 C 35.761719 16.984375 35.820312 16.960938 35.890625 16.960938 Z M 35.890625 17 C 35.777344 17 35.6875 17.097656 35.6875 17.214844 C 35.6875 17.332031 35.777344 17.425781 35.890625 17.425781 C 36.003906 17.429688 36.09375 17.332031 36.09375 17.214844 C 36.09375 17.097656 36.003906 17 35.890625 17 Z M 35.84375 17.359375 L 35.796875 17.359375 L 35.796875 17.078125 C 35.820312 17.074219 35.84375 17.070312 35.878906 17.070312 C 35.921875 17.070312 35.949219 17.082031 35.964844 17.09375 C 35.980469 17.105469 35.992188 17.125 35.992188 17.152344 C 35.992188 17.1875 35.964844 17.210938 35.9375 17.21875 L 35.9375 17.222656 C 35.960938 17.226562 35.976562 17.25 35.984375 17.289062 C 35.988281 17.335938 35.996094 17.351562 36 17.359375 L 35.953125 17.359375 C 35.949219 17.351562 35.941406 17.324219 35.933594 17.289062 C 35.929688 17.253906 35.910156 17.238281 35.875 17.238281 L 35.84375 17.238281 Z M 35.84375 17.203125 L 35.875 17.203125 C 35.914062 17.203125 35.945312 17.191406 35.945312 17.15625 C 35.945312 17.132812 35.925781 17.105469 35.875 17.105469 C 35.859375 17.105469 35.851562 17.109375 35.84375 17.109375 Z M 11.246094 14.894531 C 11.316406 14.894531 11.375 14.921875 11.421875 14.96875 C 11.472656 15.019531 11.496094 15.078125 11.496094 15.148438 C 11.496094 15.289062 11.382812 15.402344 11.246094 15.402344 C 11.109375 15.402344 10.996094 15.289062 10.996094 15.148438 C 10.996094 15.078125 11.019531 15.019531 11.066406 14.96875 C 11.117188 14.921875 11.175781 14.894531 11.246094 14.894531 Z M 11.246094 14.933594 C 11.132812 14.933594 11.042969 15.03125 11.042969 15.148438 C 11.042969 15.269531 11.132812 15.363281 11.246094 15.363281 C 11.359375 15.363281 11.449219 15.269531 11.449219 15.148438 C 11.449219 15.03125 11.359375 14.933594 11.246094 14.933594 Z M 11.199219 15.296875 L 11.152344 15.296875 L 11.152344 15.011719 C 11.179688 15.007812 11.207031 15.007812 11.234375 15.007812 C 11.277344 15.007812 11.304688 15.015625 11.320312 15.027344 C 11.335938 15.039062 11.347656 15.058594 11.347656 15.085938 C 11.347656 15.125 11.320312 15.144531 11.292969 15.15625 C 11.316406 15.160156 11.332031 15.183594 11.339844 15.226562 C 11.34375 15.269531 11.351562 15.285156 11.355469 15.296875 L 11.308594 15.296875 C 11.300781 15.285156 11.296875 15.261719 11.289062 15.222656 C 11.285156 15.1875 11.265625 15.175781 11.230469 15.175781 L 11.199219 15.175781 Z M 11.199219 15.140625 L 11.230469 15.140625 C 11.269531 15.140625 11.300781 15.125 11.300781 15.089844 C 11.300781 15.066406 11.28125 15.042969 11.230469 15.042969 C 11.214844 15.042969 11.207031 15.042969 11.199219 15.042969 Z M 11.199219 15.140625 "/>
</g>
</svg>
