<?xml version="1.0" encoding="UTF-8"?>
<svg xmlns="http://www.w3.org/2000/svg" xmlns:xlink="http://www.w3.org/1999/xlink" width="37.5pt" height="37.499999pt" viewBox="0 0 37.5 37.499999" version="1.2">
<defs>
<clipPath id="clip1">
  <path d="M 0 0 L 37.007812 0 L 37.007812 37.007812 L 0 37.007812 Z M 0 0 "/>
</clipPath>
<clipPath id="clip2">
  <path d="M 0 1.875 L 37.007812 1.875 L 37.007812 35.625 L 0 35.625 Z M 0 1.875 "/>
</clipPath>
<clipPath id="clip3">
  <path d="M 0 1.875 L 14 1.875 L 14 35.625 L 0 35.625 Z M 0 1.875 "/>
</clipPath>
<clipPath id="clip4">
  <path d="M 23 1.875 L 37.007812 1.875 L 37.007812 35.625 L 23 35.625 Z M 23 1.875 "/>
</clipPath>
<clipPath id="clip5">
  <path d="M 12 14 L 28 14 L 28 35.625 L 12 35.625 Z M 12 14 "/>
</clipPath>
</defs>
<g id="surface1">
<g clip-path="url(#clip1)" clip-rule="nonzero">
<path style=" stroke:none;fill-rule:nonzero;fill:rgb(100%,100%,100%);fill-opacity:1;" d="M 0 0 L 37.5 0 L 37.5 45 L 0 45 Z M 0 0 "/>
<path style=" stroke:none;fill-rule:nonzero;fill:rgb(100%,100%,100%);fill-opacity:1;" d="M 0 0 L 37.5 0 L 37.5 37.5 L 0 37.5 Z M 0 0 "/>
<path style=" stroke:none;fill-rule:nonzero;fill:rgb(100%,100%,100%);fill-opacity:1;" d="M 0 0 L 37.5 0 L 37.5 37.5 L 0 37.5 Z M 0 0 "/>
<path style=" stroke:none;fill-rule:nonzero;fill:rgb(98.039246%,4.708862%,0%);fill-opacity:1;" d="M 0 0 L 37.5 0 L 37.5 37.5 L 0 37.5 Z M 0 0 "/>
</g>
<g clip-path="url(#clip2)" clip-rule="nonzero">
<path style=" stroke:none;fill-rule:nonzero;fill:rgb(100%,100%,100%);fill-opacity:1;" d="M 0 1.875 L 37.5 1.875 L 37.5 35.625 L 0 35.625 Z M 0 1.875 "/>
</g>
<g clip-path="url(#clip3)" clip-rule="nonzero">
<path style=" stroke:none;fill-rule:nonzero;fill:rgb(98.039246%,4.708862%,0%);fill-opacity:1;" d="M 13.730469 1.875 L -0.453125 1.875 L -0.453125 35.625 Z M 13.730469 1.875 "/>
</g>
<g clip-path="url(#clip4)" clip-rule="nonzero">
<path style=" stroke:none;fill-rule:nonzero;fill:rgb(98.039246%,4.708862%,0%);fill-opacity:1;" d="M 23.707031 1.875 L 37.875 1.875 L 37.875 35.625 Z M 23.707031 1.875 "/>
</g>
<g clip-path="url(#clip5)" clip-rule="nonzero">
<path style=" stroke:none;fill-rule:nonzero;fill:rgb(98.039246%,4.708862%,0%);fill-opacity:1;" d="M 18.71875 14.3125 L 27.746094 35.625 L 21.824219 35.625 L 19.125 28.839844 L 12.519531 28.839844 Z M 18.71875 14.3125 "/>
</g>
</g>
</svg>
