<?xml version="1.0" encoding="UTF-8"?>
<svg xmlns="http://www.w3.org/2000/svg" xmlns:xlink="http://www.w3.org/1999/xlink" width="37.5pt" height="37.499999pt" viewBox="0 0 37.5 37.499999" version="1.2">
<defs>
<clipPath id="clip1">
  <path d="M 1 7.671875 L 36 7.671875 L 36 20 L 1 20 Z M 1 7.671875 "/>
</clipPath>
<clipPath id="clip2">
  <path d="M 0 22 L 34 22 L 34 30.171875 L 0 30.171875 Z M 0 22 "/>
</clipPath>
<clipPath id="clip3">
  <path d="M 30 21 L 37.007812 21 L 37.007812 29 L 30 29 Z M 30 21 "/>
</clipPath>
</defs>
<g id="surface1">
<g clip-path="url(#clip1)" clip-rule="nonzero">
<path style=" stroke:none;fill-rule:nonzero;fill:rgb(14.509583%,18.429565%,24.308777%);fill-opacity:1;" d="M 10.640625 15.976562 C 10.640625 16.445312 10.6875 16.828125 10.773438 17.105469 C 10.871094 17.386719 10.996094 17.691406 11.167969 18.019531 C 11.230469 18.121094 11.253906 18.222656 11.253906 18.3125 C 11.253906 18.4375 11.179688 18.566406 11.019531 18.691406 L 10.246094 19.226562 C 10.132812 19.300781 10.023438 19.339844 9.925781 19.339844 C 9.800781 19.339844 9.679688 19.277344 9.554688 19.164062 C 9.382812 18.972656 9.238281 18.769531 9.113281 18.566406 C 8.992188 18.351562 8.867188 18.109375 8.730469 17.816406 C 7.773438 18.984375 6.566406 19.570312 5.117188 19.570312 C 4.082031 19.570312 3.257812 19.265625 2.65625 18.65625 C 2.054688 18.046875 1.746094 17.234375 1.746094 16.21875 C 1.746094 15.140625 2.117188 14.261719 2.867188 13.601562 C 3.617188 12.941406 4.613281 12.613281 5.878906 12.613281 C 6.296875 12.613281 6.726562 12.652344 7.183594 12.714844 C 7.636719 12.777344 8.105469 12.878906 8.597656 12.992188 L 8.597656 12.066406 C 8.597656 11.101562 8.398438 10.429688 8.019531 10.035156 C 7.625 9.644531 6.960938 9.453125 6.015625 9.453125 C 5.582031 9.453125 5.140625 9.503906 4.6875 9.617188 C 4.230469 9.730469 3.789062 9.871094 3.359375 10.050781 C 3.160156 10.136719 3.011719 10.1875 2.925781 10.214844 C 2.839844 10.238281 2.78125 10.253906 2.730469 10.253906 C 2.558594 10.253906 2.472656 10.125 2.472656 9.859375 L 2.472656 9.238281 C 2.472656 9.035156 2.496094 8.882812 2.558594 8.792969 C 2.621094 8.703125 2.730469 8.613281 2.902344 8.527344 C 3.332031 8.296875 3.851562 8.105469 4.453125 7.953125 C 5.054688 7.789062 5.695312 7.714844 6.371094 7.714844 C 7.835938 7.714844 8.90625 8.054688 9.59375 8.742188 C 10.269531 9.425781 10.613281 10.46875 10.613281 11.863281 L 10.613281 15.976562 Z M 5.644531 17.90625 C 6.050781 17.90625 6.46875 17.828125 6.910156 17.675781 C 7.355469 17.523438 7.75 17.246094 8.082031 16.863281 C 8.277344 16.625 8.425781 16.355469 8.5 16.054688 C 8.574219 15.75 8.621094 15.378906 8.621094 14.949219 L 8.621094 14.414062 C 8.265625 14.328125 7.882812 14.25 7.488281 14.199219 C 7.097656 14.148438 6.714844 14.125 6.335938 14.125 C 5.511719 14.125 4.90625 14.289062 4.5 14.632812 C 4.09375 14.972656 3.898438 15.457031 3.898438 16.089844 C 3.898438 16.6875 4.046875 17.132812 4.355469 17.4375 C 4.648438 17.753906 5.078125 17.90625 5.644531 17.90625 Z M 15.519531 19.277344 C 15.300781 19.277344 15.152344 19.238281 15.054688 19.148438 C 14.957031 19.074219 14.871094 18.894531 14.796875 18.65625 L 11.90625 8.84375 C 11.832031 8.589844 11.792969 8.425781 11.792969 8.335938 C 11.792969 8.132812 11.894531 8.019531 12.089844 8.019531 L 13.296875 8.019531 C 13.527344 8.019531 13.6875 8.054688 13.773438 8.144531 C 13.875 8.222656 13.945312 8.398438 14.019531 8.640625 L 16.085938 17.042969 L 18.007812 8.640625 C 18.066406 8.386719 18.140625 8.222656 18.238281 8.144531 C 18.339844 8.070312 18.511719 8.019531 18.730469 8.019531 L 19.714844 8.019531 C 19.949219 8.019531 20.109375 8.054688 20.207031 8.144531 C 20.304688 8.222656 20.390625 8.398438 20.441406 8.640625 L 22.382812 17.144531 L 24.511719 8.640625 C 24.585938 8.386719 24.671875 8.222656 24.757812 8.144531 C 24.855469 8.070312 25.015625 8.019531 25.238281 8.019531 L 26.382812 8.019531 C 26.578125 8.019531 26.6875 8.121094 26.6875 8.335938 C 26.6875 8.398438 26.675781 8.460938 26.664062 8.539062 C 26.652344 8.613281 26.628906 8.714844 26.578125 8.855469 L 23.613281 18.667969 C 23.539062 18.921875 23.453125 19.085938 23.355469 19.164062 C 23.257812 19.238281 23.097656 19.289062 22.886719 19.289062 L 21.832031 19.289062 C 21.597656 19.289062 21.4375 19.25 21.339844 19.164062 C 21.242188 19.074219 21.15625 18.910156 21.105469 18.65625 L 19.199219 10.46875 L 17.304688 18.640625 C 17.242188 18.894531 17.167969 19.0625 17.070312 19.148438 C 16.972656 19.238281 16.800781 19.277344 16.578125 19.277344 Z M 31.324219 19.621094 C 30.6875 19.621094 30.046875 19.542969 29.433594 19.390625 C 28.816406 19.238281 28.335938 19.074219 28.015625 18.882812 C 27.820312 18.769531 27.683594 18.640625 27.636719 18.527344 C 27.585938 18.414062 27.5625 18.285156 27.5625 18.171875 L 27.5625 17.523438 C 27.5625 17.257812 27.660156 17.132812 27.84375 17.132812 C 27.917969 17.132812 27.992188 17.144531 28.066406 17.167969 C 28.140625 17.195312 28.25 17.246094 28.375 17.296875 C 28.792969 17.488281 29.246094 17.640625 29.726562 17.742188 C 30.21875 17.84375 30.699219 17.894531 31.191406 17.894531 C 31.964844 17.894531 32.566406 17.753906 32.984375 17.472656 C 33.40625 17.195312 33.625 16.789062 33.625 16.269531 C 33.625 15.914062 33.515625 15.621094 33.292969 15.378906 C 33.074219 15.140625 32.652344 14.921875 32.050781 14.71875 L 30.269531 14.148438 C 29.371094 13.855469 28.707031 13.425781 28.300781 12.855469 C 27.894531 12.296875 27.683594 11.671875 27.683594 11.015625 C 27.683594 10.480469 27.796875 10.011719 28.015625 9.605469 C 28.238281 9.199219 28.535156 8.84375 28.902344 8.5625 C 29.273438 8.273438 29.691406 8.054688 30.183594 7.902344 C 30.675781 7.75 31.191406 7.6875 31.730469 7.6875 C 32.003906 7.6875 32.285156 7.699219 32.554688 7.738281 C 32.839844 7.777344 33.097656 7.828125 33.355469 7.878906 C 33.601562 7.941406 33.835938 8.003906 34.054688 8.082031 C 34.277344 8.15625 34.449219 8.234375 34.574219 8.308594 C 34.746094 8.410156 34.867188 8.511719 34.941406 8.628906 C 35.015625 8.730469 35.050781 8.867188 35.050781 9.046875 L 35.050781 9.644531 C 35.050781 9.910156 34.953125 10.050781 34.769531 10.050781 C 34.671875 10.050781 34.511719 10 34.300781 9.898438 C 33.601562 9.566406 32.8125 9.402344 31.941406 9.402344 C 31.238281 9.402344 30.6875 9.515625 30.304688 9.757812 C 29.921875 10 29.726562 10.367188 29.726562 10.886719 C 29.726562 11.242188 29.851562 11.546875 30.097656 11.789062 C 30.34375 12.027344 30.796875 12.269531 31.449219 12.484375 L 33.195312 13.058594 C 34.082031 13.347656 34.71875 13.753906 35.101562 14.277344 C 35.484375 14.796875 35.667969 15.394531 35.667969 16.054688 C 35.667969 16.597656 35.558594 17.09375 35.347656 17.523438 C 35.125 17.957031 34.832031 18.335938 34.449219 18.640625 C 34.070312 18.960938 33.613281 19.1875 33.085938 19.351562 C 32.53125 19.53125 31.953125 19.621094 31.324219 19.621094 Z M 31.324219 19.621094 "/>
</g>
<g clip-path="url(#clip2)" clip-rule="nonzero">
<path style=" stroke:none;fill-rule:evenodd;fill:rgb(100%,59.999084%,0%);fill-opacity:1;" d="M 33.648438 25.789062 C 29.605469 28.871094 23.726562 30.507812 18.671875 30.507812 C 11.585938 30.507812 5.203125 27.804688 0.382812 23.3125 C 0 22.957031 0.34375 22.476562 0.800781 22.753906 C 6.015625 25.875 12.445312 27.769531 19.101562 27.769531 C 23.589844 27.769531 28.523438 26.804688 33.058594 24.824219 C 33.738281 24.507812 34.316406 25.28125 33.648438 25.789062 Z M 33.648438 25.789062 "/>
</g>
<g clip-path="url(#clip3)" clip-rule="nonzero">
<path style=" stroke:none;fill-rule:evenodd;fill:rgb(100%,59.999084%,0%);fill-opacity:1;" d="M 35.335938 23.808594 C 34.820312 23.121094 31.917969 23.476562 30.601562 23.644531 C 30.207031 23.695312 30.144531 23.339844 30.5 23.070312 C 32.8125 21.394531 36.613281 21.878906 37.058594 22.4375 C 37.5 23.007812 36.933594 26.929688 34.769531 28.808594 C 34.4375 29.101562 34.117188 28.949219 34.265625 28.566406 C 34.757812 27.3125 35.851562 24.480469 35.335938 23.808594 Z M 35.335938 23.808594 "/>
</g>
</g>
</svg>
