<?xml version="1.0" encoding="UTF-8"?>
<svg xmlns="http://www.w3.org/2000/svg" xmlns:xlink="http://www.w3.org/1999/xlink" width="37.5pt" height="37.499999pt" viewBox="0 0 37.5 37.499999" version="1.2">
<defs>
<clipPath id="clip1">
  <path d="M 0 0 L 37.007812 0 L 37.007812 37.007812 L 0 37.007812 Z M 0 0 "/>
</clipPath>
</defs>
<g id="surface1">
<g clip-path="url(#clip1)" clip-rule="nonzero">
<path style=" stroke:none;fill-rule:nonzero;fill:rgb(9.01947%,41.178894%,100%);fill-opacity:1;" d="M 37.5 18.75 C 37.5 19.363281 37.46875 19.976562 37.410156 20.585938 C 37.347656 21.199219 37.257812 21.804688 37.140625 22.40625 C 37.019531 23.011719 36.871094 23.605469 36.691406 24.191406 C 36.515625 24.78125 36.308594 25.359375 36.074219 25.925781 C 35.835938 26.492188 35.574219 27.046875 35.285156 27.589844 C 34.996094 28.128906 34.679688 28.65625 34.339844 29.167969 C 34 29.675781 33.632812 30.171875 33.242188 30.644531 C 32.855469 31.121094 32.441406 31.574219 32.007812 32.007812 C 31.574219 32.441406 31.121094 32.855469 30.644531 33.242188 C 30.171875 33.632812 29.675781 34 29.167969 34.339844 C 28.65625 34.679688 28.128906 34.996094 27.589844 35.285156 C 27.046875 35.574219 26.492188 35.835938 25.925781 36.074219 C 25.359375 36.308594 24.78125 36.515625 24.191406 36.691406 C 23.605469 36.871094 23.011719 37.019531 22.40625 37.140625 C 21.804688 37.257812 21.199219 37.347656 20.585938 37.410156 C 19.976562 37.46875 19.363281 37.5 18.75 37.5 C 18.136719 37.5 17.523438 37.46875 16.914062 37.410156 C 16.300781 37.347656 15.695312 37.257812 15.09375 37.140625 C 14.488281 37.019531 13.894531 36.871094 13.308594 36.691406 C 12.71875 36.515625 12.140625 36.308594 11.574219 36.074219 C 11.007812 35.835938 10.453125 35.574219 9.910156 35.285156 C 9.371094 34.996094 8.84375 34.679688 8.332031 34.339844 C 7.824219 34 7.328125 33.632812 6.855469 33.242188 C 6.378906 32.855469 5.925781 32.441406 5.492188 32.007812 C 5.058594 31.574219 4.644531 31.121094 4.257812 30.644531 C 3.867188 30.171875 3.5 29.675781 3.160156 29.167969 C 2.820312 28.65625 2.503906 28.128906 2.214844 27.589844 C 1.925781 27.046875 1.664062 26.492188 1.425781 25.925781 C 1.191406 25.359375 0.984375 24.78125 0.808594 24.191406 C 0.628906 23.605469 0.480469 23.011719 0.359375 22.40625 C 0.242188 21.804688 0.152344 21.199219 0.0898438 20.585938 C 0.03125 19.976562 0 19.363281 0 18.75 C 0 18.136719 0.03125 17.523438 0.0898438 16.914062 C 0.152344 16.300781 0.242188 15.695312 0.359375 15.09375 C 0.480469 14.488281 0.628906 13.894531 0.808594 13.308594 C 0.984375 12.71875 1.191406 12.140625 1.425781 11.574219 C 1.664062 11.007812 1.925781 10.453125 2.214844 9.910156 C 2.503906 9.371094 2.820312 8.84375 3.160156 8.332031 C 3.5 7.824219 3.867188 7.328125 4.257812 6.855469 C 4.644531 6.378906 5.058594 5.925781 5.492188 5.492188 C 5.925781 5.058594 6.378906 4.644531 6.855469 4.257812 C 7.328125 3.867188 7.824219 3.5 8.332031 3.160156 C 8.84375 2.820312 9.371094 2.503906 9.910156 2.214844 C 10.453125 1.925781 11.007812 1.664062 11.574219 1.425781 C 12.140625 1.191406 12.71875 0.984375 13.308594 0.808594 C 13.894531 0.628906 14.488281 0.480469 15.09375 0.359375 C 15.695312 0.242188 16.300781 0.152344 16.914062 0.0898438 C 17.523438 0.03125 18.136719 0 18.75 0 C 19.363281 0 19.976562 0.03125 20.585938 0.0898438 C 21.199219 0.152344 21.804688 0.242188 22.40625 0.359375 C 23.011719 0.480469 23.605469 0.628906 24.191406 0.808594 C 24.78125 0.984375 25.359375 1.191406 25.925781 1.425781 C 26.492188 1.664062 27.046875 1.925781 27.589844 2.214844 C 28.128906 2.503906 28.65625 2.820312 29.167969 3.160156 C 29.675781 3.5 30.171875 3.867188 30.644531 4.257812 C 31.121094 4.644531 31.574219 5.058594 32.007812 5.492188 C 32.441406 5.925781 32.855469 6.378906 33.242188 6.855469 C 33.632812 7.328125 34 7.824219 34.339844 8.332031 C 34.679688 8.84375 34.996094 9.371094 35.285156 9.910156 C 35.574219 10.453125 35.835938 11.007812 36.074219 11.574219 C 36.308594 12.140625 36.515625 12.71875 36.691406 13.308594 C 36.871094 13.894531 37.019531 14.488281 37.140625 15.09375 C 37.257812 15.695312 37.347656 16.300781 37.410156 16.914062 C 37.46875 17.523438 37.5 18.136719 37.5 18.75 Z M 37.5 18.75 "/>
</g>
<path style=" stroke:none;fill-rule:nonzero;fill:rgb(100%,100%,100%);fill-opacity:1;" d="M 13.246094 10.253906 C 14.054688 10.253906 14.792969 10.324219 15.460938 10.46875 C 16.128906 10.609375 16.699219 10.84375 17.171875 11.171875 C 17.648438 11.496094 18.019531 11.929688 18.28125 12.46875 C 18.542969 13.007812 18.671875 13.675781 18.671875 14.46875 C 18.671875 15.324219 18.476562 16.039062 18.089844 16.609375 C 17.703125 17.179688 17.125 17.648438 16.363281 18.011719 C 17.410156 18.316406 18.195312 18.84375 18.710938 19.597656 C 19.226562 20.347656 19.484375 21.257812 19.484375 22.320312 C 19.484375 23.179688 19.316406 23.921875 18.984375 24.546875 C 18.652344 25.175781 18.203125 25.6875 17.636719 26.082031 C 17.074219 26.480469 16.433594 26.773438 15.710938 26.960938 C 14.984375 27.152344 14.238281 27.25 13.488281 27.246094 L 5.25 27.246094 L 5.25 10.253906 Z M 12.769531 17.132812 C 13.4375 17.132812 13.984375 16.972656 14.414062 16.65625 C 14.84375 16.339844 15.058594 15.824219 15.054688 15.109375 C 15.054688 14.714844 14.984375 14.386719 14.839844 14.132812 C 14.699219 13.882812 14.507812 13.679688 14.269531 13.539062 C 14.03125 13.398438 13.757812 13.296875 13.449219 13.242188 C 13.132812 13.1875 12.808594 13.15625 12.484375 13.160156 L 8.988281 13.160156 L 8.988281 17.132812 Z M 12.984375 24.34375 C 13.339844 24.34375 13.6875 24.308594 14.03125 24.234375 C 14.367188 24.164062 14.660156 24.046875 14.914062 23.878906 C 15.167969 23.710938 15.367188 23.484375 15.519531 23.199219 C 15.671875 22.914062 15.746094 22.550781 15.746094 22.105469 C 15.746094 21.234375 15.5 20.609375 15.007812 20.238281 C 14.515625 19.863281 13.867188 19.679688 13.058594 19.679688 L 8.988281 19.679688 L 8.988281 24.34375 Z M 24.183594 23.984375 C 24.691406 24.476562 25.421875 24.722656 26.375 24.722656 C 27.058594 24.722656 27.644531 24.550781 28.136719 24.210938 C 28.628906 23.871094 28.929688 23.507812 29.039062 23.128906 L 32.015625 23.128906 C 31.539062 24.605469 30.808594 25.660156 29.824219 26.292969 C 28.839844 26.929688 27.652344 27.246094 26.253906 27.246094 C 25.285156 27.246094 24.414062 27.089844 23.636719 26.78125 C 22.859375 26.472656 22.203125 26.03125 21.660156 25.460938 C 21.121094 24.890625 20.703125 24.207031 20.410156 23.414062 C 20.121094 22.621094 19.972656 21.75 19.972656 20.796875 C 19.972656 19.878906 20.121094 19.023438 20.425781 18.226562 C 20.726562 17.433594 21.15625 16.75 21.710938 16.171875 C 22.265625 15.589844 22.925781 15.136719 23.695312 14.800781 C 24.464844 14.46875 25.320312 14.300781 26.257812 14.300781 C 27.304688 14.300781 28.214844 14.503906 28.992188 14.910156 C 29.769531 15.316406 30.410156 15.859375 30.910156 16.539062 C 31.410156 17.222656 31.769531 18 31.992188 18.871094 C 32.214844 19.746094 32.292969 20.65625 32.230469 21.609375 L 23.351562 21.609375 C 23.398438 22.699219 23.675781 23.496094 24.183594 23.984375 Z M 28.003906 17.511719 C 27.601562 17.070312 26.984375 16.847656 26.160156 16.847656 C 25.621094 16.847656 25.171875 16.9375 24.816406 17.121094 C 24.460938 17.300781 24.175781 17.527344 23.960938 17.796875 C 23.746094 18.066406 23.59375 18.351562 23.507812 18.652344 C 23.421875 18.957031 23.367188 19.226562 23.351562 19.460938 L 28.851562 19.460938 C 28.691406 18.609375 28.410156 17.957031 28.003906 17.511719 Z M 22.773438 11.117188 L 29.644531 11.117188 L 29.644531 13.023438 L 22.773438 13.023438 Z M 22.773438 11.117188 "/>
</g>
</svg>
