<?xml version="1.0" encoding="UTF-8"?>
<svg xmlns="http://www.w3.org/2000/svg" xmlns:xlink="http://www.w3.org/1999/xlink" width="37.5pt" height="37.499999pt" viewBox="0 0 37.5 37.499999" version="1.2">
<defs>
<clipPath id="clip1">
  <path d="M 0 0 L 37.007812 0 L 37.007812 37.007812 L 0 37.007812 Z M 0 0 "/>
</clipPath>
</defs>
<g id="surface1">
<g clip-path="url(#clip1)" clip-rule="nonzero">
<path style=" stroke:none;fill-rule:nonzero;fill:rgb(33.729553%,23.919678%,48.629761%);fill-opacity:1;" d="M 0 32.664062 C 0 35.335938 2.164062 37.5 4.835938 37.5 L 32.664062 37.5 C 35.335938 37.5 37.5 35.335938 37.5 32.664062 L 37.5 4.835938 C 37.5 2.164062 35.335938 0 32.664062 0 L 4.835938 0 C 2.164062 0 0 2.164062 0 4.835938 Z M 0 32.664062 "/>
</g>
<path style=" stroke:none;fill-rule:nonzero;fill:rgb(100%,100%,100%);fill-opacity:1;" d="M 15.550781 16.585938 L 15.550781 11.277344 L 20.226562 11.277344 C 20.671875 11.277344 21.097656 11.3125 21.511719 11.386719 C 21.925781 11.460938 22.292969 11.59375 22.609375 11.785156 C 22.929688 11.976562 23.183594 12.242188 23.375 12.582031 C 23.5625 12.921875 23.660156 13.355469 23.660156 13.882812 C 23.660156 14.839844 23.375 15.527344 22.800781 15.953125 C 22.226562 16.375 21.496094 16.585938 20.605469 16.585938 Z M 10.558594 7.398438 L 10.558594 30.101562 L 21.5625 30.101562 C 22.578125 30.101562 23.570312 29.976562 24.535156 29.722656 C 25.5 29.464844 26.355469 29.074219 27.109375 28.542969 C 27.863281 28.015625 28.460938 27.332031 28.90625 26.492188 C 29.351562 25.65625 29.574219 24.664062 29.574219 23.519531 C 29.574219 22.097656 29.230469 20.886719 28.539062 19.878906 C 27.851562 18.871094 26.808594 18.167969 25.410156 17.765625 C 26.425781 17.277344 27.195312 16.652344 27.714844 15.886719 C 28.234375 15.125 28.492188 14.171875 28.492188 13.027344 C 28.492188 11.964844 28.316406 11.074219 27.96875 10.355469 C 27.617188 9.632812 27.125 9.054688 26.488281 8.621094 C 25.855469 8.1875 25.089844 7.875 24.199219 7.683594 C 23.308594 7.492188 22.324219 7.398438 21.242188 7.398438 Z M 15.550781 26.222656 L 15.550781 19.988281 L 20.988281 19.988281 C 22.070312 19.988281 22.9375 20.238281 23.597656 20.738281 C 24.253906 21.234375 24.582031 22.066406 24.582031 23.234375 C 24.582031 23.828125 24.480469 24.316406 24.28125 24.695312 C 24.078125 25.078125 23.808594 25.378906 23.46875 25.601562 C 23.128906 25.824219 22.738281 25.984375 22.292969 26.078125 C 21.847656 26.175781 21.378906 26.222656 20.894531 26.222656 Z M 15.550781 26.222656 "/>
</g>
</svg>
