<?xml version="1.0" encoding="UTF-8"?>
<svg xmlns="http://www.w3.org/2000/svg" xmlns:xlink="http://www.w3.org/1999/xlink" width="37.5pt" height="37.499999pt" viewBox="0 0 37.5 37.499999" version="1.2">
<defs>
<clipPath id="clip1">
  <path d="M 0 0 L 37.007812 0 L 37.007812 37.007812 L 0 37.007812 Z M 0 0 "/>
</clipPath>
<clipPath id="clip2">
  <path d="M 12 8 L 26 8 L 26 22 L 12 22 Z M 12 8 "/>
</clipPath>
<clipPath id="clip3">
  <path d="M 25.503906 15.355469 C 25.503906 15.789062 25.460938 16.214844 25.375 16.636719 C 25.292969 17.058594 25.167969 17.46875 25.003906 17.867188 C 24.839844 18.265625 24.636719 18.640625 24.398438 19 C 24.160156 19.359375 23.886719 19.691406 23.582031 19.992188 C 23.277344 20.296875 22.945312 20.570312 22.589844 20.808594 C 22.230469 21.046875 21.851562 21.25 21.453125 21.414062 C 21.058594 21.582031 20.648438 21.703125 20.222656 21.789062 C 19.800781 21.871094 19.375 21.914062 18.945312 21.914062 C 18.515625 21.914062 18.089844 21.871094 17.664062 21.789062 C 17.242188 21.703125 16.832031 21.582031 16.433594 21.414062 C 16.039062 21.25 15.660156 21.046875 15.300781 20.808594 C 14.945312 20.570312 14.613281 20.296875 14.308594 19.992188 C 14.003906 19.691406 13.730469 19.359375 13.492188 19 C 13.253906 18.640625 13.050781 18.265625 12.886719 17.867188 C 12.722656 17.46875 12.597656 17.058594 12.511719 16.636719 C 12.429688 16.214844 12.386719 15.789062 12.386719 15.355469 C 12.386719 14.925781 12.429688 14.5 12.511719 14.078125 C 12.597656 13.65625 12.722656 13.246094 12.886719 12.847656 C 13.050781 12.449219 13.253906 12.070312 13.492188 11.714844 C 13.730469 11.355469 14.003906 11.023438 14.308594 10.71875 C 14.613281 10.414062 14.945312 10.144531 15.300781 9.90625 C 15.660156 9.664062 16.039062 9.464844 16.433594 9.296875 C 16.832031 9.132812 17.242188 9.007812 17.664062 8.925781 C 18.089844 8.839844 18.515625 8.800781 18.945312 8.800781 C 19.375 8.800781 19.800781 8.839844 20.222656 8.925781 C 20.648438 9.007812 21.058594 9.132812 21.453125 9.296875 C 21.851562 9.464844 22.230469 9.664062 22.589844 9.90625 C 22.945312 10.144531 23.277344 10.414062 23.582031 10.71875 C 23.886719 11.023438 24.160156 11.355469 24.398438 11.714844 C 24.636719 12.070312 24.839844 12.449219 25.003906 12.847656 C 25.167969 13.246094 25.292969 13.65625 25.375 14.078125 C 25.460938 14.5 25.503906 14.925781 25.503906 15.355469 Z M 25.503906 15.355469 "/>
</clipPath>
<radialGradient id="radial0" gradientUnits="userSpaceOnUse" cx="6.576305" cy="6.558205" fx="6.576305" fy="6.558205" r="6.573419" gradientTransform="matrix(1,0,0,1,12.387156,8.79917)">
<stop offset="0" style="stop-color:rgb(47.360229%,47.360229%,47.360229%);stop-opacity:1;"/>
<stop offset="0.015625" style="stop-color:rgb(47.119141%,47.119141%,47.119141%);stop-opacity:1;"/>
<stop offset="0.0273438" style="stop-color:rgb(46.911621%,46.911621%,46.911621%);stop-opacity:1;"/>
<stop offset="0.0390625" style="stop-color:rgb(46.704102%,46.704102%,46.704102%);stop-opacity:1;"/>
<stop offset="0.0507812" style="stop-color:rgb(46.496582%,46.496582%,46.496582%);stop-opacity:1;"/>
<stop offset="0.0625" style="stop-color:rgb(46.289062%,46.289062%,46.289062%);stop-opacity:1;"/>
<stop offset="0.0742188" style="stop-color:rgb(46.081543%,46.081543%,46.081543%);stop-opacity:1;"/>
<stop offset="0.0859375" style="stop-color:rgb(45.874023%,45.874023%,45.874023%);stop-opacity:1;"/>
<stop offset="0.0976562" style="stop-color:rgb(45.666504%,45.666504%,45.666504%);stop-opacity:1;"/>
<stop offset="0.109375" style="stop-color:rgb(45.458984%,45.458984%,45.458984%);stop-opacity:1;"/>
<stop offset="0.121094" style="stop-color:rgb(45.251465%,45.251465%,45.251465%);stop-opacity:1;"/>
<stop offset="0.132812" style="stop-color:rgb(45.043945%,45.043945%,45.043945%);stop-opacity:1;"/>
<stop offset="0.144531" style="stop-color:rgb(44.837952%,44.837952%,44.837952%);stop-opacity:1;"/>
<stop offset="0.15625" style="stop-color:rgb(44.630432%,44.630432%,44.630432%);stop-opacity:1;"/>
<stop offset="0.167969" style="stop-color:rgb(44.422913%,44.422913%,44.422913%);stop-opacity:1;"/>
<stop offset="0.179688" style="stop-color:rgb(44.215393%,44.215393%,44.215393%);stop-opacity:1;"/>
<stop offset="0.191406" style="stop-color:rgb(44.007874%,44.007874%,44.007874%);stop-opacity:1;"/>
<stop offset="0.203125" style="stop-color:rgb(43.800354%,43.800354%,43.800354%);stop-opacity:1;"/>
<stop offset="0.214844" style="stop-color:rgb(43.592834%,43.592834%,43.592834%);stop-opacity:1;"/>
<stop offset="0.226562" style="stop-color:rgb(43.385315%,43.385315%,43.385315%);stop-opacity:1;"/>
<stop offset="0.238281" style="stop-color:rgb(43.177795%,43.177795%,43.177795%);stop-opacity:1;"/>
<stop offset="0.25" style="stop-color:rgb(42.970276%,42.970276%,42.970276%);stop-opacity:1;"/>
<stop offset="0.261719" style="stop-color:rgb(42.694092%,42.694092%,42.694092%);stop-opacity:1;"/>
<stop offset="0.28125" style="stop-color:rgb(42.347717%,42.347717%,42.347717%);stop-opacity:1;"/>
<stop offset="0.300781" style="stop-color:rgb(42.002869%,42.002869%,42.002869%);stop-opacity:1;"/>
<stop offset="0.320312" style="stop-color:rgb(41.656494%,41.656494%,41.656494%);stop-opacity:1;"/>
<stop offset="0.339844" style="stop-color:rgb(41.31012%,41.31012%,41.31012%);stop-opacity:1;"/>
<stop offset="0.359375" style="stop-color:rgb(40.965271%,40.965271%,40.965271%);stop-opacity:1;"/>
<stop offset="0.378906" style="stop-color:rgb(40.653992%,40.653992%,40.653992%);stop-opacity:1;"/>
<stop offset="0.394531" style="stop-color:rgb(40.377808%,40.377808%,40.377808%);stop-opacity:1;"/>
<stop offset="0.410156" style="stop-color:rgb(40.100098%,40.100098%,40.100098%);stop-opacity:1;"/>
<stop offset="0.425781" style="stop-color:rgb(39.823914%,39.823914%,39.823914%);stop-opacity:1;"/>
<stop offset="0.441406" style="stop-color:rgb(39.547729%,39.547729%,39.547729%);stop-opacity:1;"/>
<stop offset="0.457031" style="stop-color:rgb(39.271545%,39.271545%,39.271545%);stop-opacity:1;"/>
<stop offset="0.472656" style="stop-color:rgb(38.993835%,38.993835%,38.993835%);stop-opacity:1;"/>
<stop offset="0.488281" style="stop-color:rgb(38.717651%,38.717651%,38.717651%);stop-opacity:1;"/>
<stop offset="0.503906" style="stop-color:rgb(38.476562%,38.476562%,38.476562%);stop-opacity:1;"/>
<stop offset="0.515625" style="stop-color:rgb(38.269043%,38.269043%,38.269043%);stop-opacity:1;"/>
<stop offset="0.527344" style="stop-color:rgb(38.061523%,38.061523%,38.061523%);stop-opacity:1;"/>
<stop offset="0.539062" style="stop-color:rgb(37.854004%,37.854004%,37.854004%);stop-opacity:1;"/>
<stop offset="0.550781" style="stop-color:rgb(37.646484%,37.646484%,37.646484%);stop-opacity:1;"/>
<stop offset="0.5625" style="stop-color:rgb(37.438965%,37.438965%,37.438965%);stop-opacity:1;"/>
<stop offset="0.574219" style="stop-color:rgb(37.231445%,37.231445%,37.231445%);stop-opacity:1;"/>
<stop offset="0.585938" style="stop-color:rgb(37.023926%,37.023926%,37.023926%);stop-opacity:1;"/>
<stop offset="0.597656" style="stop-color:rgb(36.816406%,36.816406%,36.816406%);stop-opacity:1;"/>
<stop offset="0.609375" style="stop-color:rgb(36.608887%,36.608887%,36.608887%);stop-opacity:1;"/>
<stop offset="0.621094" style="stop-color:rgb(36.401367%,36.401367%,36.401367%);stop-opacity:1;"/>
<stop offset="0.632812" style="stop-color:rgb(36.125183%,36.125183%,36.125183%);stop-opacity:1;"/>
<stop offset="0.652344" style="stop-color:rgb(35.778809%,35.778809%,35.778809%);stop-opacity:1;"/>
<stop offset="0.671875" style="stop-color:rgb(35.43396%,35.43396%,35.43396%);stop-opacity:1;"/>
<stop offset="0.691406" style="stop-color:rgb(35.122681%,35.122681%,35.122681%);stop-opacity:1;"/>
<stop offset="0.707031" style="stop-color:rgb(34.846497%,34.846497%,34.846497%);stop-opacity:1;"/>
<stop offset="0.722656" style="stop-color:rgb(34.568787%,34.568787%,34.568787%);stop-opacity:1;"/>
<stop offset="0.738281" style="stop-color:rgb(34.292603%,34.292603%,34.292603%);stop-opacity:1;"/>
<stop offset="0.753906" style="stop-color:rgb(34.051514%,34.051514%,34.051514%);stop-opacity:1;"/>
<stop offset="0.765625" style="stop-color:rgb(33.843994%,33.843994%,33.843994%);stop-opacity:1;"/>
<stop offset="0.777344" style="stop-color:rgb(33.636475%,33.636475%,33.636475%);stop-opacity:1;"/>
<stop offset="0.789062" style="stop-color:rgb(33.428955%,33.428955%,33.428955%);stop-opacity:1;"/>
<stop offset="0.800781" style="stop-color:rgb(33.221436%,33.221436%,33.221436%);stop-opacity:1;"/>
<stop offset="0.8125" style="stop-color:rgb(33.013916%,33.013916%,33.013916%);stop-opacity:1;"/>
<stop offset="0.824219" style="stop-color:rgb(32.737732%,32.737732%,32.737732%);stop-opacity:1;"/>
<stop offset="0.84375" style="stop-color:rgb(32.391357%,32.391357%,32.391357%);stop-opacity:1;"/>
<stop offset="0.863281" style="stop-color:rgb(32.080078%,32.080078%,32.080078%);stop-opacity:1;"/>
<stop offset="0.878906" style="stop-color:rgb(31.838989%,31.838989%,31.838989%);stop-opacity:1;"/>
<stop offset="0.890625" style="stop-color:rgb(31.63147%,31.63147%,31.63147%);stop-opacity:1;"/>
<stop offset="0.902344" style="stop-color:rgb(31.42395%,31.42395%,31.42395%);stop-opacity:1;"/>
<stop offset="0.914062" style="stop-color:rgb(31.147766%,31.147766%,31.147766%);stop-opacity:1;"/>
<stop offset="0.933594" style="stop-color:rgb(30.836487%,30.836487%,30.836487%);stop-opacity:1;"/>
<stop offset="0.949219" style="stop-color:rgb(30.593872%,30.593872%,30.593872%);stop-opacity:1;"/>
<stop offset="0.960938" style="stop-color:rgb(30.317688%,30.317688%,30.317688%);stop-opacity:1;"/>
<stop offset="0.980469" style="stop-color:rgb(29.971313%,29.971313%,29.971313%);stop-opacity:1;"/>
<stop offset="1" style="stop-color:rgb(29.798889%,29.798889%,29.798889%);stop-opacity:1;"/>
</radialGradient>
</defs>
<g id="surface1">
<g clip-path="url(#clip1)" clip-rule="nonzero">
<path style=" stroke:none;fill-rule:nonzero;fill:rgb(96.078491%,73.329163%,37.649536%);fill-opacity:1;" d="M 37.402344 18.839844 C 37.402344 19.449219 37.375 20.058594 37.3125 20.667969 C 37.253906 21.277344 37.164062 21.878906 37.046875 22.480469 C 36.925781 23.078125 36.777344 23.671875 36.601562 24.253906 C 36.421875 24.839844 36.21875 25.414062 35.984375 25.980469 C 35.75 26.542969 35.488281 27.097656 35.199219 27.636719 C 34.914062 28.175781 34.597656 28.699219 34.257812 29.207031 C 33.917969 29.714844 33.554688 30.203125 33.167969 30.675781 C 32.78125 31.148438 32.371094 31.601562 31.9375 32.035156 C 31.507812 32.464844 31.054688 32.875 30.582031 33.265625 C 30.109375 33.652344 29.617188 34.015625 29.109375 34.355469 C 28.601562 34.695312 28.078125 35.007812 27.539062 35.296875 C 27 35.585938 26.449219 35.84375 25.882812 36.078125 C 25.320312 36.3125 24.746094 36.519531 24.160156 36.695312 C 23.574219 36.875 22.984375 37.023438 22.382812 37.140625 C 21.785156 37.261719 21.179688 37.351562 20.570312 37.410156 C 19.964844 37.46875 19.355469 37.5 18.742188 37.5 C 18.132812 37.5 17.523438 37.46875 16.914062 37.410156 C 16.304688 37.351562 15.703125 37.261719 15.101562 37.140625 C 14.503906 37.023438 13.910156 36.875 13.324219 36.695312 C 12.742188 36.519531 12.164062 36.3125 11.601562 36.078125 C 11.035156 35.84375 10.484375 35.585938 9.945312 35.296875 C 9.40625 35.007812 8.882812 34.695312 8.375 34.355469 C 7.867188 34.015625 7.375 33.652344 6.902344 33.265625 C 6.429688 32.875 5.980469 32.464844 5.546875 32.035156 C 5.113281 31.601562 4.703125 31.148438 4.316406 30.675781 C 3.929688 30.203125 3.566406 29.714844 3.226562 29.207031 C 2.886719 28.699219 2.574219 28.175781 2.285156 27.636719 C 1.996094 27.097656 1.734375 26.542969 1.5 25.980469 C 1.265625 25.414062 1.0625 24.839844 0.882812 24.253906 C 0.707031 23.671875 0.558594 23.078125 0.4375 22.480469 C 0.320312 21.878906 0.230469 21.277344 0.171875 20.667969 C 0.109375 20.058594 0.0820312 19.449219 0.0820312 18.839844 C 0.0820312 18.226562 0.109375 17.617188 0.171875 17.007812 C 0.230469 16.402344 0.320312 15.796875 0.4375 15.199219 C 0.558594 14.597656 0.707031 14.007812 0.882812 13.421875 C 1.0625 12.835938 1.265625 12.261719 1.5 11.695312 C 1.734375 11.132812 1.996094 10.582031 2.285156 10.042969 C 2.574219 9.503906 2.886719 8.980469 3.226562 8.46875 C 3.566406 7.960938 3.929688 7.472656 4.316406 7 C 4.703125 6.527344 5.113281 6.074219 5.546875 5.640625 C 5.980469 5.210938 6.429688 4.800781 6.902344 4.414062 C 7.375 4.023438 7.867188 3.660156 8.375 3.320312 C 8.882812 2.980469 9.40625 2.667969 9.945312 2.378906 C 10.484375 2.09375 11.035156 1.832031 11.601562 1.597656 C 12.164062 1.363281 12.742188 1.15625 13.324219 0.980469 C 13.910156 0.804688 14.503906 0.65625 15.101562 0.535156 C 15.703125 0.414062 16.304688 0.328125 16.914062 0.265625 C 17.523438 0.207031 18.132812 0.175781 18.742188 0.175781 C 19.355469 0.175781 19.964844 0.207031 20.570312 0.265625 C 21.179688 0.328125 21.785156 0.414062 22.382812 0.535156 C 22.984375 0.65625 23.574219 0.804688 24.160156 0.980469 C 24.746094 1.15625 25.320312 1.363281 25.882812 1.597656 C 26.449219 1.832031 27 2.09375 27.539062 2.378906 C 28.078125 2.667969 28.601562 2.980469 29.109375 3.320312 C 29.617188 3.660156 30.109375 4.023438 30.582031 4.414062 C 31.054688 4.800781 31.507812 5.210938 31.9375 5.640625 C 32.371094 6.074219 32.78125 6.527344 33.167969 7 C 33.554688 7.472656 33.917969 7.960938 34.257812 8.46875 C 34.597656 8.980469 34.914062 9.503906 35.199219 10.042969 C 35.488281 10.582031 35.75 11.132812 35.984375 11.695312 C 36.21875 12.261719 36.421875 12.835938 36.601562 13.421875 C 36.777344 14.007812 36.925781 14.597656 37.046875 15.199219 C 37.164062 15.796875 37.253906 16.402344 37.3125 17.007812 C 37.375 17.617188 37.402344 18.226562 37.402344 18.839844 Z M 37.402344 18.839844 "/>
</g>
<path style=" stroke:none;fill-rule:nonzero;fill:rgb(90.979004%,43.528748%,19.60907%);fill-opacity:1;" d="M 33.640625 16.9375 C 33.640625 17.484375 33.613281 18.035156 33.558594 18.582031 C 33.503906 19.128906 33.425781 19.671875 33.316406 20.214844 C 33.210938 20.753906 33.074219 21.285156 32.917969 21.8125 C 32.757812 22.339844 32.570312 22.855469 32.359375 23.363281 C 32.148438 23.871094 31.914062 24.371094 31.65625 24.855469 C 31.398438 25.339844 31.113281 25.8125 30.808594 26.269531 C 30.503906 26.726562 30.175781 27.167969 29.828125 27.59375 C 29.476562 28.019531 29.109375 28.425781 28.71875 28.816406 C 28.328125 29.203125 27.921875 29.574219 27.496094 29.921875 C 27.070312 30.269531 26.628906 30.597656 26.171875 30.902344 C 25.714844 31.210938 25.246094 31.492188 24.757812 31.75 C 24.273438 32.011719 23.777344 32.246094 23.269531 32.457031 C 22.761719 32.667969 22.242188 32.851562 21.714844 33.011719 C 21.191406 33.171875 20.65625 33.304688 20.117188 33.414062 C 19.578125 33.519531 19.035156 33.601562 18.488281 33.65625 C 17.9375 33.707031 17.390625 33.734375 16.839844 33.734375 C 16.289062 33.734375 15.742188 33.707031 15.191406 33.65625 C 14.644531 33.601562 14.101562 33.519531 13.5625 33.414062 C 13.023438 33.304688 12.488281 33.171875 11.964844 33.011719 C 11.4375 32.851562 10.917969 32.667969 10.410156 32.457031 C 9.902344 32.246094 9.40625 32.011719 8.921875 31.75 C 8.433594 31.492188 7.964844 31.210938 7.507812 30.902344 C 7.050781 30.597656 6.609375 30.269531 6.183594 29.921875 C 5.757812 29.574219 5.351562 29.203125 4.960938 28.816406 C 4.570312 28.425781 4.203125 28.019531 3.855469 27.59375 C 3.503906 27.167969 3.175781 26.726562 2.871094 26.269531 C 2.566406 25.8125 2.285156 25.339844 2.023438 24.855469 C 1.765625 24.371094 1.53125 23.871094 1.320312 23.363281 C 1.109375 22.855469 0.921875 22.339844 0.765625 21.8125 C 0.605469 21.285156 0.46875 20.753906 0.363281 20.214844 C 0.257812 19.671875 0.175781 19.128906 0.121094 18.582031 C 0.0664062 18.035156 0.0390625 17.484375 0.0390625 16.9375 C 0.0390625 16.386719 0.0664062 15.835938 0.121094 15.289062 C 0.175781 14.742188 0.257812 14.199219 0.363281 13.660156 C 0.46875 13.117188 0.605469 12.585938 0.765625 12.058594 C 0.921875 11.53125 1.109375 11.015625 1.320312 10.507812 C 1.53125 10 1.765625 9.5 2.023438 9.015625 C 2.285156 8.53125 2.566406 8.058594 2.871094 7.601562 C 3.175781 7.144531 3.503906 6.703125 3.855469 6.277344 C 4.203125 5.851562 4.570312 5.445312 4.960938 5.058594 C 5.351562 4.667969 5.757812 4.296875 6.183594 3.949219 C 6.609375 3.601562 7.050781 3.273438 7.507812 2.96875 C 7.964844 2.660156 8.433594 2.378906 8.921875 2.121094 C 9.40625 1.859375 9.902344 1.625 10.410156 1.414062 C 10.917969 1.203125 11.4375 1.019531 11.964844 0.859375 C 12.488281 0.699219 13.023438 0.566406 13.5625 0.460938 C 14.101562 0.351562 14.644531 0.269531 15.191406 0.21875 C 15.742188 0.164062 16.289062 0.136719 16.839844 0.136719 C 17.390625 0.136719 17.9375 0.164062 18.488281 0.21875 C 19.035156 0.269531 19.578125 0.351562 20.117188 0.460938 C 20.65625 0.566406 21.191406 0.699219 21.714844 0.859375 C 22.242188 1.019531 22.761719 1.203125 23.269531 1.414062 C 23.777344 1.625 24.273438 1.859375 24.757812 2.121094 C 25.246094 2.378906 25.714844 2.660156 26.171875 2.96875 C 26.628906 3.273438 27.070312 3.601562 27.496094 3.949219 C 27.921875 4.296875 28.328125 4.667969 28.71875 5.058594 C 29.109375 5.445312 29.476562 5.851562 29.828125 6.277344 C 30.175781 6.703125 30.503906 7.144531 30.808594 7.601562 C 31.113281 8.058594 31.398438 8.53125 31.65625 9.015625 C 31.914062 9.5 32.148438 10 32.359375 10.507812 C 32.570312 11.015625 32.757812 11.53125 32.917969 12.058594 C 33.074219 12.585938 33.210938 13.117188 33.316406 13.660156 C 33.425781 14.199219 33.503906 14.742188 33.558594 15.289062 C 33.613281 15.835938 33.640625 16.386719 33.640625 16.9375 Z M 33.640625 16.9375 "/>
<path style=" stroke:none;fill-rule:nonzero;fill:rgb(89.7995%,23.919678%,25.878906%);fill-opacity:1;" d="M 33.640625 14.710938 C 33.640625 15.667969 33.546875 16.613281 33.359375 17.550781 C 33.171875 18.492188 32.894531 19.402344 32.53125 20.285156 C 32.164062 21.171875 31.714844 22.011719 31.183594 22.804688 C 30.652344 23.601562 30.046875 24.335938 29.371094 25.015625 C 28.695312 25.691406 27.957031 26.292969 27.164062 26.828125 C 26.367188 27.359375 25.527344 27.808594 24.644531 28.171875 C 23.757812 28.539062 22.847656 28.816406 21.910156 29.003906 C 20.972656 29.1875 20.023438 29.28125 19.066406 29.28125 C 18.109375 29.28125 17.160156 29.1875 16.222656 29.003906 C 15.285156 28.816406 14.375 28.539062 13.488281 28.171875 C 12.605469 27.808594 11.765625 27.359375 10.96875 26.828125 C 10.175781 26.292969 9.4375 25.691406 8.761719 25.015625 C 8.085938 24.335938 7.480469 23.601562 6.949219 22.804688 C 6.417969 22.011719 5.96875 21.171875 5.601562 20.285156 C 5.238281 19.402344 4.960938 18.492188 4.773438 17.550781 C 4.585938 16.613281 4.492188 15.667969 4.492188 14.710938 C 4.492188 13.753906 4.585938 12.804688 4.773438 11.867188 C 4.960938 10.929688 5.238281 10.015625 5.601562 9.132812 C 5.96875 8.25 6.417969 7.410156 6.949219 6.613281 C 7.480469 5.816406 8.085938 5.082031 8.761719 4.40625 C 9.4375 3.726562 10.175781 3.125 10.96875 2.59375 C 11.765625 2.0625 12.605469 1.613281 13.488281 1.246094 C 14.375 0.878906 15.285156 0.601562 16.222656 0.417969 C 17.160156 0.230469 18.109375 0.136719 19.066406 0.136719 C 20.023438 0.136719 20.972656 0.230469 21.910156 0.417969 C 22.847656 0.601562 23.757812 0.878906 24.644531 1.246094 C 25.527344 1.613281 26.367188 2.0625 27.164062 2.59375 C 27.957031 3.125 28.695312 3.726562 29.371094 4.40625 C 30.046875 5.082031 30.652344 5.816406 31.183594 6.613281 C 31.714844 7.410156 32.164062 8.25 32.53125 9.132812 C 32.894531 10.015625 33.171875 10.929688 33.359375 11.867188 C 33.546875 12.804688 33.640625 13.753906 33.640625 14.710938 Z M 33.640625 14.710938 "/>
<path style=" stroke:none;fill-rule:nonzero;fill:rgb(74.899292%,81.959534%,25.489807%);fill-opacity:1;" d="M 33.640625 15.882812 C 33.640625 16.761719 33.554688 17.632812 33.382812 18.496094 C 33.210938 19.359375 32.957031 20.199219 32.621094 21.011719 C 32.28125 21.824219 31.871094 22.597656 31.382812 23.328125 C 30.890625 24.058594 30.335938 24.734375 29.714844 25.359375 C 29.09375 25.980469 28.414062 26.535156 27.683594 27.023438 C 26.953125 27.511719 26.179688 27.925781 25.367188 28.261719 C 24.554688 28.597656 23.71875 28.851562 22.855469 29.023438 C 21.992188 29.195312 21.121094 29.28125 20.242188 29.28125 C 19.359375 29.28125 18.488281 29.195312 17.625 29.023438 C 16.761719 28.851562 15.925781 28.597656 15.113281 28.261719 C 14.300781 27.925781 13.527344 27.511719 12.796875 27.023438 C 12.066406 26.535156 11.386719 25.980469 10.765625 25.359375 C 10.144531 24.734375 9.589844 24.058594 9.097656 23.328125 C 8.609375 22.597656 8.199219 21.824219 7.859375 21.011719 C 7.523438 20.199219 7.269531 19.359375 7.097656 18.496094 C 6.925781 17.632812 6.839844 16.761719 6.839844 15.882812 C 6.839844 15.003906 6.925781 14.132812 7.097656 13.269531 C 7.269531 12.40625 7.523438 11.570312 7.859375 10.753906 C 8.199219 9.941406 8.609375 9.171875 9.097656 8.4375 C 9.589844 7.707031 10.144531 7.03125 10.765625 6.410156 C 11.386719 5.785156 12.066406 5.230469 12.796875 4.742188 C 13.527344 4.253906 14.300781 3.839844 15.113281 3.503906 C 15.925781 3.167969 16.761719 2.914062 17.625 2.742188 C 18.488281 2.570312 19.359375 2.484375 20.242188 2.484375 C 21.121094 2.484375 21.992188 2.570312 22.855469 2.742188 C 23.71875 2.914062 24.554688 3.167969 25.367188 3.503906 C 26.179688 3.839844 26.953125 4.253906 27.683594 4.742188 C 28.414062 5.230469 29.09375 5.785156 29.714844 6.410156 C 30.335938 7.03125 30.890625 7.707031 31.382812 8.4375 C 31.871094 9.171875 32.28125 9.941406 32.621094 10.753906 C 32.957031 11.570312 33.210938 12.40625 33.382812 13.269531 C 33.554688 14.132812 33.640625 15.003906 33.640625 15.882812 Z M 33.640625 15.882812 "/>
<path style=" stroke:none;fill-rule:nonzero;fill:rgb(42.749023%,71.369934%,29.798889%);fill-opacity:1;" d="M 31.695312 16.855469 C 31.695312 17.671875 31.617188 18.480469 31.457031 19.277344 C 31.296875 20.078125 31.0625 20.855469 30.75 21.609375 C 30.4375 22.363281 30.054688 23.082031 29.601562 23.757812 C 29.148438 24.4375 28.632812 25.066406 28.054688 25.640625 C 27.480469 26.21875 26.851562 26.734375 26.171875 27.1875 C 25.496094 27.640625 24.777344 28.023438 24.023438 28.335938 C 23.269531 28.648438 22.492188 28.882812 21.691406 29.042969 C 20.894531 29.203125 20.085938 29.28125 19.269531 29.28125 C 18.453125 29.28125 17.644531 29.203125 16.84375 29.042969 C 16.042969 28.882812 15.265625 28.648438 14.511719 28.335938 C 13.757812 28.023438 13.042969 27.640625 12.363281 27.1875 C 11.6875 26.734375 11.058594 26.21875 10.480469 25.640625 C 9.902344 25.066406 9.390625 24.4375 8.9375 23.757812 C 8.480469 23.082031 8.097656 22.363281 7.789062 21.609375 C 7.476562 20.855469 7.238281 20.078125 7.078125 19.277344 C 6.921875 18.480469 6.839844 17.671875 6.839844 16.855469 C 6.839844 16.039062 6.921875 15.230469 7.078125 14.429688 C 7.238281 13.628906 7.476562 12.851562 7.789062 12.097656 C 8.097656 11.34375 8.480469 10.628906 8.9375 9.949219 C 9.390625 9.273438 9.902344 8.644531 10.480469 8.066406 C 11.058594 7.488281 11.6875 6.976562 12.363281 6.523438 C 13.042969 6.066406 13.757812 5.683594 14.511719 5.375 C 15.265625 5.0625 16.042969 4.824219 16.84375 4.664062 C 17.644531 4.507812 18.453125 4.425781 19.269531 4.425781 C 20.085938 4.425781 20.894531 4.507812 21.691406 4.664062 C 22.492188 4.824219 23.269531 5.0625 24.023438 5.375 C 24.777344 5.683594 25.496094 6.066406 26.171875 6.523438 C 26.851562 6.976562 27.480469 7.488281 28.054688 8.066406 C 28.632812 8.644531 29.148438 9.273438 29.601562 9.949219 C 30.054688 10.628906 30.4375 11.34375 30.75 12.097656 C 31.0625 12.851562 31.296875 13.628906 31.457031 14.429688 C 31.617188 15.230469 31.695312 16.039062 31.695312 16.855469 Z M 31.695312 16.855469 "/>
<path style=" stroke:none;fill-rule:nonzero;fill:rgb(68.629456%,85.879517%,90.589905%);fill-opacity:1;" d="M 27.730469 14.910156 C 27.730469 15.597656 27.664062 16.277344 27.527344 16.949219 C 27.394531 17.621094 27.195312 18.273438 26.933594 18.910156 C 26.671875 19.542969 26.351562 20.144531 25.96875 20.714844 C 25.589844 21.285156 25.15625 21.8125 24.671875 22.296875 C 24.183594 22.78125 23.65625 23.214844 23.085938 23.597656 C 22.515625 23.976562 21.914062 24.296875 21.28125 24.5625 C 20.648438 24.824219 19.996094 25.019531 19.324219 25.15625 C 18.648438 25.289062 17.972656 25.355469 17.285156 25.355469 C 16.597656 25.355469 15.921875 25.289062 15.246094 25.15625 C 14.574219 25.019531 13.921875 24.824219 13.289062 24.5625 C 12.65625 24.296875 12.054688 23.976562 11.484375 23.597656 C 10.914062 23.214844 10.386719 22.78125 9.898438 22.296875 C 9.414062 21.8125 8.980469 21.285156 8.601562 20.714844 C 8.21875 20.144531 7.898438 19.542969 7.636719 18.910156 C 7.375 18.273438 7.175781 17.621094 7.042969 16.949219 C 6.90625 16.277344 6.839844 15.597656 6.839844 14.910156 C 6.839844 14.226562 6.90625 13.546875 7.042969 12.875 C 7.175781 12.203125 7.375 11.546875 7.636719 10.914062 C 7.898438 10.28125 8.21875 9.679688 8.601562 9.109375 C 8.980469 8.539062 9.414062 8.011719 9.898438 7.527344 C 10.386719 7.042969 10.914062 6.609375 11.484375 6.226562 C 12.054688 5.847656 12.65625 5.523438 13.289062 5.261719 C 13.921875 5 14.574219 4.800781 15.246094 4.667969 C 15.921875 4.535156 16.597656 4.46875 17.285156 4.46875 C 17.972656 4.46875 18.648438 4.535156 19.324219 4.667969 C 19.996094 4.800781 20.648438 5 21.28125 5.261719 C 21.914062 5.523438 22.515625 5.847656 23.085938 6.226562 C 23.65625 6.609375 24.183594 7.042969 24.671875 7.527344 C 25.15625 8.011719 25.589844 8.539062 25.96875 9.109375 C 26.351562 9.679688 26.671875 10.28125 26.933594 10.914062 C 27.195312 11.546875 27.394531 12.203125 27.527344 12.875 C 27.664062 13.546875 27.730469 14.226562 27.730469 14.910156 Z M 27.730469 14.910156 "/>
<path style=" stroke:none;fill-rule:nonzero;fill:rgb(34.118652%,72.938538%,87.449646%);fill-opacity:1;" d="M 27.730469 13.171875 C 27.730469 13.746094 27.671875 14.3125 27.5625 14.878906 C 27.449219 15.441406 27.285156 15.988281 27.0625 16.515625 C 26.84375 17.046875 26.574219 17.550781 26.253906 18.027344 C 25.9375 18.507812 25.574219 18.949219 25.167969 19.355469 C 24.761719 19.761719 24.320312 20.121094 23.84375 20.441406 C 23.367188 20.761719 22.863281 21.03125 22.332031 21.25 C 21.800781 21.46875 21.253906 21.636719 20.691406 21.746094 C 20.128906 21.859375 19.558594 21.914062 18.984375 21.914062 C 18.410156 21.914062 17.84375 21.859375 17.28125 21.746094 C 16.714844 21.636719 16.167969 21.46875 15.640625 21.25 C 15.109375 21.03125 14.605469 20.761719 14.128906 20.441406 C 13.648438 20.121094 13.207031 19.761719 12.800781 19.355469 C 12.398438 18.949219 12.035156 18.507812 11.714844 18.027344 C 11.394531 17.550781 11.125 17.046875 10.90625 16.515625 C 10.6875 15.988281 10.523438 15.441406 10.410156 14.878906 C 10.296875 14.3125 10.242188 13.746094 10.242188 13.171875 C 10.242188 12.597656 10.296875 12.027344 10.410156 11.464844 C 10.523438 10.902344 10.6875 10.355469 10.90625 9.824219 C 11.125 9.292969 11.394531 8.789062 11.714844 8.3125 C 12.035156 7.835938 12.398438 7.394531 12.800781 6.988281 C 13.207031 6.582031 13.648438 6.21875 14.128906 5.902344 C 14.605469 5.582031 15.109375 5.3125 15.640625 5.09375 C 16.167969 4.875 16.714844 4.707031 17.28125 4.59375 C 17.84375 4.484375 18.410156 4.425781 18.984375 4.425781 C 19.558594 4.425781 20.128906 4.484375 20.691406 4.59375 C 21.253906 4.707031 21.800781 4.875 22.332031 5.09375 C 22.863281 5.3125 23.367188 5.582031 23.84375 5.902344 C 24.320312 6.21875 24.761719 6.582031 25.167969 6.988281 C 25.574219 7.394531 25.9375 7.835938 26.253906 8.3125 C 26.574219 8.789062 26.84375 9.292969 27.0625 9.824219 C 27.285156 10.355469 27.449219 10.902344 27.5625 11.464844 C 27.671875 12.027344 27.730469 12.597656 27.730469 13.171875 Z M 27.730469 13.171875 "/>
<path style=" stroke:none;fill-rule:nonzero;fill:rgb(0.779724%,69.799805%,83.918762%);fill-opacity:1;" d="M 27.769531 14.265625 C 27.769531 14.769531 27.71875 15.269531 27.621094 15.765625 C 27.523438 16.261719 27.378906 16.742188 27.183594 17.207031 C 26.992188 17.675781 26.753906 18.117188 26.472656 18.539062 C 26.191406 18.957031 25.875 19.34375 25.515625 19.703125 C 25.160156 20.058594 24.769531 20.378906 24.351562 20.660156 C 23.929688 20.941406 23.488281 21.175781 23.023438 21.371094 C 22.554688 21.5625 22.074219 21.710938 21.578125 21.808594 C 21.082031 21.90625 20.582031 21.957031 20.078125 21.957031 C 19.574219 21.957031 19.074219 21.90625 18.578125 21.808594 C 18.082031 21.710938 17.601562 21.5625 17.136719 21.371094 C 16.667969 21.175781 16.226562 20.941406 15.804688 20.660156 C 15.386719 20.378906 14.996094 20.058594 14.640625 19.703125 C 14.28125 19.34375 13.964844 18.957031 13.683594 18.539062 C 13.402344 18.117188 13.164062 17.675781 12.972656 17.207031 C 12.78125 16.742188 12.632812 16.261719 12.535156 15.765625 C 12.4375 15.269531 12.386719 14.769531 12.386719 14.265625 C 12.386719 13.757812 12.4375 13.257812 12.535156 12.761719 C 12.632812 12.269531 12.78125 11.789062 12.972656 11.320312 C 13.164062 10.855469 13.402344 10.410156 13.683594 9.992188 C 13.964844 9.570312 14.28125 9.183594 14.640625 8.824219 C 14.996094 8.46875 15.386719 8.148438 15.804688 7.867188 C 16.226562 7.589844 16.667969 7.351562 17.136719 7.160156 C 17.601562 6.964844 18.082031 6.820312 18.578125 6.71875 C 19.074219 6.621094 19.574219 6.574219 20.078125 6.574219 C 20.582031 6.574219 21.082031 6.621094 21.578125 6.71875 C 22.074219 6.820312 22.554688 6.964844 23.023438 7.160156 C 23.488281 7.351562 23.929688 7.589844 24.351562 7.867188 C 24.769531 8.148438 25.160156 8.46875 25.515625 8.824219 C 25.875 9.183594 26.191406 9.570312 26.472656 9.992188 C 26.753906 10.410156 26.992188 10.855469 27.183594 11.320312 C 27.378906 11.789062 27.523438 12.269531 27.621094 12.761719 C 27.71875 13.257812 27.769531 13.757812 27.769531 14.265625 Z M 27.769531 14.265625 "/>
<g clip-path="url(#clip2)" clip-rule="nonzero">
<g clip-path="url(#clip3)" clip-rule="nonzero">
<path style=" stroke:none;fill-rule:nonzero;fill:url(#radial0);" d="M 12.386719 8.800781 L 12.386719 21.914062 L 25.503906 21.914062 L 25.503906 8.800781 Z M 12.386719 8.800781 "/>
</g>
</g>
<path style=" stroke:none;fill-rule:nonzero;fill:rgb(13.729858%,12.159729%,12.548828%);fill-opacity:1;" d="M 25.503906 15.355469 C 25.503906 15.789062 25.460938 16.214844 25.375 16.636719 C 25.292969 17.058594 25.167969 17.46875 25.003906 17.867188 C 24.839844 18.265625 24.636719 18.640625 24.398438 19 C 24.160156 19.359375 23.886719 19.691406 23.582031 19.992188 C 23.277344 20.296875 22.945312 20.570312 22.589844 20.808594 C 22.230469 21.046875 21.851562 21.25 21.453125 21.414062 C 21.058594 21.582031 20.648438 21.703125 20.222656 21.789062 C 19.800781 21.871094 19.375 21.914062 18.945312 21.914062 C 18.515625 21.914062 18.089844 21.871094 17.664062 21.789062 C 17.242188 21.703125 16.832031 21.582031 16.433594 21.414062 C 16.039062 21.25 15.660156 21.046875 15.300781 20.808594 C 14.945312 20.570312 14.613281 20.296875 14.308594 19.992188 C 14.003906 19.691406 13.730469 19.359375 13.492188 19 C 13.253906 18.640625 13.050781 18.265625 12.886719 17.867188 C 12.722656 17.46875 12.597656 17.058594 12.511719 16.636719 C 12.429688 16.214844 12.386719 15.789062 12.386719 15.355469 C 12.386719 14.925781 12.429688 14.5 12.511719 14.078125 C 12.597656 13.65625 12.722656 13.246094 12.886719 12.847656 C 13.050781 12.449219 13.253906 12.070312 13.492188 11.714844 C 13.730469 11.355469 14.003906 11.023438 14.308594 10.71875 C 14.613281 10.414062 14.945312 10.144531 15.300781 9.90625 C 15.660156 9.664062 16.039062 9.464844 16.433594 9.296875 C 16.832031 9.132812 17.242188 9.007812 17.664062 8.925781 C 18.089844 8.839844 18.515625 8.800781 18.945312 8.800781 C 19.375 8.800781 19.800781 8.839844 20.222656 8.925781 C 20.648438 9.007812 21.058594 9.132812 21.453125 9.296875 C 21.851562 9.464844 22.230469 9.664062 22.589844 9.90625 C 22.945312 10.144531 23.277344 10.414062 23.582031 10.71875 C 23.886719 11.023438 24.160156 11.355469 24.398438 11.714844 C 24.636719 12.070312 24.839844 12.449219 25.003906 12.847656 C 25.167969 13.246094 25.292969 13.65625 25.375 14.078125 C 25.460938 14.5 25.503906 14.925781 25.503906 15.355469 Z M 25.503906 15.355469 "/>
<path style=" stroke:none;fill-rule:nonzero;fill:rgb(100%,100%,100%);fill-opacity:1;" d="M 20.667969 14.496094 C 21.316406 14.789062 22.214844 14.203125 22.667969 13.1875 C 23.125 12.171875 22.96875 11.109375 22.316406 10.820312 C 21.667969 10.527344 20.769531 11.113281 20.316406 12.128906 C 19.859375 13.144531 20.015625 14.207031 20.667969 14.496094 Z M 20.667969 14.496094 "/>
</g>
</svg>
