<?xml version="1.0" encoding="UTF-8"?>
<svg xmlns="http://www.w3.org/2000/svg" xmlns:xlink="http://www.w3.org/1999/xlink" width="37.5pt" height="37.499999pt" viewBox="0 0 37.5 37.499999" version="1.2">
<defs>
<clipPath id="clip1">
  <path d="M 2.359375 11.25 L 6.46875 11.25 L 6.46875 26.25 L 2.359375 26.25 Z M 2.359375 11.25 "/>
</clipPath>
<clipPath id="clip2">
  <path d="M 31.03125 11.25 L 35.121094 11.25 L 35.121094 26.25 L 31.03125 26.25 Z M 31.03125 11.25 "/>
</clipPath>
</defs>
<g id="surface1">
<path style=" stroke:none;fill-rule:nonzero;fill:rgb(0%,0%,0%);fill-opacity:1;" d="M 7.167969 15.867188 L 9.285156 15.867188 C 10.105469 15.867188 10.71875 15.988281 11.121094 16.234375 C 11.519531 16.480469 11.722656 16.863281 11.722656 17.382812 C 11.722656 17.722656 11.632812 18.011719 11.457031 18.25 C 11.285156 18.488281 11.054688 18.644531 10.769531 18.71875 L 10.769531 18.757812 C 11.144531 18.855469 11.414062 19.023438 11.582031 19.257812 C 11.753906 19.488281 11.839844 19.789062 11.839844 20.164062 C 11.839844 20.710938 11.628906 21.144531 11.214844 21.460938 C 10.800781 21.777344 10.238281 21.9375 9.527344 21.9375 L 7.167969 21.9375 Z M 8.808594 18.195312 L 9.300781 18.195312 C 9.535156 18.195312 9.714844 18.148438 9.847656 18.054688 C 9.976562 17.957031 10.042969 17.808594 10.042969 17.617188 C 10.042969 17.277344 9.785156 17.109375 9.269531 17.109375 L 8.808594 17.109375 Z M 8.808594 19.398438 L 8.808594 20.671875 L 9.386719 20.671875 C 9.894531 20.671875 10.152344 20.457031 10.152344 20.023438 C 10.152344 19.820312 10.082031 19.667969 9.941406 19.5625 C 9.804688 19.453125 9.605469 19.398438 9.347656 19.398438 Z M 8.808594 19.398438 "/>
<path style=" stroke:none;fill-rule:nonzero;fill:rgb(0%,0%,0%);fill-opacity:1;" d="M 16.859375 20.09375 C 16.859375 20.46875 16.761719 20.800781 16.570312 21.09375 C 16.382812 21.386719 16.105469 21.613281 15.742188 21.78125 C 15.382812 21.941406 14.960938 22.023438 14.476562 22.023438 C 14.074219 22.023438 13.738281 21.992188 13.460938 21.9375 C 13.191406 21.878906 12.90625 21.78125 12.609375 21.640625 L 12.609375 20.179688 C 12.921875 20.339844 13.246094 20.464844 13.578125 20.554688 C 13.917969 20.644531 14.230469 20.6875 14.515625 20.6875 C 14.753906 20.6875 14.933594 20.644531 15.046875 20.5625 C 15.160156 20.480469 15.21875 20.371094 15.21875 20.234375 C 15.21875 20.152344 15.195312 20.078125 15.148438 20.015625 C 15.101562 19.953125 15.027344 19.890625 14.929688 19.828125 C 14.832031 19.765625 14.5625 19.636719 14.125 19.4375 C 13.730469 19.261719 13.433594 19.089844 13.234375 18.921875 C 13.035156 18.75 12.886719 18.554688 12.789062 18.335938 C 12.695312 18.117188 12.648438 17.859375 12.648438 17.5625 C 12.648438 17 12.851562 16.5625 13.257812 16.25 C 13.664062 15.9375 14.222656 15.78125 14.9375 15.78125 C 15.5625 15.78125 16.203125 15.925781 16.859375 16.21875 L 16.359375 17.484375 C 15.792969 17.222656 15.300781 17.09375 14.882812 17.09375 C 14.675781 17.09375 14.519531 17.132812 14.421875 17.210938 C 14.324219 17.285156 14.273438 17.375 14.273438 17.484375 C 14.273438 17.605469 14.335938 17.710938 14.460938 17.804688 C 14.585938 17.898438 14.917969 18.070312 15.460938 18.320312 C 15.988281 18.554688 16.351562 18.808594 16.554688 19.078125 C 16.757812 19.34375 16.859375 19.683594 16.859375 20.09375 Z M 16.859375 20.09375 "/>
<path style=" stroke:none;fill-rule:nonzero;fill:rgb(0%,0%,0%);fill-opacity:1;" d="M 23.472656 18.898438 C 23.472656 19.917969 23.21875 20.695312 22.714844 21.226562 C 22.214844 21.757812 21.484375 22.023438 20.519531 22.023438 C 19.566406 22.023438 18.835938 21.757812 18.324219 21.226562 C 17.820312 20.691406 17.566406 19.910156 17.566406 18.890625 C 17.566406 17.878906 17.820312 17.109375 18.324219 16.578125 C 18.828125 16.042969 19.5625 15.773438 20.527344 15.773438 C 21.492188 15.773438 22.222656 16.039062 22.722656 16.570312 C 23.222656 17.097656 23.472656 17.871094 23.472656 18.898438 Z M 19.292969 18.898438 C 19.292969 20.070312 19.703125 20.65625 20.519531 20.65625 C 20.9375 20.65625 21.242188 20.511719 21.441406 20.226562 C 21.644531 19.941406 21.746094 19.496094 21.746094 18.898438 C 21.746094 18.289062 21.644531 17.839844 21.441406 17.554688 C 21.238281 17.261719 20.933594 17.117188 20.527344 17.117188 C 19.703125 17.117188 19.292969 17.710938 19.292969 18.898438 Z M 19.292969 18.898438 "/>
<path style=" stroke:none;fill-rule:nonzero;fill:rgb(0%,0%,0%);fill-opacity:1;" d="M 30.339844 21.9375 L 28.191406 21.9375 L 25.980469 17.664062 L 25.941406 17.664062 C 25.992188 18.335938 26.019531 18.847656 26.019531 19.203125 L 26.019531 21.9375 L 24.566406 21.9375 L 24.566406 15.867188 L 26.707031 15.867188 L 28.917969 20.085938 L 28.941406 20.085938 C 28.898438 19.476562 28.878906 18.984375 28.878906 18.609375 L 28.878906 15.867188 L 30.339844 15.867188 Z M 30.339844 21.9375 "/>
<g clip-path="url(#clip1)" clip-rule="nonzero">
<path style=" stroke:none;fill-rule:nonzero;fill:rgb(0%,0%,0%);fill-opacity:1;" d="M 6.1875 26.230469 C 5.328125 26.230469 4.539062 25.835938 4.015625 25.148438 C 3.496094 24.460938 3.324219 23.589844 3.546875 22.753906 L 3.816406 21.746094 C 4.117188 20.628906 3.574219 19.476562 2.527344 19.007812 C 2.425781 18.960938 2.359375 18.859375 2.359375 18.75 C 2.359375 18.636719 2.425781 18.535156 2.527344 18.488281 C 3.574219 18.019531 4.117188 16.867188 3.816406 15.75 L 3.546875 14.742188 C 3.324219 13.90625 3.496094 13.035156 4.015625 12.347656 C 4.539062 11.660156 5.328125 11.265625 6.1875 11.265625 C 6.339844 11.265625 6.46875 11.394531 6.46875 11.550781 C 6.46875 11.707031 6.339844 11.835938 6.1875 11.835938 C 5.503906 11.835938 4.875 12.148438 4.460938 12.691406 C 4.046875 13.238281 3.914062 13.933594 4.089844 14.59375 L 4.359375 15.601562 C 4.6875 16.816406 4.210938 18.0625 3.214844 18.75 C 4.210938 19.433594 4.6875 20.679688 4.359375 21.894531 L 4.089844 22.902344 C 3.914062 23.566406 4.046875 24.257812 4.460938 24.804688 C 4.875 25.347656 5.503906 25.660156 6.1875 25.660156 C 6.339844 25.660156 6.46875 25.789062 6.46875 25.945312 C 6.46875 26.101562 6.339844 26.230469 6.1875 26.230469 "/>
</g>
<g clip-path="url(#clip2)" clip-rule="nonzero">
<path style=" stroke:none;fill-rule:nonzero;fill:rgb(0%,0%,0%);fill-opacity:1;" d="M 31.3125 26.230469 C 32.171875 26.230469 32.960938 25.835938 33.484375 25.148438 C 34.003906 24.460938 34.175781 23.589844 33.949219 22.753906 L 33.679688 21.746094 C 33.382812 20.628906 33.925781 19.476562 34.972656 19.007812 C 35.074219 18.960938 35.136719 18.859375 35.136719 18.75 C 35.136719 18.636719 35.074219 18.535156 34.972656 18.488281 C 33.925781 18.019531 33.382812 16.867188 33.679688 15.75 L 33.949219 14.742188 C 34.175781 13.90625 34.003906 13.035156 33.484375 12.347656 C 32.960938 11.660156 32.171875 11.265625 31.3125 11.265625 C 31.15625 11.265625 31.03125 11.394531 31.03125 11.550781 C 31.03125 11.707031 31.15625 11.835938 31.3125 11.835938 C 31.996094 11.835938 32.621094 12.148438 33.035156 12.691406 C 33.449219 13.238281 33.585938 13.933594 33.410156 14.59375 L 33.136719 15.601562 C 32.8125 16.816406 33.289062 18.0625 34.28125 18.75 C 33.289062 19.433594 32.8125 20.679688 33.136719 21.894531 L 33.410156 22.902344 C 33.585938 23.566406 33.449219 24.257812 33.035156 24.804688 C 32.621094 25.347656 31.996094 25.660156 31.3125 25.660156 C 31.15625 25.660156 31.03125 25.789062 31.03125 25.945312 C 31.03125 26.101562 31.15625 26.230469 31.3125 26.230469 "/>
</g>
</g>
</svg>
