<?xml version="1.0" encoding="UTF-8"?>
<svg xmlns="http://www.w3.org/2000/svg" xmlns:xlink="http://www.w3.org/1999/xlink" width="37.5pt" height="37.499999pt" viewBox="0 0 37.5 37.499999" version="1.2">
<defs>
<clipPath id="clip1">
  <path d="M 0 0 L 37.007812 0 L 37.007812 37.007812 L 0 37.007812 Z M 0 0 "/>
</clipPath>
</defs>
<g id="surface1">
<g clip-path="url(#clip1)" clip-rule="nonzero">
<path style=" stroke:none;fill-rule:nonzero;fill:rgb(12.548828%,76.858521%,79.60968%);fill-opacity:1;" d="M 37.125 19.125 C 37.125 19.726562 37.09375 20.328125 37.035156 20.925781 C 36.976562 21.523438 36.890625 22.121094 36.773438 22.710938 C 36.65625 23.300781 36.507812 23.882812 36.332031 24.457031 C 36.160156 25.035156 35.957031 25.601562 35.726562 26.15625 C 35.496094 26.710938 35.238281 27.257812 34.957031 27.785156 C 34.671875 28.316406 34.363281 28.832031 34.027344 29.332031 C 33.695312 29.832031 33.335938 30.316406 32.953125 30.78125 C 32.574219 31.246094 32.167969 31.691406 31.742188 32.117188 C 31.316406 32.542969 30.871094 32.949219 30.40625 33.328125 C 29.941406 33.710938 29.457031 34.070312 28.957031 34.402344 C 28.457031 34.738281 27.941406 35.046875 27.410156 35.332031 C 26.882812 35.613281 26.335938 35.871094 25.78125 36.101562 C 25.226562 36.332031 24.660156 36.535156 24.082031 36.707031 C 23.507812 36.882812 22.925781 37.03125 22.335938 37.148438 C 21.746094 37.265625 21.148438 37.351562 20.550781 37.410156 C 19.953125 37.46875 19.351562 37.5 18.75 37.5 C 18.148438 37.5 17.546875 37.46875 16.949219 37.410156 C 16.351562 37.351562 15.753906 37.265625 15.164062 37.148438 C 14.574219 37.03125 13.992188 36.882812 13.417969 36.707031 C 12.839844 36.535156 12.273438 36.332031 11.71875 36.101562 C 11.164062 35.871094 10.617188 35.613281 10.089844 35.332031 C 9.558594 35.046875 9.042969 34.738281 8.542969 34.402344 C 8.039062 34.070312 7.558594 33.710938 7.09375 33.328125 C 6.628906 32.949219 6.183594 32.542969 5.757812 32.117188 C 5.332031 31.691406 4.925781 31.246094 4.546875 30.78125 C 4.164062 30.316406 3.804688 29.832031 3.472656 29.332031 C 3.136719 28.832031 2.828125 28.316406 2.542969 27.785156 C 2.261719 27.257812 2.003906 26.710938 1.773438 26.15625 C 1.542969 25.601562 1.339844 25.035156 1.167969 24.457031 C 0.992188 23.882812 0.84375 23.300781 0.726562 22.710938 C 0.609375 22.121094 0.523438 21.523438 0.464844 20.925781 C 0.40625 20.328125 0.375 19.726562 0.375 19.125 C 0.375 18.523438 0.40625 17.921875 0.464844 17.324219 C 0.523438 16.726562 0.609375 16.128906 0.726562 15.539062 C 0.84375 14.949219 0.992188 14.367188 1.167969 13.792969 C 1.339844 13.214844 1.542969 12.648438 1.773438 12.09375 C 2.003906 11.539062 2.261719 10.992188 2.542969 10.464844 C 2.828125 9.933594 3.136719 9.417969 3.472656 8.917969 C 3.804688 8.414062 4.164062 7.933594 4.546875 7.46875 C 4.925781 7.003906 5.332031 6.558594 5.757812 6.132812 C 6.183594 5.707031 6.628906 5.300781 7.09375 4.921875 C 7.558594 4.539062 8.039062 4.179688 8.542969 3.847656 C 9.042969 3.511719 9.558594 3.203125 10.089844 2.917969 C 10.617188 2.636719 11.164062 2.378906 11.71875 2.148438 C 12.273438 1.917969 12.839844 1.714844 13.417969 1.542969 C 13.992188 1.367188 14.574219 1.21875 15.164062 1.101562 C 15.753906 0.984375 16.351562 0.898438 16.949219 0.839844 C 17.546875 0.78125 18.148438 0.75 18.75 0.75 C 19.351562 0.75 19.953125 0.78125 20.550781 0.839844 C 21.148438 0.898438 21.746094 0.984375 22.335938 1.101562 C 22.925781 1.21875 23.507812 1.367188 24.082031 1.542969 C 24.660156 1.714844 25.226562 1.917969 25.78125 2.148438 C 26.335938 2.378906 26.882812 2.636719 27.410156 2.917969 C 27.941406 3.203125 28.457031 3.511719 28.957031 3.847656 C 29.457031 4.179688 29.941406 4.539062 30.40625 4.921875 C 30.871094 5.300781 31.316406 5.707031 31.742188 6.132812 C 32.167969 6.558594 32.574219 7.003906 32.953125 7.46875 C 33.335938 7.933594 33.695312 8.414062 34.027344 8.917969 C 34.363281 9.417969 34.671875 9.933594 34.957031 10.464844 C 35.238281 10.992188 35.496094 11.539062 35.726562 12.09375 C 35.957031 12.648438 36.160156 13.214844 36.332031 13.792969 C 36.507812 14.367188 36.65625 14.949219 36.773438 15.539062 C 36.890625 16.128906 36.976562 16.726562 37.035156 17.324219 C 37.09375 17.921875 37.125 18.523438 37.125 19.125 Z M 37.125 19.125 "/>
</g>
<path style=" stroke:none;fill-rule:nonzero;fill:rgb(100%,100%,100%);fill-opacity:1;" d="M 23.511719 22.199219 C 22.761719 23.023438 21.710938 23.4375 21.226562 23.4375 C 20.664062 23.4375 20.363281 23.101562 20.289062 22.574219 C 20.25 22.386719 20.289062 22.164062 20.324219 21.976562 C 20.511719 20.8125 20.925781 20.0625 20.925781 19.875 C 20.925781 19.800781 20.886719 19.761719 20.851562 19.761719 C 20.476562 19.761719 19.199219 21.074219 19.011719 21.9375 L 18.863281 22.648438 C 18.75 23.136719 18.300781 23.4375 17.960938 23.4375 C 17.8125 23.4375 17.699219 23.363281 17.664062 23.175781 C 17.664062 23.101562 17.664062 23.023438 17.664062 22.949219 L 17.738281 22.574219 C 17.0625 23.101562 16.3125 23.4375 15.976562 23.4375 C 15.488281 23.4375 15.226562 23.175781 15.148438 22.800781 C 14.851562 23.210938 14.4375 23.4375 13.988281 23.4375 C 13.425781 23.4375 12.898438 23.0625 12.636719 22.5 C 12.261719 22.914062 11.8125 23.324219 11.289062 23.664062 C 10.5 24.148438 9.636719 24.5625 8.625 24.5625 C 7.6875 24.5625 6.863281 24.074219 6.449219 23.664062 C 5.773438 23.0625 5.4375 22.125 5.324219 21.300781 C 4.988281 18.675781 6.601562 15.1875 9.113281 13.6875 C 9.675781 13.351562 10.3125 13.164062 10.914062 13.164062 C 12.113281 13.164062 13.011719 14.023438 13.125 15.039062 C 13.238281 15.976562 12.863281 16.761719 11.851562 17.25 C 11.324219 17.511719 11.0625 17.511719 10.988281 17.363281 C 10.949219 17.289062 10.949219 17.136719 11.0625 17.0625 C 12.039062 16.273438 12.039062 15.601562 11.925781 14.664062 C 11.851562 14.0625 11.476562 13.6875 11.023438 13.6875 C 9.074219 13.6875 6.375 17.925781 6.75 21 C 6.898438 22.199219 7.648438 23.585938 9.148438 23.585938 C 9.636719 23.585938 10.199219 23.4375 10.648438 23.210938 C 11.476562 22.800781 11.960938 22.460938 12.414062 21.898438 C 12.300781 20.476562 13.539062 18.675781 15.335938 18.675781 C 16.125 18.675781 16.761719 18.976562 16.835938 19.613281 C 16.949219 20.398438 16.273438 20.550781 16.011719 20.550781 C 15.789062 20.550781 15.449219 20.476562 15.414062 20.289062 C 15.375 20.0625 15.898438 20.175781 15.824219 19.6875 C 15.789062 19.386719 15.449219 19.273438 15.148438 19.273438 C 14.023438 19.273438 13.386719 20.851562 13.5 21.824219 C 13.539062 22.273438 13.800781 22.726562 14.175781 22.726562 C 14.511719 22.726562 15 22.238281 15.148438 21.5625 C 15.261719 21.074219 15.710938 20.773438 16.050781 20.773438 C 16.238281 20.773438 16.351562 20.851562 16.351562 21.039062 C 16.351562 21.113281 16.351562 21.1875 16.351562 21.261719 C 16.3125 21.449219 16.164062 22.164062 16.164062 22.273438 C 16.164062 22.386719 16.238281 22.574219 16.460938 22.574219 C 16.648438 22.574219 17.25 22.238281 17.851562 21.710938 C 18.039062 20.773438 18.261719 19.613281 18.261719 19.539062 C 18.335938 19.164062 18.488281 18.75 19.238281 18.75 C 19.386719 18.75 19.5 18.824219 19.539062 19.011719 C 19.539062 19.085938 19.539062 19.164062 19.539062 19.238281 L 19.351562 20.25 C 20.023438 19.351562 21.074219 18.675781 21.710938 18.675781 C 21.976562 18.675781 22.199219 18.824219 22.238281 19.085938 C 22.273438 19.238281 22.199219 19.5 22.125 19.800781 C 21.898438 20.398438 21.636719 21.335938 21.488281 22.125 C 21.449219 22.3125 21.523438 22.539062 21.824219 22.539062 C 22.085938 22.539062 22.875 22.238281 23.511719 21.375 C 23.511719 21.261719 23.511719 21.148438 23.511719 21 C 23.511719 20.324219 23.550781 19.800781 23.699219 19.386719 C 23.8125 18.976562 24.335938 18.601562 24.675781 18.601562 C 24.863281 18.601562 24.976562 18.710938 24.976562 18.898438 C 24.976562 18.976562 24.976562 19.050781 24.9375 19.125 C 24.710938 19.835938 24.5625 20.476562 24.5625 21.113281 C 24.5625 21.488281 24.636719 22.050781 24.710938 22.351562 C 24.710938 22.425781 24.75 22.460938 24.824219 22.460938 C 24.9375 22.460938 25.6875 21.75 26.210938 20.851562 C 25.726562 20.550781 25.460938 19.988281 25.460938 19.3125 C 25.460938 18.1875 26.136719 17.585938 26.8125 17.585938 C 27.335938 17.585938 27.789062 17.960938 27.789062 18.710938 C 27.789062 19.199219 27.601562 19.726562 27.335938 20.25 C 27.335938 20.25 27.449219 20.25 27.488281 20.25 C 27.898438 20.25 28.199219 20.0625 28.386719 19.835938 C 28.460938 19.761719 28.539062 19.6875 28.613281 19.648438 C 29.136719 19.011719 29.925781 18.5625 30.824219 18.5625 C 31.613281 18.5625 32.25 18.863281 32.324219 19.5 C 32.4375 20.289062 31.726562 20.476562 31.5 20.476562 C 31.273438 20.476562 30.898438 20.398438 30.898438 20.210938 C 30.863281 20.023438 31.386719 20.101562 31.351562 19.613281 C 31.3125 19.3125 30.976562 19.164062 30.675781 19.164062 C 29.625 19.164062 28.914062 20.550781 29.023438 21.710938 C 29.0625 22.164062 29.289062 22.613281 29.699219 22.613281 C 30.039062 22.613281 30.523438 22.125 30.710938 21.449219 C 30.824219 21 31.273438 20.664062 31.613281 20.664062 C 31.761719 20.664062 31.914062 20.738281 31.914062 20.925781 C 31.914062 21.039062 31.875 21.226562 31.726562 21.976562 C 31.648438 22.273438 31.648438 22.574219 31.648438 22.761719 C 31.726562 23.210938 31.914062 23.511719 32.101562 23.699219 C 32.175781 23.773438 32.210938 23.851562 32.210938 23.886719 C 32.210938 24 32.136719 24.113281 31.988281 24.113281 C 31.949219 24.113281 31.875 24.113281 31.835938 24.074219 C 31.011719 23.738281 30.675781 23.175781 30.601562 22.6875 C 30.300781 23.101562 29.886719 23.289062 29.4375 23.289062 C 28.726562 23.289062 28.011719 22.648438 27.898438 21.824219 C 27.863281 21.488281 27.898438 21.113281 28.011719 20.773438 C 27.710938 20.960938 27.414062 21.074219 27.113281 21.074219 C 27 21.074219 26.925781 21.074219 26.851562 21.074219 C 26.136719 22.085938 25.386719 22.800781 24.824219 23.136719 C 24.601562 23.25 24.375 23.324219 24.226562 23.324219 C 24.113281 23.324219 23.960938 23.289062 23.886719 23.175781 C 23.664062 23.023438 23.550781 22.648438 23.511719 22.199219 Z M 26.0625 18.824219 C 26.0625 19.273438 26.289062 19.726562 26.550781 20.023438 C 26.664062 19.726562 26.738281 19.425781 26.738281 19.125 C 26.738281 18.5625 26.511719 18.300781 26.363281 18.300781 C 26.136719 18.300781 26.0625 18.601562 26.0625 18.824219 Z M 26.0625 18.824219 "/>
</g>
</svg>
