<?xml version="1.0" encoding="UTF-8"?>
<svg xmlns="http://www.w3.org/2000/svg" xmlns:xlink="http://www.w3.org/1999/xlink" width="37.5pt" height="37.499999pt" viewBox="0 0 37.5 37.499999" version="1.2">
<defs>
<clipPath id="clip1">
  <path d="M 23 14 L 34.671875 14 L 34.671875 16 L 23 16 Z M 23 14 "/>
</clipPath>
<clipPath id="clip2">
  <path d="M 31 5 L 34.671875 5 L 34.671875 16 L 31 16 Z M 31 5 "/>
</clipPath>
<clipPath id="clip3">
  <path d="M 23 21 L 34.671875 21 L 34.671875 23 L 23 23 Z M 23 21 "/>
</clipPath>
<clipPath id="clip4">
  <path d="M 31 21 L 34.671875 21 L 34.671875 32 L 31 32 Z M 31 21 "/>
</clipPath>
<clipPath id="clip5">
  <path d="M 3.171875 14 L 15 14 L 15 16 L 3.171875 16 Z M 3.171875 14 "/>
</clipPath>
<clipPath id="clip6">
  <path d="M 3.171875 5 L 8 5 L 8 16 L 3.171875 16 Z M 3.171875 5 "/>
</clipPath>
<clipPath id="clip7">
  <path d="M 3.171875 21 L 15 21 L 15 23 L 3.171875 23 Z M 3.171875 21 "/>
</clipPath>
<clipPath id="clip8">
  <path d="M 3.171875 21 L 8 21 L 8 32 L 3.171875 32 Z M 3.171875 21 "/>
</clipPath>
<clipPath id="clip9">
  <path d="M 11 23 L 20 23 L 20 37.007812 L 11 37.007812 Z M 11 23 "/>
</clipPath>
<clipPath id="clip10">
  <path d="M 19 23 L 27 23 L 27 37.007812 L 19 37.007812 Z M 19 23 "/>
</clipPath>
</defs>
<g id="surface1">
<g clip-path="url(#clip1)" clip-rule="nonzero">
<path style=" stroke:none;fill-rule:nonzero;fill:rgb(36.859131%,12.159729%,9.408569%);fill-opacity:1;" d="M 23.828125 15.519531 L 31.195312 14.753906 L 35.011719 15.527344 L 35.027344 15.535156 L 27.988281 15.945312 L 23.820312 15.527344 Z M 23.828125 15.519531 "/>
</g>
<path style=" stroke:none;fill-rule:nonzero;fill:rgb(54.899597%,19.219971%,13.729858%);fill-opacity:1;" d="M 23.820312 15.527344 L 31.1875 14.964844 L 31.238281 14.894531 L 31.238281 6.003906 L 31.1875 5.902344 L 23.820312 7.777344 L 23.820312 15.527344 "/>
<g clip-path="url(#clip2)" clip-rule="nonzero">
<path style=" stroke:none;fill-rule:nonzero;fill:rgb(87.838745%,32.159424%,26.269531%);fill-opacity:1;" d="M 35.027344 15.535156 L 31.1875 14.964844 L 31.1875 5.902344 L 35.027344 7.78125 L 35.027344 15.535156 "/>
</g>
<g clip-path="url(#clip3)" clip-rule="nonzero">
<path style=" stroke:none;fill-rule:nonzero;fill:rgb(94.898987%,69.018555%,66.268921%);fill-opacity:1;" d="M 23.820312 21.925781 L 23.929688 22 L 31.191406 22.484375 L 34.894531 22 L 35.027344 21.929688 L 27.988281 21.507812 L 23.820312 21.925781 "/>
</g>
<path style=" stroke:none;fill-rule:nonzero;fill:rgb(54.899597%,19.219971%,13.729858%);fill-opacity:1;" d="M 23.820312 21.925781 L 31.191406 22.464844 L 31.210938 22.492188 L 31.207031 31.488281 L 31.1875 31.539062 L 23.820312 29.679688 L 23.820312 21.925781 "/>
<g clip-path="url(#clip4)" clip-rule="nonzero">
<path style=" stroke:none;fill-rule:nonzero;fill:rgb(87.838745%,32.159424%,26.269531%);fill-opacity:1;" d="M 35.027344 21.929688 L 31.191406 22.464844 L 31.1875 31.539062 L 35.027344 29.675781 L 35.027344 21.929688 "/>
</g>
<g clip-path="url(#clip5)" clip-rule="nonzero">
<path style=" stroke:none;fill-rule:nonzero;fill:rgb(36.859131%,12.159729%,9.408569%);fill-opacity:1;" d="M 14.261719 15.515625 L 6.976562 14.90625 L 3.195312 15.519531 L 3.171875 15.535156 L 10.207031 15.945312 L 14.300781 15.535156 Z M 14.261719 15.515625 "/>
</g>
<g clip-path="url(#clip6)" clip-rule="nonzero">
<path style=" stroke:none;fill-rule:nonzero;fill:rgb(54.899597%,19.219971%,13.729858%);fill-opacity:1;" d="M 3.171875 15.535156 L 6.972656 14.992188 L 7.085938 14.914062 L 7.085938 6.007812 L 6.972656 5.902344 L 3.171875 7.78125 L 3.171875 15.535156 "/>
</g>
<path style=" stroke:none;fill-rule:nonzero;fill:rgb(87.838745%,32.159424%,26.269531%);fill-opacity:1;" d="M 14.300781 15.535156 L 6.972656 14.992188 L 6.972656 5.902344 L 14.300781 7.777344 L 14.300781 15.535156 "/>
<g clip-path="url(#clip7)" clip-rule="nonzero">
<path style=" stroke:none;fill-rule:nonzero;fill:rgb(94.898987%,69.018555%,66.268921%);fill-opacity:1;" d="M 14.300781 21.929688 L 14.132812 22.050781 L 6.972656 22.574219 L 3.292969 22.050781 L 3.171875 21.929688 L 10.207031 21.507812 L 14.300781 21.929688 "/>
</g>
<g clip-path="url(#clip8)" clip-rule="nonzero">
<path style=" stroke:none;fill-rule:nonzero;fill:rgb(54.899597%,19.219971%,13.729858%);fill-opacity:1;" d="M 3.171875 21.929688 L 6.972656 22.457031 L 7.070312 22.574219 L 7.078125 31.375 L 6.972656 31.539062 L 3.171875 29.675781 L 3.171875 21.929688 "/>
</g>
<path style=" stroke:none;fill-rule:nonzero;fill:rgb(87.838745%,32.159424%,26.269531%);fill-opacity:1;" d="M 14.300781 21.929688 L 6.972656 22.457031 L 6.972656 31.539062 L 14.300781 29.679688 L 14.300781 21.929688 "/>
<path style=" stroke:none;fill-rule:nonzero;fill:rgb(94.898987%,69.018555%,66.268921%);fill-opacity:1;" d="M 26.703125 23.089844 L 19.097656 22.355469 L 11.417969 23.089844 L 11.527344 23.179688 L 19.0625 24.347656 L 26.59375 23.179688 L 26.703125 23.089844 "/>
<g clip-path="url(#clip9)" clip-rule="nonzero">
<path style=" stroke:none;fill-rule:nonzero;fill:rgb(54.899597%,19.219971%,13.729858%);fill-opacity:1;" d="M 11.417969 23.089844 L 19.0625 24.183594 L 19.136719 24.285156 L 19.148438 37.300781 L 19.0625 37.445312 L 11.417969 33.707031 L 11.417969 23.089844 "/>
</g>
<g clip-path="url(#clip10)" clip-rule="nonzero">
<path style=" stroke:none;fill-rule:nonzero;fill:rgb(87.838745%,32.159424%,26.269531%);fill-opacity:1;" d="M 26.703125 23.089844 L 19.0625 24.183594 L 19.0625 37.445312 L 26.703125 33.707031 L 26.703125 23.089844 "/>
</g>
<path style=" stroke:none;fill-rule:nonzero;fill:rgb(36.859131%,12.159729%,9.408569%);fill-opacity:1;" d="M 19.097656 15.089844 L 11.417969 14.367188 L 11.4375 14.355469 L 19.058594 13.199219 L 26.679688 14.359375 L 26.703125 14.367188 Z M 19.097656 15.089844 "/>
<path style=" stroke:none;fill-rule:nonzero;fill:rgb(54.899597%,19.219971%,13.729858%);fill-opacity:1;" d="M 11.417969 14.367188 L 19.0625 13.277344 L 19.097656 13.246094 L 19.082031 0.03125 L 19.0625 0.0117188 L 11.417969 3.75 L 11.417969 14.367188 "/>
<path style=" stroke:none;fill-rule:nonzero;fill:rgb(87.838745%,32.159424%,26.269531%);fill-opacity:1;" d="M 26.703125 14.367188 L 19.0625 13.277344 L 19.0625 0.0117188 L 26.703125 3.75 L 26.703125 14.367188 "/>
</g>
</svg>
