<?xml version="1.0" encoding="UTF-8"?>
<svg xmlns="http://www.w3.org/2000/svg" xmlns:xlink="http://www.w3.org/1999/xlink" width="37.5pt" height="37.499999pt" viewBox="0 0 37.5 37.499999" version="1.2">
<defs>
<clipPath id="clip1">
  <path d="M 0 0 L 37.007812 0 L 37.007812 37.007812 L 0 37.007812 Z M 0 0 "/>
</clipPath>
</defs>
<g id="surface1">
<g clip-path="url(#clip1)" clip-rule="nonzero">
<path style=" stroke:none;fill-rule:nonzero;fill:rgb(79.998779%,79.998779%,79.998779%);fill-opacity:1;" d="M 37.472656 12.757812 C 37.464844 12.710938 37.457031 12.667969 37.445312 12.621094 C 37.4375 12.59375 37.425781 12.570312 37.417969 12.542969 C 37.40625 12.503906 37.390625 12.464844 37.375 12.425781 C 37.367188 12.398438 37.351562 12.375 37.339844 12.347656 C 37.324219 12.3125 37.304688 12.277344 37.285156 12.242188 C 37.273438 12.214844 37.253906 12.191406 37.238281 12.167969 C 37.203125 12.109375 37.160156 12.050781 37.117188 12 C 37.089844 11.96875 37.066406 11.941406 37.035156 11.910156 C 37.015625 11.890625 36.996094 11.867188 36.972656 11.847656 C 36.941406 11.820312 36.914062 11.796875 36.878906 11.773438 C 36.855469 11.753906 36.832031 11.734375 36.808594 11.71875 C 36.796875 11.710938 36.789062 11.703125 36.78125 11.695312 L 19.644531 0.269531 C 19.371094 0.0898438 19.074219 0 18.75 0 C 18.425781 0 18.125 0.0898438 17.855469 0.269531 L 0.71875 11.695312 C 0.707031 11.703125 0.699219 11.710938 0.691406 11.714844 C 0.664062 11.734375 0.640625 11.753906 0.617188 11.773438 C 0.585938 11.796875 0.554688 11.820312 0.527344 11.847656 C 0.503906 11.867188 0.484375 11.890625 0.460938 11.910156 C 0.433594 11.9375 0.40625 11.96875 0.382812 11.996094 C 0.363281 12.019531 0.34375 12.042969 0.328125 12.070312 C 0.300781 12.101562 0.28125 12.132812 0.257812 12.167969 C 0.242188 12.191406 0.226562 12.214844 0.210938 12.242188 C 0.191406 12.277344 0.175781 12.3125 0.15625 12.347656 C 0.144531 12.375 0.132812 12.398438 0.121094 12.425781 C 0.105469 12.464844 0.09375 12.503906 0.0820312 12.542969 C 0.0703125 12.570312 0.0625 12.59375 0.0546875 12.617188 C 0.0429688 12.664062 0.0351562 12.707031 0.0273438 12.753906 C 0.0234375 12.777344 0.015625 12.800781 0.015625 12.824219 C 0.00390625 12.894531 0 12.964844 0 13.035156 L 0 24.460938 C 0 24.53125 0.00390625 24.605469 0.015625 24.671875 C 0.0195312 24.699219 0.0234375 24.71875 0.03125 24.742188 C 0.0390625 24.789062 0.046875 24.832031 0.0625 24.878906 C 0.0664062 24.902344 0.0742188 24.929688 0.0859375 24.957031 C 0.0976562 24.996094 0.109375 25.039062 0.125 25.074219 C 0.136719 25.101562 0.152344 25.125 0.160156 25.152344 C 0.179688 25.1875 0.195312 25.222656 0.21875 25.257812 C 0.230469 25.285156 0.246094 25.308594 0.261719 25.332031 C 0.285156 25.367188 0.308594 25.398438 0.332031 25.429688 C 0.351562 25.453125 0.367188 25.472656 0.390625 25.496094 C 0.414062 25.527344 0.4375 25.558594 0.46875 25.585938 C 0.492188 25.605469 0.511719 25.628906 0.535156 25.644531 C 0.566406 25.671875 0.597656 25.695312 0.625 25.722656 C 0.648438 25.742188 0.675781 25.757812 0.695312 25.777344 C 0.707031 25.78125 0.710938 25.792969 0.722656 25.796875 L 17.855469 37.230469 C 18.125 37.410156 18.425781 37.5 18.75 37.5 C 19.074219 37.5 19.375 37.410156 19.644531 37.230469 L 36.78125 25.804688 C 36.792969 25.796875 36.800781 25.789062 36.808594 25.785156 C 36.835938 25.765625 36.859375 25.746094 36.882812 25.726562 C 36.914062 25.703125 36.945312 25.679688 36.972656 25.652344 C 36.996094 25.632812 37.015625 25.609375 37.039062 25.589844 C 37.085938 25.539062 37.132812 25.488281 37.171875 25.433594 C 37.199219 25.398438 37.21875 25.367188 37.242188 25.332031 C 37.257812 25.308594 37.273438 25.285156 37.289062 25.261719 C 37.308594 25.226562 37.324219 25.1875 37.34375 25.152344 C 37.355469 25.125 37.367188 25.101562 37.378906 25.074219 C 37.394531 25.035156 37.40625 24.996094 37.417969 24.957031 C 37.429688 24.929688 37.4375 24.90625 37.445312 24.878906 C 37.457031 24.835938 37.464844 24.789062 37.472656 24.742188 C 37.476562 24.71875 37.484375 24.699219 37.484375 24.671875 C 37.496094 24.605469 37.5 24.535156 37.5 24.464844 L 37.5 13.035156 C 37.5 12.964844 37.496094 12.894531 37.484375 12.828125 C 37.480469 12.800781 37.472656 12.78125 37.46875 12.757812 Z M 18.75 22.5625 L 13.050781 18.75 L 18.75 14.9375 L 24.449219 18.75 Z M 17.136719 12.140625 L 10.152344 16.8125 L 4.511719 13.039062 L 17.136719 4.621094 Z M 7.253906 18.75 L 3.222656 21.445312 L 3.222656 16.054688 Z M 10.152344 20.691406 L 17.136719 25.363281 L 17.136719 32.878906 L 4.511719 24.460938 L 10.152344 20.6875 Z M 20.359375 25.359375 L 27.347656 20.6875 L 32.988281 24.460938 L 20.359375 32.878906 Z M 30.246094 18.75 L 34.277344 16.054688 L 34.277344 21.445312 Z M 27.347656 16.8125 L 20.359375 12.140625 L 20.359375 4.621094 L 32.988281 13.039062 Z M 27.347656 16.8125 "/>
</g>
</g>
</svg>
