<?xml version="1.0" encoding="UTF-8"?>
<svg xmlns="http://www.w3.org/2000/svg" xmlns:xlink="http://www.w3.org/1999/xlink" width="37.5pt" height="37.499999pt" viewBox="0 0 37.5 37.499999" version="1.2">
<g id="surface1">
<path style=" stroke:none;fill-rule:nonzero;fill:rgb(0%,50.19989%,100%);fill-opacity:1;" d="M 18.828125 33.691406 L 18.828125 28.175781 C 24.664062 28.175781 29.195312 22.386719 26.957031 16.246094 C 26.132812 13.988281 24.3125 12.164062 22.039062 11.34375 C 15.894531 9.117188 10.105469 13.632812 10.105469 19.46875 L 4.605469 19.46875 C 4.605469 10.164062 13.605469 2.910156 23.359375 5.957031 C 27.617188 7.296875 31.019531 10.679688 32.339844 14.9375 C 35.390625 24.695312 28.132812 33.691406 18.828125 33.691406 Z M 18.828125 33.691406 "/>
<path style=" stroke:none;fill-rule:evenodd;fill:rgb(0%,50.19989%,100%);fill-opacity:1;" d="M 13.347656 22.710938 L 18.84375 22.710938 L 18.84375 28.210938 L 13.347656 28.210938 Z M 13.347656 22.710938 "/>
<path style=" stroke:none;fill-rule:evenodd;fill:rgb(0%,50.19989%,100%);fill-opacity:1;" d="M 9.136719 28.210938 L 13.347656 28.210938 L 13.347656 32.417969 L 9.136719 32.417969 Z M 9.136719 28.210938 "/>
<path style=" stroke:none;fill-rule:evenodd;fill:rgb(0%,50.19989%,100%);fill-opacity:1;" d="M 9.136719 28.210938 L 5.605469 28.210938 L 5.605469 24.679688 L 9.136719 24.679688 Z M 9.136719 28.210938 "/>
</g>
</svg>
