<?xml version="1.0" encoding="UTF-8"?>
<svg xmlns="http://www.w3.org/2000/svg" xmlns:xlink="http://www.w3.org/1999/xlink" width="37.5pt" height="37.499999pt" viewBox="0 0 37.5 37.499999" version="1.2">
<defs>
<clipPath id="clip1">
  <path d="M 0 0 L 37.007812 0 L 37.007812 37.007812 L 0 37.007812 Z M 0 0 "/>
</clipPath>
<clipPath id="clip2">
  <path d="M 5 5 L 37.007812 5 L 37.007812 37.007812 L 5 37.007812 Z M 5 5 "/>
</clipPath>
</defs>
<g id="surface1">
<g clip-path="url(#clip1)" clip-rule="nonzero">
<path style=" stroke:none;fill-rule:nonzero;fill:rgb(94.119263%,52.938843%,1.959229%);fill-opacity:1;" d="M 37.5 35.617188 C 37.5 36.511719 36.757812 37.203125 35.898438 37.203125 L 1.601562 37.203125 C 0.695312 37.203125 0 36.46875 0 35.617188 L 0 1.585938 C 0 0.691406 0.742188 0 1.601562 0 L 35.898438 0 C 36.800781 0 37.496094 0.738281 37.496094 1.585938 L 37.496094 35.617188 Z M 37.5 35.617188 "/>
</g>
<g clip-path="url(#clip2)" clip-rule="nonzero">
<path style=" stroke:none;fill-rule:nonzero;fill:rgb(87.449646%,42.349243%,4.708862%);fill-opacity:1;" d="M 37.5 35.617188 C 37.5 36.511719 36.757812 37.203125 35.898438 37.203125 L 12.832031 37.203125 L 5.359375 29.675781 L 10.003906 22.144531 L 23.789062 5.15625 L 37.457031 19.128906 Z M 37.5 35.617188 "/>
</g>
<path style=" stroke:none;fill-rule:nonzero;fill:rgb(100%,100%,100%);fill-opacity:1;" d="M 30.792969 20.789062 L 26.847656 20.789062 L 22.667969 13.746094 C 23.597656 13.558594 24.292969 12.730469 24.292969 11.765625 L 24.292969 6.445312 C 24.292969 5.316406 23.390625 4.417969 22.25 4.417969 L 15.292969 4.417969 C 14.15625 4.417969 13.25 5.316406 13.25 6.445312 L 13.25 11.765625 C 13.25 12.753906 13.945312 13.558594 14.851562 13.746094 L 10.671875 20.8125 L 6.730469 20.8125 C 5.59375 20.8125 4.6875 21.710938 4.6875 22.839844 L 4.6875 28.15625 C 4.6875 29.285156 5.589844 30.183594 6.730469 30.183594 L 13.691406 30.183594 C 14.828125 30.183594 15.734375 29.285156 15.734375 28.15625 L 15.734375 22.839844 C 15.734375 21.710938 14.828125 20.8125 13.691406 20.8125 L 13.019531 20.8125 L 17.148438 13.8125 L 20.375 13.8125 L 24.527344 20.8125 L 23.832031 20.8125 C 22.695312 20.8125 21.789062 21.710938 21.789062 22.839844 L 21.789062 28.15625 C 21.789062 29.285156 22.695312 30.183594 23.832031 30.183594 L 30.792969 30.183594 C 31.929688 30.183594 32.835938 29.285156 32.835938 28.15625 L 32.835938 22.839844 C 32.835938 21.710938 31.929688 20.789062 30.792969 20.789062 Z M 30.792969 20.789062 "/>
</g>
</svg>
