<?xml version="1.0" encoding="UTF-8"?>
<svg xmlns="http://www.w3.org/2000/svg" xmlns:xlink="http://www.w3.org/1999/xlink" width="37.5pt" height="37.499999pt" viewBox="0 0 37.5 37.499999" version="1.2">
<defs>
<clipPath id="clip1">
  <path d="M 0 14.148438 L 37.007812 14.148438 L 37.007812 22.953125 L 0 22.953125 Z M 0 14.148438 "/>
</clipPath>
</defs>
<g id="surface1">
<g clip-path="url(#clip1)" clip-rule="nonzero">
<path style=" stroke:none;fill-rule:nonzero;fill:rgb(0%,0%,0%);fill-opacity:1;" d="M 11.480469 17.664062 C 11.910156 17.664062 12.253906 17.332031 12.253906 16.921875 C 12.253906 16.511719 11.910156 16.179688 11.480469 16.179688 C 11.054688 16.179688 10.707031 16.511719 10.707031 16.921875 C 10.707031 17.332031 11.054688 17.664062 11.480469 17.664062 Z M 37.046875 20.199219 C 36.929688 20.117188 36.835938 20.105469 36.761719 20.261719 C 35.460938 22.957031 33.269531 21.609375 33.484375 21.730469 C 33.972656 21.515625 35.25 20.535156 35.058594 19.179688 C 34.941406 18.351562 34.199219 17.984375 33.410156 18.113281 C 32.03125 18.34375 31.527344 19.765625 31.785156 21.023438 C 31.828125 21.238281 31.910156 21.417969 31.988281 21.59375 C 30.433594 22.804688 29.816406 20.507812 29.746094 20.234375 C 29.742188 20.21875 30.949219 19.257812 31.28125 16.96875 C 31.632812 14.570312 30.835938 14.136719 30.015625 14.148438 C 28.503906 14.175781 28.09375 17.199219 28.644531 19.71875 C 28.597656 19.730469 28.382812 19.84375 28.039062 19.859375 C 27.792969 19.113281 26.734375 18.460938 26.457031 18.710938 C 25.765625 19.339844 26.625 20.574219 27.230469 20.667969 C 26.867188 22.8125 24.59375 22.28125 25.015625 19.59375 C 25.757812 18.277344 26.320312 16.320312 26.21875 15.136719 C 26.183594 14.71875 25.863281 14.160156 25.128906 14.1875 C 23.722656 14.238281 23.570312 17.265625 23.734375 19.414062 C 23.726562 19.359375 23.648438 19.675781 23.074219 19.832031 C 22.9375 19.105469 21.71875 18.378906 21.433594 18.730469 C 20.894531 19.382812 21.824219 20.550781 22.265625 20.632812 C 21.902344 22.777344 19.628906 22.246094 20.050781 19.558594 C 20.792969 18.242188 21.355469 16.28125 21.253906 15.101562 C 21.21875 14.683594 20.894531 14.121094 20.164062 14.148438 C 18.757812 14.203125 18.605469 17.226562 18.769531 19.375 C 18.761719 19.320312 18.683594 19.644531 18.082031 19.800781 C 18.0625 18.859375 16.839844 18.429688 16.546875 18.730469 C 16.023438 19.261719 16.664062 20.359375 17.261719 20.632812 C 16.898438 22.777344 14.621094 22.246094 15.046875 19.558594 C 15.785156 18.242188 16.351562 16.28125 16.25 15.101562 C 16.214844 14.683594 15.890625 14.121094 15.160156 14.148438 C 13.753906 14.203125 13.640625 17.378906 13.804688 19.527344 C 13.339844 21.425781 11.789062 23.800781 11.988281 19.046875 C 12.011719 18.714844 12.03125 18.585938 11.859375 18.464844 C 11.726562 18.367188 11.433594 18.414062 11.269531 18.417969 C 11.074219 18.425781 11.023438 18.535156 10.980469 18.699219 C 10.878906 19.128906 10.863281 19.546875 10.847656 20.113281 C 10.835938 20.378906 10.816406 20.503906 10.707031 20.867188 C 10.601562 21.230469 9.992188 21.890625 9.660156 21.78125 C 9.195312 21.628906 9.347656 20.378906 9.433594 19.519531 C 9.507812 18.839844 9.273438 18.535156 8.683594 18.425781 C 8.335938 18.355469 8.125 18.367188 7.761719 18.257812 C 7.421875 18.152344 7.34375 17.535156 6.613281 17.742188 C 6.214844 17.851562 6.472656 18.664062 6.375 19.261719 C 5.90625 22.210938 4.925781 22.292969 4.46875 20.859375 C 6.519531 16.054688 5.0625 14.164062 4.210938 14.164062 C 3.320312 14.164062 2.308594 14.746094 2.738281 18.492188 C 2.527344 18.433594 2.464844 18.402344 2.234375 18.402344 C 0.941406 18.402344 0.0585938 19.40625 0.0585938 20.640625 C 0.0585938 21.875 0.941406 22.875 2.234375 22.875 C 3 22.875 3.535156 22.542969 3.941406 22.027344 C 4.207031 22.390625 4.527344 22.878906 5.117188 22.859375 C 6.875 22.792969 7.386719 19.339844 7.449219 19.148438 C 7.636719 19.175781 7.8125 19.226562 7.988281 19.253906 C 8.277344 19.296875 8.296875 19.40625 8.292969 19.683594 C 8.214844 22.035156 8.667969 22.855469 9.695312 22.855469 C 10.265625 22.855469 10.777344 22.316406 11.128906 21.933594 C 11.390625 22.453125 11.808594 22.839844 12.371094 22.855469 C 13.730469 22.886719 14.25 20.816406 14.203125 21.085938 C 14.164062 21.300781 14.644531 22.84375 16.042969 22.851562 C 17.777344 22.855469 18.097656 21.03125 18.136719 20.726562 C 18.140625 20.664062 18.144531 20.671875 18.136719 20.726562 L 18.132812 20.746094 C 18.683594 20.648438 18.96875 20.363281 18.96875 20.363281 C 18.96875 20.363281 19.410156 22.878906 21.046875 22.851562 C 22.746094 22.820312 23.066406 21.171875 23.109375 20.847656 C 23.117188 20.773438 23.117188 20.78125 23.109375 20.847656 C 23.109375 20.851562 23.109375 20.855469 23.109375 20.859375 C 23.761719 20.632812 23.933594 20.402344 23.933594 20.402344 C 23.933594 20.402344 24.285156 22.867188 26.011719 22.886719 C 27.550781 22.90625 28.125 21.398438 28.125 20.765625 C 28.386719 20.769531 28.867188 20.621094 28.855469 20.609375 C 28.855469 20.609375 29.417969 22.765625 30.992188 22.875 C 31.734375 22.925781 32.289062 22.476562 32.605469 22.273438 C 33.347656 22.847656 35.820312 23.582031 37.382812 21.046875 C 37.601562 20.683594 37.128906 20.253906 37.046875 20.199219 Z M 2.171875 22.039062 C 1.417969 22.039062 0.933594 21.371094 0.933594 20.652344 C 0.933594 19.929688 1.378906 19.261719 2.132812 19.261719 C 2.472656 19.261719 2.660156 19.296875 2.925781 19.519531 C 2.972656 19.699219 3.109375 20.117188 3.175781 20.304688 C 3.265625 20.558594 3.371094 20.777344 3.476562 21.011719 C 3.324219 21.613281 2.828125 22.039062 2.171875 22.039062 Z M 4.011719 19.539062 C 3.980469 19.492188 3.988281 19.519531 3.953125 19.476562 C 3.8125 19.117188 3.546875 18.3125 3.515625 17.398438 C 3.480469 16.363281 3.660156 15.152344 4.191406 15.152344 C 4.550781 15.152344 4.933594 17.609375 4.011719 19.539062 Z M 14.640625 18.464844 C 14.554688 17.851562 14.550781 15.117188 15.234375 15.191406 C 15.613281 15.339844 14.996094 17.917969 14.640625 18.464844 Z M 19.644531 18.464844 C 19.558594 17.851562 19.554688 15.117188 20.238281 15.191406 C 20.617188 15.339844 20 17.917969 19.644531 18.464844 Z M 24.609375 18.5 C 24.523438 17.886719 24.519531 15.15625 25.207031 15.230469 C 25.585938 15.375 24.964844 17.957031 24.609375 18.5 Z M 30.09375 15.03125 C 30.71875 14.96875 30.691406 17.589844 29.433594 19.242188 C 29.273438 18.644531 29.023438 15.238281 30.09375 15.03125 Z M 32.726562 20.667969 C 32.523438 19.695312 33.046875 19.054688 33.582031 18.988281 C 33.769531 18.957031 34.039062 19.074219 34.09375 19.292969 C 34.183594 19.699219 34.082031 20.308594 32.882812 21.078125 C 32.882812 21.085938 32.769531 20.886719 32.726562 20.667969 Z M 32.726562 20.667969 "/>
</g>
</g>
</svg>
