<?xml version="1.0" encoding="UTF-8"?>
<svg xmlns="http://www.w3.org/2000/svg" xmlns:xlink="http://www.w3.org/1999/xlink" width="37.5pt" height="37.499999pt" viewBox="0 0 37.5 37.499999" version="1.2">
<defs>
<clipPath id="clip1">
  <path d="M 23 0 L 32 0 L 32 37.007812 L 23 37.007812 Z M 23 0 "/>
</clipPath>
<clipPath id="clip2">
  <path d="M 5 0 L 14 0 L 14 37.007812 L 5 37.007812 Z M 5 0 "/>
</clipPath>
<clipPath id="clip3">
  <path d="M 13 0 L 24 0 L 24 37.007812 L 13 37.007812 Z M 13 0 "/>
</clipPath>
<clipPath id="clip4">
  <path d="M 2.148438 3 L 34.949219 3 L 34.949219 34 L 2.148438 34 Z M 2.148438 3 "/>
</clipPath>
<clipPath id="clip5">
  <path d="M 31 3 L 34.949219 3 L 34.949219 34 L 31 34 Z M 31 3 "/>
</clipPath>
</defs>
<g id="surface1">
<g clip-path="url(#clip1)" clip-rule="nonzero">
<path style=" stroke:none;fill-rule:nonzero;fill:rgb(32.159424%,58.039856%,81.17981%);fill-opacity:1;" d="M 23.324219 37.425781 L 23.773438 37.425781 L 31.109375 33.710938 L 31.230469 33.535156 L 31.230469 3.894531 L 31.109375 3.722656 L 23.773438 0.0117188 L 23.316406 0.0117188 L 23.324219 37.425781 "/>
</g>
<g clip-path="url(#clip2)" clip-rule="nonzero">
<path style=" stroke:none;fill-rule:nonzero;fill:rgb(12.159729%,35.688782%,59.609985%);fill-opacity:1;" d="M 13.773438 37.425781 L 13.320312 37.425781 L 5.988281 33.710938 L 5.839844 33.453125 L 5.765625 4.046875 L 5.988281 3.722656 L 13.320312 0.0117188 L 13.78125 0.0117188 L 13.773438 37.425781 "/>
</g>
<g clip-path="url(#clip3)" clip-rule="nonzero">
<path style=" stroke:none;fill-rule:nonzero;fill:rgb(17.649841%,44.709778%,72.158813%);fill-opacity:1;" d="M 13.332031 0.0117188 L 23.765625 0.0117188 L 23.765625 37.425781 L 13.332031 37.425781 Z M 13.332031 0.0117188 "/>
</g>
<g clip-path="url(#clip4)" clip-rule="nonzero">
<path style=" stroke:none;fill-rule:nonzero;fill:rgb(10.198975%,27.839661%,43.528748%);fill-opacity:1;" d="M 34.949219 17.878906 L 34.703125 17.820312 L 31.160156 17.488281 L 31.109375 17.515625 L 23.765625 17.214844 L 13.332031 17.214844 L 5.988281 17.515625 L 5.988281 11.847656 L 5.980469 11.851562 L 5.988281 11.832031 L 13.332031 10.113281 L 23.765625 10.113281 L 31.109375 11.832031 L 33.808594 13.285156 L 33.808594 12.351562 L 34.949219 12.226562 L 34.832031 11.992188 L 31.21875 9.378906 L 31.109375 9.414062 L 23.765625 7.113281 L 13.332031 7.113281 L 5.988281 9.414062 L 5.988281 3.722656 L 2.148438 8.273438 L 2.148438 12.25 L 2.175781 12.230469 L 3.289062 12.351562 L 3.289062 13.304688 L 2.148438 13.921875 L 2.148438 17.878906 L 2.175781 17.878906 L 3.289062 17.894531 L 3.289062 19.554688 L 2.328125 19.570312 L 2.148438 19.550781 L 2.148438 23.511719 L 3.289062 24.132812 L 3.289062 25.09375 L 2.195312 25.21875 L 2.148438 25.179688 L 2.148438 29.15625 L 5.988281 33.710938 L 5.988281 28.019531 L 13.332031 30.320312 L 23.765625 30.320312 L 31.128906 28.011719 L 31.230469 28.054688 L 34.792969 25.480469 L 34.949219 25.222656 L 33.808594 25.09375 L 33.808594 24.148438 L 33.660156 24.089844 L 31.21875 25.421875 L 31.128906 25.609375 L 23.765625 27.320312 L 13.332031 27.320312 L 5.988281 25.601562 L 5.988281 19.910156 L 13.332031 20.207031 L 13.332031 20.214844 L 23.765625 20.214844 L 31.109375 19.910156 L 31.277344 19.988281 L 34.707031 19.691406 L 34.949219 19.570312 L 33.808594 19.554688 L 33.808594 17.894531 L 34.949219 17.878906 "/>
</g>
<g clip-path="url(#clip5)" clip-rule="nonzero">
<path style=" stroke:none;fill-rule:nonzero;fill:rgb(17.649841%,44.709778%,72.158813%);fill-opacity:1;" d="M 31.109375 28.019531 L 31.109375 33.710938 L 34.949219 29.15625 L 34.949219 25.207031 L 31.132812 28.011719 L 31.109375 28.019531 M 31.109375 25.613281 L 31.132812 25.609375 L 34.949219 23.527344 L 34.949219 19.554688 L 31.109375 19.910156 L 31.109375 25.613281 M 31.132812 11.839844 L 31.109375 11.832031 L 31.109375 17.515625 L 34.949219 17.878906 L 34.949219 13.90625 L 31.132812 11.839844 M 31.132812 9.4375 L 34.949219 12.226562 L 34.949219 8.277344 L 31.109375 3.722656 L 31.109375 9.414062 L 31.132812 9.421875 L 31.132812 9.4375 "/>
</g>
</g>
</svg>
