<?xml version="1.0" encoding="UTF-8"?>
<svg xmlns="http://www.w3.org/2000/svg" xmlns:xlink="http://www.w3.org/1999/xlink" width="37.5pt" height="37.499999pt" viewBox="0 0 37.5 37.499999" version="1.2">
<defs>
<clipPath id="clip1">
  <path d="M 0 0 L 37.007812 0 L 37.007812 37.007812 L 0 37.007812 Z M 0 0 "/>
</clipPath>
</defs>
<g id="surface1">
<g clip-path="url(#clip1)" clip-rule="nonzero">
<path style=" stroke:none;fill-rule:nonzero;fill:rgb(10.978699%,10.978699%,12.548828%);fill-opacity:1;" d="M 37.371094 18.777344 C 37.371094 19.390625 37.339844 20 37.28125 20.609375 C 37.21875 21.21875 37.128906 21.820312 37.011719 22.421875 C 36.890625 23.023438 36.742188 23.617188 36.566406 24.199219 C 36.386719 24.785156 36.179688 25.363281 35.949219 25.925781 C 35.714844 26.492188 35.453125 27.046875 35.164062 27.585938 C 34.875 28.125 34.5625 28.648438 34.21875 29.15625 C 33.878906 29.667969 33.515625 30.15625 33.128906 30.628906 C 32.738281 31.105469 32.328125 31.554688 31.898438 31.988281 C 31.464844 32.421875 31.011719 32.832031 30.539062 33.21875 C 30.066406 33.609375 29.574219 33.972656 29.066406 34.3125 C 28.558594 34.652344 28.03125 34.96875 27.492188 35.253906 C 26.953125 35.542969 26.402344 35.804688 25.835938 36.039062 C 25.269531 36.273438 24.695312 36.480469 24.109375 36.65625 C 23.523438 36.835938 22.929688 36.984375 22.328125 37.101562 C 21.730469 37.222656 21.125 37.3125 20.515625 37.371094 C 19.90625 37.433594 19.296875 37.460938 18.683594 37.460938 C 18.074219 37.460938 17.460938 37.433594 16.851562 37.371094 C 16.246094 37.3125 15.640625 37.222656 15.039062 37.101562 C 14.4375 36.984375 13.847656 36.835938 13.261719 36.65625 C 12.675781 36.480469 12.101562 36.273438 11.535156 36.039062 C 10.96875 35.804688 10.417969 35.542969 9.875 35.253906 C 9.335938 34.96875 8.8125 34.652344 8.304688 34.3125 C 7.796875 33.972656 7.304688 33.609375 6.832031 33.21875 C 6.359375 32.832031 5.90625 32.421875 5.472656 31.988281 C 5.039062 31.554688 4.628906 31.105469 4.242188 30.628906 C 3.851562 30.15625 3.488281 29.667969 3.148438 29.15625 C 2.808594 28.648438 2.496094 28.125 2.207031 27.585938 C 1.917969 27.046875 1.65625 26.492188 1.421875 25.925781 C 1.1875 25.363281 0.980469 24.785156 0.804688 24.199219 C 0.625 23.617188 0.476562 23.023438 0.359375 22.421875 C 0.238281 21.820312 0.148438 21.21875 0.0898438 20.609375 C 0.03125 20 0 19.390625 0 18.777344 C 0 18.164062 0.03125 17.554688 0.0898438 16.945312 C 0.148438 16.335938 0.238281 15.730469 0.359375 15.132812 C 0.476562 14.53125 0.625 13.9375 0.804688 13.351562 C 0.980469 12.765625 1.1875 12.191406 1.421875 11.625 C 1.65625 11.0625 1.917969 10.507812 2.207031 9.96875 C 2.496094 9.429688 2.808594 8.90625 3.148438 8.394531 C 3.488281 7.886719 3.851562 7.394531 4.242188 6.921875 C 4.628906 6.449219 5.039062 5.996094 5.472656 5.566406 C 5.90625 5.132812 6.359375 4.722656 6.832031 4.332031 C 7.304688 3.945312 7.796875 3.582031 8.304688 3.242188 C 8.8125 2.902344 9.335938 2.585938 9.875 2.296875 C 10.417969 2.011719 10.96875 1.75 11.535156 1.515625 C 12.101562 1.28125 12.675781 1.074219 13.261719 0.898438 C 13.847656 0.71875 14.4375 0.570312 15.039062 0.449219 C 15.640625 0.332031 16.246094 0.242188 16.851562 0.183594 C 17.460938 0.121094 18.074219 0.09375 18.683594 0.09375 C 19.296875 0.09375 19.90625 0.121094 20.515625 0.183594 C 21.125 0.242188 21.730469 0.332031 22.328125 0.449219 C 22.929688 0.570312 23.523438 0.71875 24.109375 0.898438 C 24.695312 1.074219 25.269531 1.28125 25.835938 1.515625 C 26.402344 1.75 26.953125 2.011719 27.492188 2.296875 C 28.03125 2.585938 28.558594 2.902344 29.066406 3.242188 C 29.574219 3.582031 30.066406 3.945312 30.539062 4.332031 C 31.011719 4.722656 31.464844 5.132812 31.898438 5.566406 C 32.328125 5.996094 32.738281 6.449219 33.128906 6.921875 C 33.515625 7.394531 33.878906 7.886719 34.21875 8.394531 C 34.5625 8.90625 34.875 9.429688 35.164062 9.96875 C 35.453125 10.507812 35.714844 11.0625 35.949219 11.625 C 36.179688 12.191406 36.386719 12.765625 36.566406 13.351562 C 36.742188 13.9375 36.890625 14.53125 37.011719 15.132812 C 37.128906 15.730469 37.21875 16.335938 37.28125 16.945312 C 37.339844 17.554688 37.371094 18.164062 37.371094 18.777344 Z M 37.371094 18.777344 "/>
</g>
<path style=" stroke:none;fill-rule:nonzero;fill:rgb(72.938538%,100%,66.268921%);fill-opacity:1;" d="M 26.148438 18.273438 L 24.066406 16.191406 L 25.136719 11.792969 L 20.675781 12.800781 L 18.65625 10.78125 L 28.644531 8.285156 Z M 26.148438 18.273438 "/>
<path style=" stroke:none;fill-rule:nonzero;fill:rgb(47.839355%,79.60968%,8.628845%);fill-opacity:1;" d="M 22.699219 32.066406 L 4.863281 14.230469 L 14.851562 11.730469 L 16.871094 13.753906 L 9.738281 15.539062 L 13.78125 19.578125 L 18.476562 18.449219 L 17.289062 23.089844 L 21.332031 27.128906 L 23.113281 19.996094 L 25.195312 22.078125 Z M 22.699219 32.066406 "/>
</g>
</svg>
