<?xml version="1.0" encoding="UTF-8"?>
<svg xmlns="http://www.w3.org/2000/svg" xmlns:xlink="http://www.w3.org/1999/xlink" width="37.5pt" height="37.499999pt" viewBox="0 0 37.5 37.499999" version="1.2">
<defs>
<clipPath id="clip1">
  <path d="M 0 7 L 37.007812 7 L 37.007812 30 L 0 30 Z M 0 7 "/>
</clipPath>
</defs>
<g id="surface1">
<g clip-path="url(#clip1)" clip-rule="nonzero">
<path style=" stroke:none;fill-rule:nonzero;fill:rgb(0%,0%,0%);fill-opacity:1;" d="M 37.5 29.054688 C 36.136719 29.402344 35.292969 29.070312 34.535156 27.933594 L 29.152344 20.488281 L 28.375 19.457031 L 22.085938 27.960938 C 21.367188 28.984375 20.613281 29.429688 19.273438 29.066406 L 27.324219 18.257812 L 19.828125 8.496094 C 21.117188 8.246094 22.007812 8.375 22.800781 9.527344 L 28.382812 17.070312 L 34.007812 9.570312 C 34.730469 8.546875 35.503906 8.15625 36.796875 8.535156 L 33.890625 12.386719 L 29.953125 17.515625 C 29.484375 18.101562 29.550781 18.5 29.980469 19.066406 Z M 0.0078125 18.078125 L 0.667969 14.839844 C 2.460938 8.429688 9.808594 5.765625 14.875 9.726562 C 17.835938 12.054688 18.574219 15.351562 18.425781 19.042969 L 1.734375 19.042969 C 1.484375 25.6875 6.265625 29.699219 12.363281 27.652344 C 14.5 26.933594 15.761719 25.257812 16.390625 23.164062 C 16.710938 22.113281 17.242188 21.949219 18.226562 22.25 C 17.722656 24.871094 16.585938 27.058594 14.183594 28.429688 C 10.597656 30.480469 5.472656 29.816406 2.777344 26.964844 C 1.171875 25.3125 0.507812 23.21875 0.210938 20.976562 C 0.164062 20.605469 0.0703125 20.253906 0 19.898438 C 0.0078125 19.292969 0.0078125 18.6875 0.0078125 18.078125 Z M 1.765625 17.632812 L 16.847656 17.632812 C 16.75 12.828125 13.757812 9.414062 9.671875 9.386719 C 5.183594 9.351562 1.960938 12.683594 1.765625 17.632812 Z M 1.765625 17.632812 "/>
</g>
</g>
</svg>
