<?xml version="1.0" encoding="UTF-8"?>
<svg xmlns="http://www.w3.org/2000/svg" xmlns:xlink="http://www.w3.org/1999/xlink" width="37.5pt" height="37.499999pt" viewBox="0 0 37.5 37.499999" version="1.2">
<defs>
<clipPath id="clip1">
  <path d="M 0 0 L 37.007812 0 L 37.007812 37.007812 L 0 37.007812 Z M 0 0 "/>
</clipPath>
</defs>
<g id="surface1">
<g clip-path="url(#clip1)" clip-rule="nonzero">
<path style=" stroke:none;fill-rule:nonzero;fill:rgb(19.999695%,60.389709%,94.119263%);fill-opacity:1;" d="M 33.296875 0 L 4.203125 0 C 1.898438 0 0 1.898438 0 4.203125 L 0 33.296875 C 0 35.601562 1.898438 37.5 4.203125 37.5 L 33.296875 37.5 C 35.601562 37.5 37.5 35.601562 37.5 33.296875 L 37.5 4.203125 C 37.5 1.898438 35.601562 0 33.296875 0 Z M 29.496094 23.796875 C 29.496094 24.148438 29.195312 24.300781 28.84375 24.449219 C 27.445312 25.054688 25.949219 25.597656 24.339844 25.597656 C 22.089844 25.597656 21.042969 24.199219 18.339844 24.199219 C 16.390625 24.199219 14.339844 24.902344 12.691406 25.648438 C 12.589844 25.699219 12.488281 25.699219 12.386719 25.746094 L 12.386719 29.546875 C 12.386719 29.699219 12.386719 29.847656 12.339844 29.949219 L 12.339844 30.050781 C 12.136719 30.753906 11.484375 31.246094 10.738281 31.246094 C 9.792969 31.246094 9.039062 30.492188 9.039062 29.546875 L 9.039062 11.25 C 8.386719 10.746094 7.945312 9.953125 7.945312 9.046875 C 7.945312 7.5 9.191406 6.246094 10.746094 6.246094 C 12.296875 6.246094 13.550781 7.492188 13.550781 9.046875 C 13.550781 9.953125 13.148438 10.746094 12.457031 11.25 L 12.457031 12.796875 C 12.605469 12.75 12.757812 12.699219 12.90625 12.597656 C 14.457031 11.945312 16.304688 11.402344 18.054688 11.402344 C 19.957031 11.402344 21.453125 11.902344 23.152344 12.546875 C 23.503906 12.699219 23.855469 12.75 24.25 12.75 C 26.148438 12.75 28.25 11.402344 28.753906 11.402344 C 29.15625 11.402344 29.507812 11.703125 29.507812 12.054688 L 29.507812 23.796875 Z M 29.496094 23.796875 "/>
</g>
</g>
</svg>
