<?xml version="1.0" encoding="UTF-8"?>
<svg xmlns="http://www.w3.org/2000/svg" xmlns:xlink="http://www.w3.org/1999/xlink" width="37.5pt" height="37.499999pt" viewBox="0 0 37.5 37.499999" version="1.2">
<defs>
<clipPath id="clip1">
  <path d="M 0 0 L 37.007812 0 L 37.007812 37.007812 L 0 37.007812 Z M 0 0 "/>
</clipPath>
</defs>
<g id="surface1">
<g clip-path="url(#clip1)" clip-rule="nonzero">
<path style=" stroke:none;fill-rule:nonzero;fill:rgb(87.059021%,29.798889%,21.179199%);fill-opacity:1;" d="M 36.792969 17.078125 L 20.417969 0.707031 C 19.476562 -0.234375 17.949219 -0.234375 17.003906 0.707031 L 13.605469 4.105469 L 17.917969 8.421875 C 18.921875 8.082031 20.070312 8.308594 20.867188 9.109375 C 21.671875 9.910156 21.898438 11.070312 21.550781 12.074219 L 25.707031 16.234375 C 26.710938 15.886719 27.871094 16.109375 28.675781 16.914062 C 29.796875 18.035156 29.796875 19.855469 28.675781 20.976562 C 27.550781 22.101562 25.734375 22.101562 24.609375 20.976562 C 23.765625 20.132812 23.558594 18.894531 23.984375 17.851562 L 20.109375 13.976562 L 20.109375 24.175781 C 20.390625 24.316406 20.644531 24.5 20.867188 24.722656 C 21.992188 25.84375 21.992188 27.660156 20.867188 28.785156 C 19.746094 29.90625 17.925781 29.90625 16.804688 28.785156 C 15.683594 27.660156 15.683594 25.84375 16.804688 24.722656 C 17.078125 24.449219 17.390625 24.242188 17.746094 24.09375 L 17.746094 13.796875 C 17.390625 13.652344 17.074219 13.445312 16.804688 13.171875 C 15.953125 12.320312 15.75 11.074219 16.1875 10.03125 L 11.933594 5.777344 L 0.707031 17.003906 C -0.234375 17.945312 -0.234375 19.476562 0.707031 20.417969 L 17.082031 36.792969 C 18.023438 37.734375 19.550781 37.734375 20.496094 36.792969 L 36.792969 20.496094 C 37.734375 19.550781 37.734375 18.023438 36.792969 17.078125 "/>
</g>
</g>
</svg>
