<?xml version="1.0" encoding="UTF-8"?>
<svg xmlns="http://www.w3.org/2000/svg" xmlns:xlink="http://www.w3.org/1999/xlink" width="37.5pt" height="37.499999pt" viewBox="0 0 37.5 37.499999" version="1.2">
<defs>
<clipPath id="clip1">
  <path d="M 0 0.511719 L 37.007812 0.511719 L 37.007812 37.007812 L 0 37.007812 Z M 0 0.511719 "/>
</clipPath>
</defs>
<g id="surface1">
<g clip-path="url(#clip1)" clip-rule="nonzero">
<path style=" stroke:none;fill-rule:nonzero;fill:rgb(8.628845%,8.628845%,7.839966%);fill-opacity:1;" d="M 18.675781 0.511719 C 8.363281 0.511719 0 9 0 19.476562 C 0 27.855469 5.351562 34.960938 12.769531 37.46875 C 13.703125 37.644531 14.046875 37.058594 14.046875 36.558594 C 14.046875 36.105469 14.03125 34.609375 14.019531 33.027344 C 8.824219 34.175781 7.730469 30.789062 7.730469 30.789062 C 6.878906 28.597656 5.65625 28.015625 5.65625 28.015625 C 3.960938 26.835938 5.785156 26.863281 5.785156 26.863281 C 7.660156 26.996094 8.648438 28.816406 8.648438 28.816406 C 10.3125 31.714844 13.015625 30.875 14.082031 30.390625 C 14.25 29.167969 14.734375 28.332031 15.265625 27.855469 C 11.117188 27.375 6.757812 25.75 6.757812 18.484375 C 6.757812 16.414062 7.488281 14.722656 8.683594 13.394531 C 8.488281 12.917969 7.847656 10.988281 8.863281 8.375 C 8.863281 8.375 10.433594 7.867188 14 10.320312 C 15.488281 9.898438 17.085938 9.6875 18.675781 9.683594 C 20.261719 9.6875 21.859375 9.898438 23.351562 10.320312 C 26.917969 7.867188 28.484375 8.375 28.484375 8.375 C 29.5 10.988281 28.859375 12.917969 28.667969 13.394531 C 29.863281 14.722656 30.589844 16.414062 30.589844 18.484375 C 30.589844 25.769531 26.21875 27.371094 22.0625 27.839844 C 22.730469 28.429688 23.328125 29.585938 23.328125 31.351562 C 23.328125 33.890625 23.304688 35.933594 23.304688 36.558594 C 23.304688 37.0625 23.640625 37.652344 24.589844 37.46875 C 32.003906 34.957031 37.347656 27.851562 37.347656 19.476562 C 37.347656 9 28.988281 0.511719 18.675781 0.511719 "/>
</g>
<path style=" stroke:none;fill-rule:nonzero;fill:rgb(8.628845%,8.628845%,7.839966%);fill-opacity:1;" d="M 6.996094 27.527344 C 6.953125 27.621094 6.808594 27.648438 6.675781 27.582031 C 6.539062 27.523438 6.460938 27.394531 6.507812 27.296875 C 6.546875 27.203125 6.691406 27.175781 6.828125 27.238281 C 6.964844 27.300781 7.042969 27.429688 6.996094 27.527344 M 7.914062 28.359375 C 7.824219 28.441406 7.648438 28.402344 7.53125 28.269531 C 7.410156 28.136719 7.386719 27.960938 7.476562 27.875 C 7.570312 27.792969 7.738281 27.832031 7.859375 27.964844 C 7.980469 28.097656 8.003906 28.273438 7.914062 28.359375 M 8.542969 29.421875 C 8.429688 29.503906 8.242188 29.429688 8.125 29.257812 C 8.011719 29.089844 8.011719 28.886719 8.128906 28.808594 C 8.246094 28.726562 8.429688 28.800781 8.546875 28.964844 C 8.660156 29.136719 8.660156 29.339844 8.542969 29.421875 M 9.609375 30.65625 C 9.507812 30.769531 9.289062 30.738281 9.128906 30.582031 C 8.964844 30.429688 8.921875 30.214844 9.023438 30.097656 C 9.125 29.984375 9.34375 30.015625 9.507812 30.171875 C 9.667969 30.324219 9.71875 30.542969 9.609375 30.65625 M 10.984375 31.074219 C 10.941406 31.222656 10.730469 31.289062 10.519531 31.226562 C 10.308594 31.160156 10.171875 30.988281 10.210938 30.835938 C 10.257812 30.6875 10.46875 30.617188 10.679688 30.683594 C 10.890625 30.75 11.03125 30.921875 10.984375 31.074219 M 12.554688 31.25 C 12.558594 31.40625 12.378906 31.535156 12.15625 31.539062 C 11.933594 31.542969 11.753906 31.417969 11.75 31.261719 C 11.75 31.105469 11.925781 30.976562 12.148438 30.972656 C 12.371094 30.96875 12.554688 31.09375 12.554688 31.25 M 14.09375 31.1875 C 14.121094 31.339844 13.964844 31.5 13.746094 31.539062 C 13.527344 31.582031 13.328125 31.484375 13.300781 31.335938 C 13.273438 31.179688 13.429688 31.023438 13.648438 30.980469 C 13.867188 30.941406 14.066406 31.035156 14.09375 31.1875 "/>
</g>
</svg>
