<?xml version="1.0" encoding="UTF-8"?>
<svg xmlns="http://www.w3.org/2000/svg" xmlns:xlink="http://www.w3.org/1999/xlink" width="37.5pt" height="37.499999pt" viewBox="0 0 37.5 37.499999" version="1.2">
<defs>
<clipPath id="clip1">
  <path d="M 9 9 L 30 9 L 30 37.007812 L 9 37.007812 Z M 9 9 "/>
</clipPath>
<clipPath id="clip2">
  <path d="M 6.035156 0 L 25 0 L 25 14 L 6.035156 14 Z M 6.035156 0 "/>
</clipPath>
<clipPath id="clip3">
  <path d="M 24 18 L 31.535156 18 L 31.535156 22 L 24 22 Z M 24 18 "/>
</clipPath>
<clipPath id="clip4">
  <path d="M 23 17 L 31.535156 17 L 31.535156 23 L 23 23 Z M 23 17 "/>
</clipPath>
</defs>
<g id="surface1">
<g clip-path="url(#clip1)" clip-rule="nonzero">
<path style=" stroke:none;fill-rule:nonzero;fill:rgb(0%,0%,0%);fill-opacity:1;" d="M 28.242188 18.933594 C 27.414062 16.5 26.148438 13.875 24.054688 12.230469 C 21.996094 10.636719 19.515625 9.992188 17.015625 9.992188 C 14.535156 9.992188 12.035156 10.621094 9.800781 11.617188 C 9.34375 11.828125 9.097656 12.335938 9.21875 12.824219 L 14.886719 36.664062 C 14.957031 36.976562 15.183594 37.257812 15.484375 37.378906 C 15.625 37.433594 15.765625 37.46875 15.90625 37.46875 C 16.082031 37.46875 16.257812 37.433594 16.417969 37.34375 C 17.597656 36.714844 18.597656 36.015625 18.949219 35.769531 C 19.339844 35.507812 19.601562 35.457031 19.953125 35.4375 C 20.710938 35.386719 21.90625 36.03125 23.597656 36.066406 C 23.964844 36.066406 24.355469 36.03125 24.757812 35.945312 C 25.886719 35.699219 26.660156 35 27.046875 34.28125 C 27.433594 33.566406 27.488281 32.882812 27.488281 32.445312 C 27.488281 32.269531 27.46875 32.128906 27.46875 32.042969 C 27.453125 31.449219 27.273438 30.941406 27.0625 30.414062 C 26.730469 29.628906 26.289062 28.824219 25.957031 28.121094 C 25.671875 27.5625 25.480469 27.019531 25.425781 26.773438 C 25.53125 26.722656 25.691406 26.652344 25.867188 26.597656 C 26.378906 26.425781 27.0625 26.265625 27.644531 26.109375 C 27.945312 26.039062 28.207031 25.953125 28.472656 25.847656 C 28.613281 25.792969 28.734375 25.722656 28.910156 25.601562 C 29 25.53125 29.105469 25.445312 29.195312 25.304688 C 29.300781 25.148438 29.386719 24.917969 29.386719 24.65625 C 29.386719 23.589844 29.054688 21.382812 28.242188 18.933594 Z M 28.242188 18.933594 "/>
</g>
<path style=" stroke:none;fill-rule:nonzero;fill:rgb(100%,100%,100%);fill-opacity:1;" d="M 23.15625 13.4375 C 21.433594 12.109375 19.304688 11.53125 17.066406 11.53125 C 14.992188 11.53125 12.84375 12.019531 10.890625 12.859375 L 16.328125 35.648438 C 17.175781 35.15625 17.859375 34.683594 18.140625 34.492188 C 18.773438 34.054688 19.425781 33.878906 20.042969 33.878906 C 21.363281 33.898438 22.472656 34.511719 23.683594 34.492188 C 23.949219 34.492188 24.214844 34.457031 24.496094 34.40625 C 25.214844 34.230469 25.53125 33.898438 25.746094 33.53125 C 25.957031 33.144531 25.992188 32.707031 25.992188 32.425781 C 25.992188 32.339844 25.992188 32.269531 25.972656 32.21875 L 25.972656 32.042969 C 25.992188 31.570312 25.515625 30.535156 25.003906 29.539062 C 24.496094 28.523438 23.933594 27.542969 23.914062 26.632812 C 23.914062 26.300781 24.019531 25.917969 24.320312 25.652344 C 24.828125 25.234375 25.570312 25.042969 26.324219 24.832031 C 26.957031 24.675781 27.609375 24.515625 27.890625 24.394531 C 27.839844 23.484375 27.523438 21.472656 26.816406 19.40625 C 26.0625 17.132812 24.847656 14.734375 23.15625 13.4375 Z M 23.15625 13.4375 "/>
<path style=" stroke:none;fill-rule:nonzero;fill:rgb(0%,0%,0%);fill-opacity:1;" d="M 25.851562 32.390625 C 23.914062 32.128906 22.578125 31.570312 21.539062 30.710938 C 20.484375 29.855469 19.726562 28.753906 18.828125 27.441406 C 18.667969 27.210938 18.722656 26.898438 18.953125 26.738281 C 19.179688 26.582031 19.496094 26.632812 19.65625 26.863281 C 20.570312 28.175781 21.292969 29.191406 22.1875 29.925781 C 23.085938 30.660156 24.195312 31.148438 26.007812 31.394531 C 26.289062 31.429688 26.484375 31.691406 26.449219 31.953125 C 26.414062 32.21875 26.203125 32.390625 25.9375 32.390625 Z M 10.273438 13.507812 C 9.765625 13.824219 9.449219 14.226562 9.132812 14.453125 C 8.796875 14.734375 8.746094 15.03125 8.726562 15.328125 C 8.726562 15.449219 8.746094 15.574219 8.816406 15.714844 C 8.867188 15.851562 9.027344 16.046875 9.289062 16.117188 C 9.730469 16.222656 10.132812 16.273438 10.523438 16.273438 L 10.714844 16.273438 Z M 10.273438 13.507812 "/>
<path style=" stroke:none;fill-rule:nonzero;fill:rgb(0%,0%,0%);fill-opacity:1;" d="M 15.0625 14.628906 C 15.484375 14.382812 16.03125 14.191406 16.523438 13.980469 C 16.628906 13.945312 16.714844 13.734375 16.679688 13.5625 C 16.664062 13.457031 16.59375 13.316406 16.539062 13.296875 C 16.136719 13.210938 15.855469 13.175781 15.34375 13.125 C 14.78125 13.054688 14.464844 13.089844 14.007812 12.878906 C 13.8125 12.789062 13.792969 12.476562 13.742188 12.265625 C 13.53125 11.476562 13.285156 10.707031 12.949219 10.042969 C 12.898438 9.921875 12.703125 9.851562 12.582031 9.972656 C 12.457031 10.078125 12.371094 10.289062 12.421875 10.515625 C 12.582031 11.304688 12.195312 12.089844 12.015625 12.808594 L 11.769531 13.210938 C 11.402344 13.527344 11.015625 13.753906 10.609375 14 C 10.222656 14.226562 9.90625 14.609375 9.519531 14.910156 C 9.324219 15.046875 9.289062 15.46875 9.464844 15.519531 C 10.117188 15.695312 10.75 15.679688 11.367188 15.589844 C 11.382812 16.359375 11.101562 17.097656 10.839844 17.742188 C 10.785156 17.882812 10.734375 17.9375 10.699219 18.042969 C 10.59375 18.285156 10.890625 18.582031 11.085938 18.546875 C 11.664062 18.445312 12.054688 17.742188 12.597656 17.097656 C 12.878906 16.761719 13.230469 16.203125 13.460938 16.222656 C 13.742188 16.222656 14.640625 16.851562 15.34375 17.304688 C 15.75 17.570312 16.082031 17.847656 16.539062 17.777344 C 16.664062 17.777344 16.734375 17.605469 16.820312 17.429688 C 16.910156 17.21875 16.222656 16.324219 16.222656 16.324219 C 15.90625 15.90625 15.289062 15.136719 15.078125 14.839844 C 14.992188 14.734375 14.957031 14.699219 15.0625 14.628906 Z M 15.0625 14.628906 "/>
<path style=" stroke:none;fill-rule:nonzero;fill:rgb(100%,82.348633%,0%);fill-opacity:1;" d="M 10.222656 14.960938 C 10.273438 15.136719 11.402344 14.910156 11.417969 14.890625 C 11.824219 14.839844 11.945312 14.769531 11.894531 15.011719 C 11.859375 15.1875 11.839844 15.433594 11.804688 15.589844 C 11.683594 16.117188 11.578125 16.484375 11.4375 16.9375 C 11.417969 16.992188 11.488281 17.007812 11.542969 16.921875 C 11.859375 16.570312 12.054688 16.308594 12.335938 15.957031 C 12.632812 15.574219 12.984375 15.066406 13.355469 15.347656 C 13.953125 15.800781 14.164062 15.921875 14.675781 16.34375 C 14.78125 16.449219 15.378906 16.796875 15.449219 16.746094 C 15.609375 16.625 14.515625 15.414062 14.09375 14.945312 C 13.792969 14.609375 13.847656 14.367188 14.128906 14.242188 C 14.429688 14.121094 15.46875 13.824219 15.449219 13.734375 C 15.429688 13.613281 14.621094 13.664062 14.269531 13.648438 C 14.078125 13.628906 13.511719 13.664062 13.390625 13.578125 C 13.285156 13.507812 13.214844 13.472656 13.109375 13.105469 L 12.6875 11.390625 C 12.632812 11.234375 12.5625 11.144531 12.492188 11.460938 C 12.441406 11.757812 12.351562 12.632812 12.316406 12.824219 C 12.28125 13 12 13.5625 12 13.5625 C 12 13.5625 11.296875 14.085938 11.121094 14.226562 C 10.910156 14.402344 10.1875 14.839844 10.222656 14.960938 Z M 10.222656 14.960938 "/>
<g clip-path="url(#clip2)" clip-rule="nonzero">
<path style=" stroke:none;fill-rule:nonzero;fill:rgb(0%,0%,0%);fill-opacity:1;" d="M 8.285156 11.6875 C 8.320312 11.898438 8.390625 12.25 8.746094 12.617188 C 9.078125 12.964844 9.554688 13.070312 9.800781 13.070312 L 9.851562 13.070312 C 10.132812 13.070312 10.257812 13.019531 10.328125 13 L 10.382812 13 C 11.136719 13 11.824219 12.667969 12.265625 12.25 C 12.632812 11.898438 12.878906 11.476562 13.039062 11.039062 C 13.179688 11.058594 13.300781 11.074219 13.425781 11.074219 C 13.742188 11.074219 14.042969 11.023438 14.339844 10.917969 C 14.585938 10.832031 14.851562 10.691406 15.097656 10.464844 C 15.183594 10.601562 15.273438 10.726562 15.359375 10.832031 C 15.644531 11.128906 15.941406 11.285156 16.207031 11.390625 L 16.242188 11.390625 C 16.539062 11.496094 16.855469 11.546875 17.15625 11.546875 C 17.738281 11.546875 18.246094 11.355469 18.652344 11.109375 C 18.988281 10.902344 19.269531 10.621094 19.496094 10.324219 C 19.621094 10.691406 19.847656 11.003906 20.113281 11.199219 C 20.519531 11.511719 20.976562 11.636719 21.414062 11.636719 C 21.90625 11.636719 22.453125 11.460938 22.894531 11.023438 C 23.773438 10.128906 24.285156 9.167969 24.285156 8.152344 C 24.285156 7.539062 24.089844 6.996094 23.878906 6.59375 C 23.667969 6.191406 23.4375 5.894531 23.261719 5.648438 C 22.929688 5.175781 22.753906 4.914062 22.628906 4.722656 C 22.507812 4.53125 22.417969 4.371094 22.242188 4.023438 C 22.222656 3.988281 22.207031 3.96875 22.207031 3.953125 C 22.699219 3.410156 22.769531 2.886719 22.789062 2.414062 C 22.769531 1.816406 22.628906 1.152344 21.960938 0.574219 L 21.90625 0.523438 L 21.835938 0.488281 C 21.46875 0.242188 21.011719 0.03125 20.464844 0.03125 C 19.902344 0.03125 19.375 0.292969 19.058594 0.574219 C 19.003906 0.628906 18.96875 0.679688 18.914062 0.730469 C 18.703125 0.574219 18.511719 0.503906 18.351562 0.453125 C 18.105469 0.382812 17.894531 0.347656 17.667969 0.347656 C 17.316406 0.347656 16.960938 0.398438 16.59375 0.574219 C 16.242188 0.714844 15.835938 0.976562 15.535156 1.414062 C 15.394531 1.082031 15.167969 0.800781 14.957031 0.679688 L 14.902344 0.644531 L 14.851562 0.609375 C 14.324219 0.292969 13.722656 0.171875 13.179688 0.171875 C 12.351562 0.171875 11.578125 0.433594 10.925781 0.871094 C 10.433594 1.203125 9.992188 1.660156 9.710938 2.238281 C 9.640625 2.203125 9.589844 2.148438 9.519531 2.132812 C 9.203125 1.992188 8.957031 1.976562 8.742188 1.957031 C 8.179688 1.976562 7.792969 2.132812 7.355469 2.394531 C 6.949219 2.65625 6.492188 3.078125 6.316406 3.796875 L 6.296875 3.882812 L 6.28125 3.96875 C 6.226562 4.476562 6.050781 5.195312 6.035156 6.050781 C 6.035156 6.4375 6.070312 6.875 6.246094 7.3125 C 6.386719 7.734375 6.667969 8.171875 7.054688 8.503906 C 7.671875 9.152344 8.25 9.605469 8.742188 10.09375 C 8.707031 10.148438 8.671875 10.21875 8.636719 10.304688 C 8.515625 10.550781 8.375 10.726562 8.285156 11.25 C 8.269531 11.390625 8.269531 11.652344 8.285156 11.6875 Z M 8.285156 11.6875 "/>
</g>
<path style=" stroke:none;fill-rule:nonzero;fill:rgb(96.078491%,51.759338%,14.898682%);fill-opacity:1;" d="M 22.296875 6.386719 C 21.625 5.441406 21.539062 5.300781 21.1875 4.582031 C 21.097656 4.40625 20.941406 4.164062 20.941406 3.863281 C 20.941406 3.636719 21.027344 3.390625 21.34375 3.09375 C 21.519531 2.917969 21.589844 2.675781 21.589844 2.414062 C 21.589844 2.097656 21.484375 1.765625 21.222656 1.554688 C 20.976562 1.363281 20.765625 1.308594 20.550781 1.308594 C 20.113281 1.308594 19.832031 1.660156 19.636719 2.042969 C 19.425781 2.449219 19.269531 2.972656 19.109375 3.445312 C 19.039062 3.636719 19.023438 3.828125 19.023438 4.023438 C 19.039062 5.476562 20.625 6.613281 20.957031 7.960938 C 20.992188 8.101562 21.011719 8.242188 21.011719 8.363281 C 21.011719 8.679688 20.90625 9.011719 20.765625 9.378906 C 20.730469 9.472656 20.714844 9.574219 20.710938 9.675781 C 20.710938 10.113281 21.117188 10.359375 21.46875 10.359375 C 21.660156 10.359375 21.890625 10.289062 22.03125 10.128906 C 22.769531 9.378906 23.050781 8.730469 23.050781 8.152344 C 23.085938 7.453125 22.648438 6.894531 22.296875 6.386719 Z M 18.40625 2.097656 C 18.386719 3.042969 17.578125 3.933594 17.597656 4.773438 C 17.597656 4.828125 17.597656 4.898438 17.613281 4.949219 C 17.753906 6.085938 18.898438 7.207031 18.917969 8.484375 C 18.917969 8.816406 18.828125 9.152344 18.632812 9.484375 C 18.371094 9.902344 17.84375 10.289062 17.246094 10.289062 C 17.085938 10.289062 16.925781 10.269531 16.75 10.199219 C 16.453125 10.078125 16.207031 9.886719 16.1875 9.535156 C 16.1875 9.464844 16.1875 9.429688 16.222656 9.359375 C 16.433594 9.027344 16.820312 9.046875 16.875 8.957031 C 17.066406 8.730469 17.191406 8.503906 17.191406 8.257812 C 17.191406 8.136719 17.15625 7.996094 17.101562 7.855469 C 16.734375 7.03125 16.257812 6.351562 15.925781 5.582031 C 15.75 5.300781 15.679688 5.019531 15.679688 4.738281 C 15.679688 3.847656 16.207031 3.042969 16.714844 2.148438 C 17.03125 1.640625 17.386719 1.539062 17.753906 1.519531 C 18.054688 1.503906 18.386719 1.660156 18.40625 2.097656 Z M 12.582031 3.269531 C 12.667969 4.25 13.546875 4.949219 14.148438 5.949219 C 14.515625 6.542969 14.851562 7.277344 14.851562 8.03125 C 14.851562 8.503906 14.710938 8.992188 14.359375 9.449219 C 14.148438 9.675781 13.796875 9.78125 13.476562 9.78125 C 13.300781 9.78125 13.144531 9.746094 13.003906 9.65625 C 12.863281 9.570312 12.757812 9.414062 12.773438 9.21875 C 12.773438 9.152344 12.792969 9.082031 12.808594 9.011719 C 12.914062 8.660156 13.003906 8.363281 13.003906 8.066406 C 13.003906 7.90625 12.984375 7.75 12.914062 7.574219 C 12.476562 6.210938 10.769531 5.144531 10.75 3.636719 C 10.75 3.480469 10.769531 3.324219 10.804688 3.164062 C 11.066406 2.132812 12.210938 1.433594 13.285156 1.433594 C 13.636719 1.433594 13.988281 1.519531 14.324219 1.710938 C 14.429688 1.78125 14.5 1.90625 14.5 2.011719 C 14.480469 2.273438 14.289062 2.394531 14.09375 2.515625 C 13.902344 2.640625 13.671875 2.726562 13.496094 2.78125 C 13.214844 2.886719 12.828125 2.953125 12.6875 3.042969 C 12.617188 3.078125 12.546875 3.09375 12.582031 3.269531 Z M 7.636719 4.109375 C 7.53125 4.652344 7.441406 5.351562 7.390625 6.070312 C 7.355469 6.648438 7.53125 7.207031 8.023438 7.609375 C 8.601562 8.242188 9.289062 8.730469 9.90625 9.414062 C 10.097656 9.640625 10.167969 9.832031 10.167969 10.058594 C 10.167969 10.199219 10.132812 10.359375 10.0625 10.515625 C 9.941406 10.707031 9.605469 11.144531 9.589844 11.460938 C 9.554688 11.671875 9.730469 11.8125 9.851562 11.828125 C 9.992188 11.863281 10.238281 11.84375 10.453125 11.8125 C 11.171875 11.671875 11.753906 11.09375 11.894531 10.480469 C 11.929688 10.339844 11.929688 10.199219 11.929688 10.078125 C 11.894531 8.449219 9.992188 7.699219 9.414062 6.488281 C 9.289062 6.226562 9.238281 5.929688 9.238281 5.597656 C 9.238281 5.160156 9.273438 4.6875 9.308594 4.234375 C 9.359375 3.691406 9.273438 2.953125 8.601562 2.972656 C 7.8125 3.007812 7.671875 3.882812 7.636719 4.109375 Z M 7.636719 4.109375 "/>
<path style=" stroke:none;fill-rule:nonzero;fill:rgb(0%,0%,0%);fill-opacity:1;" d="M 22.472656 19.476562 C 22.488281 19.476562 23.050781 19.285156 23.578125 19.285156 C 23.757812 19.285156 23.933594 19.300781 24.109375 19.390625 C 24.300781 19.476562 24.496094 19.738281 24.476562 19.984375 L 24.40625 19.984375 L 23.773438 20 L 23.703125 20.125 C 23.703125 20.125 23.683594 20.125 23.667969 20.105469 L 23.5625 20.105469 C 23.402344 20.105469 23.175781 20.140625 23 20.175781 C 22.824219 20.210938 22.699219 20.246094 22.699219 20.246094 Z M 22.472656 19.476562 "/>
<g clip-path="url(#clip3)" clip-rule="nonzero">
<path style=" stroke:none;fill-rule:nonzero;fill:rgb(50.979614%,73.728943%,0%);fill-opacity:1;" d="M 27.628906 21.839844 C 29.582031 21.839844 31.183594 21.015625 31.183594 20 C 31.183594 18.984375 29.597656 18.164062 27.628906 18.164062 C 25.675781 18.164062 24.074219 18.882812 24.074219 20 C 24.074219 21.121094 25.65625 21.839844 27.628906 21.839844 Z M 27.628906 21.839844 "/>
</g>
<g clip-path="url(#clip4)" clip-rule="nonzero">
<path style=" stroke:none;fill-rule:nonzero;fill:rgb(0%,0%,0%);fill-opacity:1;" d="M 30.335938 18.320312 C 29.617188 17.953125 28.664062 17.742188 27.628906 17.742188 C 26.589844 17.742188 25.65625 17.917969 24.933594 18.285156 C 24.214844 18.636719 23.667969 19.230469 23.667969 20 C 23.667969 20.789062 24.230469 21.367188 24.933594 21.714844 C 25.65625 22.066406 26.605469 22.257812 27.628906 22.257812 C 28.664062 22.257812 29.617188 22.050781 30.335938 21.679688 C 31.042969 21.3125 31.585938 20.753906 31.605469 20 C 31.585938 19.25 31.042969 18.6875 30.335938 18.320312 Z M 29.933594 20.929688 C 29.371094 21.226562 28.542969 21.417969 27.609375 21.417969 C 26.675781 21.417969 25.851562 21.242188 25.285156 20.964844 C 24.722656 20.667969 24.476562 20.332031 24.476562 20 C 24.476562 19.652344 24.707031 19.320312 25.285156 19.039062 C 25.851562 18.757812 26.675781 18.582031 27.609375 18.582031 C 28.523438 18.582031 29.371094 18.777344 29.933594 19.074219 C 30.511719 19.371094 30.757812 19.738281 30.742188 20 C 30.757812 20.265625 30.511719 20.632812 29.933594 20.929688 Z M 29.933594 20.929688 "/>
</g>
<path style=" stroke:none;fill-rule:nonzero;fill:rgb(50.979614%,73.728943%,0%);fill-opacity:1;" d="M 19.425781 22.433594 C 21.1875 22.433594 22.613281 21.277344 22.613281 19.863281 C 22.613281 18.445312 21.1875 17.289062 19.425781 17.289062 C 17.667969 17.289062 16.257812 18.445312 16.257812 19.863281 C 16.257812 21.277344 17.667969 22.433594 19.425781 22.433594 Z M 19.425781 22.433594 "/>
<path style=" stroke:none;fill-rule:nonzero;fill:rgb(0%,0%,0%);fill-opacity:1;" d="M 19.425781 16.886719 C 17.507812 16.886719 15.835938 18.144531 15.820312 19.863281 C 15.835938 21.578125 17.492188 22.835938 19.425781 22.855469 C 21.34375 22.855469 23.015625 21.59375 23.035156 19.863281 C 23.015625 18.144531 21.34375 16.886719 19.425781 16.886719 Z M 21.414062 21.347656 C 20.921875 21.75 20.21875 21.996094 19.425781 21.996094 C 18.632812 21.996094 17.929688 21.734375 17.4375 21.347656 C 16.945312 20.945312 16.664062 20.421875 16.664062 19.863281 C 16.664062 19.300781 16.945312 18.777344 17.4375 18.375 C 17.929688 17.972656 18.632812 17.707031 19.425781 17.707031 C 20.21875 17.707031 20.921875 17.972656 21.414062 18.375 C 21.90625 18.777344 22.1875 19.300781 22.1875 19.863281 C 22.1875 20.421875 21.90625 20.945312 21.414062 21.347656 Z M 21.414062 21.347656 "/>
<path style=" stroke:none;fill-rule:nonzero;fill:rgb(0%,0%,0%);fill-opacity:1;" d="M 10.097656 24.167969 C 9.976562 23.902344 9.921875 23.589844 9.921875 23.292969 C 9.921875 22.75 10.0625 22.171875 10.417969 21.734375 C 11.03125 20.910156 12.300781 19.738281 15.890625 19.597656 L 15.925781 20.4375 C 12.476562 20.613281 11.628906 21.578125 11.085938 22.242188 C 10.890625 22.46875 10.769531 22.925781 10.769531 23.292969 C 10.769531 23.5 10.804688 23.695312 10.855469 23.816406 C 10.910156 23.9375 10.945312 23.9375 10.960938 23.9375 L 10.785156 24.761719 C 10.453125 24.691406 10.222656 24.429688 10.097656 24.167969 Z M 10.097656 24.167969 "/>
<path style=" stroke:none;fill-rule:nonzero;fill:rgb(100%,100%,100%);fill-opacity:1;" d="M 12.792969 27.859375 L 11.648438 23.0625 C 11.648438 23.0625 9.800781 23.625 10.308594 25.847656 C 10.820312 28.050781 12.582031 27.335938 12.792969 27.859375 Z M 12.792969 27.859375 "/>
<path style=" stroke:none;fill-rule:nonzero;fill:rgb(0%,0%,0%);fill-opacity:1;" d="M 11.171875 27.492188 C 10.539062 27.140625 10.027344 26.53125 9.976562 25.707031 C 9.957031 25.550781 9.957031 25.410156 9.957031 25.269531 C 9.957031 24.605469 10.117188 23.957031 10.609375 23.433594 C 11.085938 22.890625 11.839844 22.46875 12.949219 22.085938 L 13.230469 22.890625 C 12.195312 23.257812 11.578125 23.625 11.261719 23.992188 C 10.945312 24.359375 10.839844 24.726562 10.820312 25.269531 C 10.820312 25.375 10.820312 25.496094 10.839844 25.636719 C 10.890625 26.128906 11.136719 26.476562 11.613281 26.738281 C 12.070312 27.003906 12.738281 27.140625 13.441406 27.140625 L 13.832031 27.140625 L 13.882812 28 C 13.742188 28.015625 13.582031 28.015625 13.441406 28.015625 C 12.597656 28.015625 11.804688 27.84375 11.171875 27.492188 Z M 11.171875 27.492188 "/>
</g>
</svg>
