<?xml version="1.0" encoding="UTF-8"?>
<svg xmlns="http://www.w3.org/2000/svg" xmlns:xlink="http://www.w3.org/1999/xlink" width="37.5pt" height="37.499999pt" viewBox="0 0 37.5 37.499999" version="1.2">
<defs>
<clipPath id="clip1">
  <path d="M 29 6 L 30.476562 6 L 30.476562 11 L 29 11 Z M 29 6 "/>
</clipPath>
<clipPath id="clip2">
  <path d="M 28 6 L 30.476562 6 L 30.476562 11 L 28 11 Z M 28 6 "/>
</clipPath>
<clipPath id="clip3">
  <path d="M 28 31 L 30.476562 31 L 30.476562 34 L 28 34 Z M 28 31 "/>
</clipPath>
<clipPath id="clip4">
  <path d="M 29 32 L 30.476562 32 L 30.476562 34 L 29 34 Z M 29 32 "/>
</clipPath>
<clipPath id="clip5">
  <path d="M 13 7 L 30.476562 7 L 30.476562 34 L 13 34 Z M 13 7 "/>
</clipPath>
<clipPath id="clip6">
  <path d="M 13 5 L 30.476562 5 L 30.476562 34 L 13 34 Z M 13 5 "/>
</clipPath>
</defs>
<g id="surface1">
<path style=" stroke:none;fill-rule:nonzero;fill:rgb(96.469116%,82.348633%,63.529968%);fill-opacity:1;" d="M 12.265625 20.808594 C 12.308594 21.664062 13.1875 21.261719 13.566406 21 C 13.949219 20.738281 14.027344 20.957031 14.082031 20.457031 C 14.117188 20.128906 14.128906 19.800781 14.125 19.472656 C 13.527344 19.414062 12.976562 19.550781 12.480469 19.882812 C 12.242188 20.054688 11.796875 20.597656 12.261719 20.785156 "/>
<path style=" stroke:none;fill-rule:nonzero;fill:rgb(0.389099%,0.389099%,0.389099%);fill-opacity:1;" d="M 12.714844 21.429688 C 12.628906 21.429688 12.546875 21.410156 12.46875 21.375 C 12.273438 21.261719 12.179688 21.097656 12.183594 20.878906 C 12.058594 20.816406 11.992188 20.71875 11.976562 20.582031 C 12.011719 20.265625 12.164062 20.015625 12.4375 19.835938 C 12.949219 19.488281 13.515625 19.347656 14.132812 19.410156 L 14.203125 19.410156 L 14.203125 19.476562 C 14.210938 19.734375 14.203125 19.992188 14.179688 20.25 L 14.179688 20.476562 C 14.15625 20.828125 14.085938 20.882812 13.902344 20.925781 C 13.804688 20.957031 13.710938 21 13.628906 21.058594 C 13.359375 21.261719 13.054688 21.386719 12.714844 21.429688 Z M 13.882812 19.5625 C 13.390625 19.554688 12.9375 19.691406 12.53125 19.96875 C 12.316406 20.117188 12.1875 20.320312 12.144531 20.574219 C 12.160156 20.667969 12.210938 20.730469 12.300781 20.761719 L 12.347656 20.761719 L 12.347656 20.808594 C 12.335938 20.980469 12.398438 21.117188 12.542969 21.214844 C 12.914062 21.273438 13.238281 21.179688 13.519531 20.9375 C 13.617188 20.871094 13.722656 20.816406 13.835938 20.78125 C 13.953125 20.742188 13.980469 20.734375 14 20.453125 L 14 20.226562 C 14.019531 20 14.03125 19.777344 14.027344 19.550781 L 13.882812 19.550781 Z M 13.882812 19.5625 "/>
<path style=" stroke:none;fill-rule:nonzero;fill:rgb(78.039551%,69.40918%,59.999084%);fill-opacity:1;" d="M 12.265625 20.808594 C 12.398438 20.78125 12.515625 20.71875 12.609375 20.621094 "/>
<path style=" stroke:none;fill-rule:nonzero;fill:rgb(0.389099%,0.389099%,0.389099%);fill-opacity:1;" d="M 12.265625 20.890625 C 12.210938 20.90625 12.175781 20.890625 12.160156 20.835938 C 12.144531 20.785156 12.160156 20.75 12.214844 20.734375 L 12.269531 20.734375 C 12.371094 20.710938 12.453125 20.660156 12.523438 20.589844 C 12.558594 20.542969 12.597656 20.539062 12.640625 20.574219 C 12.683594 20.605469 12.691406 20.644531 12.65625 20.6875 C 12.566406 20.789062 12.457031 20.855469 12.324219 20.886719 L 12.265625 20.886719 Z M 12.265625 20.890625 "/>
<path style=" stroke:none;fill-rule:nonzero;fill:rgb(45.489502%,80.389404%,86.669922%);fill-opacity:1;" d="M 14.269531 10.652344 C 10.945312 9.75 13.421875 5.582031 16.109375 7.289062 Z M 14.269531 10.652344 "/>
<path style=" stroke:none;fill-rule:nonzero;fill:rgb(0.389099%,0.389099%,0.389099%);fill-opacity:1;" d="M 14.3125 10.75 L 14.246094 10.75 C 13.300781 10.484375 12.714844 9.933594 12.605469 9.199219 C 12.566406 8.792969 12.640625 8.402344 12.824219 8.035156 C 13.007812 7.667969 13.277344 7.375 13.632812 7.15625 C 14.019531 6.917969 14.4375 6.804688 14.894531 6.820312 C 15.351562 6.835938 15.765625 6.976562 16.132812 7.238281 L 16.199219 7.28125 Z M 14.773438 6.964844 C 14.386719 6.964844 14.03125 7.066406 13.710938 7.277344 C 13.382812 7.476562 13.132812 7.746094 12.960938 8.082031 C 12.789062 8.421875 12.722656 8.78125 12.757812 9.160156 C 12.859375 9.8125 13.375 10.308594 14.214844 10.558594 L 15.964844 7.320312 C 15.601562 7.097656 15.210938 6.984375 14.785156 6.976562 Z M 14.773438 6.964844 "/>
<g clip-path="url(#clip1)" clip-rule="nonzero">
<path style=" stroke:none;fill-rule:nonzero;fill:rgb(45.489502%,80.389404%,86.669922%);fill-opacity:1;" d="M 29.042969 6.976562 C 31.671875 5.171875 34.050781 9.234375 30.992188 10.289062 Z M 29.042969 6.976562 "/>
</g>
<g clip-path="url(#clip2)" clip-rule="nonzero">
<path style=" stroke:none;fill-rule:nonzero;fill:rgb(0.389099%,0.389099%,0.389099%);fill-opacity:1;" d="M 30.957031 10.386719 L 28.933594 6.953125 L 28.992188 6.914062 C 29.335938 6.644531 29.730469 6.488281 30.167969 6.453125 C 30.609375 6.417969 31.019531 6.503906 31.40625 6.714844 C 31.769531 6.925781 32.050781 7.210938 32.246094 7.574219 C 32.445312 7.9375 32.53125 8.328125 32.503906 8.738281 C 32.460938 9.191406 32.210938 9.960938 31.019531 10.363281 Z M 29.152344 7 L 31.03125 10.1875 C 31.378906 10.09375 31.671875 9.917969 31.910156 9.648438 C 32.148438 9.382812 32.289062 9.074219 32.339844 8.726562 C 32.363281 8.34375 32.285156 7.984375 32.101562 7.648438 C 31.917969 7.308594 31.660156 7.042969 31.324219 6.851562 C 30.980469 6.65625 30.609375 6.574219 30.214844 6.601562 C 29.820312 6.628906 29.464844 6.761719 29.152344 7 Z M 29.152344 7 "/>
</g>
<g clip-path="url(#clip3)" clip-rule="nonzero">
<path style=" stroke:none;fill-rule:nonzero;fill:rgb(96.469116%,82.348633%,63.529968%);fill-opacity:1;" d="M 29.609375 31.304688 C 30.273438 31.710938 31.5 32.9375 30.496094 33.535156 C 29.535156 34.402344 28.992188 32.582031 28.144531 32.332031 C 28.488281 31.792969 28.976562 31.449219 29.609375 31.304688 Z M 29.609375 31.304688 "/>
<path style=" stroke:none;fill-rule:nonzero;fill:rgb(0.389099%,0.389099%,0.389099%);fill-opacity:1;" d="M 29.984375 33.847656 L 29.949219 33.847656 C 29.566406 33.824219 29.253906 33.457031 28.949219 33.109375 C 28.738281 32.804688 28.460938 32.574219 28.121094 32.410156 L 28.011719 32.378906 L 28.082031 32.265625 C 28.4375 31.707031 28.941406 31.355469 29.59375 31.203125 L 29.65625 31.203125 C 30.082031 31.46875 30.964844 32.226562 30.960938 32.910156 C 30.953125 33.210938 30.816406 33.429688 30.546875 33.566406 C 30.398438 33.734375 30.210938 33.828125 29.984375 33.847656 Z M 28.273438 32.292969 C 28.589844 32.476562 28.855469 32.710938 29.070312 33.003906 C 29.277344 33.335938 29.574219 33.566406 29.953125 33.683594 C 30.136719 33.675781 30.289062 33.605469 30.414062 33.472656 C 30.636719 33.367188 30.75 33.191406 30.753906 32.949219 C 30.753906 32.398438 30.046875 31.707031 29.554688 31.394531 C 29.011719 31.53125 28.585938 31.832031 28.28125 32.292969 Z M 28.273438 32.292969 "/>
</g>
<g clip-path="url(#clip4)" clip-rule="nonzero">
<path style=" stroke:none;fill-rule:nonzero;fill:rgb(0.389099%,0.389099%,0.389099%);fill-opacity:1;" d="M 30.496094 33.621094 C 30.460938 33.621094 30.4375 33.605469 30.421875 33.574219 C 30.375 33.476562 30.332031 33.375 30.292969 33.269531 C 30.238281 33.0625 30.136719 32.878906 29.988281 32.71875 C 29.949219 32.679688 29.949219 32.640625 29.988281 32.601562 C 30.027344 32.5625 30.066406 32.5625 30.105469 32.601562 C 30.265625 32.773438 30.378906 32.972656 30.445312 33.195312 C 30.480469 33.296875 30.523438 33.390625 30.570312 33.484375 C 30.59375 33.535156 30.582031 33.570312 30.53125 33.59375 Z M 30.496094 33.621094 "/>
</g>
<path style=" stroke:none;fill-rule:nonzero;fill:rgb(96.469116%,82.348633%,63.529968%);fill-opacity:1;" d="M 17.664062 32.691406 C 16.878906 32.808594 16.4375 33.503906 15.785156 33.855469 C 15.714844 33.917969 15.632812 33.960938 15.542969 33.984375 C 15.449219 34.007812 15.359375 34.011719 15.265625 33.988281 C 15.175781 33.96875 15.09375 33.925781 15.023438 33.867188 C 14.949219 33.804688 14.898438 33.730469 14.863281 33.644531 C 14.765625 33.644531 14.6875 33.609375 14.625 33.535156 C 14.054688 32.632812 15.21875 32.003906 15.828125 31.5625 C 16.691406 31.398438 17.21875 32.117188 17.664062 32.691406 Z M 17.664062 32.691406 "/>
<path style=" stroke:none;fill-rule:nonzero;fill:rgb(0.389099%,0.389099%,0.389099%);fill-opacity:1;" d="M 15.371094 34.074219 C 15.320312 34.078125 15.273438 34.078125 15.222656 34.074219 C 15.042969 34.015625 14.90625 33.902344 14.824219 33.734375 C 14.726562 33.734375 14.652344 33.695312 14.597656 33.617188 C 14.046875 32.761719 14.984375 32.117188 15.605469 31.6875 L 15.820312 31.535156 C 16.691406 31.363281 17.242188 32.066406 17.683594 32.636719 L 17.808594 32.800781 L 17.667969 32.800781 C 17.214844 32.90625 16.828125 33.125 16.507812 33.453125 C 16.292969 33.644531 16.0625 33.8125 15.816406 33.960938 C 15.675781 34.035156 15.527344 34.074219 15.371094 34.074219 Z M 14.816406 33.546875 C 14.851562 33.542969 14.882812 33.542969 14.914062 33.546875 L 14.9375 33.546875 L 14.976562 33.621094 C 15.039062 33.753906 15.140625 33.847656 15.28125 33.894531 C 15.449219 33.921875 15.605469 33.886719 15.742188 33.789062 C 15.980469 33.648438 16.203125 33.484375 16.410156 33.300781 C 16.722656 32.992188 17.09375 32.769531 17.519531 32.636719 C 17.09375 32.09375 16.597656 31.507812 15.875 31.644531 L 15.667969 31.789062 C 15.035156 32.238281 14.246094 32.773438 14.703125 33.488281 C 14.726562 33.527344 14.757812 33.546875 14.800781 33.554688 Z M 14.816406 33.546875 "/>
<g clip-path="url(#clip5)" clip-rule="nonzero">
<path style=" stroke:none;fill-rule:nonzero;fill:rgb(0.389099%,0.389099%,0.389099%);fill-opacity:1;" d="M 14.878906 33.730469 C 14.847656 33.730469 14.824219 33.71875 14.808594 33.695312 C 14.789062 33.671875 14.785156 33.648438 14.796875 33.621094 C 14.828125 33.398438 14.917969 33.203125 15.0625 33.03125 C 15.128906 32.941406 15.1875 32.84375 15.238281 32.746094 C 15.261719 32.695312 15.296875 32.683594 15.347656 32.703125 C 15.398438 32.726562 15.410156 32.761719 15.386719 32.8125 C 15.335938 32.921875 15.273438 33.027344 15.199219 33.125 C 15.078125 33.28125 15 33.457031 14.976562 33.652344 C 14.972656 33.714844 14.941406 33.738281 14.878906 33.730469 Z M 14.410156 9.507812 C 13.949219 9.28125 13.648438 8.96875 13.917969 8.472656 C 14.183594 7.976562 14.625 8.0625 15.066406 8.285156 Z M 30.296875 9.074219 C 30.757812 8.847656 31.058594 8.535156 30.789062 8.039062 C 30.523438 7.542969 30.082031 7.628906 29.640625 7.851562 Z M 30.296875 9.074219 "/>
</g>
<g clip-path="url(#clip6)" clip-rule="nonzero">
<path style=" stroke:none;fill-rule:nonzero;fill:rgb(45.489502%,80.389404%,86.669922%);fill-opacity:1;" d="M 22.460938 5.253906 C 25.792969 5.253906 28.898438 5.703125 30.539062 8.863281 C 31.996094 12.382812 31.457031 16.179688 31.699219 19.898438 C 31.894531 23.089844 32.316406 26.78125 30.808594 29.742188 C 29.230469 32.847656 25.25 33.621094 21.984375 33.515625 C 19.417969 33.425781 16.316406 32.613281 14.867188 30.300781 C 13.167969 27.59375 13.972656 23.582031 14.097656 20.578125 C 14.242188 17.019531 13.113281 13.449219 14.304688 9.960938 C 15.539062 6.351562 18.871094 5.53125 22.457031 5.253906 "/>
<path style=" stroke:none;fill-rule:nonzero;fill:rgb(0.389099%,0.389099%,0.389099%);fill-opacity:1;" d="M 22.550781 33.621094 L 21.980469 33.621094 C 20.597656 33.582031 19.261719 33.320312 17.972656 32.835938 C 16.632812 32.359375 15.574219 31.535156 14.796875 30.363281 C 13.414062 28.179688 13.664062 25.164062 13.875 22.5 C 13.929688 21.828125 13.980469 21.191406 14.003906 20.597656 C 14.027344 19.332031 13.972656 18.070312 13.839844 16.8125 C 13.644531 14.554688 13.441406 12.21875 14.214844 9.957031 C 14.46875 9.15625 14.875 8.433594 15.433594 7.800781 C 15.996094 7.164062 16.660156 6.664062 17.433594 6.304688 C 18.675781 5.707031 20.195312 5.367188 22.425781 5.195312 C 25.707031 5.171875 28.945312 5.621094 30.609375 8.824219 C 31.679688 11.398438 31.691406 14.164062 31.710938 16.835938 C 31.710938 17.839844 31.710938 18.871094 31.785156 19.882812 C 31.785156 20.191406 31.820312 20.503906 31.84375 20.8125 C 32.035156 23.746094 32.257812 27.074219 30.882812 29.765625 C 29.164062 33.132812 24.839844 33.621094 22.550781 33.621094 Z M 22.460938 5.332031 C 19 5.621094 15.625 6.355469 14.382812 9.988281 C 13.617188 12.21875 13.820312 14.535156 14.007812 16.761719 C 14.144531 18.027344 14.199219 19.292969 14.175781 20.566406 C 14.152344 21.167969 14.097656 21.804688 14.046875 22.476562 C 13.835938 25.113281 13.585938 28.105469 14.933594 30.242188 C 15.5 31.144531 17.320312 33.253906 21.984375 33.402344 C 24.003906 33.476562 28.882812 33.25 30.722656 29.664062 C 32.074219 27.007812 31.855469 23.707031 31.664062 20.796875 C 31.664062 20.480469 31.621094 20.167969 31.605469 19.867188 C 31.554688 18.882812 31.53125 17.84375 31.53125 16.839844 C 31.53125 14.183594 31.503906 11.421875 30.445312 8.890625 C 30.105469 8.203125 29.644531 7.605469 29.0625 7.097656 C 28.484375 6.589844 27.828125 6.207031 27.09375 5.953125 C 25.585938 5.484375 24.042969 5.277344 22.460938 5.332031 Z M 22.460938 5.332031 "/>
</g>
<path style=" stroke:none;fill-rule:nonzero;fill:rgb(100%,100%,100%);fill-opacity:1;" d="M 23.046875 9.636719 C 23.644531 13.046875 29.320312 12.148438 28.503906 8.707031 C 27.773438 5.621094 22.847656 6.476562 23.046875 9.636719 "/>
<path style=" stroke:none;fill-rule:nonzero;fill:rgb(0.389099%,0.389099%,0.389099%);fill-opacity:1;" d="M 25.746094 11.863281 C 25.390625 11.863281 25.042969 11.808594 24.707031 11.695312 C 24.242188 11.546875 23.851562 11.285156 23.539062 10.917969 C 23.226562 10.546875 23.035156 10.125 22.96875 9.652344 C 22.902344 8.878906 23.140625 8.210938 23.683594 7.644531 C 24.191406 7.136719 24.804688 6.835938 25.523438 6.742188 C 26.183594 6.640625 26.804688 6.746094 27.390625 7.058594 C 28.035156 7.429688 28.433594 7.972656 28.582031 8.6875 C 28.710938 9.125 28.707031 9.5625 28.582031 10 C 28.453125 10.433594 28.21875 10.804688 27.875 11.109375 C 27.261719 11.621094 26.550781 11.875 25.746094 11.863281 Z M 23.128906 9.628906 C 23.191406 10.074219 23.371094 10.46875 23.667969 10.816406 C 23.960938 11.164062 24.324219 11.40625 24.761719 11.546875 C 25.277344 11.71875 25.804688 11.753906 26.339844 11.652344 C 26.878906 11.554688 27.355469 11.332031 27.773438 10.988281 C 28.089844 10.699219 28.304688 10.355469 28.425781 9.949219 C 28.542969 9.542969 28.546875 9.136719 28.429688 8.730469 C 28.359375 8.421875 28.234375 8.140625 28.050781 7.882812 C 27.867188 7.625 27.640625 7.410156 27.371094 7.238281 C 27.101562 7.066406 26.8125 6.949219 26.496094 6.890625 C 26.179688 6.832031 25.867188 6.835938 25.550781 6.894531 C 25.210938 6.925781 24.882812 7.015625 24.578125 7.167969 C 24.269531 7.320312 24.003906 7.527344 23.777344 7.78125 C 23.550781 8.035156 23.382812 8.324219 23.269531 8.640625 C 23.15625 8.960938 23.109375 9.289062 23.128906 9.628906 Z M 23.128906 9.628906 "/>
<path style=" stroke:none;fill-rule:nonzero;fill:rgb(100%,100%,100%);fill-opacity:1;" d="M 16.261719 10.191406 C 17.035156 13.160156 21.871094 12.394531 21.695312 9.421875 C 21.476562 5.851562 15.523438 6.527344 16.261719 10.191406 "/>
<path style=" stroke:none;fill-rule:nonzero;fill:rgb(0.389099%,0.389099%,0.389099%);fill-opacity:1;" d="M 18.847656 12.148438 C 18.347656 12.152344 17.875 12.039062 17.433594 11.808594 C 16.773438 11.457031 16.359375 10.925781 16.1875 10.207031 C 16.066406 9.734375 16.082031 9.269531 16.238281 8.804688 C 16.394531 8.34375 16.667969 7.960938 17.054688 7.65625 C 17.519531 7.304688 18.039062 7.097656 18.621094 7.023438 C 19.203125 6.949219 19.761719 7.027344 20.300781 7.25 C 20.738281 7.4375 21.09375 7.726562 21.359375 8.121094 C 21.625 8.511719 21.761719 8.945312 21.773438 9.414062 C 21.867188 10.996094 20.589844 11.917969 19.367188 12.125 C 19.195312 12.144531 19.019531 12.152344 18.847656 12.148438 Z M 16.355469 10.175781 C 16.433594 10.488281 16.570312 10.777344 16.765625 11.035156 C 16.960938 11.296875 17.199219 11.511719 17.480469 11.679688 C 17.761719 11.851562 18.0625 11.960938 18.386719 12.011719 C 18.714844 12.066406 19.035156 12.054688 19.359375 11.980469 C 20.515625 11.800781 21.726562 10.933594 21.632812 9.449219 C 21.628906 9.003906 21.5 8.597656 21.25 8.226562 C 21 7.859375 20.667969 7.582031 20.253906 7.40625 C 19.742188 7.195312 19.210938 7.125 18.65625 7.195312 C 18.105469 7.261719 17.609375 7.464844 17.167969 7.792969 C 16.808594 8.082031 16.554688 8.4375 16.410156 8.867188 C 16.261719 9.296875 16.242188 9.734375 16.355469 10.175781 Z M 16.355469 10.175781 "/>
<path style=" stroke:none;fill-rule:nonzero;fill:rgb(100%,100%,100%);fill-opacity:1;" d="M 23.710938 13.75 C 23.757812 14.222656 23.757812 14.695312 23.710938 15.164062 C 23.574219 15.335938 23.394531 15.445312 23.175781 15.488281 C 22.890625 15.445312 22.6875 15.296875 22.570312 15.039062 C 22.542969 14.503906 22.554688 13.972656 22.613281 13.441406 Z M 23.710938 13.75 "/>
<path style=" stroke:none;fill-rule:nonzero;fill:rgb(0.389099%,0.389099%,0.389099%);fill-opacity:1;" d="M 23.226562 15.558594 L 23.203125 15.558594 C 22.882812 15.507812 22.660156 15.339844 22.535156 15.046875 C 22.496094 14.679688 22.496094 14.316406 22.535156 13.949219 C 22.535156 13.78125 22.5625 13.605469 22.566406 13.433594 L 22.566406 13.300781 L 23.808594 13.675781 L 23.808594 13.75 C 23.808594 13.894531 23.808594 14.050781 23.832031 14.203125 C 23.875 14.527344 23.875 14.851562 23.832031 15.171875 L 23.832031 15.195312 C 23.730469 15.359375 23.585938 15.460938 23.394531 15.503906 L 23.253906 15.558594 Z M 22.691406 14.988281 C 22.792969 15.210938 22.960938 15.34375 23.207031 15.390625 L 23.335938 15.339844 C 23.480469 15.308594 23.589844 15.226562 23.671875 15.105469 C 23.707031 14.804688 23.707031 14.503906 23.671875 14.203125 C 23.671875 14.0625 23.671875 13.925781 23.648438 13.792969 L 22.726562 13.515625 C 22.726562 13.65625 22.726562 13.796875 22.699219 13.933594 C 22.660156 14.28125 22.65625 14.632812 22.6875 14.984375 Z M 22.691406 14.988281 "/>
<path style=" stroke:none;fill-rule:nonzero;fill:rgb(0.389099%,0.389099%,0.389099%);fill-opacity:1;" d="M 18.414062 9.703125 C 18.414062 9.945312 18.335938 10.152344 18.175781 10.320312 C 18.015625 10.492188 17.820312 10.578125 17.597656 10.578125 C 17.371094 10.578125 17.175781 10.492188 17.015625 10.320312 C 16.855469 10.152344 16.777344 9.945312 16.777344 9.703125 C 16.777344 9.464844 16.855469 9.257812 17.015625 9.089844 C 17.175781 8.917969 17.371094 8.832031 17.597656 8.832031 C 17.820312 8.832031 18.015625 8.917969 18.175781 9.089844 C 18.335938 9.257812 18.414062 9.464844 18.414062 9.703125 Z M 18.414062 9.703125 "/>
<path style=" stroke:none;fill-rule:nonzero;fill:rgb(100%,100%,100%);fill-opacity:1;" d="M 18.160156 9.902344 C 18.160156 10.050781 18.097656 10.125 17.96875 10.125 C 17.839844 10.125 17.777344 10.050781 17.777344 9.902344 C 17.777344 9.757812 17.839844 9.683594 17.96875 9.683594 C 18.097656 9.683594 18.160156 9.757812 18.160156 9.902344 Z M 18.160156 9.902344 "/>
<path style=" stroke:none;fill-rule:nonzero;fill:rgb(0.389099%,0.389099%,0.389099%);fill-opacity:1;" d="M 25.253906 9.488281 C 25.253906 9.730469 25.175781 9.933594 25.015625 10.105469 C 24.859375 10.273438 24.671875 10.359375 24.449219 10.359375 C 24.226562 10.359375 24.035156 10.273438 23.878906 10.105469 C 23.722656 9.933594 23.644531 9.730469 23.644531 9.488281 C 23.644531 9.246094 23.722656 9.042969 23.878906 8.871094 C 24.035156 8.703125 24.226562 8.617188 24.449219 8.617188 C 24.671875 8.617188 24.859375 8.703125 25.015625 8.871094 C 25.175781 9.042969 25.253906 9.246094 25.253906 9.488281 Z M 25.253906 9.488281 "/>
<path style=" stroke:none;fill-rule:nonzero;fill:rgb(100%,100%,100%);fill-opacity:1;" d="M 25 9.6875 C 25 9.835938 24.9375 9.910156 24.8125 9.910156 C 24.6875 9.910156 24.625 9.835938 24.625 9.6875 C 24.625 9.539062 24.6875 9.464844 24.8125 9.464844 C 24.9375 9.464844 25 9.539062 25 9.6875 Z M 25 9.6875 "/>
<path style=" stroke:none;fill-rule:nonzero;fill:rgb(100%,100%,100%);fill-opacity:1;" d="M 21.414062 13.683594 C 21.054688 14.53125 21.609375 16.230469 22.582031 14.980469 C 22.550781 14.445312 22.566406 13.914062 22.621094 13.382812 Z M 21.414062 13.683594 "/>
<path style=" stroke:none;fill-rule:nonzero;fill:rgb(0.389099%,0.389099%,0.389099%);fill-opacity:1;" d="M 21.914062 15.507812 C 21.828125 15.507812 21.75 15.488281 21.675781 15.445312 C 21.285156 15.222656 21.039062 14.316406 21.316406 13.636719 L 21.316406 13.601562 L 22.695312 13.257812 L 22.695312 13.367188 C 22.695312 13.542969 22.695312 13.71875 22.664062 13.886719 C 22.625 14.242188 22.625 14.597656 22.664062 14.953125 L 22.664062 15.011719 C 22.503906 15.304688 22.253906 15.472656 21.914062 15.507812 Z M 21.460938 13.75 C 21.261719 14.28125 21.417969 15.105469 21.761719 15.300781 C 22.011719 15.441406 22.285156 15.195312 22.480469 14.953125 C 22.445312 14.597656 22.445312 14.242188 22.480469 13.886719 C 22.480469 13.753906 22.480469 13.617188 22.507812 13.480469 Z M 21.460938 13.75 "/>
<path style=" stroke:none;fill-rule:nonzero;fill:rgb(96.469116%,82.348633%,63.529968%);fill-opacity:1;" d="M 21.519531 12.046875 C 21.351562 12.0625 21.195312 12.117188 21.054688 12.207031 C 20.910156 12.296875 20.796875 12.410156 20.710938 12.554688 C 20.625 12.699219 20.578125 12.851562 20.566406 13.015625 C 20.558594 13.183594 20.585938 13.34375 20.65625 13.492188 C 21.113281 14.304688 22.136719 13.421875 22.769531 13.492188 C 23.5 13.492188 24.101562 14.253906 24.691406 13.628906 C 25.34375 12.933594 24.410156 12.273438 23.679688 11.953125 Z M 21.519531 12.046875 "/>
<path style=" stroke:none;fill-rule:nonzero;fill:rgb(13.729858%,12.159729%,12.548828%);fill-opacity:1;" d="M 24.171875 13.972656 C 23.9375 13.953125 23.710938 13.890625 23.5 13.789062 C 23.273438 13.675781 23.03125 13.609375 22.773438 13.589844 C 22.507812 13.589844 22.253906 13.644531 22.011719 13.75 C 21.496094 13.925781 20.910156 14.125 20.582031 13.542969 C 20.402344 13.226562 20.402344 12.910156 20.582031 12.59375 C 20.773438 12.226562 21.082031 12.019531 21.5 11.976562 L 23.710938 11.882812 C 24.253906 12.109375 24.875 12.519531 24.980469 12.996094 C 25 13.113281 24.988281 13.230469 24.957031 13.347656 C 24.921875 13.460938 24.867188 13.566406 24.792969 13.65625 C 24.714844 13.75 24.625 13.824219 24.515625 13.878906 C 24.40625 13.933594 24.292969 13.964844 24.171875 13.972656 Z M 22.792969 13.425781 C 23.066406 13.449219 23.328125 13.519531 23.574219 13.636719 C 23.988281 13.808594 24.316406 13.941406 24.644531 13.589844 C 24.8125 13.441406 24.875 13.257812 24.835938 13.042969 C 24.742188 12.625 24.160156 12.246094 23.679688 12.046875 L 21.542969 12.132812 C 21.1875 12.175781 20.925781 12.355469 20.761719 12.667969 C 20.613281 12.929688 20.613281 13.195312 20.761719 13.457031 C 21.023438 13.910156 21.492188 13.761719 21.992188 13.59375 C 22.246094 13.480469 22.515625 13.425781 22.792969 13.425781 Z M 22.792969 13.425781 "/>
<path style=" stroke:none;fill-rule:nonzero;fill:rgb(0.389099%,0.389099%,0.389099%);fill-opacity:1;" d="M 21.414062 12.015625 C 21.363281 10.886719 23.5625 10.742188 23.820312 11.691406 C 24.074219 12.640625 21.519531 12.855469 21.414062 12.015625 Z M 21.414062 12.015625 "/>
</g>
</svg>
