<?xml version="1.0" encoding="UTF-8"?>
<svg xmlns="http://www.w3.org/2000/svg" xmlns:xlink="http://www.w3.org/1999/xlink" width="37.5pt" height="37.499999pt" viewBox="0 0 37.5 37.499999" version="1.2">
<defs>
<clipPath id="clip1">
  <path d="M 1 10 L 35 10 L 35 35.378906 L 1 35.378906 Z M 1 10 "/>
</clipPath>
<clipPath id="clip2">
  <path d="M 1 10 L 35 10 L 35 35.378906 L 1 35.378906 Z M 1 10 "/>
</clipPath>
<clipPath id="clip3">
  <path d="M 33.015625 10.523438 L 3.527344 10.523438 C 2.613281 10.523438 1.902344 17.710938 1.902344 18.636719 L 18.050781 35.652344 L 33.015625 35.652344 C 33.933594 35.648438 34.675781 34.894531 34.679688 33.960938 L 34.679688 12.210938 C 34.675781 11.28125 33.933594 10.527344 33.015625 10.523438 Z M 33.015625 10.523438 "/>
</clipPath>
<linearGradient id="linear0" gradientUnits="userSpaceOnUse" x1="-0.00000000315708" y1="0.49999" x2="1" y2="0.49999" gradientTransform="matrix(32.775576,0,0,25.12766,1.902456,10.523091)">
<stop offset="0" style="stop-color:rgb(25.099182%,47.499084%,84.698486%);stop-opacity:1;"/>
<stop offset="0.0625" style="stop-color:rgb(25.157166%,47.602844%,84.889221%);stop-opacity:1;"/>
<stop offset="0.09375" style="stop-color:rgb(25.273132%,47.805786%,85.264587%);stop-opacity:1;"/>
<stop offset="0.125" style="stop-color:rgb(25.386047%,48.005676%,85.632324%);stop-opacity:1;"/>
<stop offset="0.15625" style="stop-color:rgb(25.498962%,48.205566%,85.998535%);stop-opacity:1;"/>
<stop offset="0.1875" style="stop-color:rgb(25.610352%,48.405457%,86.366272%);stop-opacity:1;"/>
<stop offset="0.21875" style="stop-color:rgb(25.723267%,48.605347%,86.734009%);stop-opacity:1;"/>
<stop offset="0.25" style="stop-color:rgb(25.836182%,48.805237%,87.10022%);stop-opacity:1;"/>
<stop offset="0.28125" style="stop-color:rgb(25.949097%,49.005127%,87.467957%);stop-opacity:1;"/>
<stop offset="0.3125" style="stop-color:rgb(26.062012%,49.205017%,87.835693%);stop-opacity:1;"/>
<stop offset="0.34375" style="stop-color:rgb(26.174927%,49.403381%,88.201904%);stop-opacity:1;"/>
<stop offset="0.375" style="stop-color:rgb(26.287842%,49.603271%,88.569641%);stop-opacity:1;"/>
<stop offset="0.40625" style="stop-color:rgb(26.400757%,49.803162%,88.937378%);stop-opacity:1;"/>
<stop offset="0.4375" style="stop-color:rgb(26.513672%,50.003052%,89.303589%);stop-opacity:1;"/>
<stop offset="0.46875" style="stop-color:rgb(26.626587%,50.202942%,89.671326%);stop-opacity:1;"/>
<stop offset="0.5" style="stop-color:rgb(26.737976%,50.402832%,90.039062%);stop-opacity:1;"/>
<stop offset="0.53125" style="stop-color:rgb(26.850891%,50.602722%,90.406799%);stop-opacity:1;"/>
<stop offset="0.5625" style="stop-color:rgb(26.963806%,50.802612%,90.77301%);stop-opacity:1;"/>
<stop offset="0.59375" style="stop-color:rgb(27.076721%,51.002502%,91.140747%);stop-opacity:1;"/>
<stop offset="0.625" style="stop-color:rgb(27.189636%,51.202393%,91.508484%);stop-opacity:1;"/>
<stop offset="0.65625" style="stop-color:rgb(27.302551%,51.402283%,91.874695%);stop-opacity:1;"/>
<stop offset="0.6875" style="stop-color:rgb(27.415466%,51.600647%,92.242432%);stop-opacity:1;"/>
<stop offset="0.71875" style="stop-color:rgb(27.528381%,51.800537%,92.610168%);stop-opacity:1;"/>
<stop offset="0.75" style="stop-color:rgb(27.641296%,52.000427%,92.976379%);stop-opacity:1;"/>
<stop offset="0.78125" style="stop-color:rgb(27.754211%,52.200317%,93.344116%);stop-opacity:1;"/>
<stop offset="0.8125" style="stop-color:rgb(27.865601%,52.400208%,93.711853%);stop-opacity:1;"/>
<stop offset="0.84375" style="stop-color:rgb(27.978516%,52.600098%,94.07959%);stop-opacity:1;"/>
<stop offset="0.875" style="stop-color:rgb(28.091431%,52.799988%,94.445801%);stop-opacity:1;"/>
<stop offset="0.90625" style="stop-color:rgb(28.204346%,52.999878%,94.813538%);stop-opacity:1;"/>
<stop offset="0.9375" style="stop-color:rgb(28.317261%,53.199768%,95.181274%);stop-opacity:1;"/>
<stop offset="0.96875" style="stop-color:rgb(28.430176%,53.399658%,95.547485%);stop-opacity:1;"/>
<stop offset="1" style="stop-color:rgb(28.543091%,53.598022%,95.915222%);stop-opacity:1;"/>
</linearGradient>
<clipPath id="clip4">
  <path d="M 9 2.378906 L 19 2.378906 L 19 15 L 9 15 Z M 9 2.378906 "/>
</clipPath>
<clipPath id="clip5">
  <path d="M 18 2.378906 L 35 2.378906 L 35 15 L 18 15 Z M 18 2.378906 "/>
</clipPath>
<clipPath id="clip6">
  <path d="M 26 2.378906 L 37.007812 2.378906 L 37.007812 15 L 26 15 Z M 26 2.378906 "/>
</clipPath>
<clipPath id="clip7">
  <path d="M 0 2.378906 L 11 2.378906 L 11 15 L 0 15 Z M 0 2.378906 "/>
</clipPath>
<clipPath id="clip8">
  <path d="M 28 14 L 37.007812 14 L 37.007812 20 L 28 20 Z M 28 14 "/>
</clipPath>
</defs>
<g id="surface1">
<g clip-path="url(#clip1)" clip-rule="nonzero">
<path style=" stroke:none;fill-rule:nonzero;fill:rgb(28.62854%,53.729248%,96.078491%);fill-opacity:1;" d="M 3.183594 10.710938 L 33.394531 10.710938 C 33.570312 10.710938 33.734375 10.742188 33.894531 10.8125 C 34.054688 10.878906 34.195312 10.972656 34.316406 11.097656 C 34.4375 11.222656 34.53125 11.363281 34.597656 11.527344 C 34.664062 11.6875 34.695312 11.855469 34.695312 12.03125 L 34.695312 34.328125 C 34.695312 34.503906 34.664062 34.671875 34.597656 34.835938 C 34.53125 34.996094 34.4375 35.140625 34.316406 35.265625 C 34.195312 35.386719 34.054688 35.484375 33.894531 35.550781 C 33.734375 35.617188 33.570312 35.652344 33.394531 35.652344 L 3.183594 35.652344 C 3.011719 35.652344 2.847656 35.617188 2.6875 35.550781 C 2.527344 35.484375 2.386719 35.386719 2.265625 35.265625 C 2.144531 35.140625 2.050781 34.996094 1.984375 34.835938 C 1.917969 34.671875 1.882812 34.503906 1.882812 34.328125 L 1.882812 12.03125 C 1.882812 11.855469 1.917969 11.6875 1.984375 11.527344 C 2.050781 11.363281 2.144531 11.222656 2.265625 11.097656 C 2.386719 10.972656 2.527344 10.878906 2.6875 10.8125 C 2.847656 10.742188 3.011719 10.710938 3.183594 10.710938 Z M 3.183594 10.710938 "/>
</g>
<g clip-path="url(#clip2)" clip-rule="nonzero">
<g clip-path="url(#clip3)" clip-rule="nonzero">
<path style=" stroke:none;fill-rule:nonzero;fill:url(#linear0);" d="M 1.902344 10.523438 L 1.902344 35.378906 L 34.679688 35.378906 L 34.679688 10.523438 Z M 1.902344 10.523438 "/>
</g>
</g>
<g clip-path="url(#clip4)" clip-rule="nonzero">
<path style=" stroke:none;fill-rule:nonzero;fill:rgb(23.529053%,29.40979%,65.098572%);fill-opacity:1;" d="M 9.375 14.886719 L 18.75 14.886719 L 18.75 2.378906 L 10.78125 2.378906 Z M 9.375 14.886719 "/>
</g>
<g clip-path="url(#clip5)" clip-rule="nonzero">
<path style=" stroke:none;fill-rule:nonzero;fill:rgb(48.239136%,67.059326%,96.859741%);fill-opacity:1;" d="M 28.125 14.886719 L 18.75 14.886719 L 18.75 2.378906 L 26.722656 2.378906 Z M 34.695312 4.75 L 34.707031 4.792969 C 34.703125 4.777344 34.699219 4.765625 34.695312 4.75 Z M 34.695312 4.75 "/>
</g>
<g clip-path="url(#clip6)" clip-rule="nonzero">
<path style=" stroke:none;fill-rule:nonzero;fill:rgb(24.708557%,31.759644%,70.979309%);fill-opacity:1;" d="M 34.707031 4.792969 L 34.695312 4.75 C 34.398438 3.367188 33.195312 2.378906 31.800781 2.378906 L 26.722656 2.378906 L 28.125 14.886719 L 37.5 14.886719 Z M 34.707031 4.792969 "/>
</g>
<path style=" stroke:none;fill-rule:nonzero;fill:rgb(48.239136%,67.059326%,96.859741%);fill-opacity:1;" d="M 2.804688 4.75 L 2.792969 4.792969 C 2.796875 4.777344 2.804688 4.765625 2.804688 4.75 Z M 2.804688 4.75 "/>
<g clip-path="url(#clip7)" clip-rule="nonzero">
<path style=" stroke:none;fill-rule:nonzero;fill:rgb(48.239136%,67.059326%,96.859741%);fill-opacity:1;" d="M 2.792969 4.792969 L 2.804688 4.75 C 3.101562 3.367188 4.308594 2.378906 5.699219 2.378906 L 10.78125 2.378906 L 9.375 14.886719 L 0 14.886719 Z M 2.792969 4.792969 "/>
</g>
<path style=" stroke:none;fill-rule:evenodd;fill:rgb(43.919373%,60.778809%,87.838745%);fill-opacity:1;" d="M 9.390625 14.882812 C 9.390625 17.515625 7.292969 19.644531 4.707031 19.644531 C 2.121094 19.644531 0.0234375 17.515625 0.0234375 14.882812 Z M 9.390625 14.882812 "/>
<path style=" stroke:none;fill-rule:evenodd;fill:rgb(23.529053%,29.40979%,65.098572%);fill-opacity:1;" d="M 18.761719 14.882812 C 18.761719 17.515625 16.664062 19.644531 14.078125 19.644531 C 11.488281 19.644531 9.390625 17.515625 9.390625 14.882812 Z M 18.761719 14.882812 "/>
<path style=" stroke:none;fill-rule:evenodd;fill:rgb(43.919373%,60.778809%,87.838745%);fill-opacity:1;" d="M 28.132812 14.882812 C 28.132812 17.515625 26.035156 19.644531 23.445312 19.644531 C 20.859375 19.644531 18.761719 17.515625 18.761719 14.882812 Z M 28.132812 14.882812 "/>
<g clip-path="url(#clip8)" clip-rule="nonzero">
<path style=" stroke:none;fill-rule:evenodd;fill:rgb(23.529053%,29.40979%,65.098572%);fill-opacity:1;" d="M 37.5 14.882812 C 37.5 17.515625 35.402344 19.644531 32.816406 19.644531 C 30.226562 19.644531 28.128906 17.515625 28.128906 14.882812 Z M 37.5 14.882812 "/>
</g>
<path style=" stroke:none;fill-rule:nonzero;fill:rgb(100%,100%,100%);fill-opacity:1;" d="M 32.816406 27.785156 C 32.796875 27.558594 32.769531 27.351562 32.730469 27.085938 L 27.621094 27.085938 C 27.621094 27.8125 27.621094 28.605469 27.617188 29.335938 L 30.578125 29.335938 C 30.445312 30.046875 30.085938 30.605469 29.496094 31.015625 C 29.496094 31.015625 29.496094 31 29.492188 31 C 29.125 31.246094 28.726562 31.402344 28.296875 31.476562 C 27.863281 31.558594 27.429688 31.554688 27 31.472656 C 26.558594 31.378906 26.15625 31.199219 25.789062 30.9375 C 25.242188 30.542969 24.84375 30.027344 24.601562 29.394531 C 24.582031 29.34375 24.566406 29.296875 24.546875 29.246094 L 24.546875 29.242188 L 24.550781 29.238281 C 24.3125 28.523438 24.3125 27.808594 24.550781 27.09375 C 24.714844 26.601562 24.976562 26.167969 25.335938 25.792969 C 26.167969 24.921875 27.410156 24.589844 28.554688 24.941406 C 29 25.082031 29.390625 25.316406 29.726562 25.644531 L 30.726562 24.628906 C 30.902344 24.445312 31.085938 24.273438 31.253906 24.085938 C 30.742188 23.597656 30.160156 23.234375 29.503906 22.984375 C 28.289062 22.535156 27.070312 22.523438 25.84375 22.949219 C 25.804688 22.964844 25.761719 22.980469 25.722656 22.996094 C 24.394531 23.503906 23.410156 24.398438 22.769531 25.6875 C 22.546875 26.128906 22.390625 26.589844 22.292969 27.074219 C 21.730469 29.933594 23.445312 32.746094 26.214844 33.503906 C 27.121094 33.75 28.082031 33.742188 28.996094 33.53125 C 29.835938 33.339844 30.578125 32.949219 31.21875 32.359375 C 31.875 31.742188 32.347656 30.925781 32.59375 30.054688 C 32.800781 29.3125 32.875 28.554688 32.816406 27.785156 Z M 32.816406 27.785156 "/>
</g>
</svg>
