<?xml version="1.0" encoding="UTF-8"?>
<svg xmlns="http://www.w3.org/2000/svg" xmlns:xlink="http://www.w3.org/1999/xlink" width="37.5pt" height="37.499999pt" viewBox="0 0 37.5 37.499999" version="1.2">
<defs>
<clipPath id="clip1">
  <path d="M 2.078125 0 L 34.742188 0 L 34.742188 37.007812 L 2.078125 37.007812 Z M 2.078125 0 "/>
</clipPath>
</defs>
<g id="surface1">
<g clip-path="url(#clip1)" clip-rule="nonzero">
<path style=" stroke:none;fill-rule:evenodd;fill:rgb(89.7995%,20.779419%,67.059326%);fill-opacity:1;" d="M 21.546875 4.292969 L 29.089844 8.738281 C 29.308594 8.503906 29.558594 8.300781 29.832031 8.140625 C 31.398438 7.222656 33.394531 7.765625 34.304688 9.363281 C 35.203125 10.960938 34.667969 12.996094 33.105469 13.925781 C 32.832031 14.085938 32.539062 14.203125 32.234375 14.28125 L 32.234375 23.175781 C 32.535156 23.25 32.824219 23.367188 33.09375 23.527344 C 34.667969 24.457031 35.203125 26.492188 34.292969 28.089844 C 33.394531 29.6875 31.390625 30.234375 29.824219 29.3125 C 29.519531 29.136719 29.25 28.914062 29.015625 28.644531 L 21.515625 33.0625 C 21.625 33.40625 21.683594 33.753906 21.679688 34.117188 C 21.679688 35.953125 20.21875 37.453125 18.410156 37.453125 C 16.601562 37.453125 15.140625 35.960938 15.140625 34.117188 C 15.140625 33.789062 15.1875 33.46875 15.273438 33.171875 L 7.730469 28.726562 C 7.515625 28.957031 7.269531 29.152344 7 29.3125 C 5.425781 30.234375 3.429688 29.6875 2.527344 28.089844 C 1.628906 26.492188 2.164062 24.457031 3.726562 23.527344 C 4 23.367188 4.285156 23.25 4.589844 23.175781 L 4.589844 14.28125 C 4.28125 14.203125 3.992188 14.085938 3.71875 13.925781 C 2.152344 13.007812 1.621094 10.960938 2.519531 9.363281 C 3.417969 7.765625 5.425781 7.222656 6.988281 8.140625 C 7.261719 8.300781 7.507812 8.5 7.726562 8.734375 L 15.273438 4.285156 C 15.183594 3.976562 15.140625 3.660156 15.140625 3.335938 C 15.140625 1.492188 16.601562 0 18.410156 0 C 20.21875 0 21.679688 1.492188 21.679688 3.335938 C 21.679688 3.667969 21.632812 3.988281 21.546875 4.292969 Z M 20.761719 5.660156 L 28.324219 10.117188 C 28.070312 11.023438 28.171875 11.886719 28.632812 12.703125 C 29.09375 13.519531 29.84375 14.0625 30.675781 14.273438 L 30.675781 23.179688 C 30.632812 23.191406 30.59375 23.203125 30.550781 23.214844 L 20.671875 5.75 C 20.703125 5.722656 20.730469 5.691406 20.761719 5.664062 Z M 16.152344 5.753906 L 6.273438 23.214844 C 6.230469 23.203125 6.1875 23.191406 6.144531 23.179688 L 6.144531 14.273438 C 6.976562 14.0625 7.726562 13.519531 8.1875 12.703125 C 8.652344 11.882812 8.753906 11.019531 8.496094 10.113281 L 16.058594 5.660156 C 16.089844 5.691406 16.121094 5.722656 16.152344 5.753906 Z M 19.324219 6.542969 L 29.199219 24.003906 C 28.972656 24.222656 28.78125 24.472656 28.625 24.753906 C 28.46875 25.027344 28.355469 25.320312 28.28125 25.632812 L 8.542969 25.632812 C 8.46875 25.320312 8.355469 25.027344 8.199219 24.753906 C 8.039062 24.476562 7.847656 24.226562 7.621094 24.007812 L 17.5 6.546875 C 17.796875 6.632812 18.101562 6.675781 18.410156 6.675781 C 18.730469 6.675781 19.035156 6.628906 19.324219 6.542969 Z M 20.828125 31.867188 L 28.34375 27.4375 C 28.320312 27.367188 28.300781 27.292969 28.285156 27.21875 L 8.539062 27.21875 C 8.527344 27.261719 8.515625 27.304688 8.503906 27.347656 L 16.054688 31.796875 C 16.699219 31.117188 17.484375 30.777344 18.410156 30.777344 C 19.375 30.777344 20.179688 31.140625 20.828125 31.867188 Z M 20.828125 31.867188 "/>
</g>
</g>
</svg>
