<?xml version="1.0" encoding="UTF-8"?>
<svg xmlns="http://www.w3.org/2000/svg" xmlns:xlink="http://www.w3.org/1999/xlink" width="37.5pt" height="37.499999pt" viewBox="0 0 37.5 37.499999" version="1.2">
<defs>
<clipPath id="clip1">
  <path d="M 0 14.113281 L 37.007812 14.113281 L 37.007812 22.851562 L 0 22.851562 Z M 0 14.113281 "/>
</clipPath>
</defs>
<g id="surface1">
<g clip-path="url(#clip1)" clip-rule="nonzero">
<path style=" stroke:none;fill-rule:nonzero;fill:rgb(45.098877%,45.098877%,45.098877%);fill-opacity:1;" d="M 6.925781 16.585938 C 6.636719 16.308594 6.320312 16.09375 5.984375 15.945312 C 5.648438 15.792969 5.226562 15.722656 4.738281 15.722656 C 4.347656 15.722656 3.972656 15.789062 3.625 15.917969 C 3.277344 16.050781 2.972656 16.234375 2.714844 16.472656 C 2.449219 16.710938 2.242188 17.003906 2.089844 17.34375 C 1.9375 17.683594 1.859375 18.058594 1.859375 18.476562 C 1.859375 18.894531 1.9375 19.269531 2.089844 19.609375 C 2.242188 19.949219 2.449219 20.234375 2.714844 20.472656 C 2.980469 20.710938 3.289062 20.902344 3.636719 21.035156 C 3.984375 21.164062 4.363281 21.230469 4.761719 21.230469 C 5.1875 21.230469 5.558594 21.175781 5.875 21.0625 C 6.191406 20.949219 6.464844 20.796875 6.691406 20.605469 C 6.84375 20.472656 6.984375 20.3125 7.101562 20.121094 C 7.222656 19.925781 7.316406 19.710938 7.386719 19.472656 L 4.714844 19.472656 L 4.714844 18.042969 L 9.074219 18.042969 C 9.101562 18.136719 9.121094 18.25 9.140625 18.394531 C 9.15625 18.535156 9.164062 18.667969 9.164062 18.804688 C 9.164062 19.371094 9.074219 19.882812 8.898438 20.355469 C 8.722656 20.824219 8.449219 21.238281 8.097656 21.601562 C 7.699219 22 7.222656 22.304688 6.667969 22.523438 C 6.109375 22.746094 5.472656 22.851562 4.757812 22.851562 C 4.113281 22.851562 3.503906 22.746094 2.9375 22.523438 C 2.367188 22.304688 1.867188 22 1.4375 21.613281 C 1.015625 21.226562 0.679688 20.765625 0.425781 20.234375 C 0.171875 19.703125 0.0546875 19.113281 0.0546875 18.484375 C 0.0546875 17.851562 0.179688 17.265625 0.425781 16.730469 C 0.671875 16.195312 1.007812 15.734375 1.4375 15.347656 C 1.859375 14.960938 2.359375 14.660156 2.9375 14.441406 C 3.511719 14.222656 4.117188 14.113281 4.757812 14.113281 C 5.492188 14.113281 6.140625 14.234375 6.703125 14.472656 C 7.265625 14.710938 7.753906 15.039062 8.164062 15.453125 Z M 18.136719 20.425781 C 18.136719 21.160156 17.851562 21.75 17.28125 22.195312 C 16.707031 22.632812 16.003906 22.851562 15.175781 22.851562 C 14.445312 22.851562 13.792969 22.648438 13.230469 22.242188 C 12.667969 21.839844 12.28125 21.285156 12.066406 20.585938 L 13.152344 20.164062 C 13.230469 20.414062 13.332031 20.640625 13.464844 20.84375 C 13.597656 21.046875 13.75 21.21875 13.925781 21.363281 C 14.101562 21.503906 14.296875 21.617188 14.511719 21.703125 C 14.730469 21.785156 14.957031 21.828125 15.195312 21.828125 C 15.714844 21.828125 16.144531 21.703125 16.472656 21.445312 C 16.800781 21.195312 16.96875 20.855469 16.96875 20.4375 C 16.96875 20.085938 16.828125 19.789062 16.554688 19.539062 C 16.304688 19.300781 15.824219 19.0625 15.121094 18.835938 C 14.414062 18.597656 13.96875 18.429688 13.792969 18.34375 C 12.851562 17.894531 12.382812 17.230469 12.382812 16.347656 C 12.382812 15.734375 12.640625 15.210938 13.160156 14.773438 C 13.691406 14.339844 14.335938 14.121094 15.109375 14.121094 C 15.785156 14.121094 16.371094 14.28125 16.867188 14.609375 C 17.359375 14.929688 17.695312 15.328125 17.859375 15.8125 L 16.800781 16.222656 C 16.703125 15.914062 16.503906 15.652344 16.214844 15.449219 C 15.921875 15.242188 15.5625 15.140625 15.144531 15.140625 C 14.695312 15.140625 14.324219 15.257812 14.019531 15.492188 C 13.71875 15.707031 13.566406 15.992188 13.566406 16.335938 C 13.566406 16.625 13.683594 16.875 13.925781 17.082031 C 14.191406 17.289062 14.765625 17.539062 15.644531 17.828125 C 16.542969 18.113281 17.1875 18.472656 17.574219 18.886719 C 17.945312 19.304688 18.136719 19.816406 18.136719 20.425781 Z M 24.453125 22.660156 L 23.367188 22.660156 L 23.367188 21.867188 L 23.316406 21.867188 C 23.144531 22.148438 22.871094 22.382812 22.519531 22.570312 C 22.15625 22.757812 21.785156 22.851562 21.398438 22.851562 C 20.652344 22.851562 20.085938 22.648438 19.6875 22.25 C 19.289062 21.851562 19.085938 21.277344 19.085938 20.539062 L 19.085938 16.9375 L 20.222656 16.9375 L 20.222656 20.46875 C 20.25 21.402344 20.75 21.867188 21.722656 21.867188 C 22.175781 21.867188 22.554688 21.695312 22.859375 21.351562 C 23.164062 21.003906 23.316406 20.585938 23.316406 20.105469 L 23.316406 16.9375 L 24.453125 16.9375 Z M 27.050781 14.964844 C 27.050781 15.175781 26.976562 15.351562 26.816406 15.503906 C 26.660156 15.652344 26.46875 15.722656 26.25 15.722656 C 26.027344 15.722656 25.839844 15.652344 25.679688 15.503906 C 25.523438 15.355469 25.445312 15.175781 25.445312 14.964844 C 25.445312 14.757812 25.523438 14.578125 25.679688 14.429688 C 25.839844 14.28125 26.027344 14.207031 26.25 14.207031 C 26.46875 14.207031 26.660156 14.28125 26.816406 14.429688 C 26.976562 14.578125 27.050781 14.757812 27.050781 14.964844 Z M 26.816406 16.9375 L 26.816406 22.660156 L 25.679688 22.660156 L 25.679688 16.9375 Z M 30.316406 22.757812 C 29.820312 22.757812 29.410156 22.613281 29.082031 22.328125 C 28.753906 22.042969 28.589844 21.636719 28.582031 21.125 L 28.582031 17.921875 L 27.511719 17.921875 L 27.511719 16.9375 L 28.574219 16.9375 L 28.574219 15.1875 L 29.714844 15.1875 L 29.714844 16.9375 L 31.199219 16.9375 L 31.199219 17.921875 L 29.714844 17.921875 L 29.714844 20.773438 C 29.714844 21.152344 29.789062 21.410156 29.949219 21.546875 C 30.105469 21.683594 30.28125 21.75 30.480469 21.75 C 30.566406 21.75 30.65625 21.738281 30.746094 21.71875 C 30.832031 21.703125 30.910156 21.671875 30.984375 21.640625 L 31.34375 22.601562 C 31.0625 22.703125 30.714844 22.757812 30.316406 22.757812 Z M 34.578125 22.847656 C 33.683594 22.847656 32.953125 22.558594 32.371094 21.980469 C 31.792969 21.402344 31.503906 20.675781 31.503906 19.800781 C 31.503906 18.929688 31.78125 18.203125 32.34375 17.625 C 32.90625 17.046875 33.621094 16.753906 34.5 16.753906 C 35.398438 16.753906 36.121094 17.027344 36.648438 17.578125 C 37.179688 18.125 37.445312 18.894531 37.445312 19.882812 L 37.433594 20.003906 L 32.667969 20.003906 C 32.6875 20.5625 32.882812 21.015625 33.261719 21.355469 C 33.640625 21.695312 34.097656 21.867188 34.628906 21.867188 C 35.355469 21.867188 35.921875 21.527344 36.335938 20.84375 L 37.351562 21.308594 C 37.082031 21.789062 36.699219 22.167969 36.21875 22.441406 C 35.734375 22.707031 35.183594 22.847656 34.578125 22.847656 Z M 32.753906 19.109375 L 36.238281 19.109375 C 36.207031 18.710938 36.035156 18.382812 35.726562 18.121094 C 35.417969 17.855469 35 17.726562 34.480469 17.726562 C 34.050781 17.726562 33.683594 17.851562 33.375 18.101562 C 33.058594 18.359375 32.855469 18.691406 32.753906 19.109375 Z M 32.753906 19.109375 "/>
</g>
</g>
</svg>
