<?xml version="1.0" encoding="UTF-8"?>
<svg xmlns="http://www.w3.org/2000/svg" xmlns:xlink="http://www.w3.org/1999/xlink" width="37.5pt" height="37.499999pt" viewBox="0 0 37.5 37.499999" version="1.2">
<defs>
<clipPath id="clip1">
  <path d="M 0 0 L 37.007812 0 L 37.007812 37.007812 L 0 37.007812 Z M 0 0 "/>
</clipPath>
</defs>
<g id="surface1">
<g clip-path="url(#clip1)" clip-rule="nonzero">
<path style=" stroke:none;fill-rule:nonzero;fill:rgb(40.388489%,38.42926%,64.709473%);fill-opacity:1;" d="M 0 0 L 37.5 0 L 37.5 37.5 L 0 37.5 Z M 0 0 "/>
</g>
<path style=" stroke:none;fill-rule:nonzero;fill:rgb(100%,100%,100%);fill-opacity:1;" d="M 21.261719 29.546875 L 21.261719 17.738281 C 21.261719 17.738281 22.03125 14.910156 11.800781 18.894531 C 11.78125 18.945312 11.78125 7.972656 11.78125 7.972656 L 15.125 7.949219 L 15.125 14.980469 C 15.125 14.980469 24.484375 11.292969 24.484375 17.777344 L 24.484375 29.546875 Z M 23.167969 12.207031 L 19.621094 12.207031 C 20.898438 10.644531 22.054688 7.972656 22.054688 7.972656 L 25.71875 7.972656 C 25.71875 7.972656 25.09375 9.714844 23.167969 12.207031 Z M 11.839844 29.527344 L 11.839844 22.804688 L 15.203125 26.164062 Z M 11.839844 29.527344 "/>
</g>
</svg>
