<?xml version="1.0" encoding="UTF-8"?>
<svg xmlns="http://www.w3.org/2000/svg" xmlns:xlink="http://www.w3.org/1999/xlink" width="37.5pt" height="37.499999pt" viewBox="0 0 37.5 37.499999" version="1.2">
<g id="surface1">
<path style=" stroke:none;fill-rule:nonzero;fill:rgb(0%,0%,0%);fill-opacity:1;" d="M 3.136719 17.332031 C 3.753906 17.03125 4.433594 16.886719 5.121094 16.914062 C 6.445312 16.960938 7.175781 17.632812 7.203125 18.953125 C 7.234375 20.335938 7.226562 21.707031 7.222656 23.085938 C 7.222656 23.648438 7.074219 23.777344 6.519531 23.777344 L 5.75 23.777344 C 5.257812 23.777344 5.105469 23.628906 5.09375 23.132812 L 5.09375 19.433594 C 5.09375 18.863281 4.824219 18.625 4.246094 18.648438 C 4.144531 18.652344 4.046875 18.660156 3.945312 18.679688 C 3.1875 18.832031 3.144531 18.886719 3.144531 19.660156 L 3.144531 22.957031 C 3.144531 23.664062 3.023438 23.78125 2.328125 23.78125 L 1.558594 23.78125 C 1.195312 23.78125 1.039062 23.613281 1.011719 23.238281 L 1.011719 14.527344 C 1.011719 13.890625 1.148438 13.757812 1.777344 13.757812 L 2.453125 13.757812 C 2.980469 13.757812 3.144531 13.902344 3.152344 14.433594 C 3.167969 15.230469 3.152344 16.027344 3.152344 16.824219 C 3.136719 16.96875 3.136719 17.125 3.136719 17.332031 Z M 3.136719 17.332031 "/>
<path style=" stroke:none;fill-rule:nonzero;fill:rgb(0%,0%,0%);fill-opacity:1;" d="M 14.472656 20.5625 C 14.425781 20.925781 14.398438 21.398438 14.300781 21.855469 C 14.148438 22.890625 13.347656 23.707031 12.316406 23.875 C 11.613281 24.027344 10.886719 24.019531 10.183594 23.851562 C 9.296875 23.679688 8.59375 23.007812 8.375 22.132812 C 8.054688 21.027344 8.054688 19.851562 8.375 18.746094 C 8.714844 17.585938 9.601562 16.960938 10.902344 16.917969 C 11.371094 16.890625 11.84375 16.921875 12.304688 17.003906 C 13.535156 17.25 14.230469 18.082031 14.386719 19.441406 C 14.425781 19.785156 14.4375 20.117188 14.472656 20.5625 Z M 12.328125 20.589844 C 12.304688 20.210938 12.292969 19.953125 12.269531 19.695312 C 12.253906 19.5625 12.226562 19.429688 12.1875 19.304688 C 12.109375 18.875 11.71875 18.574219 11.285156 18.609375 C 10.863281 18.578125 10.484375 18.871094 10.40625 19.289062 C 10.214844 20.050781 10.214844 20.851562 10.40625 21.613281 C 10.488281 22.039062 10.882812 22.332031 11.3125 22.28125 C 11.71875 22.308594 12.082031 22.03125 12.160156 21.628906 C 12.234375 21.285156 12.292969 20.9375 12.328125 20.585938 Z M 12.328125 20.589844 "/>
<path style=" stroke:none;fill-rule:nonzero;fill:rgb(0%,0%,0%);fill-opacity:1;" d="M 28.054688 19.53125 C 28.148438 18.824219 27.988281 18.601562 27.304688 18.636719 C 26.746094 18.683594 26.191406 18.765625 25.644531 18.882812 C 25.183594 18.964844 24.84375 18.847656 24.777344 18.488281 C 24.671875 17.894531 24.714844 17.382812 25.191406 17.242188 C 26.292969 16.878906 27.472656 16.820312 28.605469 17.070312 C 29.632812 17.316406 30.132812 18 30.132812 19.109375 L 30.132812 23.042969 C 30.132812 23.339844 30.132812 23.644531 29.78125 23.757812 C 29.386719 23.902344 28.945312 23.78125 28.679688 23.457031 L 28.574219 23.300781 C 27.96875 23.78125 27.210938 24.023438 26.441406 23.980469 C 24.769531 23.917969 23.808594 22.324219 24.535156 20.808594 C 24.875 20.085938 25.554688 19.859375 26.253906 19.746094 C 26.859375 19.65625 27.460938 19.601562 28.054688 19.53125 Z M 28.085938 20.691406 C 27.679688 20.75 27.324219 20.785156 26.976562 20.859375 C 26.617188 20.90625 26.34375 21.210938 26.335938 21.574219 C 26.257812 21.941406 26.453125 22.308594 26.796875 22.453125 C 27.136719 22.585938 27.859375 22.453125 28.023438 22.222656 C 28.054688 22.179688 28.074219 22.125 28.074219 22.070312 C 28.085938 21.625 28.085938 21.179688 28.085938 20.683594 Z M 28.085938 20.691406 "/>
<path style=" stroke:none;fill-rule:nonzero;fill:rgb(0%,0%,0%);fill-opacity:1;" d="M 15.925781 17.152344 L 15.925781 16.277344 C 15.894531 16.007812 16.070312 15.757812 16.332031 15.691406 C 16.679688 15.574219 17.03125 15.476562 17.386719 15.394531 C 17.644531 15.3125 17.921875 15.449219 18.007812 15.707031 C 18.03125 15.777344 18.039062 15.847656 18.027344 15.921875 C 18.042969 16.300781 18.027344 16.675781 18.027344 17.097656 L 19.035156 17.097656 C 19.527344 17.109375 19.695312 17.265625 19.714844 17.773438 C 19.742188 18.808594 19.6875 18.863281 18.664062 18.863281 L 18.074219 18.863281 C 18.058594 18.957031 18.046875 19.050781 18.042969 19.144531 L 18.042969 21.320312 C 18.042969 22 18.246094 22.207031 18.90625 22.253906 C 19.484375 22.296875 19.640625 22.425781 19.640625 22.898438 C 19.664062 23.648438 19.507812 23.902344 18.90625 23.941406 C 18.425781 23.976562 17.945312 23.953125 17.46875 23.867188 C 16.488281 23.667969 15.957031 23.03125 15.925781 21.992188 C 15.898438 21.082031 15.914062 20.175781 15.910156 19.273438 L 15.910156 18.867188 L 15.316406 18.867188 C 15.035156 18.890625 14.792969 18.679688 14.769531 18.402344 C 14.769531 18.386719 14.769531 18.371094 14.769531 18.355469 C 14.6875 17.660156 14.808594 17.476562 15.46875 17.289062 Z M 15.925781 17.152344 "/>
<path style=" stroke:none;fill-rule:nonzero;fill:rgb(0%,0%,0%);fill-opacity:1;" d="M 23.3125 21.375 C 23.3125 22.550781 23.332031 23.730469 23.3125 24.90625 C 23.304688 26.261719 22.199219 27.359375 20.84375 27.351562 C 20.714844 27.351562 20.585938 27.339844 20.457031 27.320312 C 19.984375 27.261719 19.816406 27.074219 19.808594 26.582031 L 19.808594 26.148438 C 19.832031 25.734375 19.957031 25.59375 20.367188 25.519531 C 20.992188 25.402344 21.199219 25.164062 21.199219 24.507812 L 21.199219 17.816406 C 21.199219 17.25 21.34375 17.097656 21.914062 17.082031 L 22.6875 17.082031 C 23.144531 17.101562 23.316406 17.265625 23.316406 17.726562 L 23.316406 21.355469 Z M 23.3125 21.375 "/>
<path style=" stroke:none;fill-rule:nonzero;fill:rgb(0%,0%,0%);fill-opacity:1;" d="M 32.796875 17.5625 C 33.351562 17.160156 34.015625 16.9375 34.699219 16.917969 C 35.378906 16.917969 35.535156 17.058594 35.53125 17.734375 L 35.53125 18.035156 C 35.53125 18.46875 35.351562 18.625 34.925781 18.667969 C 34.527344 18.714844 34.132812 18.785156 33.738281 18.875 C 33.476562 18.933594 33.375 19.09375 33.382812 19.386719 C 33.402344 20.613281 33.382812 21.832031 33.382812 23.050781 C 33.382812 23.652344 33.25 23.777344 32.644531 23.789062 L 31.769531 23.789062 C 31.519531 23.808594 31.296875 23.621094 31.277344 23.371094 C 31.273438 23.339844 31.277344 23.308594 31.277344 23.28125 L 31.277344 17.632812 C 31.257812 17.378906 31.449219 17.160156 31.699219 17.140625 L 31.71875 17.140625 C 32.144531 17.070312 32.589844 17.003906 32.796875 17.5625 Z M 32.796875 17.5625 "/>
<path style=" stroke:none;fill-rule:nonzero;fill:rgb(93.328857%,28.239441%,32.939148%);fill-opacity:1;" d="M 23.082031 15.886719 C 23.46875 14.507812 23.328125 13.8125 22.65625 13.679688 C 22.757812 14.148438 22.875 14.628906 22.382812 14.953125 C 22.125 15.121094 21.921875 15.054688 21.464844 14.707031 C 21.253906 15.136719 21.324219 15.570312 21.421875 16.03125 C 20.765625 15.917969 20.25 15.644531 20.011719 15.011719 C 19.765625 14.4375 19.898438 13.769531 20.351562 13.335938 C 20.507812 13.175781 20.679688 13.027344 20.859375 12.894531 C 21.597656 12.339844 21.738281 11.804688 21.351562 10.972656 C 21.332031 10.925781 21.320312 10.875 21.308594 10.828125 C 22.128906 10.953125 22.902344 11.28125 23.5625 11.785156 C 24.996094 12.957031 24.824219 15.070312 23.238281 15.84375 C 23.183594 15.847656 23.132812 15.863281 23.082031 15.886719 Z M 23.082031 15.886719 "/>
</g>
</svg>
