<?xml version="1.0" encoding="UTF-8"?>
<svg xmlns="http://www.w3.org/2000/svg" xmlns:xlink="http://www.w3.org/1999/xlink" width="37.5pt" height="37.499999pt" viewBox="0 0 37.5 37.499999" version="1.2">
<defs>
<clipPath id="clip1">
  <path d="M 5 7 L 33 7 L 33 37.007812 L 5 37.007812 Z M 5 7 "/>
</clipPath>
</defs>
<g id="surface1">
<path style=" stroke:none;fill-rule:nonzero;fill:rgb(0%,0%,0%);fill-opacity:1;" d="M 7.9375 0 L 9.628906 0 L 9.628906 1.667969 L 11.175781 1.667969 L 11.175781 0 L 12.863281 0 L 12.863281 5.058594 L 11.175781 5.058594 L 11.175781 3.363281 L 9.628906 3.363281 L 9.628906 5.058594 L 7.9375 5.058594 Z M 7.9375 0 "/>
<path style=" stroke:none;fill-rule:nonzero;fill:rgb(0%,0%,0%);fill-opacity:1;" d="M 15.085938 1.675781 L 13.597656 1.675781 L 13.597656 0 L 18.265625 0 L 18.265625 1.675781 L 16.777344 1.675781 L 16.777344 5.058594 L 15.085938 5.058594 Z M 15.085938 1.675781 "/>
<path style=" stroke:none;fill-rule:nonzero;fill:rgb(0%,0%,0%);fill-opacity:1;" d="M 19.007812 0 L 20.769531 0 L 21.855469 1.777344 L 22.9375 0 L 24.699219 0 L 24.699219 5.058594 L 23.015625 5.058594 L 23.015625 2.550781 L 21.855469 4.347656 L 21.824219 4.347656 L 20.660156 2.550781 L 20.660156 5.058594 L 19.007812 5.058594 Z M 19.007812 0 "/>
<path style=" stroke:none;fill-rule:nonzero;fill:rgb(0%,0%,0%);fill-opacity:1;" d="M 25.539062 0 L 27.230469 0 L 27.230469 3.386719 L 29.609375 3.386719 L 29.609375 5.058594 L 25.539062 5.058594 Z M 25.539062 0 "/>
<g clip-path="url(#clip1)" clip-rule="nonzero">
<path style=" stroke:none;fill-rule:nonzero;fill:rgb(89.019775%,30.589294%,14.898682%);fill-opacity:1;" d="M 7.847656 34.476562 L 5.421875 7.273438 L 32.058594 7.273438 L 29.628906 34.480469 L 18.734375 37.5 Z M 7.847656 34.476562 "/>
</g>
<path style=" stroke:none;fill-rule:nonzero;fill:rgb(93.728638%,39.99939%,16.468811%);fill-opacity:1;" d="M 18.738281 9.496094 L 18.738281 35.1875 L 27.550781 32.746094 L 29.628906 9.496094 Z M 18.738281 9.496094 "/>
<path style=" stroke:none;fill-rule:nonzero;fill:rgb(100%,100%,100%);fill-opacity:1;" d="M 10.382812 12.832031 L 11.28125 22.921875 L 22.847656 22.921875 L 22.457031 27.25 L 18.734375 28.257812 L 15.019531 27.253906 L 14.769531 24.472656 L 11.421875 24.472656 L 11.898438 29.832031 L 18.734375 31.726562 L 25.578125 29.832031 L 26.496094 19.585938 L 14.332031 19.585938 L 14.027344 16.171875 L 26.796875 16.171875 L 27.097656 12.832031 Z M 10.382812 12.832031 "/>
<path style=" stroke:none;fill-rule:nonzero;fill:rgb(92.158508%,92.158508%,92.158508%);fill-opacity:1;" d="M 18.738281 12.832031 L 10.382812 12.832031 L 11.28125 22.921875 L 18.738281 22.921875 L 18.738281 19.585938 L 14.332031 19.585938 L 14.027344 16.171875 L 18.738281 16.171875 Z M 18.738281 12.832031 "/>
<path style=" stroke:none;fill-rule:nonzero;fill:rgb(92.158508%,92.158508%,92.158508%);fill-opacity:1;" d="M 18.738281 28.257812 L 18.734375 28.257812 L 15.019531 27.253906 L 14.769531 24.472656 L 11.421875 24.472656 L 11.898438 29.832031 L 18.734375 31.726562 L 18.738281 31.726562 Z M 18.738281 28.257812 "/>
</g>
</svg>
