<?xml version="1.0" encoding="UTF-8"?>
<svg xmlns="http://www.w3.org/2000/svg" xmlns:xlink="http://www.w3.org/1999/xlink" width="37.5pt" height="37.499999pt" viewBox="0 0 37.5 37.499999" version="1.2">
<defs>
<clipPath id="clip1">
  <path d="M 0 0 L 37.007812 0 L 37.007812 37.007812 L 0 37.007812 Z M 0 0 "/>
</clipPath>
</defs>
<g id="surface1">
<g clip-path="url(#clip1)" clip-rule="nonzero">
<path style=" stroke:none;fill-rule:nonzero;fill:rgb(86.268616%,22.349548%,37.249756%);fill-opacity:1;" d="M 34.101562 0 L 3.398438 0 C 1.523438 0 0 1.523438 0 3.398438 L 0 34.101562 C 0 35.976562 1.523438 37.5 3.398438 37.5 L 34.101562 37.5 C 35.976562 37.5 37.5 35.976562 37.5 34.101562 L 37.5 3.398438 C 37.5 1.523438 35.976562 0 34.101562 0 "/>
</g>
<path style=" stroke:none;fill-rule:nonzero;fill:rgb(100%,100%,100%);fill-opacity:1;" d="M 12.53125 11.796875 C 13.777344 11.796875 14.824219 10.820312 14.824219 9.539062 C 14.824219 8.261719 13.777344 7.285156 12.53125 7.285156 C 11.285156 7.285156 10.242188 8.261719 10.242188 9.539062 C 10.242188 10.820312 11.285156 11.796875 12.53125 11.796875 M 7.78125 23.886719 C 7.648438 24.460938 7.582031 25.078125 7.582031 25.582031 C 7.582031 27.570312 8.660156 28.890625 10.949219 28.890625 C 12.847656 28.890625 14.390625 27.761719 15.5 25.941406 L 14.820312 28.65625 L 18.59375 28.65625 L 20.75 20.007812 C 21.289062 17.820312 22.332031 16.683594 23.917969 16.683594 C 25.164062 16.683594 25.9375 17.457031 25.9375 18.738281 C 25.9375 19.109375 25.90625 19.511719 25.769531 19.949219 L 24.65625 23.925781 C 24.488281 24.5 24.421875 25.070312 24.421875 25.609375 C 24.421875 27.496094 25.535156 28.878906 27.859375 28.878906 C 29.847656 28.878906 31.429688 27.597656 32.304688 24.53125 L 30.824219 23.960938 C 30.082031 26.015625 29.441406 26.386719 28.9375 26.386719 C 28.429688 26.386719 28.160156 26.046875 28.160156 25.375 C 28.160156 25.070312 28.230469 24.734375 28.328125 24.332031 L 29.40625 20.457031 C 29.675781 19.546875 29.777344 18.742188 29.777344 18 C 29.777344 15.105469 28.027344 13.59375 25.90625 13.59375 C 23.917969 13.59375 21.894531 15.382812 20.886719 17.273438 L 21.625 13.886719 L 15.867188 13.886719 L 15.058594 16.867188 L 17.753906 16.867188 L 16.09375 23.511719 C 14.789062 26.410156 12.394531 26.457031 12.09375 26.390625 C 11.601562 26.277344 11.285156 26.089844 11.285156 25.449219 C 11.285156 25.078125 11.351562 24.546875 11.523438 23.90625 L 14.046875 13.886719 L 7.648438 13.886719 L 6.839844 16.867188 L 9.5 16.867188 L 7.78125 23.886719 "/>
</g>
</svg>
