<?xml version="1.0" encoding="UTF-8"?>
<svg xmlns="http://www.w3.org/2000/svg" xmlns:xlink="http://www.w3.org/1999/xlink" width="37.5pt" height="37.499999pt" viewBox="0 0 37.5 37.499999" version="1.2">
<defs>
<clipPath id="clip1">
  <path d="M 0 0 L 37.007812 0 L 37.007812 37.007812 L 0 37.007812 Z M 0 0 "/>
</clipPath>
</defs>
<g id="surface1">
<g clip-path="url(#clip1)" clip-rule="nonzero">
<path style=" stroke:none;fill-rule:nonzero;fill:rgb(96.859741%,87.449646%,11.759949%);fill-opacity:1;" d="M 0 0 L 37.5 0 L 37.5 37.5 L 0 37.5 Z M 0 0 "/>
</g>
<path style=" stroke:none;fill-rule:nonzero;fill:rgb(0%,0%,0%);fill-opacity:1;" d="M 9.859375 31.335938 L 12.730469 29.601562 C 13.285156 30.582031 13.789062 31.414062 14.996094 31.414062 C 16.152344 31.414062 16.882812 30.960938 16.882812 29.199219 L 16.882812 17.214844 L 20.40625 17.214844 L 20.40625 29.25 C 20.40625 32.898438 18.269531 34.558594 15.144531 34.558594 C 12.328125 34.558594 10.691406 33.097656 9.859375 31.335938 "/>
<path style=" stroke:none;fill-rule:nonzero;fill:rgb(0%,0%,0%);fill-opacity:1;" d="M 22.320312 30.960938 L 25.191406 29.296875 C 25.945312 30.53125 26.929688 31.4375 28.664062 31.4375 C 30.125 31.4375 31.054688 30.707031 31.054688 29.703125 C 31.054688 28.492188 30.097656 28.066406 28.488281 27.359375 L 27.609375 26.984375 C 25.066406 25.902344 23.378906 24.542969 23.378906 21.671875 C 23.378906 19.027344 25.390625 17.015625 28.539062 17.015625 C 30.777344 17.015625 32.390625 17.796875 33.546875 19.835938 L 30.804688 21.597656 C 30.199219 20.515625 29.546875 20.085938 28.539062 20.085938 C 27.507812 20.085938 26.851562 20.742188 26.851562 21.597656 C 26.851562 22.652344 27.507812 23.082031 29.015625 23.734375 L 29.898438 24.113281 C 32.894531 25.398438 34.582031 26.707031 34.582031 29.652344 C 34.582031 32.824219 32.089844 34.558594 28.742188 34.558594 C 25.46875 34.558594 23.351562 33 22.320312 30.960938 "/>
</g>
</svg>
