<?xml version="1.0" encoding="UTF-8"?>
<svg xmlns="http://www.w3.org/2000/svg" xmlns:xlink="http://www.w3.org/1999/xlink" width="37.5pt" height="37.499999pt" viewBox="0 0 37.5 37.499999" version="1.2">
<defs>
<clipPath id="clip1">
  <path d="M 0 0 L 37.007812 0 L 37.007812 37 L 0 37 Z M 0 0 "/>
</clipPath>
</defs>
<g id="surface1">
<g clip-path="url(#clip1)" clip-rule="nonzero">
<path style=" stroke:none;fill-rule:nonzero;fill:rgb(3.138733%,40.779114%,67.449951%);fill-opacity:1;" d="M 2.511719 9.027344 C -0.804688 13.796875 -0.394531 20.003906 2.140625 25.082031 C 2.199219 25.207031 2.265625 25.324219 2.328125 25.445312 L 2.445312 25.671875 C 2.46875 25.71875 2.492188 25.761719 2.519531 25.804688 C 2.5625 25.886719 2.605469 25.960938 2.652344 26.042969 L 2.894531 26.457031 L 3.03125 26.683594 L 3.3125 27.121094 L 3.433594 27.308594 C 3.566406 27.503906 3.699219 27.703125 3.839844 27.894531 L 3.917969 28 C 4.039062 28.167969 4.164062 28.332031 4.289062 28.492188 L 4.429688 28.671875 L 4.773438 29.09375 L 4.902344 29.25 C 5.058594 29.433594 5.21875 29.617188 5.378906 29.796875 C 5.394531 29.8125 5.402344 29.820312 5.410156 29.828125 C 5.566406 30 5.730469 30.167969 5.894531 30.335938 L 6.050781 30.496094 L 6.4375 30.875 L 6.59375 31.027344 C 6.769531 31.191406 6.945312 31.351562 7.125 31.507812 L 7.707031 32 L 7.90625 32.160156 L 8.308594 32.476562 L 8.523438 32.640625 L 8.972656 32.960938 L 9.183594 33.109375 C 9.328125 33.210938 9.472656 33.304688 9.621094 33.402344 L 9.8125 33.527344 C 10.039062 33.671875 10.265625 33.8125 10.496094 33.945312 L 10.6875 34.0625 L 11.203125 34.351562 C 11.296875 34.402344 11.394531 34.449219 11.488281 34.5 L 11.855469 34.691406 L 11.941406 34.730469 L 12.09375 34.804688 L 12.675781 35.074219 L 12.800781 35.128906 C 13.027344 35.226562 13.253906 35.320312 13.480469 35.410156 L 13.644531 35.476562 L 14.289062 35.714844 L 14.371094 35.742188 C 14.605469 35.824219 14.84375 35.902344 15.085938 35.976562 L 15.257812 36.027344 C 15.492188 36.101562 15.746094 36.191406 15.996094 36.238281 C 32.042969 39.164062 36.703125 26.59375 36.703125 26.59375 C 32.789062 31.691406 25.839844 33.039062 19.242188 31.539062 C 18.992188 31.484375 18.75 31.40625 18.507812 31.332031 L 18.324219 31.277344 C 18.085938 31.207031 17.851562 31.128906 17.617188 31.046875 L 17.519531 31.011719 C 17.3125 30.9375 17.101562 30.863281 16.894531 30.78125 L 16.71875 30.710938 C 16.492188 30.621094 16.269531 30.527344 16.046875 30.429688 L 15.910156 30.371094 L 15.34375 30.105469 L 15.179688 30.027344 C 15.03125 29.957031 14.886719 29.878906 14.738281 29.792969 L 14.445312 29.640625 C 14.269531 29.546875 14.09375 29.445312 13.917969 29.347656 L 13.742188 29.246094 C 13.511719 29.109375 13.28125 28.96875 13.054688 28.828125 C 12.992188 28.785156 12.933594 28.746094 12.871094 28.703125 L 12.382812 28.378906 C 12.328125 28.34375 12.265625 28.304688 12.226562 28.269531 L 11.765625 27.933594 L 11.558594 27.78125 L 11.144531 27.453125 L 10.957031 27.304688 L 10.441406 26.867188 C 10.421875 26.851562 10.402344 26.835938 10.382812 26.820312 L 9.835938 26.324219 L 9.683594 26.179688 L 9.144531 25.640625 C 8.980469 25.472656 8.820312 25.304688 8.675781 25.128906 C 8.664062 25.121094 8.65625 25.113281 8.652344 25.105469 C 8.484375 24.921875 8.324219 24.738281 8.164062 24.550781 L 8.046875 24.398438 L 7.695312 23.964844 L 7.578125 23.804688 L 7.171875 23.265625 C 3.496094 18.28125 2.179688 11.394531 5.101562 5.746094 M 12.8125 5.011719 C 10.414062 8.464844 10.542969 13.097656 12.414062 16.738281 C 12.730469 17.355469 13.082031 17.945312 13.476562 18.511719 C 13.835938 19.027344 14.234375 19.640625 14.710938 20.054688 C 14.886719 20.246094 15.066406 20.429688 15.25 20.613281 L 15.390625 20.753906 C 15.570312 20.929688 15.753906 21.097656 15.941406 21.265625 C 15.949219 21.269531 15.953125 21.277344 15.964844 21.285156 C 16.175781 21.472656 16.394531 21.636719 16.613281 21.820312 L 16.757812 21.933594 C 16.976562 22.105469 17.203125 22.269531 17.429688 22.425781 L 17.449219 22.441406 C 17.550781 22.511719 17.652344 22.574219 17.757812 22.644531 C 17.804688 22.675781 17.851562 22.707031 17.902344 22.738281 C 18.066406 22.84375 18.234375 22.945312 18.402344 23.042969 L 18.472656 23.085938 L 18.910156 23.320312 C 18.964844 23.347656 19.027344 23.371094 19.070312 23.402344 L 19.378906 23.558594 C 19.390625 23.570312 19.410156 23.574219 19.425781 23.582031 C 19.636719 23.6875 19.847656 23.785156 20.066406 23.878906 L 20.207031 23.9375 C 20.382812 24.011719 20.558594 24.085938 20.734375 24.152344 L 20.960938 24.234375 C 21.121094 24.292969 21.28125 24.347656 21.441406 24.402344 L 21.664062 24.472656 C 21.894531 24.542969 22.132812 24.636719 22.363281 24.675781 C 34.753906 26.726562 37.613281 17.175781 37.613281 17.175781 C 35.035156 20.890625 30.042969 22.660156 24.710938 21.277344 C 24.476562 21.214844 24.242188 21.148438 24.011719 21.074219 C 23.941406 21.050781 23.871094 21.027344 23.800781 21.003906 L 23.308594 20.835938 L 23.074219 20.753906 C 22.894531 20.6875 22.71875 20.617188 22.546875 20.542969 L 22.402344 20.484375 C 22.183594 20.386719 21.96875 20.289062 21.757812 20.183594 L 21.429688 20.019531 L 21.242188 19.921875 C 21.105469 19.847656 20.96875 19.769531 20.832031 19.691406 L 20.734375 19.636719 C 20.566406 19.539062 20.402344 19.4375 20.238281 19.332031 C 20.1875 19.300781 20.140625 19.265625 20.089844 19.234375 L 19.765625 19.019531 C 19.539062 18.863281 19.316406 18.699219 19.097656 18.53125 L 18.945312 18.414062 C 16.601562 16.570312 14.765625 14.054688 13.886719 11.199219 C 12.964844 8.242188 13.164062 4.917969 14.757812 2.222656 M 21.476562 2.007812 C 20.0625 4.101562 19.921875 6.675781 20.902344 8.976562 C 21.9375 11.417969 24.058594 13.332031 26.535156 14.25 L 26.84375 14.367188 L 26.980469 14.410156 L 27.421875 14.527344 C 34.261719 15.847656 36.117188 11.015625 36.613281 10.304688 C 34.984375 12.644531 32.253906 13.207031 28.902344 12.390625 C 28.636719 12.328125 28.347656 12.230469 28.09375 12.140625 C 27.765625 12.027344 27.441406 11.890625 27.128906 11.742188 C 26.53125 11.453125 25.96875 11.113281 25.441406 10.710938 C 22.441406 8.4375 20.578125 4.085938 22.535156 0.550781 "/>
</g>
</g>
</svg>
