<?xml version="1.0" encoding="UTF-8"?>
<svg xmlns="http://www.w3.org/2000/svg" xmlns:xlink="http://www.w3.org/1999/xlink" width="37.5pt" height="37.499999pt" viewBox="0 0 37.5 37.499999" version="1.2">
<defs>
<clipPath id="clip1">
  <path d="M 26 18 L 37.007812 18 L 37.007812 25 L 26 25 Z M 26 18 "/>
</clipPath>
<clipPath id="clip2">
  <path d="M 26 12 L 37.007812 12 L 37.007812 19 L 26 19 Z M 26 12 "/>
</clipPath>
<clipPath id="clip3">
  <path d="M 13 11.933594 L 23 11.933594 L 23 25 L 13 25 Z M 13 11.933594 "/>
</clipPath>
<clipPath id="clip4">
  <path d="M 0 12 L 9 12 L 9 25.304688 L 0 25.304688 Z M 0 12 "/>
</clipPath>
</defs>
<g id="surface1">
<g clip-path="url(#clip1)" clip-rule="nonzero">
<path style=" stroke:none;fill-rule:evenodd;fill:rgb(89.7995%,21.958923%,20.779419%);fill-opacity:1;" d="M 33.066406 19.769531 L 32.167969 18.796875 L 31.273438 19.769531 L 26.839844 24.570312 L 28.632812 24.570312 L 32.167969 20.742188 L 35.707031 24.570312 L 37.5 24.570312 Z M 33.066406 19.769531 "/>
</g>
<g clip-path="url(#clip2)" clip-rule="nonzero">
<path style=" stroke:none;fill-rule:evenodd;fill:rgb(89.7995%,21.958923%,20.779419%);fill-opacity:1;" d="M 35.679688 12.304688 L 32.167969 16.105469 L 28.65625 12.304688 L 26.839844 12.304688 L 31.257812 17.089844 L 32.167969 18.078125 L 33.078125 17.089844 L 37.5 12.304688 Z M 35.679688 12.304688 "/>
</g>
<g clip-path="url(#clip3)" clip-rule="nonzero">
<path style=" stroke:none;fill-rule:evenodd;fill:rgb(53.329468%,53.729248%,54.899597%);fill-opacity:1;" d="M 14.957031 21.988281 C 15.875 22.917969 17.144531 23.527344 18.46875 23.527344 C 20.144531 23.527344 21.140625 22.710938 21.140625 21.492188 C 21.140625 20.214844 20.214844 19.804688 19.007812 19.289062 L 17.171875 18.496094 C 15.980469 17.996094 14.585938 17.113281 14.585938 15.269531 C 14.585938 13.355469 16.285156 11.945312 18.609375 11.945312 C 20.121094 11.945312 21.472656 12.585938 22.371094 13.496094 L 21.46875 14.484375 C 20.695312 13.78125 19.769531 13.347656 18.609375 13.347656 C 17.175781 13.347656 16.226562 14.054688 16.226562 15.175781 C 16.226562 16.382812 17.339844 16.832031 18.339844 17.25 L 20.160156 18.019531 C 21.640625 18.644531 22.792969 19.507812 22.792969 21.371094 C 22.792969 23.347656 21.125 24.929688 18.441406 24.929688 C 16.648438 24.929688 15.085938 24.214844 13.96875 23.070312 Z M 14.957031 21.988281 "/>
</g>
<g clip-path="url(#clip4)" clip-rule="nonzero">
<path style=" stroke:none;fill-rule:evenodd;fill:rgb(53.329468%,53.729248%,54.899597%);fill-opacity:1;" d="M 6.515625 12.359375 C 6.515625 12.359375 6.5 18.476562 6.5 19.996094 C 6.5 21.9375 5.609375 22.6875 5.582031 22.71875 C 4.566406 23.757812 2.828125 23.839844 1.742188 22.871094 C 1.460938 22.621094 1.203125 22.347656 0.964844 22.097656 L 0 23.183594 C 0.195312 23.390625 0.324219 23.535156 0.558594 23.765625 C 1.375 24.589844 2.441406 25.007812 3.5 25.019531 C 4.558594 25.03125 5.867188 24.632812 6.65625 23.832031 C 6.660156 23.828125 6.667969 23.820312 6.675781 23.8125 C 6.710938 23.777344 8.070312 22.503906 8.078125 20.269531 L 8.078125 12.359375 Z M 6.515625 12.359375 "/>
</g>
</g>
</svg>
