<?xml version="1.0" encoding="UTF-8"?>
<svg xmlns="http://www.w3.org/2000/svg" xmlns:xlink="http://www.w3.org/1999/xlink" width="37.5pt" height="37.499999pt" viewBox="0 0 37.5 37.499999" version="1.2">
<defs>
<clipPath id="clip1">
  <path d="M 0 0 L 37.007812 0 L 37.007812 37.007812 L 0 37.007812 Z M 0 0 "/>
</clipPath>
</defs>
<g id="surface1">
<g clip-path="url(#clip1)" clip-rule="nonzero">
<path style=" stroke:none;fill-rule:nonzero;fill:rgb(12.939453%,27.449036%,45.489502%);fill-opacity:1;" d="M 37.5 18.75 C 37.5 19.363281 37.46875 19.976562 37.410156 20.585938 C 37.347656 21.199219 37.257812 21.804688 37.140625 22.40625 C 37.019531 23.011719 36.871094 23.605469 36.691406 24.191406 C 36.515625 24.78125 36.308594 25.359375 36.074219 25.925781 C 35.835938 26.492188 35.574219 27.046875 35.285156 27.589844 C 34.996094 28.128906 34.679688 28.65625 34.339844 29.167969 C 34 29.675781 33.632812 30.171875 33.242188 30.644531 C 32.855469 31.121094 32.441406 31.574219 32.007812 32.007812 C 31.574219 32.441406 31.121094 32.855469 30.644531 33.242188 C 30.171875 33.632812 29.675781 34 29.167969 34.339844 C 28.65625 34.679688 28.128906 34.996094 27.589844 35.285156 C 27.046875 35.574219 26.492188 35.835938 25.925781 36.074219 C 25.359375 36.308594 24.78125 36.515625 24.191406 36.691406 C 23.605469 36.871094 23.011719 37.019531 22.40625 37.140625 C 21.804688 37.257812 21.199219 37.347656 20.585938 37.410156 C 19.976562 37.46875 19.363281 37.5 18.75 37.5 C 18.136719 37.5 17.523438 37.46875 16.914062 37.410156 C 16.300781 37.347656 15.695312 37.257812 15.09375 37.140625 C 14.488281 37.019531 13.894531 36.871094 13.308594 36.691406 C 12.71875 36.515625 12.140625 36.308594 11.574219 36.074219 C 11.007812 35.835938 10.453125 35.574219 9.910156 35.285156 C 9.371094 34.996094 8.84375 34.679688 8.332031 34.339844 C 7.824219 34 7.328125 33.632812 6.855469 33.242188 C 6.378906 32.855469 5.925781 32.441406 5.492188 32.007812 C 5.058594 31.574219 4.644531 31.121094 4.257812 30.644531 C 3.867188 30.171875 3.5 29.675781 3.160156 29.167969 C 2.820312 28.65625 2.503906 28.128906 2.214844 27.589844 C 1.925781 27.046875 1.664062 26.492188 1.425781 25.925781 C 1.191406 25.359375 0.984375 24.78125 0.808594 24.191406 C 0.628906 23.605469 0.480469 23.011719 0.359375 22.40625 C 0.242188 21.804688 0.152344 21.199219 0.0898438 20.585938 C 0.03125 19.976562 0 19.363281 0 18.75 C 0 18.136719 0.03125 17.523438 0.0898438 16.914062 C 0.152344 16.300781 0.242188 15.695312 0.359375 15.09375 C 0.480469 14.488281 0.628906 13.894531 0.808594 13.308594 C 0.984375 12.71875 1.191406 12.140625 1.425781 11.574219 C 1.664062 11.007812 1.925781 10.453125 2.214844 9.910156 C 2.503906 9.371094 2.820312 8.84375 3.160156 8.332031 C 3.5 7.824219 3.867188 7.328125 4.257812 6.855469 C 4.644531 6.378906 5.058594 5.925781 5.492188 5.492188 C 5.925781 5.058594 6.378906 4.644531 6.855469 4.257812 C 7.328125 3.867188 7.824219 3.5 8.332031 3.160156 C 8.84375 2.820312 9.371094 2.503906 9.910156 2.214844 C 10.453125 1.925781 11.007812 1.664062 11.574219 1.425781 C 12.140625 1.191406 12.71875 0.984375 13.308594 0.808594 C 13.894531 0.628906 14.488281 0.480469 15.09375 0.359375 C 15.695312 0.242188 16.300781 0.152344 16.914062 0.0898438 C 17.523438 0.03125 18.136719 0 18.75 0 C 19.363281 0 19.976562 0.03125 20.585938 0.0898438 C 21.199219 0.152344 21.804688 0.242188 22.40625 0.359375 C 23.011719 0.480469 23.605469 0.628906 24.191406 0.808594 C 24.78125 0.984375 25.359375 1.191406 25.925781 1.425781 C 26.492188 1.664062 27.046875 1.925781 27.589844 2.214844 C 28.128906 2.503906 28.65625 2.820312 29.167969 3.160156 C 29.675781 3.5 30.171875 3.867188 30.644531 4.257812 C 31.121094 4.644531 31.574219 5.058594 32.007812 5.492188 C 32.441406 5.925781 32.855469 6.378906 33.242188 6.855469 C 33.632812 7.328125 34 7.824219 34.339844 8.332031 C 34.679688 8.84375 34.996094 9.371094 35.285156 9.910156 C 35.574219 10.453125 35.835938 11.007812 36.074219 11.574219 C 36.308594 12.140625 36.515625 12.71875 36.691406 13.308594 C 36.871094 13.894531 37.019531 14.488281 37.140625 15.09375 C 37.257812 15.695312 37.347656 16.300781 37.410156 16.914062 C 37.46875 17.523438 37.5 18.136719 37.5 18.75 Z M 37.5 18.75 "/>
</g>
<path style=" stroke:none;fill-rule:nonzero;fill:rgb(96.469116%,96.469116%,96.469116%);fill-opacity:1;" d="M 22.988281 18.523438 C 24.488281 19.050781 25.273438 19.949219 25.273438 21.261719 C 25.273438 22.125 24.976562 22.761719 24.335938 23.289062 C 23.699219 23.773438 22.835938 24.074219 21.675781 24.074219 C 20.585938 24.074219 19.574219 23.773438 18.636719 23.289062 C 18.523438 23.210938 18.449219 23.101562 18.449219 22.949219 C 18.496094 22.691406 18.570312 22.441406 18.675781 22.199219 L 18.976562 21.601562 C 19.085938 21.449219 19.238281 21.414062 19.425781 21.488281 C 20.25 21.863281 20.925781 22.085938 21.5625 22.085938 C 21.863281 22.085938 22.125 22.050781 22.3125 21.9375 C 22.5 21.824219 22.574219 21.675781 22.574219 21.523438 C 22.574219 21.1875 22.3125 20.925781 21.789062 20.773438 L 20.851562 20.4375 C 19.425781 19.914062 18.710938 19.085938 18.710938 17.886719 C 18.710938 17.023438 19.011719 16.351562 19.613281 15.863281 C 20.210938 15.375 21 14.925781 22.011719 14.925781 C 22.5 14.925781 23.0625 15 23.664062 15.148438 C 24.1875 15.261719 24.601562 15.523438 24.976562 15.75 C 25.085938 15.824219 25.164062 15.9375 25.164062 16.085938 C 25.164062 16.351562 25.085938 16.613281 24.976562 16.914062 C 24.863281 17.175781 24.75 17.398438 24.601562 17.550781 C 24.488281 17.664062 24.335938 17.699219 24.226562 17.625 C 23.363281 17.25 22.648438 17.0625 22.050781 17.0625 C 21.824219 17.0625 21.636719 17.101562 21.523438 17.210938 C 21.414062 17.324219 21.335938 17.4375 21.335938 17.585938 C 21.335938 17.851562 21.5625 18.074219 21.976562 18.226562 Z M 29.960938 19.875 C 29.476562 20.289062 29.210938 20.886719 29.210938 21.710938 L 29.210938 24.675781 C 29.210938 25.648438 28.914062 26.398438 28.238281 26.925781 C 27.5625 27.449219 26.773438 27.675781 25.875 27.710938 L 25.351562 27.710938 L 25.351562 26.476562 C 25.351562 26.324219 25.425781 26.210938 25.574219 26.175781 C 25.914062 26.0625 26.0625 25.914062 26.210938 25.761719 C 26.550781 25.460938 26.8125 24.9375 26.8125 24.261719 L 26.8125 21.863281 C 26.8125 21.039062 26.886719 20.398438 27.1875 19.949219 C 27.414062 19.613281 27.789062 19.3125 28.3125 19.011719 C 28.539062 18.898438 28.539062 18.5625 28.3125 18.414062 C 27.675781 18.039062 27.261719 17.585938 27 17.023438 C 26.8125 16.613281 26.8125 16.050781 26.8125 15.335938 L 26.8125 13.164062 C 26.8125 12.449219 26.585938 11.925781 26.289062 11.664062 C 26.101562 11.464844 25.878906 11.339844 25.613281 11.289062 C 25.460938 11.25 25.386719 11.101562 25.386719 10.949219 L 25.386719 10.164062 C 25.386719 9.976562 25.539062 9.824219 25.726562 9.824219 L 26.738281 9.824219 C 27.300781 9.824219 27.789062 10.125 28.199219 10.460938 C 28.648438 10.835938 28.988281 11.289062 29.175781 11.925781 C 29.289062 12.261719 29.289062 12.601562 29.289062 12.9375 L 29.289062 15.449219 C 29.289062 16.351562 29.550781 17.023438 30 17.4375 C 30.226562 17.664062 30.523438 17.851562 31.011719 18.039062 C 31.164062 18.074219 31.238281 18.226562 31.238281 18.335938 L 31.238281 18.976562 C 31.238281 19.125 31.164062 19.238281 31.011719 19.3125 C 30.488281 19.460938 30.1875 19.648438 29.960938 19.875 Z M 11.550781 9.824219 L 11.0625 9.824219 C 10.5 9.824219 10.011719 10.125 9.601562 10.460938 C 9.148438 10.835938 8.738281 11.289062 8.625 11.925781 C 8.550781 12.300781 8.585938 12.601562 8.585938 12.9375 L 8.585938 15.449219 C 8.585938 16.351562 8.25 16.988281 7.800781 17.4375 C 7.574219 17.664062 7.125 17.851562 6.601562 18.039062 C 6.449219 18.113281 6.375 18.226562 6.375 18.375 L 6.375 19.011719 C 6.375 19.164062 6.449219 19.273438 6.601562 19.351562 C 7.050781 19.5 7.460938 19.6875 7.726562 19.914062 C 8.210938 20.324219 8.550781 20.925781 8.550781 21.75 L 8.550781 24.710938 C 8.550781 25.6875 8.773438 26.4375 9.449219 26.960938 C 10.125 27.488281 10.914062 27.710938 11.8125 27.75 L 12.074219 27.75 C 12.261719 27.75 12.414062 27.601562 12.414062 27.414062 L 12.414062 26.511719 C 12.414062 26.363281 12.335938 26.25 12.1875 26.210938 C 11.851562 26.101562 11.625 25.949219 11.476562 25.800781 C 11.136719 25.5 10.949219 24.976562 10.949219 24.300781 L 10.949219 21.898438 C 10.949219 21.074219 10.800781 20.4375 10.5 19.988281 C 10.273438 19.648438 9.898438 19.351562 9.375 19.050781 C 9.148438 18.9375 9.148438 18.601562 9.375 18.449219 C 10.011719 18.074219 10.425781 17.625 10.6875 17.0625 C 10.875 16.648438 10.949219 16.085938 10.949219 15.375 L 10.949219 13.199219 C 10.949219 12.488281 11.101562 11.960938 11.398438 11.699219 C 11.550781 11.550781 11.8125 11.4375 12.1875 11.324219 L 12.523438 11.324219 C 12.710938 11.324219 12.863281 11.175781 12.863281 10.988281 L 12.863281 10.199219 C 12.863281 10.011719 12.710938 9.863281 12.523438 9.863281 Z M 17.625 21.789062 L 17.175781 21.789062 C 16.6875 21.789062 16.5 21.523438 16.5 21 L 16.5 11.289062 C 16.5 10.6875 16.3125 10.273438 16.125 10.050781 C 15.898438 9.824219 15.523438 9.824219 15 9.824219 L 14.175781 9.824219 C 13.988281 9.824219 13.835938 9.976562 13.835938 10.164062 L 13.835938 21.488281 C 13.835938 22.3125 14.023438 22.875 14.363281 23.289062 C 14.699219 23.664062 15.226562 23.851562 16.011719 23.851562 C 16.5 23.851562 17.023438 23.8125 17.585938 23.738281 C 17.738281 23.699219 17.851562 23.585938 17.886719 23.4375 L 17.886719 22.988281 C 17.8125 22.539062 17.738281 22.164062 17.625 21.789062 Z M 17.625 21.789062 "/>
</g>
</svg>
