<?xml version="1.0" encoding="UTF-8"?>
<svg xmlns="http://www.w3.org/2000/svg" xmlns:xlink="http://www.w3.org/1999/xlink" width="37.5pt" height="37.499999pt" viewBox="0 0 37.5 37.499999" version="1.2">
<defs>
<clipPath id="clip1">
  <path d="M 3.480469 0 L 34.230469 0 L 34.230469 37.007812 L 3.480469 37.007812 Z M 3.480469 0 "/>
</clipPath>
</defs>
<g id="surface1">
<g clip-path="url(#clip1)" clip-rule="nonzero">
<path style=" stroke:none;fill-rule:nonzero;fill:rgb(59.999084%,59.999084%,59.999084%);fill-opacity:1;" d="M 20.5625 3.28125 C 23.058594 0.0351562 26.527344 0.0195312 26.527344 0.0195312 C 26.527344 0.0195312 27.042969 3.070312 24.5625 6.007812 C 21.917969 9.144531 18.910156 8.632812 18.910156 8.632812 C 18.910156 8.632812 18.34375 6.164062 20.5625 3.28125 Z M 19.226562 10.769531 C 20.507812 10.769531 22.890625 9.027344 25.992188 9.027344 C 31.332031 9.027344 33.433594 12.773438 33.433594 12.773438 C 33.433594 12.773438 29.324219 14.847656 29.324219 19.871094 C 29.324219 25.542969 34.441406 27.496094 34.441406 27.496094 C 34.441406 27.496094 30.863281 37.425781 26.035156 37.425781 C 23.8125 37.425781 22.089844 35.949219 19.75 35.949219 C 17.367188 35.949219 15.003906 37.480469 13.464844 37.480469 C 9.050781 37.480469 3.480469 28.0625 3.480469 20.488281 C 3.480469 13.039062 8.195312 9.132812 12.621094 9.132812 C 15.5 9.132812 17.730469 10.769531 19.226562 10.769531 Z M 19.226562 10.769531 "/>
</g>
</g>
</svg>
