<?xml version="1.0" encoding="UTF-8"?>
<svg xmlns="http://www.w3.org/2000/svg" xmlns:xlink="http://www.w3.org/1999/xlink" width="37.5pt" height="37.499999pt" viewBox="0 0 37.5 37.499999" version="1.2">
<defs>
<clipPath id="clip1">
  <path d="M 0 0 L 37.007812 0 L 37.007812 37.007812 L 0 37.007812 Z M 0 0 "/>
</clipPath>
</defs>
<g id="surface1">
<g clip-path="url(#clip1)" clip-rule="nonzero">
<path style=" stroke:none;fill-rule:nonzero;fill:rgb(25.878906%,39.219666%,98.429871%);fill-opacity:1;" d="M 18.75 0 C 8.394531 0 0 8.394531 0 18.75 C 0 29.105469 8.394531 37.5 18.75 37.5 C 29.105469 37.5 37.5 29.105469 37.5 18.75 C 37.5 8.394531 29.105469 0 18.75 0 Z M 27.652344 23.347656 C 21.238281 29.757812 9.785156 27.714844 9.785156 27.714844 C 9.785156 27.714844 7.71875 16.28125 14.152344 9.847656 C 17.714844 6.285156 23.621094 6.433594 27.355469 10.144531 C 31.089844 13.855469 31.214844 19.785156 27.652344 23.347656 Z M 20.902344 10.988281 L 19.066406 14.765625 L 15.292969 16.597656 L 19.066406 18.433594 L 20.902344 22.207031 L 22.734375 18.433594 L 26.511719 16.597656 L 22.734375 14.765625 Z M 20.902344 10.988281 "/>
</g>
</g>
</svg>
