<?xml version="1.0" encoding="UTF-8"?>
<svg xmlns="http://www.w3.org/2000/svg" xmlns:xlink="http://www.w3.org/1999/xlink" width="37.5pt" height="37.499999pt" viewBox="0 0 37.5 37.499999" version="1.2">
<defs>
<clipPath id="clip1">
  <path d="M 0 7.191406 L 37.007812 7.191406 L 37.007812 30.441406 L 0 30.441406 Z M 0 7.191406 "/>
</clipPath>
</defs>
<g id="surface1">
<g clip-path="url(#clip1)" clip-rule="nonzero">
<path style=" stroke:none;fill-rule:nonzero;fill:rgb(0%,0%,0%);fill-opacity:1;" d="M 34.894531 30.570312 L 2.71875 30.570312 C 1.261719 30.570312 0.0273438 29.320312 0.0273438 27.84375 L 0.0273438 9.917969 C 0.0273438 8.441406 1.261719 7.191406 2.71875 7.191406 L 34.78125 7.191406 C 36.238281 7.191406 37.472656 8.441406 37.472656 9.917969 L 37.472656 27.84375 C 37.472656 29.320312 36.351562 30.570312 34.894531 30.570312 Z M 2.71875 9.007812 C 2.269531 9.007812 1.820312 9.460938 1.820312 9.917969 L 1.820312 27.84375 C 1.820312 28.414062 2.269531 28.753906 2.71875 28.753906 L 34.78125 28.753906 C 35.339844 28.753906 35.679688 28.300781 35.679688 27.84375 L 35.679688 9.917969 C 35.679688 9.347656 35.230469 9.007812 34.78125 9.007812 C 34.894531 9.007812 2.71875 9.007812 2.71875 9.007812 Z M 5.410156 25.121094 L 5.410156 12.640625 L 8.996094 12.640625 L 12.585938 17.179688 L 16.171875 12.640625 L 19.757812 12.640625 L 19.757812 25.121094 L 16.171875 25.121094 L 16.171875 17.972656 L 12.585938 22.511719 L 8.996094 17.972656 L 8.996094 25.121094 Z M 27.941406 25.121094 L 22.5625 19.109375 L 26.148438 19.109375 L 26.148438 12.640625 L 29.734375 12.640625 L 29.734375 18.996094 L 33.324219 18.996094 Z M 27.941406 25.121094 "/>
</g>
</g>
</svg>
