<?xml version="1.0" encoding="UTF-8"?>
<svg xmlns="http://www.w3.org/2000/svg" xmlns:xlink="http://www.w3.org/1999/xlink" width="37.5pt" height="37.499999pt" viewBox="0 0 37.5 37.499999" version="1.2">
<defs>
<clipPath id="clip1">
  <path d="M 0 0 L 37.007812 0 L 37.007812 37.007812 L 0 37.007812 Z M 0 0 "/>
</clipPath>
</defs>
<g id="surface1">
<g clip-path="url(#clip1)" clip-rule="nonzero">
<path style=" stroke:none;fill-rule:evenodd;fill:rgb(100%,100%,100%);fill-opacity:1;" d="M 0 0 L 37.5 0 L 37.5 37.5 L 0 37.5 Z M 0 0 "/>
</g>
<path style=" stroke:none;fill-rule:evenodd;fill:rgb(80.778503%,21.958923%,16.079712%);fill-opacity:1;" d="M 35.828125 17.996094 C 35.828125 17.6875 36.046875 17.457031 36.328125 17.457031 C 36.605469 17.457031 36.824219 17.6875 36.824219 17.996094 C 36.824219 18.308594 36.605469 18.539062 36.328125 18.539062 C 36.046875 18.539062 35.828125 18.308594 35.828125 17.996094 Z M 36.328125 18.648438 C 36.664062 18.648438 36.949219 18.371094 36.949219 17.996094 C 36.949219 17.621094 36.664062 17.347656 36.328125 17.347656 C 35.992188 17.347656 35.703125 17.621094 35.703125 17.996094 C 35.703125 18.371094 35.992188 18.648438 36.328125 18.648438 Z M 36.199219 18.046875 L 36.320312 18.046875 L 36.507812 18.371094 L 36.628906 18.371094 L 36.425781 18.042969 C 36.53125 18.027344 36.609375 17.96875 36.609375 17.835938 C 36.609375 17.6875 36.527344 17.621094 36.359375 17.621094 L 36.089844 17.621094 L 36.089844 18.371094 L 36.199219 18.371094 Z M 36.199219 17.953125 L 36.199219 17.71875 L 36.34375 17.71875 C 36.417969 17.71875 36.5 17.734375 36.5 17.828125 C 36.5 17.945312 36.417969 17.953125 36.328125 17.953125 Z M 33.628906 20.710938 L 34.980469 20.710938 L 34.980469 19.714844 L 33.664062 19.714844 L 33.664062 18.898438 L 35.097656 18.898438 L 35.101562 17.894531 L 32.453125 17.894531 L 32.453125 20.324219 C 32.078125 19.648438 30.796875 19.8125 30.664062 19.25 C 30.59375 18.949219 30.820312 18.742188 31.230469 18.742188 C 31.640625 18.742188 32.003906 19.03125 32.003906 19.03125 L 32.425781 18.167969 C 32.425781 18.167969 31.925781 17.8125 30.996094 17.800781 C 29.878906 17.789062 29.414062 18.765625 29.425781 19.285156 C 29.425781 19.304688 29.425781 19.320312 29.421875 19.335938 C 29.085938 18.460938 28.25 17.820312 27.246094 17.742188 L 27.234375 17.648438 C 27.234375 17.648438 27.5 17.703125 27.671875 17.6875 C 27.988281 17.664062 28.71875 17.023438 29.433594 17.03125 C 30.039062 17.039062 31.046875 17.738281 31.421875 17.804688 C 31.71875 17.855469 31.957031 17.722656 31.957031 17.722656 C 31.957031 17.722656 31.75 17.816406 31.460938 17.710938 C 31.234375 17.628906 30.1875 16.667969 29.316406 16.703125 C 28.445312 16.734375 27.957031 17.480469 27.589844 17.480469 C 26.59375 17.449219 26.753906 14.84375 25.070312 14.792969 C 23.519531 14.746094 23.195312 16.957031 21.917969 16.964844 C 21.195312 16.972656 20.847656 16.535156 20.78125 16.570312 C 20.714844 16.601562 20.78125 16.675781 20.746094 16.691406 C 20.714844 16.710938 20.613281 16.734375 20.480469 16.792969 C 20.425781 16.820312 20.261719 16.953125 20.082031 17.054688 C 19.878906 17.171875 19.664062 17.253906 19.695312 17.28125 C 19.75 17.332031 20.257812 17.199219 20.640625 17.191406 C 21.019531 17.183594 21.601562 17.5625 22.449219 17.546875 C 22.53125 17.523438 22.523438 17.621094 22.472656 17.6875 C 22.4375 17.734375 22.359375 17.769531 22.3125 17.785156 C 21.003906 17.785156 19.921875 18.742188 19.78125 19.96875 L 17.789062 19.96875 L 17.789062 20.886719 L 18.914062 20.886719 C 18.703125 21.359375 18.277344 21.683594 17.78125 21.683594 C 17.078125 21.683594 16.511719 21.035156 16.511719 20.234375 C 16.511719 19.433594 17.078125 18.785156 17.78125 18.785156 C 18.234375 18.785156 18.636719 19.058594 18.859375 19.472656 L 19.914062 19.003906 C 19.488281 18.269531 18.691406 17.773438 17.78125 17.773438 C 16.71875 17.773438 15.820312 18.441406 15.46875 19.378906 L 15.46875 17.894531 L 14.289062 17.894531 L 14.289062 20.714844 L 12.039062 17.867188 L 10.871094 17.867188 L 10.871094 19.375 C 10.519531 18.417969 9.578125 17.734375 8.464844 17.734375 C 7.183594 17.734375 6.125 18.644531 5.945312 19.832031 L 5.609375 17.894531 L 4.449219 17.894531 L 3.480469 20.378906 L 2.507812 17.894531 L 1.347656 17.894531 L 0.550781 22.519531 L 1.683594 22.519531 L 2.164062 19.875 L 3.222656 22.519531 L 3.734375 22.519531 L 4.796875 19.875 L 5.273438 22.519531 L 6.40625 22.519531 L 6.199219 21.328125 C 6.625 22.113281 7.480469 22.65625 8.464844 22.65625 C 9.578125 22.65625 10.519531 21.96875 10.871094 21.011719 L 10.871094 22.519531 L 12.027344 22.519531 L 12.027344 19.648438 L 14.285156 22.519531 L 15.46875 22.519531 L 15.46875 21.089844 C 15.820312 22.027344 16.71875 22.691406 17.78125 22.691406 C 18.777344 22.691406 19.613281 22.109375 19.992188 21.261719 C 20.394531 22.113281 21.28125 22.707031 22.316406 22.707031 C 23.390625 22.707031 24.308594 22.066406 24.683594 21.15625 C 25.074219 22.035156 25.976562 22.652344 27.03125 22.652344 C 28.441406 22.652344 29.585938 21.550781 29.585938 20.195312 C 29.585938 20.175781 29.558594 20.042969 29.558594 20.027344 C 30.15625 20.566406 31.371094 20.597656 31.394531 21.128906 C 31.414062 21.554688 31.109375 21.695312 30.730469 21.660156 C 30.3125 21.625 29.726562 21.21875 29.726562 21.21875 L 29.226562 22.136719 C 29.226562 22.136719 29.714844 22.636719 30.863281 22.636719 C 31.84375 22.636719 32.292969 22.066406 32.453125 21.800781 L 32.453125 22.519531 L 35.101562 22.519531 L 35.101562 21.519531 L 33.628906 21.519531 Z M 8.464844 21.535156 C 8.289062 21.535156 8.117188 21.503906 7.953125 21.433594 C 7.789062 21.367188 7.640625 21.269531 7.515625 21.144531 C 7.390625 21.019531 7.292969 20.871094 7.226562 20.707031 C 7.15625 20.542969 7.121094 20.371094 7.121094 20.195312 C 7.121094 20.015625 7.15625 19.84375 7.226562 19.679688 C 7.292969 19.515625 7.390625 19.371094 7.515625 19.246094 C 7.640625 19.117188 7.789062 19.019531 7.953125 18.953125 C 8.117188 18.886719 8.289062 18.851562 8.464844 18.851562 C 8.644531 18.851562 8.816406 18.886719 8.980469 18.953125 C 9.144531 19.019531 9.289062 19.117188 9.414062 19.246094 C 9.542969 19.371094 9.636719 19.515625 9.707031 19.679688 C 9.773438 19.84375 9.808594 20.015625 9.808594 20.195312 C 9.808594 20.371094 9.773438 20.542969 9.707031 20.707031 C 9.636719 20.871094 9.542969 21.019531 9.414062 21.144531 C 9.289062 21.269531 9.144531 21.367188 8.980469 21.433594 C 8.816406 21.503906 8.644531 21.535156 8.464844 21.535156 Z M 22.316406 21.589844 C 22.132812 21.59375 21.960938 21.5625 21.792969 21.496094 C 21.625 21.429688 21.472656 21.332031 21.34375 21.207031 C 21.214844 21.082031 21.117188 20.933594 21.046875 20.769531 C 20.976562 20.601562 20.941406 20.425781 20.941406 20.246094 C 20.941406 20.066406 20.976562 19.890625 21.046875 19.726562 C 21.117188 19.558594 21.214844 19.410156 21.34375 19.285156 C 21.472656 19.160156 21.625 19.0625 21.792969 18.996094 C 21.960938 18.929688 22.132812 18.898438 22.316406 18.902344 C 22.492188 18.90625 22.660156 18.945312 22.820312 19.015625 C 22.980469 19.085938 23.121094 19.183594 23.246094 19.308594 C 23.367188 19.433594 23.460938 19.578125 23.527344 19.738281 C 23.59375 19.902344 23.625 20.070312 23.625 20.246094 C 23.625 20.421875 23.59375 20.589844 23.527344 20.753906 C 23.460938 20.914062 23.367188 21.058594 23.246094 21.183594 C 23.121094 21.308594 22.980469 21.40625 22.820312 21.476562 C 22.660156 21.546875 22.492188 21.585938 22.316406 21.589844 Z M 24.664062 19.28125 C 24.300781 18.464844 23.492188 17.875 22.53125 17.796875 C 22.539062 17.792969 22.585938 17.765625 22.640625 17.707031 C 22.695312 17.640625 22.613281 17.554688 22.664062 17.507812 C 23.292969 17.554688 23.714844 16.371094 24.960938 16.363281 C 26.074219 16.351562 26.546875 17.175781 27.003906 17.539062 C 26.695312 17.613281 26.171875 17.679688 26.195312 17.730469 C 26.40625 17.722656 26.617188 17.726562 26.824219 17.742188 C 25.839844 17.820312 25.015625 18.433594 24.664062 19.28125 Z M 27.03125 21.535156 C 26.855469 21.535156 26.683594 21.503906 26.519531 21.433594 C 26.355469 21.367188 26.210938 21.269531 26.082031 21.144531 C 25.957031 21.019531 25.859375 20.871094 25.792969 20.707031 C 25.722656 20.542969 25.691406 20.371094 25.691406 20.195312 C 25.691406 20.015625 25.722656 19.84375 25.792969 19.679688 C 25.859375 19.515625 25.957031 19.371094 26.082031 19.242188 C 26.210938 19.117188 26.355469 19.019531 26.519531 18.953125 C 26.683594 18.882812 26.855469 18.851562 27.035156 18.851562 C 27.210938 18.851562 27.382812 18.882812 27.546875 18.953125 C 27.710938 19.019531 27.855469 19.117188 27.984375 19.242188 C 28.109375 19.371094 28.207031 19.515625 28.273438 19.679688 C 28.34375 19.84375 28.375 20.015625 28.375 20.195312 C 28.375 20.371094 28.34375 20.542969 28.273438 20.707031 C 28.207031 20.871094 28.109375 21.019531 27.984375 21.144531 C 27.855469 21.269531 27.710938 21.367188 27.546875 21.433594 C 27.382812 21.503906 27.210938 21.535156 27.03125 21.535156 Z M 27.03125 21.535156 "/>
</g>
</svg>
