<?xml version="1.0" encoding="UTF-8"?>
<svg xmlns="http://www.w3.org/2000/svg" xmlns:xlink="http://www.w3.org/1999/xlink" width="37.5pt" height="37.499999pt" viewBox="0 0 37.5 37.499999" version="1.2">
<defs>
<clipPath id="clip1">
  <path d="M 10.566406 5 L 18 5 L 18 32 L 10.566406 32 Z M 10.566406 5 "/>
</clipPath>
</defs>
<g id="surface1">
<path style=" stroke:none;fill-rule:nonzero;fill:rgb(34.899902%,58.81958%,21.179199%);fill-opacity:1;" d="M 17.394531 5.089844 L 18.207031 6.59375 C 18.390625 6.871094 18.589844 7.113281 18.824219 7.34375 C 19.507812 8.007812 20.144531 8.714844 20.734375 9.464844 C 22.113281 11.246094 23.042969 13.222656 23.707031 15.363281 C 24.105469 16.667969 24.320312 18.007812 24.339844 19.363281 C 24.40625 23.414062 22.992188 26.890625 20.144531 29.78125 C 19.679688 30.242188 19.179688 30.660156 18.648438 31.039062 C 18.367188 31.039062 18.230469 30.828125 18.117188 30.628906 C 17.902344 30.265625 17.765625 29.871094 17.699219 29.453125 C 17.601562 28.964844 17.535156 28.476562 17.566406 27.96875 L 17.566406 27.738281 C 17.542969 27.691406 17.296875 5.203125 17.394531 5.089844 Z M 17.394531 5.089844 "/>
<g clip-path="url(#clip1)" clip-rule="nonzero">
<path style=" stroke:none;fill-rule:nonzero;fill:rgb(42.349243%,67.449951%,28.239441%);fill-opacity:1;" d="M 17.394531 5.039062 C 17.359375 4.972656 17.328125 5.023438 17.292969 5.054688 C 17.3125 5.382812 17.195312 5.675781 17.011719 5.953125 C 16.8125 6.230469 16.546875 6.445312 16.28125 6.671875 C 14.804688 7.929688 13.640625 9.449219 12.710938 11.148438 C 11.472656 13.433594 10.832031 15.882812 10.652344 18.464844 C 10.566406 19.394531 10.949219 22.679688 11.25 23.625 C 12.0625 26.140625 13.523438 28.246094 15.417969 30.074219 C 15.882812 30.515625 16.382812 30.925781 16.894531 31.316406 C 17.046875 31.316406 17.0625 31.1875 17.097656 31.089844 C 17.160156 30.878906 17.210938 30.667969 17.246094 30.453125 L 17.578125 28.003906 Z M 17.394531 5.039062 "/>
</g>
<path style=" stroke:none;fill-rule:nonzero;fill:rgb(76.078796%,74.899292%,74.899292%);fill-opacity:1;" d="M 18.207031 32.035156 C 18.242188 31.660156 18.425781 31.347656 18.625 31.039062 C 18.425781 30.957031 18.273438 30.792969 18.160156 30.613281 C 18.058594 30.441406 17.976562 30.261719 17.910156 30.074219 C 17.679688 29.390625 17.628906 28.667969 17.5625 27.96875 L 17.5625 27.542969 C 17.480469 27.609375 17.460938 28.164062 17.460938 28.246094 C 17.414062 28.988281 17.3125 29.722656 17.164062 30.453125 C 17.113281 30.746094 17.078125 31.039062 16.894531 31.300781 C 16.894531 31.332031 16.894531 31.367188 16.914062 31.414062 C 17.210938 32.28125 17.292969 33.164062 17.34375 34.0625 L 17.34375 34.390625 C 17.34375 34.78125 17.328125 34.699219 17.660156 34.828125 C 17.792969 34.878906 17.941406 34.894531 18.074219 34.992188 C 18.175781 34.992188 18.191406 34.910156 18.191406 34.84375 L 18.140625 34.304688 L 18.140625 32.804688 C 18.125 32.542969 18.175781 32.28125 18.207031 32.035156 Z M 18.207031 32.035156 "/>
</g>
</svg>
