<?xml version="1.0" encoding="UTF-8"?>
<svg xmlns="http://www.w3.org/2000/svg" xmlns:xlink="http://www.w3.org/1999/xlink" width="37.5pt" height="37.499999pt" viewBox="0 0 37.5 37.499999" version="1.2">
<defs>
<clipPath id="clip1">
  <path d="M 0 0 L 37.007812 0 L 37.007812 37.007812 L 0 37.007812 Z M 0 0 "/>
</clipPath>
</defs>
<g id="surface1">
<g clip-path="url(#clip1)" clip-rule="nonzero">
<path style=" stroke:none;fill-rule:nonzero;fill:rgb(14.509583%,78.039551%,71.759033%);fill-opacity:1;" d="M 22.425781 24.269531 L 13.230469 22.347656 C 13.191406 22.421875 13.148438 22.492188 13.101562 22.5625 L 21.472656 34.777344 L 21.976562 34.273438 L 23.402344 25.414062 C 22.886719 25.195312 22.558594 24.8125 22.425781 24.269531 Z M 19.070312 12.246094 C 18.726562 12.773438 18.132812 13.125 17.453125 13.125 C 17.351562 13.125 17.25 13.113281 17.148438 13.097656 L 12.953125 19.660156 L 24.160156 14.839844 C 24.15625 14.792969 24.148438 14.75 24.148438 14.707031 C 24.148438 14.609375 24.160156 14.519531 24.175781 14.429688 Z M 19.375 11.050781 L 24.804688 13.371094 C 24.980469 13.234375 25.171875 13.136719 25.386719 13.078125 L 26.28125 7.53125 L 22.878906 4.128906 L 19.054688 10.117188 C 19.242188 10.398438 19.351562 10.710938 19.375 11.050781 Z M 30.753906 12 L 27.34375 8.59375 L 26.605469 13.195312 C 26.792969 13.289062 26.960938 13.417969 27.101562 13.574219 Z M 22.589844 23.058594 C 22.878906 22.53125 23.320312 22.246094 23.921875 22.203125 L 24.898438 16.117188 C 24.820312 16.0625 24.753906 16.003906 24.6875 15.941406 L 13.414062 20.792969 C 13.445312 20.910156 13.464844 21.027344 13.472656 21.152344 Z M 31.679688 12.929688 L 27.738281 14.625 L 37.464844 18.785156 L 37.5 18.75 Z M 24.636719 25.433594 L 23.449219 32.800781 L 30.332031 25.917969 L 25.375 24.882812 C 25.179688 25.136719 24.933594 25.320312 24.636719 25.433594 Z M 11.261719 23.539062 C 11.015625 23.539062 10.777344 23.496094 10.554688 23.421875 L 8.269531 26.996094 L 7.382812 26.113281 L 9.550781 22.726562 C 9.496094 22.660156 9.445312 22.59375 9.398438 22.519531 L 5.480469 24.207031 L 4.550781 23.277344 L 8.839844 21.429688 L 1.082031 19.8125 L 0.0195312 18.75 L 0.355469 18.414062 L 9.304688 20.28125 C 9.40625 20.085938 9.539062 19.910156 9.695312 19.753906 L 5.351562 13.417969 L 6.230469 12.539062 L 10.765625 19.160156 C 10.929688 19.121094 11.09375 19.101562 11.261719 19.101562 C 11.453125 19.101562 11.640625 19.128906 11.816406 19.175781 L 16.0625 12.53125 C 15.703125 12.160156 15.527344 11.714844 15.527344 11.195312 C 15.527344 11.042969 15.546875 10.894531 15.578125 10.753906 L 10.28125 8.488281 L 11.210938 7.558594 L 16.230469 9.707031 C 16.488281 9.492188 16.78125 9.355469 17.113281 9.296875 C 17.441406 9.238281 17.765625 9.265625 18.082031 9.375 L 21.996094 3.246094 L 18.75 0 L 0 18.75 L 18.75 37.5 L 20.59375 35.65625 L 12.160156 23.347656 C 11.875 23.476562 11.574219 23.539062 11.261719 23.539062 Z M 26.09375 16.378906 L 25.097656 22.566406 C 25.464844 22.859375 25.667969 23.242188 25.710938 23.710938 L 31.363281 24.890625 L 36.535156 19.714844 L 27.195312 15.722656 C 26.917969 16.09375 26.550781 16.3125 26.09375 16.378906 Z M 26.09375 16.378906 "/>
</g>
</g>
</svg>
