<?xml version="1.0" encoding="UTF-8"?>
<svg xmlns="http://www.w3.org/2000/svg" xmlns:xlink="http://www.w3.org/1999/xlink" width="37.5pt" height="37.499999pt" viewBox="0 0 37.5 37.499999" version="1.2">
<defs>
<clipPath id="clip1">
  <path d="M 0 14.796875 L 37.007812 14.796875 L 37.007812 23.046875 L 0 23.046875 Z M 0 14.796875 "/>
</clipPath>
</defs>
<g id="surface1">
<g clip-path="url(#clip1)" clip-rule="nonzero">
<path style=" stroke:none;fill-rule:nonzero;fill:rgb(0%,59.999084%,0%);fill-opacity:1;" d="M 7.035156 23.34375 C 6.820312 23.34375 6.613281 23.253906 6.457031 23.085938 L 1.648438 17.835938 L 1.648438 22.457031 C 1.648438 22.949219 1.285156 23.34375 0.835938 23.34375 C 0.386719 23.34375 0.0234375 22.949219 0.0234375 22.457031 L 0.0234375 15.695312 C 0.0234375 15.335938 0.222656 15.015625 0.523438 14.875 C 0.859375 14.726562 1.15625 14.789062 1.410156 15.070312 L 6.222656 20.316406 L 6.222656 15.695312 C 6.222656 15.207031 6.585938 14.808594 7.035156 14.808594 C 7.484375 14.808594 7.847656 15.207031 7.847656 15.695312 L 7.847656 22.457031 C 7.847656 22.703125 7.765625 22.910156 7.609375 23.085938 C 7.449219 23.257812 7.257812 23.34375 7.035156 23.34375 M 10.796875 14.816406 L 10.574219 15.273438 L 8.847656 18.699219 L 8.625 19.128906 L 8.847656 19.5625 L 10.574219 22.875 L 10.808594 23.332031 L 15.328125 23.332031 L 15.550781 22.832031 L 16.84375 19.996094 L 17.421875 18.707031 L 16.109375 18.707031 L 12.808594 18.71875 C 12.378906 18.714844 11.984375 19.136719 11.984375 19.605469 C 11.984375 20.074219 12.378906 20.5 12.808594 20.492188 L 14.800781 20.480469 L 14.3125 21.558594 L 11.753906 21.558594 L 10.480469 19.117188 L 11.761719 16.589844 L 14.484375 16.589844 L 15.121094 18.011719 L 16.757812 18.011719 L 15.726562 15.316406 L 15.503906 14.816406 L 10.796875 14.816406 M 19.03125 14.808594 C 18.605469 14.8125 18.222656 15.242188 18.230469 15.703125 L 18.230469 18.015625 L 19.855469 18.015625 L 19.855469 15.703125 C 19.859375 15.234375 19.464844 14.800781 19.03125 14.808594 M 21.636719 23.363281 C 21.414062 23.363281 21.222656 23.273438 21.0625 23.101562 C 20.902344 22.929688 20.824219 22.71875 20.824219 22.476562 L 20.824219 15.714844 C 20.824219 15.222656 21.1875 14.828125 21.636719 14.828125 C 22.085938 14.828125 22.449219 15.222656 22.449219 15.714844 L 22.449219 20.335938 L 27.261719 15.085938 C 27.515625 14.804688 27.8125 14.742188 28.144531 14.894531 C 28.480469 15.042969 28.648438 15.316406 28.648438 15.714844 L 28.648438 22.476562 C 28.648438 22.964844 28.285156 23.363281 27.835938 23.363281 C 27.386719 23.363281 27.023438 22.964844 27.023438 22.476562 L 27.023438 17.855469 L 22.210938 23.101562 C 22.054688 23.277344 21.863281 23.363281 21.636719 23.363281 M 34.667969 19.085938 L 37.195312 16.339844 C 37.515625 15.992188 37.515625 15.433594 37.199219 15.085938 C 36.882812 14.738281 36.367188 14.738281 36.050781 15.082031 L 33.515625 17.835938 L 30.984375 15.082031 C 30.667969 14.738281 30.152344 14.738281 29.835938 15.085938 C 29.519531 15.433594 29.519531 15.992188 29.835938 16.339844 L 32.367188 19.085938 L 29.84375 21.828125 C 29.527344 22.175781 29.527344 22.734375 29.84375 23.082031 C 30 23.257812 30.195312 23.34375 30.417969 23.34375 C 30.625 23.34375 30.832031 23.257812 30.992188 23.085938 L 33.515625 20.339844 L 36.042969 23.085938 C 36.199219 23.257812 36.390625 23.34375 36.617188 23.34375 C 36.824219 23.34375 37.03125 23.257812 37.191406 23.082031 C 37.507812 22.734375 37.507812 22.175781 37.191406 21.828125 L 34.667969 19.085938 M 19.03125 23.335938 C 18.605469 23.332031 18.222656 22.902344 18.230469 22.4375 L 18.230469 18.726562 L 19.855469 18.726562 L 19.855469 22.4375 C 19.859375 22.910156 19.464844 23.34375 19.03125 23.335938 "/>
</g>
</g>
</svg>
