<?xml version="1.0" encoding="UTF-8"?>
<svg xmlns="http://www.w3.org/2000/svg" xmlns:xlink="http://www.w3.org/1999/xlink" width="37.5pt" height="37.499999pt" viewBox="0 0 37.5 37.499999" version="1.2">
<defs>
<clipPath id="clip1">
  <path d="M 2.148438 0 L 34.949219 0 L 34.949219 37.007812 L 2.148438 37.007812 Z M 2.148438 0 "/>
</clipPath>
</defs>
<g id="surface1">
<g clip-path="url(#clip1)" clip-rule="nonzero">
<path style=" stroke:none;fill-rule:nonzero;fill:rgb(32.548523%,61.959839%,26.269531%);fill-opacity:1;" d="M 18.546875 37.417969 C 18.039062 37.417969 17.5625 37.28125 17.121094 37.042969 L 12.605469 34.328125 C 11.925781 33.949219 12.265625 33.8125 12.46875 33.742188 C 13.386719 33.433594 13.558594 33.363281 14.507812 32.816406 C 14.609375 32.746094 14.746094 32.78125 14.847656 32.847656 L 18.3125 34.945312 C 18.445312 35.015625 18.617188 35.015625 18.71875 34.945312 L 32.265625 27.007812 C 32.402344 26.9375 32.472656 26.800781 32.472656 26.628906 L 32.472656 10.785156 C 32.472656 10.613281 32.402344 10.476562 32.265625 10.40625 L 18.71875 2.503906 C 18.582031 2.433594 18.414062 2.433594 18.3125 2.503906 L 4.761719 10.40625 C 4.625 10.476562 4.558594 10.648438 4.558594 10.785156 L 4.558594 26.628906 C 4.558594 26.765625 4.625 26.9375 4.761719 27.007812 L 8.464844 29.171875 C 10.46875 30.203125 11.722656 29 11.722656 27.796875 L 11.722656 12.160156 C 11.722656 11.953125 11.894531 11.746094 12.132812 11.746094 L 13.863281 11.746094 C 14.066406 11.746094 14.269531 11.917969 14.269531 12.160156 L 14.269531 27.796875 C 14.269531 30.511719 12.808594 32.09375 10.261719 32.09375 C 9.480469 32.09375 8.871094 32.09375 7.140625 31.234375 L 3.574219 29.171875 C 2.691406 28.65625 2.148438 27.695312 2.148438 26.664062 L 2.148438 10.820312 C 2.148438 9.789062 2.691406 8.824219 3.574219 8.308594 L 17.121094 0.371094 C 17.972656 -0.109375 19.125 -0.109375 19.976562 0.371094 L 33.523438 8.308594 C 34.40625 8.824219 34.949219 9.789062 34.949219 10.820312 L 34.949219 26.664062 C 34.949219 27.695312 34.40625 28.65625 33.523438 29.171875 L 19.976562 37.109375 C 19.535156 37.316406 19.023438 37.417969 18.546875 37.417969 Z M 22.726562 26.523438 C 16.78125 26.523438 15.558594 23.777344 15.558594 21.4375 C 15.558594 21.234375 15.730469 21.027344 15.96875 21.027344 L 17.734375 21.027344 C 17.9375 21.027344 18.105469 21.164062 18.105469 21.371094 C 18.378906 23.191406 19.160156 24.085938 22.757812 24.085938 C 25.613281 24.085938 26.835938 23.433594 26.835938 21.886719 C 26.835938 20.992188 26.496094 20.339844 22.046875 19.890625 C 18.34375 19.515625 16.035156 18.6875 16.035156 15.699219 C 16.035156 12.914062 18.34375 11.265625 22.214844 11.265625 C 26.5625 11.265625 28.703125 12.777344 28.972656 16.078125 C 28.972656 16.179688 28.9375 16.285156 28.871094 16.386719 C 28.804688 16.457031 28.703125 16.523438 28.601562 16.523438 L 26.835938 16.523438 C 26.664062 16.523438 26.496094 16.386719 26.460938 16.214844 C 26.054688 14.324219 25 13.707031 22.214844 13.707031 C 19.09375 13.707031 18.71875 14.804688 18.71875 15.628906 C 18.71875 16.628906 19.160156 16.9375 23.371094 17.488281 C 27.546875 18.035156 29.515625 18.828125 29.515625 21.78125 C 29.484375 24.808594 27.039062 26.523438 22.726562 26.523438 Z M 22.726562 26.523438 "/>
</g>
</g>
</svg>
