<?xml version="1.0" encoding="UTF-8"?>
<svg xmlns="http://www.w3.org/2000/svg" xmlns:xlink="http://www.w3.org/1999/xlink" width="37.5pt" height="37.499999pt" viewBox="0 0 37.5 37.499999" version="1.2">
<defs>
<clipPath id="clip1">
  <path d="M 0.785156 0 L 36.785156 0 L 36.785156 37.007812 L 0.785156 37.007812 Z M 0.785156 0 "/>
</clipPath>
</defs>
<g id="surface1">
<g clip-path="url(#clip1)" clip-rule="nonzero">
<path style=" stroke:none;fill-rule:nonzero;fill:rgb(0%,0%,0%);fill-opacity:1;" d="M 13.671875 0.832031 C 7.796875 1.265625 2.804688 1.664062 2.570312 1.707031 C 1.910156 1.824219 1.3125 2.269531 1.03125 2.855469 L 0.785156 3.371094 L 0.808594 15.648438 L 0.84375 27.925781 L 1.21875 28.6875 C 1.429688 29.109375 2.863281 31.074219 4.425781 33.097656 C 7.515625 37.089844 7.738281 37.3125 8.914062 37.429688 C 9.253906 37.464844 11.816406 37.347656 14.589844 37.183594 C 17.375 37.007812 21.839844 36.738281 24.519531 36.585938 C 35.960938 35.894531 35.375 35.953125 36.03125 35.390625 C 36.855469 34.714844 36.796875 35.824219 36.832031 20.902344 C 36.855469 8.25 36.84375 7.421875 36.65625 7.035156 C 36.433594 6.601562 36.03125 6.296875 30.816406 2.644531 C 27.324219 0.210938 27.078125 0.0820312 25.515625 0.0585938 C 24.871094 0.0351562 19.535156 0.386719 13.671875 0.832031 Z M 26.878906 2.433594 C 27.371094 2.65625 30.980469 5.160156 31.507812 5.640625 C 31.648438 5.78125 31.695312 5.898438 31.625 5.96875 C 31.460938 6.109375 9.136719 7.433594 8.492188 7.339844 C 8.199219 7.292969 7.761719 7.117188 7.515625 6.953125 C 6.492188 6.261719 3.957031 4.191406 3.957031 4.039062 C 3.957031 3.640625 3.875 3.640625 13.824219 2.925781 C 15.730469 2.796875 18.855469 2.5625 20.757812 2.410156 C 24.882812 2.082031 26.117188 2.09375 26.878906 2.433594 Z M 33.976562 8.835938 C 34.140625 9 34.28125 9.316406 34.328125 9.621094 C 34.363281 9.902344 34.386719 15.144531 34.363281 21.253906 C 34.328125 31.742188 34.316406 32.394531 34.117188 32.699219 C 34 32.886719 33.765625 33.085938 33.585938 33.144531 C 33.09375 33.34375 9.703125 34.667969 9.21875 34.527344 C 8.996094 34.46875 8.691406 34.28125 8.527344 34.117188 L 8.246094 33.8125 L 8.210938 22.507812 C 8.1875 14.570312 8.210938 11.0625 8.304688 10.746094 C 8.375 10.511719 8.550781 10.230469 8.703125 10.136719 C 8.914062 9.996094 10.300781 9.878906 15.070312 9.597656 C 18.421875 9.410156 23.601562 9.09375 26.574219 8.917969 C 33.648438 8.484375 33.625 8.484375 33.976562 8.835938 Z M 33.976562 8.835938 "/>
</g>
<path style=" stroke:none;fill-rule:nonzero;fill:rgb(0%,0%,0%);fill-opacity:1;" d="M 27.691406 12.710938 C 26.421875 12.792969 25.292969 12.910156 25.164062 12.980469 C 24.777344 13.179688 24.539062 13.507812 24.492188 13.882812 C 24.460938 14.269531 24.578125 14.3125 25.84375 14.464844 L 26.398438 14.535156 L 26.398438 19.535156 C 26.398438 22.507812 26.351562 24.472656 26.292969 24.414062 C 26.234375 24.34375 24.566406 21.816406 22.578125 18.796875 C 20.59375 15.765625 18.949219 13.273438 18.925781 13.25 C 18.898438 13.226562 17.609375 13.296875 16.058594 13.402344 C 14.152344 13.53125 13.109375 13.648438 12.898438 13.765625 C 12.554688 13.941406 12.179688 14.5625 12.179688 14.972656 C 12.179688 15.214844 12.625 15.34375 13.566406 15.34375 L 14.058594 15.34375 L 14.058594 29.71875 L 13.261719 29.964844 C 12.636719 30.152344 12.425781 30.265625 12.320312 30.5 C 12.132812 30.898438 12.144531 31.261719 12.332031 31.261719 C 12.402344 31.261719 13.730469 31.179688 15.257812 31.085938 C 18.277344 30.910156 18.617188 30.828125 18.933594 30.207031 C 19.03125 30.023438 19.113281 29.824219 19.113281 29.765625 C 19.113281 29.71875 18.699219 29.578125 18.207031 29.460938 C 17.699219 29.34375 17.195312 29.226562 17.089844 29.203125 C 16.890625 29.144531 16.878906 28.78125 16.878906 23.75 L 16.878906 18.351562 L 20.449219 23.933594 C 24.199219 29.785156 24.667969 30.453125 25.246094 30.746094 C 25.960938 31.121094 27.78125 30.863281 28.699219 30.265625 L 28.980469 30.09375 L 29.003906 22.109375 L 29.039062 14.117188 L 29.664062 14 C 30.402344 13.859375 30.742188 13.519531 30.742188 12.933594 C 30.742188 12.558594 30.71875 12.535156 30.367188 12.546875 C 30.15625 12.558594 28.945312 12.628906 27.691406 12.710938 Z M 27.691406 12.710938 "/>
</g>
</svg>
