<?xml version="1.0" encoding="utf-8"?>
<!-- Generator: Adobe Illustrator 19.2.1, SVG Export Plug-In . SVG Version: 6.00 Build 0)  -->
<svg version="1.1" id="layer" xmlns="http://www.w3.org/2000/svg" xmlns:xlink="http://www.w3.org/1999/xlink" x="0px" y="0px"
	 viewBox="0 0 652 652" style="enable-background:new 0 0 652 652;" xml:space="preserve">
<style type="text/css">
	.st0{fill:none;stroke:#000000;stroke-width:0.373;}
</style>
<g>
	<path d="M568.8,267.7H512l-24.2,97.4l-16.5-28.5c12.2-3.3,18.4-10.3,18.4-16.3V294c0-16-21.5-26.2-44.5-26.2h-67.5v126.4h47.6v-52
		h7.5l22.8,52l25,0.1h42.3l3.5-16.6h22.8l2.4,16.6h49.1L568.8,267.7z M444.9,316.4c0,3.6-2.9,5-8.2,5h-11.5v-28.1h11.5
		c5.3,0,8.2,1.4,8.2,5.1V316.4z M531.6,350.4l7.3-40l6.2,40H531.6z"/>
	<path d="M566.8,270.3l30.5,121.2h-43.5l-2.1-14.4l-0.3-2.2h-2.3h-22.8h-2.1l-0.4,2.1l-3.1,14.5h-40.1l-23.3-0.1l-22.2-50.5
		l-0.7-1.6h-1.7h-7.5h-2.6v2.6v49.4h-42.4V270.3h64.9c20.6,0,41.9,8.8,41.9,23.6v26.4c0,4.5-5.1,10.7-16.4,13.8l-3.3,0.9l1.7,2.9
		l16.5,28.5l3.2,5.6l1.5-6.2l23.7-95.4H566.8 M422.6,324h2.6h11.5c8.9,0,10.8-4.2,10.8-7.6v-18c0-3.5-1.9-7.7-10.8-7.7h-11.5h-2.6
		v2.6v28.1V324 M528.5,353h3.1h13.5h3l-0.5-3l-6.2-40l-5.1-0.1l-7.3,40L528.5,353 M568.8,267.7H512l-24.2,97.4l-16.5-28.5
		c12.2-3.3,18.4-10.3,18.4-16.3V294c0-16-21.5-26.2-44.5-26.2h-67.5v126.4h47.6v-52h7.5l22.8,52l25,0.1h42.3l3.5-16.6h22.8l2.4,16.6
		h49.1L568.8,267.7z M425.2,321.4v-28.1h11.5c5.3,0,8.2,1.4,8.2,5.1v18c0,3.6-2.9,5-8.2,5H425.2z M531.6,350.4l7.3-40l6.2,40H531.6z
		"/>
	<polygon points="327.4,326.3 293.2,267.7 252.1,267.7 252.1,394.2 294.5,394.2 294.5,336.7 330.5,394.2 369.6,394.2 369.6,267.7 
		327.4,267.7 	"/>
	<path d="M367,270.3v121.2h-35.1l-35.2-56.3l-4.8-7.7v9.1v54.9h-37.3V270.3h37.1l33.4,57.3l4.8,8.3v-9.6v-56H367z M369.6,267.7
		h-42.3v58.6l-34.2-58.6h-41.1v126.4h42.5v-57.5l35.9,57.5h39.2V267.7z"/>
	<polygon points="606.6,394.3 608.2,394.3 608.2,383 612.1,383 612.1,381.7 602.7,381.7 602.7,383 606.6,383 	"/>
	<path d="M624.1,388.8c-0.1-1.8-0.2-3.9-0.2-5.5h0c-0.5,1.5-1,3.1-1.6,4.8l-2.2,6.1h-1.2l-2.1-6c-0.6-1.8-1.1-3.4-1.4-4.9h0
		c0,1.6-0.1,3.7-0.2,5.6l-0.3,5.4h-1.6l0.9-12.7h2.1l2.2,6.1c0.5,1.6,0.9,3,1.3,4.3h0c0.3-1.3,0.8-2.7,1.4-4.3l2.3-6.1h2.1l0.8,12.7
		h-1.6L624.1,388.8z"/>
	<polygon points="129.5,236.3 129.1,237.7 128.6,237.9 126.8,236.7 124.4,236.7 123.9,237 123.7,238.4 123.7,238.7 124.4,239.1 
		125.9,238.9 126.1,238.6 126.6,238.7 126.9,240.9 126.4,241.6 125.6,241.3 125.4,241.1 124.6,240.8 124.1,240.8 123.7,241.1 
		123.9,243.1 124.6,243.8 124.6,244.3 123,244.8 121.3,244.7 121,244.5 121,244.2 121.8,243.5 121.5,236.2 121,235.7 121,235.2 
		121.5,235 128.6,235.2 	"/>
	<polygon points="117.3,236 116.8,236.5 117.4,242.6 117.6,243.6 118.4,244.2 118.4,244.8 115.4,245.2 114.7,245 114.9,244.2 
		115.4,243.6 114.7,238.2 114.4,236.5 113.9,236.2 113.7,236 113.7,235.7 114.4,235.1 115.4,235.1 117.3,235.1 	"/>
	<polygon points="134.6,236 134.4,236.5 133.7,237 133.4,238.4 132.9,243.1 133.7,243.6 136.8,243.6 137.6,243.1 138.3,243.1 
		138.3,244 137.3,245.5 133.6,245.2 131,244.8 129.8,244.8 129.8,244.2 131,243 131.5,236.5 131.2,236 131.2,235.7 131.7,235.1 
		134.1,235.5 	"/>
	<polygon points="149,238.6 149.4,239.1 148.7,240.6 148.3,240.8 148,240.8 147,239.6 143.8,238.7 143.4,239.6 143.4,240.6 
		144.8,241.3 146,240.9 146.3,241.3 145.8,243.5 145.5,243.6 143.8,242.6 142.9,242.6 142.4,243.6 142.2,244.7 144.4,245.3 
		147.5,245.7 147.8,245.9 146.8,247.4 145.6,247.4 139.3,245.9 139.3,245.2 139.8,244.8 140.4,244.2 141.7,237.7 141.4,237.4 
		141.7,236.7 144.1,237 	"/>
	<path d="M113,244.3h-1.2l-1.5-0.9l-0.2-0.7l0.7-0.7l0.5-0.9l0.3-1.5l-0.3-1.5l-0.9-1l-1.4-0.5l-2.5-0.2l-4.9,1l-0.3,0.5l0.8,1.2
		l1.5,6.6l-0.5,0.8v0.4l0.2,0.3h0.3l3.4-0.7v-0.3l-0.2-0.5l-0.9-0.2l-0.4-0.3l-0.2-0.7l0.2-0.5l0.4-0.2l0.9-0.2l3.7,2l2-0.2l0.5-0.5
		v-0.3L113,244.3z M109.3,241.1l-1.5,0.7l-2.2,0.5l-0.5-0.7l-0.3-2.5l1.4-0.5h1l1.4,0.2l0.8,0.8V241.1z"/>
	<polygon points="156.5,240.8 156.5,241.1 155.8,240.8 155.1,239.7 156.2,240.1 	"/>
	<polygon points="156,241.8 156,242.1 155.6,242.1 155.3,242.1 154.5,241.1 154.6,240.8 155.6,241.3 	"/>
	<polygon points="155,243.3 155,243.6 154.6,243.8 154.3,243.8 153.6,242.6 153.8,242.3 154.6,243.1 	"/>
	<polygon points="154.3,245 154.3,245.2 153.9,245.2 152.9,244.2 153.4,244.2 	"/>
	<polygon points="153.6,246.7 152.9,246.4 152.4,245.7 153.6,246.4 	"/>
	<polygon points="93,246.4 91.4,246.9 90.8,246.9 91.3,246.4 93,245.8 93.1,245.8 	"/>
	<polygon points="158.2,247.7 157.5,246.9 157.5,246.4 160.1,247.9 	"/>
	<rect x="151.9" y="246.7" width="0.2" height="0.2"/>
	<polygon points="152.4,247.4 152.6,247.6 152.1,247.2 152.4,247.2 	"/>
	<polygon points="93,247.9 91.1,248.2 90.9,248.2 90.8,248.2 91.6,247.7 93.1,247.4 93.5,247.4 	"/>
	<polygon points="158.2,249.2 156.8,248.4 156.7,247.9 159,249.2 	"/>
	<polygon points="152.4,248.7 152.4,248.9 151.4,248.1 151.9,248.2 	"/>
	<polygon points="157,250.1 156.2,249.8 156,249.1 158.2,250.3 	"/>
	<polygon points="151.9,250.3 150.9,249.4 151.7,249.9 	"/>
	<polygon points="92.8,251.1 92.1,251.1 92.5,250.8 94.5,250.3 94.2,250.8 	"/>
	<rect x="150.9" y="250.3" width="0.2" height="0.2"/>
	<polygon points="157.5,251.6 156.3,251.5 155.5,250.4 156.5,250.9 	"/>
	<polygon points="70.2,251.3 70.6,251.1 72.1,251.3 	"/>
	<polygon points="80.6,252 79.2,253 77.5,253.2 80.1,251.8 80.6,251.5 80.7,251.5 	"/>
	<polygon points="93,252.1 92.1,252.1 94,251.5 94.3,251.5 	"/>
	<polygon points="72.6,252.1 70.4,252 70.6,251.8 72.6,252 	"/>
	<polygon points="155.8,252.5 155,251.8 156.8,252.5 	"/>
	<rect x="67.8" y="252" width="0.2" height="0.2"/>
	<polygon points="156.2,253.7 154.8,253.3 154.1,252.8 153.9,252.5 156.2,253.5 	"/>
	<polygon points="78.2,254.3 78,254.3 78.5,253.8 81.3,252.5 80.1,253.7 	"/>
	<polygon points="73.4,253.2 71.1,253 71.4,252.8 72.9,252.8 	"/>
	<polygon points="94.5,253.3 93,253.7 92.6,253.7 92.8,253.3 94.8,252.8 95,252.8 	"/>
	<polygon points="67.5,254 67.5,254 68.5,253.2 69,253.2 	"/>
	<polygon points="78.5,255.9 78.5,255.7 78.4,255.5 81.8,253.8 80.7,254.9 	"/>
	<polygon points="74.3,254.3 74.1,254.5 72.3,254.2 72.8,253.8 74.1,254 	"/>
	<polygon points="155.5,254.9 154.1,254.5 153.8,254 155.3,254.5 	"/>
	<polygon points="68.3,255.5 68.3,255.4 68.9,254.9 69.4,254.5 70,254.5 	"/>
	<polygon points="170.8,256.5 169.4,256.4 168.2,255.9 167.7,255 167.7,254.7 169.2,255.5 	"/>
	<polygon points="155,256 153.1,255.5 152.4,254.9 154.8,256 	"/>
	<polygon points="152.9,256.5 151.4,255.7 150.9,255.2 155,257.1 	"/>
	<polygon points="94.8,256 94.5,256 95.4,255.5 96.5,255.4 96,255.9 	"/>
	<polygon points="75,256 72.8,255.4 75,255.7 	"/>
	<polygon points="97.4,256.5 95.4,257.2 94.8,257.2 98.6,255.5 98.9,255.5 	"/>
	<polygon points="155.3,258.1 153.8,257.9 150.7,256.5 149.5,255.7 151.7,256.5 	"/>
	<polygon points="69.2,257.1 68.9,257.1 68.9,256.9 69.9,256 70.6,255.9 70.9,255.9 	"/>
	<polygon points="97.9,257.6 96,258.4 94.8,258.4 94.5,258.4 98.1,257.1 99.9,255.9 100.1,255.9 	"/>
	<polygon points="155.5,259.3 154.6,259.4 151.1,258.4 148.3,256.9 147.8,255.9 154.5,259.1 	"/>
	<polygon points="80.2,258.2 80.1,258.2 82.8,256.4 81.9,257.6 	"/>
	<polygon points="98.1,258.9 95.5,259.8 94,260 93.7,259.8 93.7,259.6 97.4,258.6 101.3,256.4 101,257.1 	"/>
	<polygon points="169.7,258.1 168.9,257.9 167.2,257.1 167.2,256.5 169.7,257.9 	"/>
	<polygon points="75.7,257.1 73.6,257.1 74.1,256.9 75.5,256.9 	"/>
	<polygon points="69.9,258.4 69.9,258.4 69.5,258.2 70.6,257.6 71.1,257.4 71.2,257.4 	"/>
	<polygon points="81.4,259.1 81.1,259.1 83.6,257.4 82.3,258.9 	"/>
	<polygon points="167.4,258.9 166,258.1 165.8,257.4 168.4,259.1 	"/>
	<polygon points="76.5,258.2 76.5,258.4 74.1,258.4 75,257.9 76.3,258.1 	"/>
	<polygon points="167.7,260 166.3,259.8 165.7,259.4 165.3,259.1 165.3,258.6 	"/>
	<polygon points="70.7,260 70.6,260 70.4,260 71.4,259.1 71.6,259.1 71.9,259.1 	"/>
	<polygon points="82.6,260.3 81.8,260.5 81.4,260.5 83.8,259.1 84.1,259.1 	"/>
	<polygon points="77,259.4 77,259.6 75.1,259.4 75.5,259.1 77,259.3 	"/>
	<polygon points="165.8,261.5 164.6,260.6 164.5,260.1 166.9,261.5 	"/>
	<polygon points="76.3,260.6 76.2,260.6 76.7,260.3 77.7,260.5 	"/>
	<polygon points="71.6,261.5 71.4,261.3 72.3,260.6 72.8,260.5 72.1,261 	"/>
	<polygon points="165.2,262.7 164.1,262 163.6,261.1 166.7,262.8 	"/>
	<polygon points="85.5,263 83.6,263.7 83.1,263.5 85.2,262.7 87,261.3 86.9,262 	"/>
	<polygon points="84.3,262.7 83.3,262.8 85.3,261.5 85.5,261.5 	"/>
	<rect x="73.4" y="261.6" width="0.2" height="0.2"/>
	<polygon points="83.6,264.9 81.9,265.6 81.6,265.6 82.1,265 85.2,264 88.2,261.8 86.4,263.4 	"/>
	<polygon points="164.5,263.7 164.3,263.7 166.4,265 167.2,265.4 167.4,265.6 165.7,265.2 164,264.5 162.1,262.5 162.1,262.2 
		163.1,262.7 163.1,262.8 163.3,262.8 162.8,261.8 166.4,264 	"/>
	<polygon points="72.3,262.7 72.1,262.7 72.9,262 73.4,262 	"/>
	<polygon points="86.2,264.5 88.9,262.7 86.7,264.2 	"/>
	<polygon points="166.3,266.4 167.4,266.6 165.8,266.6 162.9,265.2 161.1,263 160.9,262.7 163.6,265 	"/>
	<path d="M188.1,259.8l-0.8-0.2l-0.2,0.7l-3.4,1.7l-4.8,2l-1-0.2l-0.5,0.7l1,1l1.7,1.2l0.5-0.2v-0.9l0.5-0.5l1-0.2l2.9,2.5l-0.3,1
		l-1,1v0.7l1.5,1.5l0.7,0.2l0.3-0.3l-0.2-1.4l1.5-3.7l1.2-3.2l1.4-1.4L188.1,259.8z M186,264.7l-0.3,0.5l-1-0.2l-0.3-0.9V264
		l1.2-0.8l0.9-0.2h0.2L186,264.7z"/>
	<polygon points="197.8,270.3 198.4,272.3 199,272.9 198.8,273.7 197.3,274.7 196.6,274.7 196.2,274.2 196.4,272 195.9,271 
		195.2,270.5 194.5,270.7 194.2,271.2 194.9,275.2 194.5,276.8 193.2,277.8 191.1,277.8 189.6,276.8 188.4,275.1 188.3,273.5 
		187.7,272.5 188.1,271.8 189.8,271.2 190.5,271.3 190.6,272.2 190,273.9 190.6,275.4 191.5,276.1 192.3,276.1 192.8,275.4 
		192.5,272.5 192.3,270.8 192.7,269.6 193.7,268.8 194.4,268.6 196.4,269 	"/>
	<polygon points="59.7,273.2 59.5,273.7 56.3,277.8 54.1,281 53.6,280.5 53.2,279.8 47.6,276.1 46.4,275.9 46.1,275.6 46.4,274.7 
		47.8,272.9 48.1,272.9 49,274.4 53.7,277.5 54.4,277.1 57.6,272.3 57.8,270.8 58.2,270.8 	"/>
	<polygon points="203,278.3 204.4,279.8 204.7,281.5 205.4,281.9 205.4,282 205.2,282.7 203.5,283.6 202.9,283.6 202.5,283 
		203,282.4 202.9,280.5 201.8,279.5 201,279.6 200.7,280.3 201.3,285.1 200.3,286.6 199,287.1 197.6,287 195.9,285.6 194.9,283.6 
		194.7,281.5 194,281 194.2,280.3 196.6,280 197.3,280.3 197.4,281 197.3,281.7 196.7,282.4 196.9,283.7 197.6,284.7 198.5,285.1 
		199.3,284.9 199.5,284.4 198.8,279.8 199.3,278.5 200.3,277.6 201.8,277.6 	"/>
	<path d="M52.9,282.4l-0.7-0.2l-0.7,0.3l-1.9-0.2l-6.5-0.5l-1.2-0.3l-1.2,1.9l-0.3,1.2l1.2,0.7l4.1,6.3l0.2,1.7l0.3,0.3h0.3l0.5-0.2
		l1.4-2.9v-0.3l-0.5-0.3l-0.8,0.2l-0.2-0.3l-0.5-0.7l1.7-3.1l1.5-1.4l0.7,0.3l0.2,0.3l0.7,0.2l1.9-2.7L52.9,282.4z M45.4,286.6h-0.3
		l-1.5-2.2l0.2-0.2l2.9,0.2L45.4,286.6z"/>
	<path d="M209.7,290.5l-1.5-1.5l-1.7-0.8h-1.5l-1.5,0.3l-1.9,1.2l-1,1.9l-0.2,2.5l1.2,2.4l1.5,1.2l2.5,0.5l2.2-0.5l1.9-1.5l0.7-1.5
		l0.2-1.9L209.7,290.5z M208.3,294.3l-0.7,1l-1.2,0.8l-2.4-0.2l-1-0.7l-0.7-1.7l0.3-1.7l1.2-1.2l0.7-0.2l2,0.2l1,0.5l0.7,1.4V294.3z
		"/>
	<polygon points="37.9,291.7 38.8,292.6 44.1,294.6 45.8,295.3 45.9,296 45.6,296.6 42,298.5 38.8,299.9 38.8,300.4 42.4,301.4 
		43.4,300.9 43.9,301.4 43,303.9 42.9,304.3 42.5,304.3 42.2,304.3 41.7,303.4 34.9,301.4 34.2,301.7 33.7,301.6 33.4,301.1 
		34,299.5 35.7,298.7 39.3,297.3 41.8,296.3 41.8,296.1 41.8,295.8 39,294.6 37.3,294.1 36.8,294.3 36.2,294.3 36.1,293.7 
		36.8,291.7 37.3,291.2 37.9,291.2 	"/>
	<polygon points="212.5,300.9 214.1,303.3 214.2,304.9 214.1,307 212.2,307.5 211.5,307.5 211.7,306.5 212,304.9 211.7,303.1 
		210,301.7 207.8,301.7 206.8,302.8 206.3,304.3 206.6,306.3 207.4,307.3 207.4,308.4 207.1,308.7 205.9,308.2 204.6,306.3 
		204.4,303.8 205.4,301.2 206.9,299.9 208.5,299.5 211.2,299.9 	"/>
	<path d="M40.3,306.5l-1.7-1.4l-2.4-0.7l-1,0.2l-2.5,1.4l-1.4,1.7l-0.7,2.2l0.5,3.4l1,1.4l2.2,1.5l2.4,0.2l2-0.7l1.5-1.5l1-2.4
		l0.2-3.1L40.3,306.5z M39.5,311.9l-1.4,1.9l-1.7,0.7h-1.4l-1.4-1.2l-0.9-1.5l-0.2-1.4l0.5-1.9l0.7-1l1.5-0.7l0.8-0.2l2,0.3l1,1.4
		l0.3,1.5L39.5,311.9z"/>
	<polygon points="215.8,311.2 216.1,313.4 215.9,313.6 214.8,313.4 209.7,313.8 207.6,314.1 206.9,314.6 206.3,314 206.1,312.1 
		206.1,311.8 206.6,311.4 207.6,312.1 214.8,311.1 215.1,310.6 215.6,310.6 	"/>
	<polygon points="39,319.6 39.8,319.2 40.3,319.2 40.3,321.4 40.2,322.1 39.8,322.3 38.6,321.8 31.3,321.6 30.3,322.1 30,321.8 
		30.1,318.9 30.5,318.7 31.7,319.4 	"/>
	<path d="M216.6,320.1h-0.3l-0.5,0.2l-3.4-1.2l-4.8-2l-0.5-0.8h-0.5l-0.2,0.5l0.2,2.7l0.3,0.4l1.2-0.5l0.8,0.5v3.6l-0.3,0.5
		l-0.5,0.3l-0.9-0.2l-0.5,0.2l0.2,3h0.5l0.7-0.8l2-1l5.1-1.9l1,0.2l0.5-0.2v-0.7L216.6,320.1z M213.4,322.1l-2.2,0.7H211v-2l2.4,1
		V322.1z"/>
	<polygon points="32.3,325.7 32,326.2 31.7,328.4 31.8,328.9 32.3,329.2 38.8,328.7 39.1,328.1 39.5,327.9 39.8,327.9 40.3,329.2 
		40.5,331.3 40.3,331.4 39.3,331.4 38.8,330.9 32.2,331.4 32,332.3 32.7,334.5 33.2,335.2 33,336 32,336.4 30.8,336.2 30.3,334.2 
		29.8,325.2 30,324.8 31.3,324.7 32.5,324.8 	"/>
	<polygon points="216.6,327.7 216.6,331.4 215.8,337.9 214.2,338.1 213.6,337.9 213.4,337.4 214.2,335.5 214.2,333.7 213.2,333.3 
		208.3,333 207.1,333.8 206.8,333.8 206.6,332.5 206.8,330.3 207.8,330.3 208.5,330.9 214.4,331.4 214.8,329.2 214.4,327.7 
		214.6,327.2 216.3,327.4 	"/>
	<polygon points="213.2,340.3 214.6,340.6 215.1,340.3 215.6,340.8 214.9,342.8 214.6,343 214.2,343 213.6,342.5 206.6,341.1 
		205.9,341.5 205.4,341.3 205.6,340.1 205.7,338.9 206.1,338.6 208.1,339.4 	"/>
	<path d="M41.3,342.7l-1.4,0.5l-0.7-0.3l-0.5-3.4v-1l1-0.7h1l0.2-0.4l-0.3-2.4l-0.3-0.7l-0.3-0.2l-0.8,1.2l-6.5,4.4l-0.8,0.2l-1,0.5
		l0.3,2.6l0.5,0.7h0.7l0.9-0.2l7.3,1.7l1,0.7H42l0.2-1.4L41.3,342.7z M37.3,342l-0.5,0.2l-2.4-0.5l-0.2-0.2l1.2-0.8l1.2-0.7l0.3,0.2
		l0.3,1.5V342z"/>
	<path d="M211.9,346.2l-1.9-1.4l-2.9-0.3l-2,0.7l-1.5,1.5l-1,2.9l0.3,2.2l0.7,1.2l2,1.7l1.9,0.2l2.7-0.2l1.9-1.4l1-1.9v-3.2
		L211.9,346.2z M211,351.2l-0.7,1L209,353l-2.9-0.3l-1-0.8l-0.7-1.7l0.2-1.7l1-1l1.5-0.8l2,0.2l1.4,1l0.7,1.4L211,351.2z"/>
	<polygon points="42.9,348.1 42.2,349.8 39.5,354.7 39.6,355.1 43.4,353.9 43.9,352.9 44.7,352.9 45.6,354.9 45.6,355.9 45.1,356.3 
		43.9,355.9 37.9,357.8 36.8,359.1 36.4,359.1 35.4,357.8 35.4,356.8 36.4,355.9 39.1,350.8 39.1,350.5 37.9,350.6 34.7,351.7 
		34.4,352.3 34,352.5 33.7,352.2 32.9,349.8 32.9,349.6 33.2,349.3 34.6,349.6 40.3,347.8 41.5,347.4 42.5,347.6 	"/>
	<polygon points="209.3,357.8 210.2,357.4 210.7,357.8 210.5,358.8 210,359.6 204.1,361.3 203.5,361.5 203.4,361.5 203.2,361.7 
		203.4,362 207.1,363.9 207.6,363.5 208,363.9 208.1,364.1 207.1,366.4 206.4,366.4 206.1,365.6 201,363 198.8,361.9 198.8,361.5 
		204.4,359.1 205.2,359 205.4,358.8 204.7,358 201.3,356.9 201,357.3 200.8,357.1 201,355.7 202,354 202.9,355.2 	"/>
	<rect x="62.9" y="370.5" width="0.2" height="0.2"/>
	<polygon points="57.3,372.2 57.3,372.2 57.7,372.7 	"/>
	<rect x="53.9" y="373.6" width="0.2" height="0.2"/>
	<polygon points="57.1,375.1 57.1,375.3 56.8,374.9 57.1,374.9 	"/>
	<polygon points="55.8,376.1 55.3,375.8 55.3,375.6 55.6,375.8 	"/>
	<polygon points="54.3,377.6 53.6,376.6 53.7,376.6 54.3,377.3 	"/>
	<polygon points="134.3,408.7 133.7,409.1 132.7,408.7 130.3,408.9 130,409.2 130.3,410.8 131,410.8 133.1,410.2 133.4,412.5 
		133.1,412.8 130.8,412.5 130.5,412.6 130.3,413.8 130.5,414.7 133.1,414.5 134.6,413.3 135.1,413.5 135.1,414.7 134.6,415.8 
		133.6,416.2 128.6,416.5 128.5,416.5 128.5,415.3 128.1,408.6 127.8,407.9 127.8,407.4 133.1,406.9 133.2,406.7 133.9,406.7 	"/>
	<polygon points="118.8,408.4 120.7,412.1 121.3,412.1 123.4,409.2 124.1,408.2 124.7,407.9 125.9,407.7 126.1,408 125.6,409.4 
		125.6,415.5 126.1,416.5 125.9,416.7 123.7,417.1 123,416.9 123,416.5 123.5,415.5 123.5,413.5 123.5,413.1 123.4,412.8 122.2,414 
		120.7,416 120.3,415.9 118.6,412.6 118.5,412.5 118.3,412.8 117.8,415 118.1,416.2 117.4,416.7 115.4,416.5 115.4,415.9 
		115.9,414.8 116.7,408.9 116.1,407.9 116.4,407.5 117.9,407.7 	"/>
	<path d="M113.9,415.3l-1.5-7.1l0.2-1l-0.2-0.2l-2.5-0.2h-0.2l-0.2,1.4l-2.7,4.8l-1.5,1.5v0.5l0.3,0.3l1.7,0.2l0.9-0.2v-0.8l0.7-1
		h1.4l1.2,0.5l0.2,0.8l-0.2,1l0.5,0.4l2.2-0.2l0.2-0.2L113.9,415.3z M110.8,411.8h-1.2v-1l0.7-0.8h0.3l0.3,1.3L110.8,411.8z"/>
	<path d="M220.4,316l-0.7-6.5l-1.5-8.1l-2.4-7.6l-4.3-9.7l-4.9-8.5l-5.1-7.1l-6.8-7.7l-6.1-5.8l-8.1-6.3l-1.4-0.3l-1.7,0.3l-0.8,1
		l-2.7,3.7h-0.3l-1.4-0.5l-2.5-2v-0.5l1.9-2.5l0.8-1.7l0.2-1.5l-0.7-1.4l-2-1.4l-2.5-0.8l-1.7,0.2l-1.4,1.4l-1.2,2.2l-1.2,1.4
		l-1-0.3l-2.7-1.5l-0.5-0.7l1.2-2.5l0.2-2l-0.5-0.8l-2.2-1.4l-5.9-2l-9-2.2l-9.3-1.2l-10.9-0.3l-4.6,0.3l-11.9,1.7l-8.5,2.4l-2,1.4
		l-0.7,1.5l0.2,4.8l-1,0.7l-2.7,0.9l-1-0.3l-1.4-3.1l-1.5-1l-1.5-0.3l-2.9,0.7l-2.2,1.7l-0.3,1.2l1.7,5.3l-0.2,0.5l-1,0.7l-3.7,1.4
		l-1.4-1.5l-2.5-1.4l-2.4-0.2l-5.9,4.1l-8.8,7.8l-8.1,8.7l-5.4,7.3l-5.9,10l-2.2,4.9l-2.7,7.3l-1.5,5.6l-1.4,5.6l-1,7.3l-0.2,11.9
		l0.2,5.4l0.8,6.5l1.7,7.8l2.9,9.7l3.1,7.5l2.9,5.9l2.2,3.1l1.2,1.2h1.7l1.4-0.7l1.7-0.5l1.2,0.5l2.6,2l0.8,1l2.7,4.1l0.5,1.5
		l-1,1.5l-0.5,2.4l1,3.4l0.9,1.4l2.4,2.7l2.9,2l3.1,1l3.2-0.9l1.5-1.2l3.6,0.9l3.4,1.8l4.1,3.3l0.8,1l-1.2,1.7l-0.2,2.6l0.7,1.4
		l0.8,0.7l4.6,3.4l5.8,2.5l11.7,3.2l5.9,1.3l9.3,1.2h8.7l12.6-0.7l5.8-1.4l10.9-2.9l9.9-3.9l4.9-2.9l2.7-2l0.3-1.4l-0.2-1.5
		l-1.7-3.2l-0.3-1.5l0.5-1l3.1-2.2l2.5-1.5l1.5-0.5l0.8,0.2l2.7,3.7l1.4,0.9l3.1-0.9l3.4-1.9l3.2-2.9l2.9-3.7l0.7-2.5l-0.2-1.2
		l-1.9-2.4l-0.5-1.4l0.5-1.5l4.2-5.1l1-0.2l2.9,2.4l1.2,0.3l2.5-2l4.1-7l4.4-10.4l1.4-3.9l3.7-13.8l0.9-6.8l0.7-10.9L220.4,316z
		 M172.6,254.9l-0.8,1.4l-3.4,4.1l-1.2,1.4l0.2,1.9l1.7,3.1v0.3l-1.2,0.5l-2.4-0.2l-3.9-2.2l-2-2.4l-0.3-1l0.3-1l0.5-0.5l2.2,0.2
		l1.4-0.7l2.4-3.7l2.5-3.4h0.5L172.6,254.9z M191.7,359.1l-1.5-0.7l-2.7,0.9l-4.1,3l-2.9,3.1l-2.9,4.1l-1.2,2.2l-0.3,1.5l0.3,1.5
		l3.7,3.9l-0.2,0.7l-3.2,3.1H176l-3.1-4.1l-1.4-0.7l-3.9,0.5l-3.7,1.5l-4.7,3.2l-3.1,2.9l-2,2.5l-0.7,2.2l0.5,2l1.5,2.6l0.7,0.8v0.5
		l-2,1.2l-5.8,2l-10,2.4l-8.7,1.2l-6.1,0.5l-6.8-0.2l-6.6-1l-7-1.4l-0.7-0.2l-7.1-2.2l-3.1-1.5l0.3-1.9l1.7-2.5l-0.7-2l-3.2-4.1
		l-3.7-3.1l-5.1-2.9l-4.9-1.3l-1.9,0.5l-2.7,3.4l-0.5,0.4l-1-0.4l-1-1l1-1l1-1l0.3-1.2l-0.7-1.5l0.3-1.3l-0.5-2.4l-2.2-4.3l-2.5-3.7
		l-4.6-4.8l-2-1.4l-1.4-0.2l-2,0.9l-2.2,1.5h-0.5l-2.9-5.6l-3.1-9l-2.4-10.9l-0.8-9.3l0.3-9.2l1.4-8.5l2.2-8.1v-0.2l3.4-8l4.6-8.1
		l5.3-7.1l7.5-8l4.9-4.1l1.2-0.8h0.5l2.6,3.2l1.5,0.7l3.1-0.2l3.6-1.4l3.9-2.9l1.2-2.4l2.2,0.8l2.4-0.5l4.1-1.5l2.9-2l1.2-1.7
		l0.2-1.4l-1.2-4.8l2.2-0.7l6.8-1.2l6.5-0.5l4.4-0.3l10.5,0.5l9.3,1.4l4.1,1v0.5l-1.2,0.5l-1,1.7l-0.3,1l0.8,1.7l3.6,3.4l2.7,1.4
		l3.6,0.7l2.4-0.7h0.2l0.5,1.4l2.5,3.6l3.1,1.9l2.2,0.7l2.9-0.2l1.2-0.8l2.4-3.2l4.8,4.1l5.4,5.3l5.3,6.5l4.4,7l3.6,6.8l2.4,5.3
		l1,2.9l2.2,9l0.5,3.1l0.8,7.6l-0.2,8.5L202,336l-1.4,7.1l-1.9,6.6l-3.9,9.5l-1,2h-0.2L191.7,359.1z M192.9,362.7
		c0,0-0.9,1.8-1.5,2.2c-0.6,0.4-1.7,0.7-1.1-0.9c0.7-1.5,0.9-2.6,0.9-2.6L192.9,362.7z M179.8,375.8l0.5-0.5l2-0.9h0.5l0.2,0.5
		l-0.5,1.7l-0.8,0.7l-1.7-1.2L179.8,375.8z M175.1,383.5c0,0-1.1,0.7-2,1.1c-0.9,0.4-2.2,0.4-1.3-0.7c0.9-1.1,1.5-2.6,1.5-2.6
		L175.1,383.5z M156,392.8l0.2-0.5l2.2,0.2l2.4-0.7h0.4l1,0.5l-1,1.2v0.5l-3.1,1.5L156,392.8z M76,384.4v0.5l-0.7,0.4l-1.4-0.2
		l-0.3-0.2l-0.2-0.2l1.5-1.9L76,384.4z M68.5,381.1c0,0-2-2-2.6-3.5c-0.7-1.5,0.2-1.5,1.1-0.9c0.9,0.6,1.9,1.3,2.4,1.9
		C70,379.6,68.5,381.1,68.5,381.1 M56.3,365.4l-0.2,0.2l-1.2-0.5l-0.8-1.4l0.3-0.7l1.2-0.7l0.2,0.2L56.3,365.4z M76.6,264.1
		c0,0,1.7-1.1,2.4-1.3c0.7-0.2,1.7-0.2,0.9,0.7c-0.9,0.9-1.5,1.5-1.7,2.2C77.9,266.3,76.6,264.1,76.6,264.1 M89.5,256.8
		c0,0,1-0.3,1.2,0.1c0.3,0.4-0.4,1.3-0.4,1.3L89.5,256.8z M101.1,254.9l1.4,0.3l0.3,0.3l-0.2,1.4l-2,1.9l-3.1,1.7l-3.6,0.9l-1.2-0.4
		l-0.7-1l1-2.4v-2L94,255l2-0.5l0.2-0.2l2.4,0.7L101.1,254.9z M100.5,252.2l1.5-0.6l0.7,1.7c0,0-0.2-0.2-2-0.2
		C98.9,253,98.9,252.8,100.5,252.2 M150.6,253v0.3l-4.4,0.2V253l0.5-0.5L150.6,253z M157.8,255.9l1,0.3l0.4,0.3l-0.2,0.2l-0.3,0.2
		l-0.5-0.3L157.8,255.9z M170.4,264.5l-0.7-0.8v-0.5l0.7,1V264.5z M161,258.5l0.2-0.7l0.5,0.2h0.5v0.2l-0.5,0.2H161z M162.8,247.7
		l2.7-4.6l0.8-0.5l1.7,0.2l2.2,1.4l0.7,1.2l-0.5,1.4l-0.5,0.3l-0.5,1.2l-0.7,0.2l-0.3,1l-0.3,0.2l-0.3,0.8l-0.7,0.3l-0.2,1l-1.7,2.2
		l-0.9,0.8v0.5l-0.7,0.5v0.5l-0.3,0.2l-2.5-1.5l-1.5-0.7h-0.5v-0.5L162.8,247.7z M159.6,246.9l1,0.5l0.2,0.3l-2.9,4.8l-2.2,3.1
		l0.2,1.4l1.2,1.5v1.5l-1,0.5l-1.9,0.2l-3.1-1l-2.5-1.4l-2.7-2.7V255l1.5-0.5h4.1l1.2-0.9l3.7-7.3l0.7-1L159.6,246.9z M95,237.7
		l2.9-1.4l10.9-2.4l10.4-1.2l4.1-0.2l9.7,0.5l7.1,1l1,0.3l6.1,1.2l4.2,1.4l4.2,1.5l1,1.2l0.5,1l-0.8,1.9l-0.3,0.2l-0.2,1.2l-0.8,0.5
		l-0.3,1.4h-0.2l-0.2,0.9l-0.5,0.7l-0.2,0.7l-0.5,0.7v0.2l-0.5,0.9v0.5l-0.3,0.2h-0.2v1.4l-0.2,0.2l-3.1-1.7l-6.5-1.5l-4.2-0.8
		l-7.1-0.7l-9.7-0.3l-6,0.3l-8.5,1.4l-7.6,2.2l-1.9,1l-0.5-0.7l-1.4-6.3l-0.7-4.6l-0.3-1.5L95,237.7z M89.9,245.8l1.5-0.2l1.9-0.9
		h0.5l1.4,5.8l0.3,1.7l0.7,1.5l-2.9,1l-0.5-0.3l-1.2-2l-0.8-2.2v-0.3l2.7-0.5l0.5-0.5v-0.2h-0.5l-2.7,1l-1.4-3.4L89.9,245.8z
		 M80.2,243.6l0.4-1l2.2-1.2l2.4-0.2l1,1.5l0.7,1.5l1.2,3.2l0.5,1.2l0.7,2.2l0.5,1.2l0.7,1.9v0.5l-2.2,0.5l-2.4,1.5l-0.7-1l-2-5.3
		l-2.2-5.3L80.2,243.6z M88.3,259.1c0,0-1.2-0.1-1.7-0.6c-0.4-0.4,0.8-1,0.8-1L88.3,259.1z M76.3,252.5l3.7-1.4l1-0.7l0.5,0.5
		l1.5,3.9l0.7,2.2l-0.2,0.3l0.7,0.7l-0.2,0.9l0.5,0.5v0.5l-1.9,1.2l-0.2,0.2v0.2l1.2-0.5l1-0.8l1.5,0.5l3.1,0.3l0.5,0.5l-0.2,1.4
		l-0.8,1.2l-1.7,1.5l-3.1,1.5l-2.7,0.7l-1.5-0.2l-0.7-0.9l0.5-0.7l1-0.8l0.9-1l0.3-1.5l-0.5-1.5l-1.9-2.5l-0.7-1l0.2-0.3l1-0.2
		l2-1.5l0.3-0.5l-3.6,1.9h-0.3l-2.2-4.1V252.5z M45.2,372.2l-3.1,1.9h-0.5l-1.9-2.5l-2.7-5.1l-2.2-4.9l-3.7-11.2l-1.9-8.7l-1.2-10.7
		v-12.4l1-8.5l2.4-9.3l2.7-7.8l1.7-3.9l3.6-7.1l1.4-2.2l1-1.5l3.7-5.4l4.6-5.6l8.2-8.3l7.6-6.5l3.9-2.4l0.5-0.2l1.9,0.3l2,2.4
		l3.9,7.1l0.7,1.5l-1.7,0.3l-5.6,4.1l-6.6,6l-3.2,3.6l-5.4,6.8l-5.1,8.5l-3.6,7.3L44.4,308l-1.9,10.7l-0.3,10.5l1,8.3l2.4,10.7
		l2.2,6.5l2.2,5.4l3.4,5.4l1,1.2v0.3l-1.5,0.5l-1.4,0.9l-2.7,1.5l-1.9,1L45.2,372.2z M52.4,378.5l-2.3-2.5l-0.8-1.3l-1.5-1.6
		l0.3-0.5l3.6-2l1.9-1l2.2-0.7l1.9-1l0.7-1l0.2-1l-0.7-2l0.2-1.5l0.7-0.7l2.7,1.7l3.4,3.4l2,3.1l1.9,3.1l1.2,3.1v0.3H69l-3.4-2.2
		l-1.5,0.2l-2.4,2.4l-3.4,3.2l-3.4,2.7L52.4,378.5z M65.8,396l-3.1,1.2l-2-0.3l-2.9-1.9l-2.7-2.9l-1.4-2.2l-0.7-2.4l0.3-1.7l5.4-4.1
		l4.4-4.2h0.5l0.9,2.2l2.9,3.2l3.1,2.5l0.9,0.5l0.2,0.2l-2-0.5l-0.2,0.2l0.7,0.7l1.5,0.5h0.3l0.3-0.5l1.2,0.4v0.5l-6.1,6.4L65.8,396
		z M76,398.7l-5.4-2.9l-1.5-0.7v-0.5l1-1l1.4-1.2l1.9-2l1.4-1.7l1-0.9l2-3.1v-0.3l-0.7-2.5v-0.5l1.4,0.2l4.3,1.5l4.2,2.7l2.9,2.5
		l2,2.7l0.3,1h-1.4l-2.5-1.4l-1.4-0.2l-1.2,0.5l-1.9,2.5l-1.5,2.9l-3.1,4.7L76,398.7z M91.6,393.5l-0.7,2.4c0,0-2.8-1.3-3.7-2.2
		c-0.9-0.9-0.4-1.3,0.4-1.3c0,0,0.9,0.9,2,1.3C90.7,394.2,91.6,393.5,91.6,393.5 M170.3,403.6l0.3,1.2l-0.3,1.9l-1.9,1.5l-9.3,4.6
		l-7.6,2.5l-12.1,3.1l-9.3,1l-5.6,0.2l-11.6-0.7l-9.9-1.5l-11-2.9l-4.4-1.7l-4.8-2.4l-2.5-2l-1.2-1.5v-2l3.4-4.9l2.2-3.7l0.2-0.3
		l1.2,0.3l6.5,3.4l5.1,2l7.5,2.2l11.9,1.9h7.6l8.3-0.5l9.7-2l8-2.4l10.5-4.6l2-1.5l0.7-1l0.3,0.2l2.7,4.4L170.3,403.6z M175.7,393.6
		l-4.2,2.7l-1.9,1.9h-0.5l-3.2-5.1l-0.7-1.2l-0.7-1.2l-1.9-0.9l-1.9,0.2l-2.5,0.9l-1.5-0.2l-1-0.5l0.2-1.2l2.5-2.9l5.1-4.2l2.4-1.2
		l3.9-1.4h1.7l0.2,0.5l-0.2,1.7l-0.5,1l-1.2,2.2l0.7,1.7l1,1l1,1l0.2,0.3l0.7,0.5l0.2,0.2l2,2l0.8,1.4L175.7,393.6z M194.2,386.5v2
		l-1.4,2.5l-2.7,2.9l-3.4,2.5l-2.7,1.2h-1.5l-3.9-5.1l-2.4-3.1l-2.4-2.2l-0.3-0.3l0.3-0.5l3.7-2.5l4.1-3.6l2.5-3.4l0.5-1.4l0.9,1
		l2,2.7l4.6,5L194.2,386.5z M197.3,374.6l-4.1,4.7l-1,2l-1.2-0.7l-2.9-3.6l-0.5-0.8l-0.5-1l-0.8-1l-0.8-1l-1.4-1l-2.4,0.5l-0.3,0.3
		l-0.7,0.2l-1.2-0.2l-1,0.3l-0.2,0.2l-0.2-0.2v-0.8l2.6-4.4l3.1-3.7l3.6-3.4l1.4-0.5l0.7,0.3l-0.5,2.6l-0.5,2.7v0.5l1.4,1.5l1.5,0.9
		l6.1,4.9V374.6z M218.1,334l-0.7,5.6l-2,9.7l-2.2,7.1l-4.1,9.7l-1,1.9l-3.6,7.1l-1.7,1H202l-3.7-3.6l-5.6-4.6l-1.2-0.5l-0.2-0.2
		l1.2-1l1.2-1.2l2.5-4.1l3.1-6.6l3.2-10.2l0.5-2.6l1.5-9.3l0.3-2.9l-0.3-5.3l-0.2-5.9l-1-7.3l-1.5-6.6l-1.7-5.1l-4.2-9.5l-4.2-7.1
		l-6.5-8.7l-2.7-2.7l-8-7.1l-4.2-3.1l0.2-0.5l5.1-6.3l2-3.1l0.7-0.5l1,0.2l2.4,1.2l4.8,3.4l7.5,6.8l5.4,6.1l6.6,9.2l3.4,5.6l1.9,4.4
		l1,2.5l1.5,3.6l2.2,7.5l2,9.4l0.9,13.1L218.1,334z"/>
	<polygon points="182.3,370.3 183,369.8 181.5,371.7 	"/>
	<polygon points="60.9,372.7 60.9,372.9 60.7,372.6 	"/>
	<rect x="58.8" y="373.9" width="0.2" height="0.2"/>
	<polygon points="188.6,376.1 188.8,375.6 189.1,375.6 	"/>
	<polygon points="190,376.3 190.1,376.5 189.8,376.8 	"/>
	<polygon points="184.9,378.3 184.2,378.8 184.7,377.3 185,377.3 	"/>
	<polygon points="190.5,377.8 190.3,378 190.3,377.6 190.6,377.3 190.8,377.3 	"/>
	<polygon points="191.8,377.8 191.8,377.8 191.5,378.5 191.3,378.3 	"/>
	<polygon points="185.7,379 185,379.7 185.7,378.5 	"/>
	<polygon points="192.7,378.7 192.7,378.7 192.5,379 192.3,379 	"/>
	<polygon points="186.7,380.4 186.2,380.7 186.5,379.8 186.7,379.8 	"/>
	<polygon points="187.2,381.9 187.7,381.1 187.7,381.6 	"/>
	<polygon points="188.8,382.7 188.6,382.9 188.4,382.9 188.6,382.4 188.8,382.6 	"/>
	<polygon points="190.1,383.9 189.6,384.3 190,383.6 190.1,383.8 	"/>
	<polygon points="158.9,386.1 161.6,384.4 158.9,386.5 	"/>
	<polygon points="191.3,385.3 191.1,385.5 191.3,384.9 	"/>
	<rect x="161.9" y="385.3" width="0.2" height="0.2"/>
	<polygon points="159.7,387.3 161.4,385.6 161.6,385.6 	"/>
	<rect x="66.8" y="385.6" width="0.2" height="0.2"/>
	<polygon points="192.2,386.5 191.7,386.8 192.2,385.8 192.3,385.8 	"/>
	<polygon points="161.9,386.5 162.9,386 160.4,388 	"/>
	<polygon points="163.6,387 161.4,388.7 161.6,388 163.6,386.7 	"/>
	<polygon points="192.3,388.3 193.2,386.8 193.2,387.5 	"/>
	<polygon points="69.2,387.8 68.4,387 70.9,387.8 	"/>
	<path d="M65.8,387.3v-0.2V387.3z"/>
	<polygon points="87.4,388.2 87.4,388.3 86.4,387.7 86.5,387.5 86.9,387.5 	"/>
	<path d="M163.6,388h0.2H163.6z"/>
	<polygon points="163.5,388.2 163.5,388.2 162.3,389.5 162.1,389.4 	"/>
	<polygon points="69.5,389 69.5,389.4 68.2,389.4 67,388.7 67,388.3 69.4,389 	"/>
	<polygon points="64.6,388.5 64.6,388.5 65.1,388.7 64.9,388.9 	"/>
	<polygon points="86.2,389.4 85.5,389 85.3,388.7 86,388.9 	"/>
	<rect x="79.6" y="389.2" width="0.2" height="0.2"/>
	<polygon points="68,390.5 68,390.7 67,390.5 66,390 65.6,389.7 65.8,389.5 67.3,390.4 	"/>
	<polygon points="85.5,390.4 84.7,389.5 85.2,389.9 	"/>
	<polygon points="63.9,390.4 63.6,390.4 63.6,390.1 	"/>
	<polygon points="84.5,390.9 83.8,390.5 83.8,390.2 84.1,390.4 	"/>
	<polygon points="66.5,392.3 65.3,391.9 64.6,391.1 67.2,391.9 	"/>
	<polygon points="78.2,391.4 77.9,391.1 78.2,391.1 	"/>
	<polygon points="83.6,391.6 83,391.4 83,391.2 83.3,391.4 	"/>
	<polygon points="62.4,391.6 62.1,391.4 62.2,391.4 	"/>
	<polygon points="61.2,392.6 60.7,392.2 61.2,392.4 	"/>
	<polygon points="82.1,392.6 81.9,392.2 82.8,392.8 	"/>
	<polygon points="65.8,393.3 65.8,393.6 65.3,393.6 63.9,393.1 63.6,392.6 65.3,393.3 	"/>
	<polygon points="76.8,393.3 76.3,392.9 76.8,393.1 	"/>
	<polygon points="82.3,394.1 81.3,393.6 81.1,393.4 81.8,393.4 	"/>
	<polygon points="60.2,393.8 60.2,394 59.7,393.4 59.9,393.4 	"/>
	<polygon points="64.6,395 64.3,395.1 62.4,394.5 61.9,394 64.4,394.8 	"/>
	<polygon points="75.7,394.6 75.1,394.6 75.1,394.5 75.5,394.6 	"/>
	<polygon points="81.1,395 80.9,395 80.2,394.6 80.7,394.6 	"/>
	<polygon points="63.4,395.7 63.4,395.7 63.4,396 62.2,395.8 60.9,394.8 62.4,395.5 	"/>
	<polygon points="80.2,396.3 80.2,396.5 79.6,395.7 80.1,396 	"/>
	<polygon points="74.1,396.3 74,396.3 73.8,396 74.1,396.2 	"/>
	<polygon points="79.6,397.5 78.5,397 78.5,396.7 79.4,397.2 	"/>
	<polygon points="78.5,398.4 78.7,398.5 78.7,398.7 77.5,397.7 78.2,397.9 	"/>
	<polygon points="156,403.8 156,404.3 155.5,404.6 154.3,404.1 152.4,404.5 151.6,405.7 151.6,407.7 152.6,408.9 153.3,409.4 
		154.5,409.7 155.5,409.2 156.5,408.2 157,408.2 157.3,408.9 157.3,409.4 155.6,410.8 153.8,411.5 151.9,410.9 149.9,408.7 
		149.5,406.2 150.6,403.6 152.6,402.4 154.8,402.1 155.5,402.1 	"/>
	<path d="M92.8,402.3l-1.2-1.2l-1.7-0.5l-1,0.2l-1.2,0.7l-1.5,1.5l-1,2.7l0.2,2.2l0.8,1.3l1.2,0.7l2-0.2l1.5-0.8l1.5-2l0.8-3.1
		L92.8,402.3z M91.1,405.3l-0.7,1.4l-1.4,1.3l-1,0.2l-0.7-0.3L87,407l0.3-2.5l1-1.3l1.4-0.5l0.8,0.2l0.7,0.5L91.1,405.3z"/>
	<path d="M166.3,404.6l-5.3-4.6l-0.7-1.2h-0.3l-1.4,0.7l-0.7,0.7l0.5,0.9l0.2,6.3l-0.2,1.4v0.7h0.7l1.5-0.7l0.3-0.5l-0.3-0.8
		l0.2-0.5l0.5-0.3l2.4-1l0.5,0.2l0.3,0.7l0.5,0.3l2-1.2v-0.7L166.3,404.6z M161.8,404.6l-1,0.4h-0.2l-0.2-2l0.2-0.3l1,0.7l0.7,0.8
		L161.8,404.6z"/>
	<polygon points="102.1,406.2 102,406.7 101.6,407 101.1,407 100.1,406 97.9,405.3 97.4,405.7 96.7,407 96.7,407.4 98.1,407.9 
		98.9,407.9 99.1,408.6 98.6,409.9 98.2,410.1 97.6,409.9 96.9,409.2 96.2,409.2 95.2,411.4 95.2,412.3 93.8,412.3 93,411.8 
		95.9,404.1 95.9,403.5 96,403.3 102.1,404.8 	"/>
	<polygon points="147.3,405.2 147.5,406.9 148.8,411.8 149.5,412.1 149.7,412.5 149,413 147,413.5 146.6,413.3 146.8,411.8 
		145.6,407.5 145.3,406.2 144.6,405.7 144.6,404.8 146.5,404.3 147.5,404.3 	"/>
	<path d="M145.5,413.1h-1l-1.5-1.5l-0.2-0.5l0.7-1.2l-0.2-2.2l-1.2-1.2l-1.9-0.4l-2.4,0.2l-1.7,0.5v0.3l0.2,0.2l0.3,0.5l1,6.5
		l-0.5,0.7v0.3l0.2,0.2l0.3,0.2l1.9-0.4l0.7-0.5l-0.5-0.5l-0.3-1.7l0.3-0.3l0.8-0.2l2.2,2.2l2.7-0.3l0.3-0.5L145.5,413.1z
		 M141,409.9l-1.2,0.5l-0.7-0.2l-0.3-1.3v-0.7l0.5-0.3l1.7,0.3l0.3,0.9L141,409.9z"/>
	<path d="M137.6,284.9c0.3-0.5,0.6-0.4,1.2-0.8c0.5-0.4,0.5-1.2,1.1-0.9c0.7,0.3,2.5,0.8,4.6,1.1c2.1,0.4,5.1,0.7,7.9,1.3
		c2.9,0.6,7.5,1.3,9.5,1.8c2,0.5,6.2,1.5,7.8,1.9c1.6,0.5,2.9,1,3.5,1.3c0.7,0.3-0.3,0.4-1.7,0.3c-1.4-0.1-3.4-0.1-5.6-0.4
		c-2.2-0.4-3.9-0.7-5.6-0.9c-1.7-0.2-4.4-0.9-7.1-1.3c-2.7-0.5-7.1-1.6-9.9-2.1c-2.7-0.5-3.9-0.7-4.8-1
		C137.6,284.9,137.3,285.3,137.6,284.9"/>
	<path d="M89.2,300.9c0.5-0.2,0.6-0.1,1.4,0.1c0.8,0.3,1.3,0.8,2.2,1c0.9,0.2,1.2,0.1,1.4,0.5c0.3,0.4,0,0.6-0.6,0.5
		c-0.7-0.1-1-0.2-1.6-0.5c-0.5-0.3-0.8,0.1-0.9,0.4c-0.1,0.3-0.6,0-1-0.4c-0.4-0.4-0.5-0.9-0.9-1.2C88.8,301.1,88.8,301,89.2,300.9"
		/>
	<path d="M62.8,284.1c0,0,6.2-2.9,9.5-2.9c3.3,0,7.2,0.5,8.3,0.9c1.1,0.4,4.2,2.3,5.5,3.3c1.3,1,4.4,2.9,5.4,3.7
		c1.1,0.8,3.9,2.9,5.1,3.3c1.2,0.4,1.4,0.3,1.4,0.3s-1.9-1.1-3.7-2.4c-1.9-1.3-4.8-3.2-7-4.8c-2.2-1.6-4.4-3.2-6.4-3.9
		c-2-0.7-5.1-1.3-5.8-1.1l-0.7,0.2c0,0,2.3-0.8,3.8-0.7c1.6,0.2,2.9,0.9,6.1,2.4c3.2,1.5,7.7,4.5,9.3,5.7c1.6,1.2,2.8,2,3.6,2.4
		c0.8,0.4,1.8,0.6,0.8-0.3c-1-0.9-3.7-2.6-5.7-3.9c-2.1-1.3-3.5-2.3-4.8-3.1c-1.3-0.8-5.9-3.7-5.9-3.7s2.2-0.1,4.4,0.6
		c2.2,0.7,5.9,2,6.8,2.7c0.9,0.6,3.2,2,3.2,2l0.1,1.9c0,0-2.2-1.4-3.1-2c-0.5-0.3-1-0.5-1.6-0.8c-0.9-0.4-2.2-1.4-2.6-1.2
		c-0.3,0.2,2.7,1.7,4,2.4c0.8,0.5,4.1,2.8,5.6,3.6c1.9,1.1,3.3,2.2,4.6,3.2c1.6,1.2,3.2,2,3.1,1.8c-0.6-0.8-1.3-1.4-1.3-1.4
		s-6.4-4.4-4.9-3.4c1.5,1-3.3-2-2.6-1.6s-1.1-0.7-1.1-0.7l-0.4-2l0.7,0.4c0,0-0.9-1.3-1.6-2c-0.7-0.7-2.2-1.4-3.8-2.2
		c-1.6-0.8-3.2-1.5-4.4-1.6c-1.2-0.1-2.3-0.1-2.1-0.2c0.2-0.1,1.6-0.7,3.6-0.7c2,0,3.7,0.2,3.7,0.2l-1.5,0.8c0,0,0.4,0.2,1.3,0.6
		c0.9,0.4,3.6,1.7,4.5,2.3c0.9,0.6,3.6,2.4,4.5,3.1c1,0.7,1.9,1.4,2.7,2c0.7,0.5,2,1.3,2,1.3s-0.1-0.6-1.5-1.6c-1.4-1-2.5-2-3.7-2.7
		c-1.2-0.7-2.4-1.7-3.6-2.3c-1.1-0.6-3.7-2.2-4.3-2.4c-0.7-0.3-2-0.3-2-0.3l1.5-0.8c0,0,2,0.2,3.4,0.8c1.4,0.6,2.3,0.9,2.3,0.9
		l-2.3,0.1c0,0,2.5,1.1,3.4,1.7c1,0.5,2.8,1.7,3.8,2.3c1,0.6,3.9,2.8,4.6,3.4c0.7,0.6,2.6,2,2.6,2s-0.1-0.3-0.5-1
		c-0.3-0.5-1.2-1-2.5-1.9c-1.3-1-2.2-1.5-4.1-2.8c-1.9-1.2-2.8-1.8-3.4-2.2c-0.6-0.3-1.4-0.6-1.9-0.9c-0.6-0.3-1.9-0.6-1.9-0.6
		l2.2-0.1c0,0,1,0.3,1.9,0.9c0.9,0.6,1.9,1,1.9,1s-0.2-0.5-1-1c-0.8-0.5-2.5-1.4-3.4-1.8c-0.8-0.4-1.6-0.8-1.6-0.8s2-0.3,3.2-0.2
		c1.2,0.2,2.3,0.5,3,0.8c0.7,0.3,1.7,0.7,1.7,0.7l-0.8,1.3c0,0,0.2,0.2,1.2,0.8c0.9,0.6,3.4,1.8,3.4,1.8s-1.1-1.1-2.1-1.6
		c-1-0.6-1.9-1.2-3.1-1.8c-1.2-0.6-2.3-0.8-2.3-0.8s0.6,0.3,1.6,0.8c1,0.5,1.4,0.8,1.4,0.8l0.8-1.3c0,0,0.7,0.3,2.1,0.9
		c1.3,0.6,2.8,1.5,3.2,1.6c0.4,0,0.1-0.7,0.1-0.7s-1.3-1-2.2-1.3c-0.9-0.3-1.9-0.9-1.9-0.9s0.9,0.1,1.5,0.1c0.6,0.1,2.4,0.6,3.3,0.9
		c0.9,0.2,1.5,0.5,2,0.9c0.5,0.4,2.1,1.1,2.8,1.7c0.7,0.5,2.7,1.9,2.7,1.9l-2.7,0.3c0,0-0.1-0.6-0.8-1.2c-0.7-0.6-1.3-1-2.1-1.7
		c-0.7-0.7-1.2-1-1.9-1.3c-0.7-0.2-0.6,0.1-0.1,0.6c0.5,0.5,1.3,1.2,1.8,1.5c0.5,0.3,0.8,0.5,1.4,1c0.6,0.5,0.9,0.9,0.9,0.9l-1,1.2
		c0,0,0.3,0.3,0.7,0.6c0.3,0.3,0.3,0.7-0.1,0.6c-0.4-0.2-1.1-0.8-1.1-0.8l-0.6,1.1c0,0,0.3,0.3,0.6,0.7s0.4,1.1-0.6,0.3
		c-1-0.8-0.7-1.1-0.9-1.3c-0.2-0.2,0.1-0.2,0.4-0.2c0.3,0.1,0.5,0.5,0.5,0.5l0.6-1.1c0,0-0.6-0.6-2.1-1.6c-1.5-1-1.7-1.7-1.9-1.9
		c-0.2-0.2,0.4-0.2,1.2,0.3c0.8,0.6,1.4,1.4,2,1.8c0.6,0.5,1.2,1,1.2,1l1-1.2c0,0,0.1,0.1,0.3,0.3c0.2,0.2,0.4-0.1,0.4-0.1l2.7-0.3
		c0,0-0.4,0.5-0.4,1.1c-0.1,0.6,0.3,3.7,0.8,5.7c0.5,1.9,1.6,4.9,2,6.5c0.3,1.5,0.5,2.8,0.3,4.5c-0.2,1.7-0.3,2.4-0.3,2.4
		s-0.3-0.2-1.6-0.3c-1.3-0.1-2.3,0.1-3.1,0c-0.9,0-1.6-0.1-1.6-0.1s-0.2-1.2-1.4-2.1c-1.2-0.9-1.7-1.4-4.3-2.4c-2.5-1-5.1-2-8.7-4.2
		c-3.6-2.2-8.1-6.3-10.3-7.8c-2.2-1.5-6.6-4.2-8.9-4.8c-2.3-0.5-6.1-0.7-7.6-0.7c-1.6,0-2.7,0.4-3.8,0.7
		C66.1,283.7,63.3,284.5,62.8,284.1"/>
	<path d="M188.2,291.4c0,0-0.1,0.3-1.7-0.5c-1.6-0.9-4.4-2.5-8.4-4.4c-4.1-1.8-12.2-4.9-16.2-6c-4-1.1-8.7-2.3-10.8-2.4
		c-2-0.1-2.9,0.1-1.4,0.5c1.5,0.4,2.8,0.3,4.6,0.8c1.8,0.5,6.3,1.7,8,2.2c1.7,0.6,6.6,2.2,8.6,2.9c2,0.7,4.7,1.6,7.1,2.8
		c2.4,1.2,4.4,2.2,4.8,2.7c0.3,0.5,0.8,1.2-0.8,0.8c-1.6-0.4-6-2.5-8.8-3.5c-2.8-1-7.6-2.8-11.7-3.8c-4.1-1-6.2-1.4-9.7-1.9
		c-3.5-0.5-7.1-1-7.1-1s0-0.4,0.4-0.8c0.4-0.4,1-0.9,0.7-1.7c-0.3-0.8-2.3-1.6-4.1-1.7c-1.8-0.2-5-0.1-7.6,0.3
		c-2.5,0.4-6.6,1.6-8.6,2.7c-2,1.1-3.8,2.7-4.8,5.1c-1,2.4-0.9,3.8-0.7,5.8c0.2,2,1.2,4.7,1.6,6.2c0.3,1.5,1.3,2.2,1.1,0.9
		c-0.2-1.3-2-7.2-2-8.4c0-1.1,0.8-3.8,1.5-4.7c0.7-1,2.5-2.5,4.1-3.3c1.5-0.7,3.8-1.9,5.8-2.5c2-0.6,3.7-1.2,5.8-1.3
		c2-0.1,5,0.1,6,0.4c1,0.3,1.6,0.6,1.1,1.5c-0.5,0.8-0.9,0.9-2,1c-1.1,0.1-2.5,0.6-0.2,1c2.3,0.3,7.4,1.2,11.1,2
		c3.8,0.8,10.8,2.4,13.8,3.2c3,0.9,6.7,2.2,8.3,2.9c1.6,0.7,2.9,1.7,1.3,1.7c-1.5-0.1-4.8-1.5-7.6-2.3c-2.8-0.8-6.4-2.1-9.8-2.7
		c-3.4-0.6-4.2-0.5-7.5-1.1c-3.3-0.6-9.8-2-11-2.2c-1.2-0.2-2.3,0.1-2.1-0.9c0.2-1,0.8-0.4,1.4-1.3c0.6-0.9,1-1.9,0-2
		c-1.1-0.2-2.4-0.2-3.3,0.1c-0.9,0.2-1,0.5-1.3,0.3c-0.3-0.2-0.8-0.4-1.2-0.3c-0.4,0.2-0.7,0.2-0.1,0.4c0.6,0.2,0.7,0.6,0.7,0.9
		c0,0.3-0.6,0.9-1.1,1.2c-0.6,0.3-1.2,0.8-1.1,1c0.1,0.3,1.1,0.2,1.4,0.5c0.3,0.2,0.3,0.6-0.2,1c-0.6,0.3-1.8,0.8-2.4,1
		c-0.6,0.3-0.7,0.6-0.7,0.6l-0.8-0.6c0,0,0.7-0.3,1.1-0.7c0.4-0.5,0.1-1.1,0.1-1.5c-0.1-0.5-0.8-0.9-1.2-0.9c-0.5,0-0.9,0-0.9,0
		l-1.1,0.4c0,0-0.3-0.2-0.8,0.1c-0.5,0.2-0.6,0.8-0.2,0.8c0.4,0,0.5-0.2,0.9-0.4c0.4-0.2,0.2-0.4,0.2-0.4l1.1-0.4c0,0,0,0.4,0.4,0.6
		c0.4,0.1,1.2,0.2,1.2,0.7c0,0.5,0,1-0.8,1.2c-0.8,0.3-1.2,0.5-1.2,0.5l-0.7,1.6c0,0,1,0.2,1.1,0.5c0.1,0.3,0.3,0.7-0.1,1.4
		c-0.4,0.7-0.4,1-1,1.1c-0.6,0.1-1.4,0.5-2.1,0.3c-0.6-0.2-1-0.6-1-0.6s-0.1,0.3-0.5,0.7c-0.4,0.3-0.9,0.3-0.6-0.3
		c0.2-0.7,0.6-1,1-1c0.4,0,0.7,0.4,1,0.6c0.3,0.1,1.2,0.1,2-0.2c0.7-0.3,1-0.6,1-1.1c0-0.5-0.4-0.9-1.1-0.9c-0.7,0-1.3,0.1-1.7,0
		c-0.5-0.1-0.2-0.4,0.1-0.5c0.3-0.1,0.6-0.2,1.1-0.1c0.5,0.1,1,0.2,1,0.2l0.7-1.6c0,0,0.1,0.2,0.5,0.2c0.4,0,0.8-0.1,0.8-0.1
		l0.8,0.6c0,0,0.4,0.1,1,0.1c0.7,0,0.9,0,1.3,0.2c0.4,0.2,0.4,0.6-0.3,1c-0.7,0.4-1.6,0.5-2,0.7c-0.4,0.2-0.7,0.3-0.8,0.7
		c-0.1,0.4,0.2,0.2,0.7,0.2c0.5,0,1,0,1.1,0.6c0.1,0.6,0,1.4-0.5,1.6c-0.5,0.3-1.4,0.6-1.7,0.7c-0.3,0.1-0.3,0.4-0.3,0.4l-0.8,0.1
		c0,0,0-0.3-0.5-0.7c-0.5-0.3-0.7-0.2-1-0.1c-0.2,0.1,0.1,0.5,0.4,0.6c0.3,0.1,0.6,0.4,0.7,0.8c0.1,0.4,0.1,1-0.7,1.1
		c-0.8,0.2-1.6,0.1-1.8,0.4c-0.2,0.2-0.1,0.5,0.2,0.6c0.4,0.1,0.4-0.1,1-0.1c0.6,0,1-0.4,1.5-0.8c0.5-0.4,0.5-0.7,0.3-1.1
		c-0.2-0.3-0.3-0.6-0.3-0.6l0.8-0.1c0,0,0.9,0.1,1.2,0.3c0.3,0.3,0.9,0.6,0.9,1.1c0,0.6-0.2,0.9-1,1.2c-0.8,0.3-1.1,0.7-1.3,1
		c-0.2,0.3,0.4,0.2,0.5,0.6c0.1,0.3,0.4,0.8-0.1,1.1c-0.6,0.3-1.2,0.4-1.8,0.5c-0.6,0.1-1.1,0.1-1,0.3c0.2,0.3,1.1,0.4,1.6,0.2
		c0.6-0.2,1.5-0.4,1.8,0c0.3,0.4,0.9,0.8,0.9,0.8s0-0.6-0.4-0.9c-0.4-0.4-0.6-0.7-0.4-1c0.2-0.3,0.4-0.6,0.1-1
		c-0.3-0.4-0.5-0.8,0.1-1.1c0.7-0.3,1.2-0.3,1.5-1.2c0.3-0.8,0.5-1.6-0.1-1.7c-0.6-0.2-0.9-0.4-0.3-0.9c0.6-0.4,1-1.1,1.1-1.7
		c0.1-0.6-0.3-0.6-0.4-0.9c-0.2-0.2-0.3-0.5,0.2-0.6c0.5-0.1,1.1-0.5,1.4-1c0.4-0.5,0.6-1-0.1-1.3c-0.7-0.3-1-0.7-0.6-0.7
		c0.4,0,1.3-0.1,1.6-0.6c0.3-0.5,0.5-0.8,0.2-1.2c-0.3-0.4-1.1-0.7-0.6-1.1c0.6-0.3,1.3-0.5,1.5-1.2c0.2-0.7-0.1-0.9,0.2-1.1
		c0.2-0.1,1.2-0.4,1.9-0.4c0.7,0,1.3,0.1,1.7,0.2c0.3,0.2,0.6,0.7-0.3,1.3c-0.9,0.6-2.1,1-2.5,1.2c-0.4,0.2-1.1,0.4-0.1,0.6
		c1.1,0.2,1.8,0.4,1.6,0.9c-0.2,0.5-0.8,1-1.4,1.2c-0.6,0.2-1.4,0.5-1.4,0.8c0,0.2,0.5,0.3,1.5,0.6c1,0.3,3.7,1,6.4,1.6
		c2.7,0.6,6.9,1.5,9.4,2c2.5,0.5,5.6,1.1,8.2,1.4c2.6,0.4,4.1,0.7,5.1,0.8c1,0.2,1.7,0.1,0.8,0.4c-0.9,0.3-2,0.5-3.6,0.5
		c-1.6,0-5-0.3-8.8-0.8c-3.8-0.5-8.4-1.3-13-2.3c-4.6-0.9-6-1.4-6.4-1.3c-0.4,0.1-1,0.4-0.3,0.5c0.8,0.2,3,0.8,5.8,1.4
		c2.8,0.6,8.4,1.7,11.4,2.1c2.9,0.4,6.5,0.7,8.2,0.9c1.7,0.1,4.2-0.1,2.3,0.7c-1.9,0.8-3.6,0.9-7.3,0.7c-3.7-0.2-7.7-0.6-11.5-1.4
		c-3.8-0.8-6.6-1.6-7.9-1.8c-1.3-0.2-2,0-0.6,0.5c1.5,0.5,2.9,1,5.2,1.5c2.4,0.5,4.3,1.1,7.5,1.4c3.2,0.4,5.8,0.6,7.6,0.7
		c1.8,0.1,2,0.1,2.4,0.1c0.3,0,0.5,0.6-2.1,0.6c-2.6,0-6.3,0.2-10.8-0.4c-4.4-0.6-6.3-1.1-7.7-1.4c-1.5-0.3-2.1-0.4-1.4,0.3
		c0.7,0.6,3.6,1.1,6.1,1.7c2.5,0.6,6.5,1,8.4,1c1.9,0.1,3.6-0.1,4.4-0.1c0.8,0,1.2,0.6,0,0.8c-1.2,0.1-1.8,0.3-1.4,0.4
		c0.4,0.1,1.5,0.7,0.2,0.9c-1.3,0.3-3.3,0.1-6-0.2c-2.7-0.3-5.8-0.6-7.9-1c-2.1-0.5-2.5-0.7-3-0.7c-0.4,0-0.7,0.3,0.1,0.5
		c0.9,0.2,3.1,0.9,5.3,1.2c2.1,0.3,4.2,0.8,6.4,0.8c2.2-0.1,3.1-0.1,3.8,0.4c0.7,0.6,1,1.2,0.1,1.3c-0.9,0.1-4.4-0.2-7.6-0.5
		c-3.2-0.4-5.9-0.7-7.3-1c-1.5-0.2-1.4,0.2-0.4,0.5c1,0.3,4.1,0.7,6.1,0.9c2,0.2,4.4,0.6,5.7,0.7c1.4,0.1,2.7,0.4,3,0.7
		c0.3,0.4,0.6,0.7-0.8,0.9c-1.4,0.2-4.2-0.1-7.9-0.5c-3.7-0.4-5.8-1.1-7-1.3c-1.2-0.2-1.9,0.1-1,0.5c0.9,0.3,2.9,0.6,4.4,0.9
		c1.5,0.3,3.2,0.5,5.9,0.7c2.7,0.3,4,0.3,4.6,0.7c0.6,0.4,0.7,1-0.2,1.3c-0.9,0.3-2.8,0-6.4-0.3c-3.6-0.4-6-0.9-7.6-1.1
		c-1.6-0.2-2.1-0.5-2.5-0.4c-0.4,0.2,0,0.3,1.1,0.6c1.1,0.2,4.4,1.1,6.1,1.3c1.7,0.2,5.6,0.5,6.8,0.6c1.1,0.1,2.1,0.3,2.4,0.5
		c0.3,0.3,0.3,0.5-1.5,0.6c-1.9,0.1-3.2,0.7-5.9,0.4c-2.8-0.2-4.9-0.5-6.3-0.4c-1.4,0.1-1.5,0.3-0.2,0.5c1.4,0.2,4,0.7,6,0.7
		c2,0.1,5.2,0.2,6.2,0.2c1,0,1.7,0.1,1.5,0.7c-0.2,0.7-1.8,0.7-2.4,1c-0.6,0.3-1,0.6-2.6,0.4c-1.6-0.2-4.7-0.5-6-0.8
		c-1.4-0.3-2.1-0.5-2.4-0.5c-0.3,0-0.6,0.3,0.4,0.6c1,0.3,3.3,0.7,4.7,1c1.4,0.3,3.3,0.5,4.6,0.6c1.4,0.1,2.3-0.1,2.6,0
		c0.3,0.1,0.8,0.1,0.2,0.4c-0.6,0.3-0.5,0.3-0.5,0.8c0,0.5-0.3,0.9-1.7,0.9c-1.4,0-2.2,0.2-3.9-0.1c-1.6-0.3-2-0.5-2.5-0.5
		c-0.5,0-0.8,0.2,0.3,0.6c1.1,0.4,2.3,0.6,3.4,0.8c1.1,0.1,3-0.2,3.5,0c0.5,0.2,1.5,0.8,1.9,1c0.4,0.2,0.6,1.1-0.2,1.1
		c-0.8,0-1.6,0.1-2.3,0.1c-0.6,0-1,0.1-0.2,0.4c0.7,0.3,1.6,0.3,1.6,0.3l-1.3,1c0,0-0.6-0.5-1.6-0.8c-1.1-0.3-1.4-0.1-1.4-0.1
		l-1.3-0.2c0,0,0.5-0.3-0.1-1c-0.6-0.6-2-1.5-2.9-1.9c-0.9-0.4-1-0.2-1-0.2l-1.1,0.6c0,0-0.4-1.1-1.3-2c-0.8-0.9-1.2-1.3-2.2-1.7
		c-1.1-0.4-1.1-0.4-1.1-0.4l-2.9-0.6c0,0-0.2-1.1-0.7-1.6c-0.5-0.6-0.2-0.7,0.5-1.2c0.7-0.5,0.8-1.6,0.4-1.9c-0.4-0.4-1.1-1-2.1-1.1
		c-1.1-0.2-1.4-0.1-1,0.1c0.4,0.2,1.1,0.2,1.7,0.5c0.6,0.3,1.6,0.7,1.3,1.3c-0.2,0.6-0.7,1.2-1.7,1.3c-1,0.1-1.9,0.2-1.4,0.4
		c0.5,0.2,1.1,0.1,1.5,0.5c0.4,0.4,1.1,0.9,0.8,1.6c-0.2,0.7-0.6,1.2-1.7,1.1c-1.2-0.1-1.8,0.1-1.8,0.1s0.8,0.1,1.2,0.7
		c0.4,0.6,1.2,1.4,0.8,1.9c-0.5,0.6-1,0.8-1.9,0.8c-0.8-0.1-1.5-0.1-1.1,0.3c0.5,0.4,1.5,1,1.5,1.6c0,0.6-0.1,0.8-0.8,1
		c-0.6,0.2-0.7,0.5-0.2,0.5c0.5,0,1.1-0.5,1.4-1.1c0.2-0.6-0.8-1.1-0.5-1.7c0.3-0.7,1.1-0.4,1.6-0.8c0.5-0.4,0.7-1.3,0.4-1.7
		c-0.4-0.4-0.8-0.9,0.3-1.4c1-0.4,1.4-1.2,1.4-1.2l2.9,0.6c0,0,1.2,0.5,1.7,1c0.6,0.6,1.2,0.9,1.7,1.6c0.5,0.7,0.9,1.3,0.6,1.9
		c-0.3,0.6-0.8,0.6-1.8,0c-1-0.6-1.9-1.5-2.5-1.8c-0.7-0.3-0.7-0.3-0.7-0.3s0.9,0.6,1.6,1.2c0.7,0.6,1.5,1.1,2.2,1.7
		c0.7,0.6,2,1.5,2.2,2.2c0.3,0.6,1,1.4,0.7,1.8c-0.3,0.4-1.6,0.5-1.6,0.5s-1.9-1.9-2.9-2.7c-1-0.8-2.5-1.9-3.5-2.2
		c-0.9-0.3-1.2-0.5-1.2-0.5s1,0.5,1.8,1.2c0.8,0.6,2.7,1.8,3.5,2.6c0.7,0.8,2.2,1.9,2.6,2.4c0.3,0.5,0.7,1.2-0.1,1.3
		c-0.8,0.1-2.2-0.5-2.2-0.5s1.3,0.7,2.1,0.8c0.8,0.1,0.9-0.2,0.9-0.8c0-0.6-0.7-1.4-0.7-1.4s0.4,0,1.1-0.2c0.7-0.2,0.9-0.8,0.5-1.6
		c-0.4-0.8-1.2-1.7-1.6-2.1c-0.4-0.3-0.3-0.6,0-1.1c0.3-0.4,0.3-0.9,0.3-0.9l1.1-0.6c0,0,1.1,0.5,2.1,1.2c1,0.7,1.7,1.1,1.4,1.5
		c-0.3,0.5-0.5,0.6-0.5,0.6s0.7,0.2,1.5,0.2c0.8,0.1,1.2,0.1,2,0.4c0.8,0.3,2.3,0.9,2.7,1.3c0.4,0.4,1,1.1,0.2,1.4
		c-0.8,0.2-1.2,0.4-2.1,0.3c-0.9-0.1-1.8-0.5-1.8-0.5s1.1,0.7,2,0.8c0.9,0.1,1.6,0.2,2-0.1c0.5-0.3,0.9-1,0.3-1.6
		c-0.6-0.6-1.6-1.1-1.6-1.1l1.3-1c0,0,0.7,0.2,1.4-0.3s0.8-1,0.8-1s2.5,0.2,4.6,0.8c2.1,0.6,4.9,1.5,7.3,2.1
		c2.4,0.6,7.8,1.7,9.4,1.9c1.6,0.2,2.9,0.5,2.9,0.9c-0.1,0.4-0.2,0.7-1.6,1.1c-1.5,0.4-3.3,1-8.1,0.4c-4.8-0.6-8-1.4-8-1.4l0.1-0.7
		c0,0,1.3,0.5,3.2,0.8c1.9,0.3,3.1,0.7,5.5,0.8c2.5,0.1,4,0.3,6.1-0.1c2.1-0.4,2.9-0.9,1.5-1c-1.5-0.1-2.9-0.5-5.6-1
		c-2.7-0.5-5.7-1.3-7.1-1.6c-1.4-0.3-2.5-1-3.5-0.9c-1,0-1.6,0.2-1.2,0.3c0.4,0.1,0.8,0.3,1.3,0.5c0.5,0.2,0.5,0.2,1,0.2
		c0.5,0.1,1,0.6,0,0.4c-1-0.2-1.6-0.5-2.5-0.6c-0.9-0.1-1.2-0.2-1.4,0c-0.2,0.2,0,0.3,0.8,0.6c0.7,0.2,1.6,0.5,2.5,0.6
		c0.8,0.1,1.6,0.4,0.6,0.4c-1,0-1.4-0.2-2-0.3c-0.6-0.1-1.5-0.3-1.2,0.1c0.4,0.4,0.8,0.5,1.3,0.6c0.5,0.2,0.8,0.2,0.8,0.2l-0.1,0.7
		c0,0-1.6-0.3-2.7-0.6c-1.2-0.3-2.1-0.8-2.8-0.8c-0.7,0-1.1,0.6-0.1,0.8c1,0.2,2.5,0.5,3.3,0.9c0.9,0.3,1.3,0.3,1.3,0.3
		s0,0.5-0.8,0.4c-0.8-0.1-1-0.2-1.8-0.3c-0.7-0.1-0.9,0.1-0.3,0.3c0.6,0.2,2,1,3.2,1.3c1.2,0.3,5.2,1.4,7.1,1.5c1.9,0.1,3,0.3,4.5,0
		c1.5-0.3,2.1-0.5,2.6-1c0.5-0.6,0.5-0.9,0.5-1.2c0-0.3-0.2-0.6-0.2-0.6l1.2-0.2c0,0-0.1,0.1-0.4,0.7c-0.3,0.6-0.4,0.9-0.9,1.5
		c-0.5,0.6-1.1,0.8-1.8,1c-0.7,0.3-1.1,0.1-1.2,0.5c-0.1,0.4-0.2,1.3-0.6,1.6c-0.4,0.3-1.5,0.7-1.5,0.7l-0.1-0.3c0,0,0.9-0.5,1.3-1
		c0.4-0.5,0.8-0.9-0.3-1.1c-1.1-0.1-2.7,0-3.8-0.2c-1.1-0.1-2.9-0.5-4.6-0.9c-1.6-0.4-3-1.2-4.3-1.6c-1.3-0.5-2.2-1-2.5-0.7
		c-0.3,0.3-0.2,0.6,0.2,0.8c0.4,0.2,1,0.4,1.7,0.7c0.7,0.2,1.6,0.8,1.6,0.8s-1.2-0.2-2-0.6c-0.8-0.3-1.2,0-0.5,0.4
		c0.7,0.4,2.2,1.1,3.6,1.5c1.5,0.4,4.4,1.2,5.7,1.5c1.2,0.3,2.3,0.5,3,0.5c0.7-0.1,1.1-0.1,1.1-0.1l0.1,0.3c0,0-1.3,0.4-1.8,0.4
		c-0.5,0-1.1-0.2-1.4-0.1c-0.4,0.1-0.3,0.2-0.2,0.6c0.1,0.4,0.3,1.2-0.4,1.5c-0.6,0.3-1.9,0.2-1.9,0.2l-0.1-0.5c0,0,0.7,0.1,1.4-0.1
		c0.6-0.2,0.6-0.4,0.3-1.1c-0.3-0.6-0.7-1.1-2.1-1.4c-1.4-0.4-2.7-0.9-3.8-1.2c-1.1-0.2-1.7-0.5-2.9-1.2c-1.2-0.7-1.3-1-1.9-1
		c-0.6-0.1-0.9,0.1-0.1,0.7c0.8,0.6,1.4,1,2,1.2c0.6,0.2,1.1,0.5,1.1,0.6c0,0.2,0.3,0.6-1.1-0.1c-1.5-0.7-1.8-0.7-2.2-0.9
		c-0.4-0.2-0.5,0.2,0.1,0.6c0.6,0.5,1.9,1.1,3.1,1.8c1.3,0.7,2.6,1.3,4.1,1.6c1.5,0.3,2,0.4,2,0.4l0.1,0.5c0,0-0.3,0.1-1.5-0.2
		c-1.2-0.2-1.7-0.2-1.5,0.4c0.2,0.7,0.3,1.3,0.4,1.8c0,0.5-0.2,0.9-1,0.9c-0.8,0-1.8-0.2-2.3-0.4c-0.5-0.2-1.1-0.4-1.1-0.4l0.2-0.5
		c0,0,0.9,0.4,1.5,0.6c0.6,0.2,1.3,0.2,1.8,0c0.5-0.2,0.6-0.5,0.1-1.5c-0.5-1-0.9-1.8-1.5-2.1c-0.7-0.2-1.1-0.4-2.5-1.3
		c-1.4-0.9-2.7-1.9-3.5-2.4c-0.8-0.5-1.3-0.6-1.6-0.5c-0.2,0.1,0.3,0.6,0.7,1c0.5,0.4,1.5,1.3,1.8,1.7c0.3,0.4,1,1.3,0.3,0.7
		c-0.7-0.6-0.9-0.9-1.5-1c-0.6-0.2-1.1,0.3-0.4,0.7c0.7,0.4,1.6,1.1,2.1,1.8c0.6,0.7,1.2,1.1,1.7,1.5c0.4,0.4,0.9,0.6,0.9,0.6
		l-0.2,0.5c0,0-0.6-0.5-1.2-0.6c-0.6,0-0.4-0.3-0.7-0.5c-0.2-0.2-0.6-0.9-1.2-1c-0.6-0.1-1-0.1-1.9-0.5c-0.9-0.4-1.4-1.4-2.2-2
		c-0.8-0.6-1.3-1-1.8-1.5c-0.5-0.5-0.8-0.7-0.5,0c0.3,0.7,0.6,1,1.1,1.7c0.6,0.6,1.7,1.6,2.1,1.9c0.5,0.3,0.9,0.6,0.2,0.7
		c-0.6,0.1-1.2-0.2-2.6-1.2c-1.4-1-1.9-1.2-2.4-1.7c-0.4-0.5-1.1-0.8-1.1-0.8s1,1.2,1.4,1.9c0.4,0.7,1.2,1.8,1.3,2.3
		c0.1,0.5,0.7,0.9-0.3,0.5c-1.1-0.4-1.5-0.4-1.8-0.8c-0.3-0.4-1.8-2.6-2.9-3.6c-1.1-1-1.6-1.4-1.6-1.4l1.2-0.6c0,0,0.1,0.1,0.6,0.2
		c0.5,0.1,0.7-0.6,0.2-0.9c-0.5-0.3-1.4-1.1-2.8-1.5c-1.4-0.4-2.5-0.9-3-0.9c-0.6-0.1-0.9-0.1-0.9-0.1s2.3,0.6,3.5,1.2
		c1.2,0.6,2.3,1,2.7,1.4c0.4,0.3,0.5,0.6,0.1,0.4c-0.4-0.2-1-0.2-1-0.2l0.6,0.6l-1.2,0.6c0,0-0.4-0.4-0.7-0.4
		c-0.3-0.1-0.7,0.3,0.1,0.9c0.8,0.7,1.6,1.4,2.7,2.7c1.1,1.3,2.3,3.3,3,5.2c0.7,1.9,0.9,3,1.1,3.9c0.2,0.9,0.1,0.9,0,1.3
		c-0.1,0.4-0.2,0.2-1.1-0.8c-0.8-1-1.7-3.2-3.2-5c-1.5-1.8-3.7-4.4-5.7-5.6c-2-1.2-3.4-1.3-4.5-1.6c-1.2-0.3-1.8-0.8-3.8-0.8
		c-2,0-2.3,0-5.7-0.8c-3.4-0.8-6.3-1.5-9.6-3.3c-3.2-1.8-7.4-4.7-9.4-6.3c-2-1.6-5.3-4.2-5.3-4.2l0.3-0.7c0,0,0.2,0.3,0.8,0.6
		c0.6,0.3,0.9,0,0.5-0.5c-0.4-0.5-2.4-2.3-2.4-2.3s2.6,1.9,3.1,2.4c0.5,0.5,1.6,1,2,1.4c0.4,0.3,1.9,0.5,0.4-0.8
		c-1.5-1.3-2.5-2.2-2.5-2.2s0.6,0,1,0.5c0.4,0.5,2.1,1.4,2.9,2c0.8,0.6,1.9,1.4,2.6,1.8c0.7,0.4,1.1,0.5,1.2,0.3
		c0.1-0.2,0.1-0.6-0.9-1.2c-1-0.6-1.7-1.2-2.3-1.7c-0.6-0.5-1-0.9-1-0.9s1.1,0.5,1.6,0.8c0.6,0.3,1.4,0.6,1.8,0.9
		c0.4,0.2,1,0.3,0.8,0c-0.2-0.3-0.2-0.8-0.7-1l-0.6-0.2c0,0,0.2-0.2,1.2,0c1,0.2,1-0.3,0.6-0.5c-0.4-0.2-1-0.6-1.3-0.8
		c-0.3-0.2,0.2-0.3,0.7-0.1c0.4,0.2,0.9,0.6,1.4,0.5c0.5-0.1,0.6-0.5,0-0.9c-0.7-0.4-0.8-0.7-0.8-0.7s0.8,0.3,1.6,0.5
		c0.7,0.2,1-0.3,0.7-0.6c-0.4-0.3-1.3-0.8-1.9-0.9c-0.6-0.1-1-0.4-0.3-0.4c0.7,0,1.4,0.3,2.2,0.5c0.8,0.2,1.3-0.1,1-0.3
		c-0.3-0.2-1-0.8-1.5-0.9c-0.6-0.1-1.2-0.5-1.2-0.5s1.6,0.5,2.6,0.6c1,0.2,1.5-0.3,1.1-0.4s-1-0.2-0.7-0.3c0.3-0.1,1-0.3,1.5-0.3
		c0.6,0.1,1.2,0,2.2,0.2c1,0.1,1.3-0.3,0.7-0.6c-0.7-0.3-1.2-0.6-1.6-0.7c-0.4-0.1-1.7,0.3-2.5,0.1c-0.9-0.2-1.9-0.3-3.4-0.7
		c-1.5-0.4-2.7-0.7-4-1.3c-1.3-0.5-1.9-1.4-2.4-1.6c-0.5-0.2-2.9-1.2-4.3-1.7c-1.4-0.5-3.2-1.3-4.4-1.5c-1.2-0.3-1.5-0.2-2.3,0
		c-0.9,0.2-1.6,0.4-1.7,0.7c0,0.3,0.3,1.2,0.6,2c0.3,0.8,0.5,1.1,0.7,1.7c0.2,0.6,0.8,1,1.5,1.4c0.7,0.4,1.5,1,1.6,1.3
		c0.1,0.3-0.2,0.4-1,0.7c-0.7,0.3-1.3,0.4-1.7,0.5c-0.4,0.2-0.4,0.3,0.3,0.6c0.7,0.3,1.2,1,1.8,1.3c0.6,0.2,1.4,0.3,1.7,0.6
		c0.3,0.2,1.2,1.2,1.7,1.8c0.5,0.6,1.1,1.1,1.1,1.1l-0.3,0.7c0,0-0.9-0.8-1.9-1.7c-1-0.9-1.5-1.2-2.6-2.1c-1.1-0.9-1.5-1.3-2.1-1.5
		c-0.5-0.2-1.4-0.2-1.4-0.2l-0.1-0.5c0,0,0.5,0,0.9-0.1c0.4-0.1,1.3-0.3,1.9-0.5c0.6-0.2,1.1-0.3,1.1-0.3s-1.4-0.1-2.9,0
		c-1.5,0.2-2.3,0.1-2.3,0.1l0.3-0.6c0,0,0.8,0.1,1.3,0.1c0.5,0,0.2-0.5-0.3-0.5c-0.6,0-1.2-0.1-1.9,0c-0.7,0.1-0.9,0.7-0.5,0.6
		c0.4-0.1,1.4-0.2,1.4-0.2l-0.3,0.6c0,0-0.8,0.1-1.5,0.1c-0.7,0-1.3,0.3-1.3,0.3s0.3,0.2,1.1,0.4c0.8,0.2,1.5,0.2,2.1,0.2
		c0.6,0,1.1-0.1,1.1-0.1l0.1,0.5c0,0-0.7,0-1.9,0c-1.1,0-1.5-0.1-2.2-0.5c-0.7-0.3-1.1-0.4-0.8-0.8c0.2-0.4,0.4-0.8,1.4-1
		c1-0.2,2.1-0.3,2.8-0.4c0.7-0.2,1-0.7,0.1-1.1c-0.9-0.4-1.7-1.1-2.5-1.4c-0.8-0.3-1.6-0.4-1.9-0.3c-0.3,0.2-0.5,0.5-0.8,0.7
		c-0.3,0.2-0.6,0.2-0.9-0.4c-0.3-0.6-0.4-1.4,0-2.4c0.3-1,0.8-1.5,1.7-1.7c0.9-0.2,0.8-0.2,1.5,0c0.7,0.2,1.4,0.2,1.4,0.2l-0.2,0.7
		c0,0-0.5-0.2-1.5-0.2c-1-0.1-1.8-0.1-2,0.4c-0.4,0.7-0.6,1.3-0.6,2c0,0.7-0.1,0.6,0.1,0.8c0.2,0.2,0.4,0,0.9-0.3
		c0.5-0.3,1-0.3,1.8-0.2c0.8,0.1,1.2,0.4,2.2,0.9c1,0.6,1.4,0.5,2.2,1c0.8,0.4,1,0.5,1,0.5s-0.4-0.4-0.7-1c-0.2-0.7-0.4-1-0.8-1.7
		c-0.4-0.7-0.6-1.4-1.2-1.7c-0.6-0.3-1.3-0.6-1.3-0.6l0.2-0.7c0,0,0.7,0.2,1.3,0.2c0.7,0.1,1-0.1,2-0.3c1-0.3,1.5-0.6,2.3-0.4
		c0.8,0.2,3.8,1,5.5,1.7c1.6,0.7,3,1.3,4.3,1.7c1.3,0.5,1.6,0.7,1.9,0.9c0.2,0.2,0.5,0.8,1.1,1c0.7,0.2,2.6,0.9,4.4,1.2
		c1.8,0.3,3.8,0.4,4.3,0.3c0.5,0,1.5,0.1,2.7,0.2c1.1,0.1,1.7,0,2.5,0.1c0.8,0.1,2.3,0.3,2.3,0.3s-0.1,0.7-0.1,1.1
		c0,0.5,0.4,0.8,0.4,0.5c0-0.4,0.2-1.3,0.5-2.1c0.3-0.8,0.7-3.3,0.4-5.2c-0.4-2-1.4-5.2-2.1-7.5c-0.7-2.3-1.5-4.1-0.9-6.4
		c0.6-2.3,3.6-5.8,5-7c1.4-1.2,3.8-2.2,7.4-3.1c3.7-0.8,5.1-1.3,10.2-1.4c5-0.2,8.9,0.2,12.1,0.7c3.2,0.5,9.2,2.7,12.8,4
		c3.6,1.3,5.7,2.1,8.7,3.5c3,1.4,7.6,3.6,9.4,4.7c1.8,1.1,3.2,2.1,4.1,2.9C187.8,290.7,188.3,291,188.2,291.4"/>
	<path d="M148.7,334.4c0,0,1.9,3.6,2.6,5c0.8,1.5,2.3,5.1,2.8,7c0.5,1.9,1,4.5,1,4.5l1.1,0.5c0,0,0.1-1.1-0.3-2.5
		c-0.4-1.5-1.4-4.7-2.2-6.7c-0.8-2-3.3-6.4-3.8-7.2c-0.4-0.8-0.6-1.1-0.6-1.1L148.7,334.4z"/>
	<path d="M126.9,357.1l4.7,3.5c0,0-1,0-2.7-0.2c-1.7-0.2-2.5-0.5-2.5-0.5s0.4-0.3,0.5-1c0.1-0.7-0.2-1.5-0.2-1.5L126.9,357.1z"/>
	<path d="M148.3,334.8c0,0,0-0.1,0.4,0.8c0.4,0.9,0.8,1.5,0.8,1.5l-2.7-1.6L148.3,334.8z"/>
	<path d="M143.4,337.1l9,6.6c0,0,1,2.3,1.4,3.8c0.3,1.5,0.5,2.3,0.5,2.3l-10.6-7.8c0,0,0.3-0.1,0.3-1.8
		C143.9,338.6,143.4,337.1,143.4,337.1"/>
	<path d="M123.5,345.6l2.5,1.6c0,0-0.7-0.2-1.5-0.2c-0.7,0-0.7,0.3-0.8,0.8c-0.2,0.6,0,2.4,0,2.4s-0.5-0.5-1-0.5
		c-0.5,0-0.7-0.1-0.7-0.1l-3-2.2L123.5,345.6z"/>
	<path d="M126.9,353l1.8,1.4c0,0,0.5-0.4,0.8-0.6c0.3-0.2,0.6-0.1,0.6-0.1l0.2-0.4c0,0-0.8-0.1-1.3-0.6c-0.5-0.5-0.8-0.9-0.8-0.9
		s-0.3,0.3-0.9,0.3c-0.6-0.1-0.9-0.1-0.9-0.1L126.9,353z"/>
	<path d="M135.7,359.6l1.4,1.1c0,0,1.5,0,2.8-0.1c1.3-0.1,3.2-0.3,3.2-0.3l-2.6-1.8c0,0-0.7,0-1.3-0.4c-0.6-0.4-1.1-1-1.1-1
		s-0.6,0.9-1,1.4c-0.4,0.5-0.4,0.6-0.9,0.8L135.7,359.6z"/>
	<path d="M118.2,350.7l2.8,2c0,0-0.2,0.4-0.1,0.9c0.1,0.5,0,0.8,0,0.8s-0.4-0.2-0.7-0.2c-0.3,0-0.6,0.1-0.6,0.5
		c-0.1,0.4-0.2,0.9-0.2,1.1c0,0.3,0.1,0.4,0.1,0.4l-0.6,0l-6.8-5.2c0,0-0.2-0.1,0.2-0.5c0.5-0.4,0.7-0.3,1.2-0.4
		c0.5-0.2,0.5,0.5,0.9,0.7c0.4,0.2,1.1,0.5,1.9,0.4C117,351.2,118.2,350.7,118.2,350.7"/>
	<path d="M114.6,349.1l0.4-0.2c0,0-0.1,0.1,0.7,0.5c0.7,0.4,1.3,0.4,1.3,0.4l0.3,0.2c0,0-0.7,0.2-1.3,0.1
		C115.3,349.8,114.6,349.1,114.6,349.1"/>
	<path d="M135.3,348c0,0-0.1,0.2-0.2,0.5c-0.1,0.3-0.4,0.1-0.1,0.3c0.3,0.2,0.6,0.5,0.6,0.5l0.3-0.1l-0.2-1.1L135.3,348z"/>
	<path d="M138.9,349.1c0,0-0.8,0.8-0.5,1.4c0.3,0.6,0.8,1.1,1.4,1.4c0.7,0.2,1,0.1,1.6-0.3c0.6-0.4,0.8-0.6,0.8-0.6l-0.6-0.6
		c0,0-0.2,0.6-0.6,0.9c-0.4,0.3-1.2,0.2-1.2,0.2s0.2-0.3,0.5-0.4c0.2-0.1,0.5-0.2,0.6-0.5c0.2-0.2,0.3-0.5,0.3-0.5s-0.7-0.3-1.2-0.7
		C139.4,349.3,138.9,349.1,138.9,349.1"/>
	<path d="M141.5,353.2c0,0,0.3,0,0.7-0.3c0.4-0.3,0.6-0.6,0.6-0.6s0.2,0,0.7,0.5c0.5,0.5,0.8,1,1.2,1.9c0.4,0.8,0.8,1.4,1.3,2
		c0.6,0.6,1.1,0.6,1.7,0.4c0.7-0.2,2-0.7,2-0.7l2.8,1.7c0,0-1.3,0.4-2,0.6c-0.7,0.3-2.7,0.8-2.7,0.8l-4.7-3.5c0,0-0.2-0.8-0.6-1.5
		C142.2,353.8,141.5,353.2,141.5,353.2"/>
	<path d="M110.7,324.8l-5,1.2c0,0-0.6,3.3-0.8,3.9c-0.2,0.6-2.2,0.9-2.4,1.2c-0.2,0.3-0.6,1.6-0.5,2c0.2,0.4,0.6,1.1,1.3,1.6
		c0.7,0.5,2.5,1.3,2.5,1.3l-1.4,1l-0.9,0.5l-1-0.5l0.2,1.1l-0.7,0.7l1.1,0.1l0.5,1l0.4-1l1.1,0l-0.8-0.9l0.1-1.1l1.4-1l3.8,1.7
		l-0.7,1.6L108,340l-1-0.5l0.2,1.1l-0.8,0.7l1.1,0.1l0.5,1l0.5-1l1.1,0l-0.8-0.9l0.1-1.1l0.7-1.6l4.9,2l-12.5,5.9l0.8-0.7l0.5-0.8
		l1.1,0l-0.7-1.1l0.1-1.1l-1,0.5l-1.1-0.4l0.2,1.1l-0.7,1l1.1,0.1l0.5,0.8l-0.8,0.7l0.8,0.8l11.9-5.6l0.6,0.8l-12.3,6.1l-9.2-6.6
		c0,0,4.1-1.2,5.6-2.2c1.5-1,3.7-3.2,3.7-3.2l-0.9-0.8c0,0-1.4,1.4-2.7,2.5c-1.4,1.1-4,2.3-5.1,2.5s-2.1,0.6-2.1,0.6l-0.2,2.8
		l0.7,0.6l0-2l10.3,7.2l-2.9,1.3l-9.2-6.9c0,0,0.1-3.4,0.3-3.6c0.2-0.1,4.4-1.2,6.5-2.3c2-1.2,3.5-3.1,3.7-3.6
		c0.2-0.5,0.1-1.4,0.3-1.9c0.2-0.6,1-1.3,1.4-1.6c0.4-0.2,0.5-0.5,0.7-0.9c0.2-0.4,0.8-4.2,0.8-4.2s1.3,0,2.6-0.3
		c1.3-0.3,2.3-0.6,2.3-0.6L110.7,324.8z"/>
	<path d="M110.7,354.2l7,3.3c0,0-0.3-0.6,0.3-0.7c0.7-0.1,1.1-0.2,1.5-0.1l0.4,0.1c0,0-0.3-0.5-0.3-1.1c0.1-0.6,0.3-1.1,0.6-1.1
		c0.3,0.1,1.2,0.2,1.2,0.2s-0.2-1.8,0-2.6c0.2-0.8,0.2-2,0.6-2.2c0.4-0.2,1,0.2,1.5,0.5c0.5,0.3,0.9,0.4,0.9,0.4s-0.4-0.9-0.4-1.3
		c0-0.4,0-1,0.1-1.5c0.1-0.5,0.2-0.7,0.9-0.6c0.7,0.1,1.6,0.1,2.1,0.5c0.8,0.6,1.1,1.4,1.1,1.4s0.6-0.7,1-0.6
		c0.3,0.1,1.8,0.9,2.2,1.3c0.4,0.4,1.5,1,1.9,1.2c0.4,0.2,0.7,0.5,0.7,0.7c0,0.2,0.5,0.1,0.5-0.3c0-0.4,0-0.7,0.6-1.4
		c0.6-0.7,1.1-0.8,1.8-0.9c0.7,0,0.7,0.8,0.9,1.3c0.2,0.5,0.4,1.2,0.4,1.9c0,0.6-0.3,1-0.3,1s0.6-0.6,1.2-0.5c0.7,0.1,1.5,0.1,2,0.5
		c0.5,0.4,1.2,1.2,1.4,1.9c0.1,0.7,0.2,1.5,0.2,1.9c0,0.3-0.6,0.6-1.3,0.8c-0.7,0.2-1.3,0.3-2-0.1c-0.7-0.4-1.4-1.3-1.4-1.3
		s-0.6,0.7-1,1.2c-0.4,0.5-1,1.3-1.7,1.4c-0.6,0.1-1.3,0.3-1.7-0.5c-0.4-0.7-0.5-1.2-0.5-1.2s-0.9,0.2-1.3,0.4
		c-0.4,0.2-0.6,0.5-1.2,0.1c-0.6-0.4-1-1.1-1.1-1.7c-0.2-0.6-0.2-1.2-0.2-1.2s-1.2,0.6-1.9,1c-0.7,0.3-1.4,1-1.4,1s0.3,0.7,0.2,1.3
		c-0.1,0.6-0.2,1.4-0.8,1.7l-0.6,0.2c0,0,4.6,1.2,10.1,1.1c5.5-0.1,11.8-0.7,14-1.4c2.3-0.7,6.6-2.6,6.6-2.6l-0.4,2.8
		c0,0-3.4,1.7-6.8,2.4c-3.4,0.7-9.5,1.6-13.6,1.4c-4.1-0.2-8-0.5-9.8-0.9l-1.8-0.4c0,0-0.1,0.5-0.3,1c-0.2,0.5,0,1.5-0.3,1.9
		c-0.3,0.4-0.6,0.8-1.1,0.7c-0.5-0.2-1.4-0.8-1.6-1.3c-0.3-0.5-0.2-1.3-0.2-2.2c0-0.9,0.3-2.1,0.3-2.1s-2.1,1-3.1,1.5
		c-1.1,0.5-2.3,1.3-2.3,1.3s0.2,0.6,0.4,1.4c0.2,0.9,0.6,2.5,0.4,3.2c-0.2,0.7-0.5,1.4-0.9,1.4c-0.4,0-0.7-0.2-1.4-0.7
		c-0.7-0.5-1.4-0.8-2-1.7c-0.6-0.9-1.1-1.9-1.1-1.9l-0.6,0.4c0,0,0.6,0.7,0.6,1c0,0.3-0.2,1.4-0.9,2.2c-0.6,0.8-0.9,1.8-1.7,2
		c-0.7,0.2-2,0-2.6-0.1c-0.6-0.2-0.5-0.8-0.4-1.4c0.1-0.6,0.1-1,0.1-1s-0.5,0.5-1.3,1c-0.8,0.4-1.9,0.9-2.6,0.7
		c-0.7-0.2-1-0.5-0.5-1.3c0.5-0.8,0.9-1.7,1.1-2.2c0.2-0.5,0.2-0.6,0.2-0.6s-1.5-0.1-2-0.2c-0.6-0.1-1.5-0.7-1.6-1.2
		c-0.1-0.5-0.1-0.7,0.4-1.1c0.5-0.4,1.9-1.6,2.3-1.7c0.4-0.1,1.5-0.2,1.8-0.2c0.3,0,0.6,0,0.6,0s0-0.6,0.1-1
		c0.1-0.4,0.4-0.4,0.7-0.3c0.3,0.1,1,0.6,1,1.2c0,0.6,0,1.7,0,1.7s0.4,0.3,0.5,0.7c0.1,0.4,0.4,1,0.8,1c0.4,0.1,0.9,0.1,1.3-0.1
		c0.4-0.2,0.6-0.3,0.6-0.3l-0.3-0.8c0,0,0.9,0.2,1.3,0.4c0.4,0.1,0.9,0.4,0.6,0.5c-0.3,0.1-0.7,0-1.1,0.2c-0.3,0.1-1.1,0.4-1.5,0.4
		c-0.4,0-1.1,0.3-1.5-0.1c-0.4-0.4-0.8-0.7-0.9-1c-0.2-0.3-1.2-1.1-1.2-1.1l0.2-0.5l0.5,0.3c0,0,0.1-0.5,0.1-1.1
		c0-0.6,0.2-1-0.3-1.1c-0.6-0.1-0.7,0.1-0.7,0.6c0,0.5,0.1,1.1,0.1,1.1l0.3,0.2l-0.2,0.5c0,0-0.4-0.5-1.1-0.8
		c-0.7-0.3-1.2-0.2-1.8,0c-0.6,0.2-1.5,0.7-2,1.2c-0.5,0.5-0.8,1-0.3,1.4c0.5,0.4,0.9,0.6,1.9,0.6c1,0.1,1.2,0,1.2,0
		s0.3-0.1,0.5-0.3c0.2-0.2,0.4-0.2,0.4-0.2s-0.1,0-1.2-0.2c-1.1-0.1-1.3-0.2-1.3-0.2s0.4-0.3,0.9-0.3c0.5,0,1.4-0.2,1.8,0
		c0.5,0.2,0.9,0.5,1.2,0.5c0.3,0,1.2-0.3,1.2-0.3s-0.1,0.4-0.1,0.7c0,0.3-0.1,0.6,0.1,0.8l0.3,0.3c0,0-0.3-0.4-0.7,0
		c-0.4,0.4-0.6,0.3-0.6,0.8c0,0.4,0.3,1,0.3,1s-0.1-0.6-0.5-0.6c-0.4,0-0.8,0.2-1.3,0.6c-0.5,0.3-1.5,1.2-1.5,1.2s0.4-0.6,0.9-1
		c0.5-0.4,1.1-0.8,1.6-1.3c0.6-0.5,0.6-0.3,0.8-0.9c0.2-0.6,0.2-0.8,0.2-0.8s-0.7,0-1.2,0.1c-0.6,0.1-1.2,0.1-1.5,0.7
		c-0.3,0.6-0.8,1.5-0.9,2c-0.2,0.6-0.5,1.7-0.5,1.7s0.7,0.3,1.5,0c0.8-0.3,1.5-0.5,1.8-0.8c0.3-0.3,0.8-0.8,0.8-0.8s0.2-0.3,0.2,0.1
		c0.1,0.3,0.5,0.6,0.3,1c-0.3,0.4-0.3,1.1-0.2,1.3c0.1,0.2,0.1,0.1,0.9,0.3c0.8,0.1,1.4,0.3,1.8,0.1c0.4-0.2,0.9-0.6,1-1
		c0.1-0.4,0.6-1.1,0.9-1.6c0.3-0.5,0.7-1.1,0.2-1.4l-0.5-0.3c0,0-0.5,0.7-1.3,1.2c-0.7,0.5-1.7,1.6-1.5,1.2c0.2-0.8,1-1.2,1.1-1.6
		c0.1-0.3,0.1-0.5-0.4-0.4c-0.5,0.1-0.4-0.3-0.9,0.3c-0.5,0.6-1,1.6-1,1.6s0.1-1,0.3-1.4c0.2-0.4,0.4-0.1,0.2-0.6l-0.3-0.5
		c0,0,0.4,0,1,0s1.3,0.2,2.1-0.3c0.8-0.4,1.2-0.5,1.7-0.8c0.4-0.4,0.8-0.4,0.8-0.4l0,0.3c0,0-0.3,0-0.3,0.6c0,0.6,0.6,1.7,1,2
		c0.4,0.3,1.3,1,1.8,1.3c0.5,0.2,0.8,0.4,1,0.2c0.2-0.2,0.6-1.1,0.5-1.9c-0.2-0.8-0.4-1.8-0.7-2.3c-0.2-0.5-0.3-0.7-0.3-0.7
		s-0.5,0.2-0.6,0.5c-0.1,0.3,0.4,1,0.4,1.4c0,0.4,0.3,1.7,0,1.1c-0.3-0.6-0.4-1.5-0.8-1.9c-0.3-0.3-0.5-0.5-0.9-0.4
		c-0.4,0.1-0.4,0.3-0.2,0.8c0.3,0.5,0.2,0.7,0.3,1.1c0.1,0.3-0.2,0.4-0.3-0.2c-0.2-0.6,0-0.9-0.5-1c-0.5-0.2-0.5-0.4-0.5-0.4l0-0.3
		c0,0,1.8-0.4,3.2-1.2c1.5-0.7,2.5-1.3,4-2.2c1.5-0.9,2.6-1.7,2.6-1.7l0,0.4c0,0-0.6,0.4-0.7,0.8c-0.1,0.4-0.2,1.5-0.2,2.2
		c0,0.7,0,1.5,0.7,2.1c0.7,0.6,0.7,1.1,1.1,1c0.3-0.2,0.6-0.2,0.7-1.1c0.2-1,0.2-1.2,0.4-1.9c0.2-0.7,0.3-1.4,0.3-2
		c0-0.6,0.4-1.2,0-1.3c-0.4-0.1-0.7-0.4-0.8-0.1c-0.2,0.3-0.1,0.9-0.2,1.4c-0.1,0.5-0.2,1.4-0.2,2c0,0.7,0,1-0.1,1.4
		c-0.1,0.3-0.1,0.1-0.1-0.5c0-0.6-0.2-1.3-0.1-1.9c0.1-0.6,0.5-0.8,0.2-1.6c-0.3-0.8-0.8-0.6-0.8-0.6l-0.4,0.3l0.4-0.7
		c0,0,1.3-0.5,2.1-1.1c0.8-0.6,1.6-0.9,1.6-0.9s-0.2-0.1-0.2,0.3c0,0.4-0.1,1.5,0,1.8c0.1,0.3-0.4,0.7-0.4,0.7s-0.1-0.6-0.2-1
		c-0.1-0.4-0.1-0.4-0.3-0.2c-0.2,0.2-0.7,0.4-0.4,0.5c0.3,0.1,0.3,0.3,0.4,0.7c0.1,0.4,0.1,1.4,0.1,1.9c0,0.5-0.4,0.6-0.4,0.6
		s0.2-2.3,0-2.9c-0.2-0.6-0.4-0.8,0-1.1c0.4-0.3,0.5-0.6,0.8,0.1c0.3,0.7-0.1,1.1,0.4,1.1c0.5,0.1,0.6,0.4,1.1-0.3
		c0.5-0.7,0.7-1,0.5-1.5c-0.2-0.6-0.4-0.6-0.4-0.6s-0.2-0.3-0.3,0.2c-0.1,0.5-0.3,1.2-0.3,1.2s0-0.4,0-0.8c0-0.5,0.6-0.5,0-0.5
		l-0.6,0l0.2-0.3c0,0,0.9-0.3,1.5-0.7c0.5-0.4,1.9-1.2,2.8-1.5c0.9-0.3,2.4-0.8,2.4-0.8s-0.8,0.3-1.1,0.7c-0.2,0.4-0.5,0.5-0.3,1.1
		c0.2,0.7,0,1.2,0.7,1.4c0.7,0.2,1.2,0.5,1.7,0c0.5-0.4,0.7-0.6,0.7-1.1c0-0.6,0-1.1,0.1-1.6c0.2-0.4,0.1-0.7-0.1-0.6
		c-0.3,0.1-0.7,0.1-1,0.4c-0.3,0.2-0.4,0.4-0.5,0.8c-0.1,0.4-0.1,0.3-0.1-0.3c0-0.6-0.8-0.3-0.8-0.3l0.7-0.5c0,0,0.8-0.3,1.5-0.4
		c0.7,0,0.7,0.3,1.1,0.1c0.3-0.3,0.6-0.9,0.6-0.9l0.5,0.2c0,0-0.3,0.7-0.6,1c-0.4,0.3-0.8,0.8-0.8,1.4c0,0.6-0.1,1,0.3,1.9
		c0.3,1,0.6,1.6,1.6,1.1c1-0.5,1.4-1.4,2-1.9c0.5-0.5,0.6-0.5,0.6-1c0.1-0.6-0.1-1.4-0.1-1.4s-0.3,0-0.5,0.5c-0.2,0.5-0.3,1-0.3,1
		s0.2-0.5-0.1-1c-0.3-0.4-0.5-0.7-0.7-0.5c-0.2,0.3-0.2,0.5-0.5,1.1c-0.3,0.6-0.6,0.9-0.6,1.3c0,0.4-0.3-0.1,0-0.8
		c0.2-0.6,0.6-1.1,0.6-1.6c0-0.5,0.1-0.3-0.4-0.6c-0.4-0.3-0.4-0.5-0.4-0.5l-0.5-0.2c0,0,0.1-0.1-0.1-0.4c-0.2-0.3-0.1-0.5-0.1-0.5
		l0.7-0.2c0,0-0.1,0.3,0,0.7c0.1,0.3,0.4,0.6,0.4,0.6s0.4-0.3,0.6-0.7c0.2-0.4,0.8-0.9,0.8-0.9s0,0.3-0.3,0.8
		c-0.3,0.5-0.5,1.1-0.3,1.1c0.2,0,0.7,0.1,0.9-0.1l0.2-0.2l0.8,1c0,0-0.2,0.7,0,1.1c0.2,0.5,0.6,1,0.8,1.4c0.3,0.4,0.9,0.8,1.6,0.9
		c0.7,0.1,1.2,0,1.5-0.4c0.2-0.4,0.3-1,0.1-1.5c-0.3-0.6-0.3-1-0.8-1.5c-0.4-0.5-0.5-0.6-1.3-0.7c-0.8-0.2-1.4-0.2-1,0.1
		c0.4,0.3,0.8,0.8,0.9,1.2c0.1,0.4,0.2,0.7,0.5,0.8c0.3,0.2-0.2,0.3-0.7-0.2c-0.4-0.5-0.3-1.2-0.9-1.3c-0.6-0.1-0.6,0.1-0.6,0.1
		l-0.8-1c0,0,0.3-0.2,0.4-0.7c0.1-0.6-0.2-1.8-0.4-2.1c-0.3-0.3-0.5-0.5-1.1-0.1c-0.6,0.4-0.8,0.8-1,1.2L135,352c0,0-0.2,0.6-1,0.7
		c-0.7,0.1-1.4,0.6-1.8,0.7c-0.4,0.1,0.4,0.2,0.2-0.3c-0.2-0.5-0.9-0.6-1.3-0.9c-0.4-0.3-0.6-0.7-0.6-0.7s0.3,0.3,0.8,0.5
		c0.6,0.1,0.8,0.4,1.4,0.4c0.6,0,0.7-0.4,0.3-0.7c-0.3-0.2-0.9-0.2-1.6-0.7c-0.7-0.6-0.7-0.9-1.5-1.2c-0.8-0.3-0.9-0.2-1,0.1
		c-0.1,0.3,0.2,1.3,0.6,1.8c0.4,0.6,0.8,0.9,1.4,1.1c0.7,0.2,1.2,0.6,1.2,0.6l-1.4,0.2l0.5-0.4c0,0-0.7-0.1-1.3-0.4
		c-0.6-0.3-1.2-0.8-1.2-1.1l-0.1-0.3c0,0-0.6,0.2-1.1,0.4c-0.5,0.2-0.9,0.1-0.9,0.1l0.2-0.3c0,0,0.2-0.1,0.6-0.1
		c0.4,0,0.7-0.2,0.7-0.2s-0.5,0.1-1.3-0.3c-0.8-0.4-1.3-0.8-1.3-0.8s0.6,0.4,1.4,0.5c0.8,0.1,1.3,0,1.3,0s-0.1-0.6-0.5-1.1
		c-0.4-0.5-1.1-1.2-1.7-1.3c-0.7-0.1-1.5-0.1-1.5,0.3c-0.1,0.4-0.2,0.9-0.1,1.5c0.1,0.6,0.2,0.8,0.9,1.2c0.7,0.3,1.4,0.4,1.4,0.4
		l-0.2,0.3c0,0-0.5-0.1-0.7-0.1c-0.2,0-0.4-0.1-0.4-0.1s0.6,0.1,0.7,0.7c0.1,0.7,0.5,1.1,0.3,1.8c-0.2,0.7-0.3,1.4-0.3,1.4l-0.5,0.4
		c0,0,0.2-0.6,0.2-1.3c0-0.7,0.3-1.4-0.4-2c-0.7-0.6-1.8-1.1-2.3-1.3c-0.5-0.2-0.8,0.1-1,0.7c-0.2,0.7-0.4,1.2-0.5,1.7
		c-0.1,0.6-0.1,1.3,0.3,1.5c0.4,0.2,0.8,0.4,1,0.8c0.2,0.4,0.2,0.9,0.5,0.7c0.3-0.2,0.2-0.1,0.5-0.6c0.3-0.5,0.2-0.4,0.3-0.9
		c0.1-0.5-0.2-1.1-0.2-1.6c0-0.4,0.3-0.3,0.4,0.2c0.1,0.6,0.2,0.9,0.3,1.4c0.1,0.5,0.4,0.8,0.4,0.8s-1.7,0.6-2.1,1
		c-0.5,0.3-1.6,0.9-1.6,0.9s0.3-0.1,0.3-0.6c0-0.4-0.7-1-0.7-1s0.2,0.1,0.7,0.4c0.4,0.3,0.3,0.6,0.8,0.4c0.6-0.2,0.4-0.3,0.3-0.7
		c-0.1-0.4-0.3-0.9-1-1c-0.6-0.2-1.1-0.4-1.4-0.6c-0.3-0.1-0.2,0.3-0.2,0.7c0,0.4,0.1,1,0.4,1.3c0.2,0.3,0.7,0.6,1.1,0.6
		c0.3,0,0.5,0,0.5,0s-0.2,0.2-0.9,0.6c-0.7,0.3-1.5,0.8-1.5,0.8s-0.3-0.3,0.1-0.5c0.4-0.2,0.8,0.3,0.7-0.3c-0.1-0.6,0.1-1.1-0.8-1.1
		c-0.8,0-1.5-0.2-1.5,0.2c0,0.4,0.1,0.5,0.6,0.9c0.5,0.4,1,0.2,1,0.2s0.2,0.3-0.4,0.7c-0.6,0.3-1.7,1.2-2.4,1.5
		c-0.7,0.3-2.8,1.3-2.8,1.3l1.4-0.9l-0.7-0.2c0,0,0.4,0,0.9-0.1c0.5-0.1,1.6-0.7,1.1-1.1c-0.4-0.3-0.7-0.2-1.4-0.1
		c-0.7,0.1-1.1,0.4-1.5,0.4c-0.4,0-1-0.3-0.7,0.1c0.4,0.4,0.3,0.6,0.6,1.1l0.3,0.5l0.5-0.2c0,0-0.5,0.5-1.1,0.7
		c-0.6,0.3-2.4,1.3-3.1,1.4c-0.7,0.2-0.3,0.6-1,0.6c-0.7-0.1-0.8-0.4-0.8-0.4s0.2,0.1,0.2-0.3c-0.1-0.4-0.5-1.1-1.2-1
		c-0.6,0-1.1,0.2-1.1,0.6c0,0.4,0.1,0.5,0.2,0.8c0.2,0.3,0.5,0.8,0.5,0.8s-0.4,0-0.7-0.6c-0.3-0.6-0.9-1-0.6-1.4
		c0.3-0.5,0.6-0.5,1.3-0.6l0.6-0.1c0,0,0-0.2,0.4-0.7c0.4-0.5,1-0.8,1.4-0.8c0.5-0.1,3.1,0.1,3.1,0.1s0.1,0.4-1.1,0.2
		c-1.2-0.2-1.8-0.1-2.3,0.1c-0.5,0.2-0.8,0.6-0.7,1.1c0.1,0.6,0,1,0.7,1c0.7,0,1.1,0.1,1.6,0.1c0.6,0,0.9-0.3,0.9-0.3
		s-0.4-0.6-0.7-0.5c-0.4,0.1,0.5-0.1,1,0c0.5,0.1,0.9,0.1,1-0.1c0.1-0.2,0.2-0.7-0.4-0.9c-0.7-0.2-1-0.5-1-0.5l0.8-0.3
		c0,0-0.7-0.2-0.4-0.6c0.3-0.3,0.5-0.4,1.1-0.5c0.6-0.1,1-0.2,1-0.2s-3.3-1.7-5-2.6c-1.7-1-3.6-2.2-3.9-2.3
		c-0.3-0.2-0.3-0.3-0.3-0.3s0.2-0.2,0.5-0.1c0.3,0.2,0.8,0.3,1.3,0.5C110,355.7,110.7,354.2,110.7,354.2"/>
	<path d="M76.1,319.2l1,0.4c0,0,0.3-0.7,1.3-0.3c1.1,0.4,0.8,1.1,0.8,1.1l42.7,16c0,0-2.8,0.8-3.5,1c-0.7,0.3-0.8,0.4-0.8,0.4
		s-0.6-0.5-1-0.9c-0.4-0.4-14.2-5.8-14.2-5.8s-0.3,1.1-0.2,1.6c0.1,0.6,0.1,0.9,1.3,1.6c1.2,0.7,6,2.8,8.1,3.6
		c2.1,0.8,3.9,1.6,3.9,1.6l-0.2,0.7c0,0-6.1-2.4-7.9-3.2c-1.7-0.9-3.6-1.6-4.6-2.2c-1-0.6-1.4-1.7-1.3-2.4c0.1-0.7,0.1-1.5,0.1-1.5
		l-26.4-10c0,0-0.4-0.5,0-1C75.7,319.3,76.1,319.2,76.1,319.2"/>
	<polygon points="126.4,339.6 133.1,342.3 135.2,341.8 126.9,338.3 	"/>
	<path d="M140.1,343.3c0,0,1.6,0.7,2.2,1c0.7,0.3,1.4,0.8,1.7,0.5c0.3-0.2,0.1-0.6-0.3-0.9c-0.3-0.3-1.7-1.1-2.3-1.5
		c-0.6-0.4-1.4-0.8-1.4-0.8l0.1-0.8c0,0,0.6,0.5,1.4,1c0.8,0.6,1.6,1,2.4,1.6c0.8,0.6,1.5,0.8,1.4,1.5c-0.1,0.7-0.4,1.1-0.1,1.3
		c0.3,0.2,1.1,1.1,1.7,1.7c0.6,0.6,1.6,1.6,2.2,1.8c0.6,0.3,2.5,0,3.5,0.2c1,0.2,7.7,2.7,10.7,4c3,1.3,7.6,3.1,9.6,4
		c2,0.9,2.8,1.6,2.8,2.4c0,0.8-0.5,2.7-2,5.3c-1.5,2.6-2,4.3-2.8,4.7c-0.8,0.4-1.3,0.4-1.9-0.1c0,0-15.2-13-16.3-13.8
		c-1.2-0.7-2.7-0.7-3.7-0.4c-1,0.3-1.9,1-2.3,0.5c-0.4-0.5-1.3-2.1-1.8-3.1c-0.5-0.9-1.2-1.8-1.6-1.7c-0.4,0.1-0.7,0.4-1.2,0.7
		c-0.5,0.2-0.8,0.2-1.3,0.4c-0.5,0.3-1.7-0.1-2-0.2c-0.3-0.2-0.9-1.2-0.8-1.6c0.1-0.4-0.4-1.1-0.3-1.5c0.1-0.3,0.8-1.6,0.8-1.6
		l0.5,0.8c0,0-0.9,0.8-1,1.2c-0.1,0.4,0.2,0.9,0.6,1.4c0.4,0.5,0.6,0.6,1.4,0.9c0.7,0.3,1,0.2,1.7-0.2c0.7-0.3,1-0.5,1.2-0.8
		c0.2-0.2-0.7-1.3-1.5-1.8c-0.8-0.5-2.6-1.5-2.6-1.5l0.3-0.6c0,0,3.2,1.4,4.1,2.2c0.9,0.8,2.6,2.6,3.3,3.7c0.7,1.1,1,1.6,1.4,1.4
		c0.4-0.2,0.5-1.2,0.5-1.7c0.1-0.6,0.2-0.8,1-0.6c0.7,0.2,3.4,0.9,5.2,2.1c1.8,1.2,4.5,2.8,5.8,3.5c1.3,0.7,4.1,2.3,5.3,3.2
		c1.2,0.9,3.5,2.3,3.9,2.7c0.4,0.4,0.7,0.8,0.3,1.6c-0.4,0.8-0.5,1.1-0.5,1.8c-0.1,0.7,0.3,1.5,0.3,1.5l-3.7-3.7
		c0,0,2.1,0.7,2.7,0.6c0.6-0.1,0.7-0.4,0.7-0.9c0-0.6-1-1-2.3-1.9c-1.3-0.9-3.5-2.4-5.1-3.4c-1.6-0.9-2.1-0.9-2.2-0.6
		c-0.1,0.3,1.7,1.6,2.6,2.3c0.8,0.7,6.7,4.5,6.7,4.8c0,0.3,0.2,0.1,0.3,0.6c0.1,0.6,0,1.1,0.4,1.1c0.4,0.1,0.7-0.3,1.2-1.4
		c0.5-1.1,2.1-4.3,2.4-5.4c0.3-1.1,0.9-1.9-0.6-2.7c-1.6-0.8-8.1-3.5-10.1-4.2c-2-0.7-6.1-2.4-7.3-2.8c-1.2-0.4-2.5-0.9-3.2-1
		c-0.7,0-2.2,0.2-2.9,0c-0.7-0.2-1.4-0.7-2.2-1.5c-0.8-0.8-1.4-1.9-2.3-2.4c-0.8-0.5-4.8-2.5-4.8-2.5L140.1,343.3z"/>
	<path d="M78.7,358.6c1.7-0.7,17.5-6.8,20.6-8.1c3.1-1.3,4.5-1.8,5.3-1.9c0.9,0,2,0.1,2.7-0.1c0.7-0.2,1.8-1.7,2.3-2.4
		c0.5-0.7,2.2-2.3,3.1-2.9c0.8-0.6,2.8-2.1,2.8-2.1l0.7,1.2c0,0-1.9,0.6-2.8,1.2c-1,0.6-2.3,1.8-2.9,2.4c-0.6,0.6-1.4,1.6-1.8,2.1
		c-0.4,0.6-0.7,1.3-1.2,1.2c-0.5-0.1-1.7-0.5-2.5-0.4c-0.8,0.1-2.3,0.6-3.2,0.9c-0.9,0.4-10.7,4.1-12.7,5c-2,0.8-8.9,3.5-9.5,3.9
		c-0.6,0.4-0.9,0.7-0.6,1.3c0.3,0.6,1.2,1.4,2.3,2.4c1.1,1,1.9,3.1,2.5,3.9c0.6,0.8,1.2,1,1.3,0.3c0.2-0.7-0.7-2.1-1-2.8
		c-0.3-0.6-1.1-1.2,0.4-2.1c1.5-0.9,6.8-4.1,8.2-4.7c1.5-0.7,3.9-2,5.7-2.8c1.8-0.8,3.2-1.1,4.4-1.3c1.2-0.2,0.1,0.3-0.9,1.1
		c-1,0.7-2.8,1.7-3.4,2c-0.6,0.3-1.4,0.8-1.1,0.4c0.3-0.3,0.5-0.7,0.3-1c-0.2-0.2-0.8-0.2-1.3,0c-0.5,0.2-6,3.4-7.6,4.5
		c-1.6,1.1-3.9,2.3-3.9,2.9c0,0.6,0.3,1.2,0.8,1.1c0.4-0.1,1.1-0.6,2.3-1.5c1.1-0.9,3.8-3,5.1-3.9c1.4-0.9,4.4-2.7,5.7-3.3
		c1.3-0.7-0.3-1.1,0.6-1.5c0.9-0.3,2.9-1.2,4.1-1.6c1.2-0.4,3-0.6,3.4-0.7c0.4,0,0.7,0.5,0.9,0.8c0.2,0.3,0.7,0.3,1-0.1
		c0.3-0.4,1.7-2.8,2.6-3.5c1-0.7,3.3-2,4.6-2.4c1.3-0.4,2.6-1.3,3.5-1.8c0.9-0.4,1.5-0.9,1.5-0.9s0.5,1,0.8,0.9
		c0.3-0.1,1.4-0.7,1.6-1c0.2-0.3,0.9-1.1,0.9-1.1l6,2.3l-0.1,1.3l-4.8-1.7l-7.4,3.2c0,0-1,0.1-1.6,0.4c-0.6,0.3-0.8,0.3-0.8,0.3
		s0.2,0.2,0.6,0.6c0.3,0.3,0.8,0.6,1,0.5c0.2-0.1,0.4,0.1-0.1,0.2c-0.5,0.1-0.8-0.2-1.3-0.5c-0.5-0.3-0.7-0.4-0.7-0.4
		s-0.6,0-0.8,0.3c-0.2,0.3,0.1,0.6,0.4,0.8c0.3,0.2,1.1,0.6,1.8,0.5c0.7-0.1,1.4-0.3,1.7-0.8c0.3-0.6,0.2-1.4,0-1.6
		c-0.2-0.2-0.3-0.7-0.3-0.7l0.6-0.4c0,0,0.3,0.7,0.3,1.2c0.1,0.5,0,1.1-0.2,1.7c-0.2,0.6-0.5,0.9-1.2,1.2c-0.7,0.3-1.6,0.3-2.3,0.1
		c-0.7-0.2-0.9-0.7-1.2-0.9c-0.3-0.2-0.8-0.1-1.4,0c-0.6,0.2-1,0.7-1.1,1.2c-0.1,0.6-0.3,1.1-0.7,1.8c-0.4,0.7-0.4,1.3-1.1,1.6
		c-0.7,0.2-1.9,0-2.5-0.3c-0.7-0.3-1.7-0.5-2.4-0.1c-0.7,0.4-4.4,2.9-6.9,5.2c-2.5,2.3-6.5,6-8.3,7.4c-1.8,1.5-3.3,3-4.1,3.2
		c-0.8,0.3-1.9-0.1-2.7-0.9c-0.8-0.8-3.5-4.2-4.6-5.5c-1.2-1.4-1.9-2.3-1.5-3.2c0.4-1,1-1.3,1.4-1.4
		C78.3,358.9,78.7,358.6,78.7,358.6"/>
	<path d="M143.4,336.6c0.3-0.1,7.3-2.9,7.3-2.9s-0.7-0.8-1.6-0.9c-0.9-0.1-1.9,0.4-2.8,0.2c-1-0.2-2.9-1.5-2.9-1.5s0.6,1.1,0.8,1.9
		c0.3,0.7,0.3,1-0.8,0.8c-1.1-0.2-1.6-0.6-1.6-0.6s0.5,0.8,0.8,1.4C142.8,335.8,143.4,336.6,143.4,336.6"/>
	<path d="M167.8,321l8.1-3c0,0-0.2-0.9,0.6-1.2c0.7-0.3,1.1,0.4,1.1,0.4l1.4-0.3c0,0,0.2,0.2,0.4,0.6c0.2,0.4,0.1,0.8,0.1,0.8
		l-7.9,3.5L167.8,321z"/>
	<path d="M110.4,332.4l0.7-1.3l-0.8-1.3l-1.5-0.1l1-1.1l-0.2-1.4l1.3,0.6l1.3-0.6l-0.1,1.5l1.1,1.1l-1.5,0.1l-0.6,1.2L110.4,332.4
		l4.3,1.6l1.4-1.6l-0.5-1l-1.1-0.1l0.7-0.7l-0.2-1.1l1,0.5l1-0.5l-0.1,1.1l0.8,0.9h-1.1l-0.4,1l-1.4,1.6c0,0,0.3,0.2,1.2,0.6
		c0.8,0.4,1.7,0.3,1.7,1c0,0.7,0.2,1.8,0.2,1.8l3.1-2.5l-0.5-1l-1.3-0.1l1-0.8l-0.3-1.2l1.1,0.6l1-0.5l-0.1,1.1l1,0.9l-1.3-0.1
		l-0.4,1l-3.1,2.5c0,0-1.5,1-2,1.7c-0.5,0.7-0.6,1.1-0.7,1.9c-0.1,0.8,0.3,0.7,0.3,1.1c0,0.3,0.2,0.6,0.5,1.5
		c0.3,0.9,1.3,0.8,1.3,0.8s-0.4-0.6-0.6-1c-0.2-0.3-0.1-1.1,0.1-1.3c0.2-0.3,0.5,0.1,0.8,0.4c0.3,0.3,0.1,0.3,0.2,1.1
		c0,0.7,0.6,0.8,1.1,0.9c0.4,0.1,0.8-0.3,0.8-0.3s-0.4-0.1-0.7-0.4c-0.2-0.2-0.2-0.9-0.2-0.9s0.9-0.3,1.5-0.4c0.6-0.2,0.7-0.8,1-0.6
		c0.3,0.3-0.1,0.7-0.2,1.2c-0.2,0.5,0.2,0.8-0.2,1.4c-0.4,0.6-0.3,1-0.1,1.5c0.2,0.5,0.8,0.2,0.8,0.2s-0.3-0.6,0-0.8
		c0.2-0.3,0.8,0,1.3-0.3c0.5-0.3,1-1.1,1.6-1.6c0.6-0.5,0.4-0.7,0.6-1.4c0.2-0.7-0.6,0.3-1.2,0.8c-0.6,0.6-0.6,1.1-1.2,1.3
		c-0.6,0.3-0.9-0.1-1.2-0.6c-0.3-0.5,0.1-1.1,0.6-1.6c0.5-0.6,1-1.3,1.4-1.8c0.3-0.5,0.4-1.1,0.1-0.7c-0.3,0.4-1.1,0.9-1.8,1.1
		c-0.6,0.3-1.4,0.6-1.9,1.1c-0.5,0.5-1.2,0.6-1.7,0.3c-0.5-0.3-0.5-0.7-0.3-1.4c0.3-0.7,1.3-0.8,2.2-1.1c0.8-0.3,1.6-0.4,2.3-0.8
		c0.7-0.4,0.6-0.5,0-0.4c-0.7,0.1-3,0.8-4,1.2c-1,0.4-0.9,0.8-1.4,1.3c-0.4,0.5-0.7,0.7-1,0.4c-0.3-0.3,0.1-1.1,0.5-1.7
		c0.3-0.7,1.4-1.2,2.7-1.6c1.3-0.4,3.6-1.1,4.6-1.5c1.1-0.3,1.7-1,2-1.7c0.3-0.7,0.6-0.7,1.2-0.5c0.6,0.2,0.5,0.7,0.4,1.7
		c-0.1,1-0.9,3.4-1.5,4.3c-0.6,0.9-1.1,1.6-1.7,2.2c-0.6,0.6,0.6,0.2,0.9,0c0.3-0.2,0.8-1,1.1-1.7c0.3-0.7,0.6-1.2,1.1-1.1
		c0.5,0.2,4.6,1.5,5.1,1.7c0.6,0.2-0.4,0.8-0.8,1.1c-0.4,0.3-1,0.8-1.2,1.7c-0.2,0.9-0.2,1.7-0.1,2.4c0.1,0.7,0.1,1.5,0.5,2.1
		c0.4,0.6,1.4,0.3,1.4,0.3s-0.4-0.3-0.5-0.8c-0.2-0.4,0.1-1.2,0.1-1.2s-0.6-0.3-0.9-0.5c-0.3-0.2-0.3-1.2,0-1.9
		c0.3-0.8,0.8-1.3,1.4-1.8c0.6-0.4,1.5-0.8,2.3-0.7c0.8,0.1,0.2,0.6-0.4,1.1c-0.6,0.5-1,1.2-1.5,1.7c-0.5,0.5-0.5,1.9-0.5,2.8
		c0,0.9,0.5,1.3,1,1.8c0.5,0.5,1.5,0.3,2,0.1c0.5-0.2,0.4-0.2,0.2-0.2c-0.2-0.1-0.7-0.2-0.8-0.8c0-0.6,0.3-1.1,0.6-1.6
		c0.3-0.4,0.8-0.9,0.7-0.6c-0.1,0.3,0.2,1.2,0.2,2.3c0.1,1.1,0.5,0.7,1.2,1.2c0.7,0.5,0.3,0.1,0.6-0.4c0.3-0.5,0.6-0.8,1.1-1.4
		c0.6-0.7,0.7-1.6,1-2.3c0.3-0.7,0.3-1.2,0.3-2c0-0.8-0.1-1.1,0-1.7c0.1-0.6,0.1-1.1,0.1-1.5c0.1-0.4,0.4-0.3-0.3-0.6
		c-0.7-0.4-0.5,0.3-0.8,0.7c-0.3,0.3-0.6,0.8-0.2,1.7c0.3,0.9,0.1,1.9-0.2,2.6c-0.3,0.7-0.9,2.5-1.3,3.3c-0.3,0.8-0.6,0.7-1.1,0.5
		c-0.4-0.2-0.2-1.1-0.2-2.2c0-1.1,0.5-1.6,0.9-2.4c0.4-0.7,0-0.4-0.5-0.1c-0.5,0.3-1,1.1-1.4,1.6c-0.4,0.6-1,1.6-1.4,1.9
		c-0.4,0.4-0.2,0.9-0.6,1.2c-0.4,0.2-0.6-0.7-0.7-1.3c-0.1-0.6,0.2-1.4,0.4-2.1c0.3-0.7,1.1-1.3,1.6-1.6c0.4-0.3,1.4-1.4,1.8-1.8
		c0.5-0.4,0.5-1,0.7-1.4c0.2-0.4,1-1.3,1.1-1.7c0.1-0.4,0.8,0.2,1.1,0.5c0.3,0.3,0.6,0.6,0.8,0.9c0.2,0.3,0.6,0.2,0.6,0
		c0-0.2-0.4-0.7-0.7-1.2c-0.3-0.5-0.9-1.8-1.7-2.8c-0.8-1-3.4-3.7-4.6-4.7c-1.2-1-4-2.2-5.3-2.5c-1.3-0.3-3.4-0.6-4.3-0.7
		c-0.9-0.1-1.1-0.1-0.9,0.3c0.2,0.4,1.1,0.6,2,1c0.9,0.4,1.6,0.9,2.3,1.7c0.7,0.8,1.9,1.7,2.7,2.2c0.8,0.6,1.5,1.8,1.6,2.3
		c0.1,0.5,0.4-0.5,0.3-1c-0.1-0.5-0.7-1.3-1.1-2c-0.4-0.7-0.4-1.1-1.2-1.6c-0.7-0.5-0.9-0.9,0.2-0.7c1.1,0.2,2,1,3,1.9
		c1,0.9,2.6,2.4,3.1,3.1c0.6,0.7-1.3-0.4-1.8-0.8c-0.5-0.4-2-1.5-2-1.5s0.3,0.6,0.6,1.2c0.3,0.6,0.1,1.5,0,2.2
		c-0.2,0.7-1.4,0.1-1.7-0.5c-0.3-0.7-1.2-1.5-2.3-2.2c-1.1-0.7-2.2-2.1-3.3-3c-1.2-1-2-1-2.6-1.4c-0.6-0.5-1.5-1.6-1.5-1.6
		s-4.3-0.8-5.4-1.1c-1.1-0.3-4.5-1.6-4.5-1.6L107,327l-0.8,3.4L110.4,332.4z"/>
	<path d="M84.4,286.8c0,0-5.3-3.6-11.5-3.2c-6.2,0.4-6.3,0.8-7.6,1.2c-1.2,0.4-1.2,1-0.1,0.9c1.1-0.1,5-0.6,5.9-0.7
		c0.9-0.1,0.5,0.1,0.3,0.3c-0.2,0.2-0.5,1,0,1.1c0.5,0.1,2.4-0.5,3.9-0.7C76.9,285.5,81.2,285.5,84.4,286.8"/>
	<rect x="92.4" y="377.1" width="0.7" height="4.6"/>
	<rect x="92.4" y="377.1" class="st0" width="0.7" height="4.6"/>
	<polygon points="98.9,377.1 99.5,377.1 99.5,381.7 99,381.7 95.9,378.2 95.9,381.7 95.3,381.7 95.3,377.1 95.8,377.1 98.9,380.7 	
		"/>
	<polygon class="st0" points="98.9,377.1 99.5,377.1 99.5,381.7 99,381.7 95.9,378.2 95.9,381.7 95.3,381.7 95.3,377.1 95.8,377.1 
		98.9,380.7 	"/>
	<path d="M105.6,380.7v0.7c-0.5,0.3-1,0.4-1.7,0.4c-0.5,0-1-0.1-1.3-0.3c-0.4-0.2-0.6-0.5-0.8-0.8c-0.2-0.4-0.3-0.8-0.3-1.2
		c0-0.7,0.2-1.2,0.7-1.7c0.5-0.5,1.1-0.7,1.8-0.7c0.5,0,1,0.1,1.6,0.4v0.7c-0.5-0.3-1.1-0.4-1.6-0.4c-0.5,0-1,0.2-1.3,0.5
		c-0.3,0.3-0.5,0.8-0.5,1.3c0,0.5,0.2,0.9,0.5,1.2c0.3,0.3,0.8,0.5,1.3,0.5C104.6,381.2,105.1,381,105.6,380.7"/>
	<path class="st0" d="M105.6,380.7v0.7c-0.5,0.3-1,0.4-1.7,0.4c-0.5,0-1-0.1-1.3-0.3c-0.4-0.2-0.6-0.5-0.8-0.8
		c-0.2-0.4-0.3-0.8-0.3-1.2c0-0.7,0.2-1.2,0.7-1.7c0.5-0.5,1.1-0.7,1.8-0.7c0.5,0,1,0.1,1.6,0.4v0.7c-0.5-0.3-1.1-0.4-1.6-0.4
		c-0.5,0-1,0.2-1.3,0.5c-0.3,0.3-0.5,0.8-0.5,1.3c0,0.5,0.2,0.9,0.5,1.2c0.3,0.3,0.8,0.5,1.3,0.5C104.6,381.2,105.1,381,105.6,380.7
		z"/>
	<path d="M109.7,377.1c0.7,0,1.3,0.2,1.8,0.7c0.5,0.5,0.7,1,0.7,1.7c0,0.7-0.2,1.2-0.7,1.7c-0.5,0.4-1.1,0.7-1.8,0.7
		c-0.7,0-1.3-0.2-1.7-0.7c-0.5-0.4-0.7-1-0.7-1.7c0-0.7,0.2-1.3,0.7-1.7C108.4,377.3,109,377.1,109.7,377.1 M109.7,377.7
		c-0.5,0-1,0.2-1.3,0.5c-0.3,0.3-0.5,0.8-0.5,1.3c0,0.5,0.2,0.9,0.5,1.2c0.3,0.3,0.8,0.5,1.3,0.5c0.5,0,0.9-0.2,1.3-0.5
		c0.3-0.4,0.5-0.8,0.5-1.3c0-0.5-0.2-0.9-0.5-1.2C110.6,377.9,110.2,377.7,109.7,377.7"/>
	<path class="st0" d="M109.7,377.1c0.7,0,1.3,0.2,1.8,0.7c0.5,0.5,0.7,1,0.7,1.7c0,0.7-0.2,1.2-0.7,1.7c-0.5,0.4-1.1,0.7-1.8,0.7
		c-0.7,0-1.3-0.2-1.7-0.7c-0.5-0.4-0.7-1-0.7-1.7c0-0.7,0.2-1.3,0.7-1.7C108.4,377.3,109,377.1,109.7,377.1z M109.7,377.7
		c-0.5,0-1,0.2-1.3,0.5c-0.3,0.3-0.5,0.8-0.5,1.3c0,0.5,0.2,0.9,0.5,1.2c0.3,0.3,0.8,0.5,1.3,0.5c0.5,0,0.9-0.2,1.3-0.5
		c0.3-0.4,0.5-0.8,0.5-1.3c0-0.5-0.2-0.9-0.5-1.2C110.6,377.9,110.2,377.7,109.7,377.7z"/>
	<path d="M114.1,381.7v-4.6h1.1c0.5,0,0.8,0.1,1.1,0.4c0.3,0.2,0.4,0.5,0.4,0.9c0,0.3-0.1,0.5-0.2,0.7c-0.1,0.2-0.3,0.4-0.6,0.4
		c0.1,0.1,0.3,0.2,0.4,0.4c0.1,0.2,0.3,0.5,0.6,0.9c0.2,0.3,0.3,0.5,0.4,0.6l0.2,0.3h-0.8l-0.2-0.3c0,0,0,0,0-0.1l-0.1-0.2l-0.2-0.3
		l-0.2-0.4c-0.1-0.2-0.3-0.3-0.4-0.4c-0.1-0.1-0.2-0.2-0.3-0.3c-0.1-0.1-0.2-0.1-0.5-0.1h-0.2v2H114.1z M114.9,377.7h-0.2v1.4h0.3
		c0.3,0,0.6,0,0.7-0.1c0.1-0.1,0.2-0.1,0.3-0.3c0.1-0.1,0.1-0.2,0.1-0.4c0-0.2,0-0.3-0.1-0.4c-0.1-0.1-0.2-0.2-0.3-0.3
		C115.4,377.7,115.2,377.7,114.9,377.7"/>
	<path class="st0" d="M114.1,381.7v-4.6h1.1c0.5,0,0.8,0.1,1.1,0.4c0.3,0.2,0.4,0.5,0.4,0.9c0,0.3-0.1,0.5-0.2,0.7
		c-0.1,0.2-0.3,0.4-0.6,0.4c0.1,0.1,0.3,0.2,0.4,0.4c0.1,0.2,0.3,0.5,0.6,0.9c0.2,0.3,0.3,0.5,0.4,0.6l0.2,0.3h-0.8l-0.2-0.3
		c0,0,0,0,0-0.1l-0.1-0.2l-0.2-0.3l-0.2-0.4c-0.1-0.2-0.3-0.3-0.4-0.4c-0.1-0.1-0.2-0.2-0.3-0.3c-0.1-0.1-0.2-0.1-0.5-0.1h-0.2v2
		H114.1z M114.9,377.7h-0.2v1.4h0.3c0.3,0,0.6,0,0.7-0.1c0.1-0.1,0.2-0.1,0.3-0.3c0.1-0.1,0.1-0.2,0.1-0.4c0-0.2,0-0.3-0.1-0.4
		c-0.1-0.1-0.2-0.2-0.3-0.3C115.4,377.7,115.2,377.7,114.9,377.7z"/>
	<path d="M119.2,381.7v-4.6h1.5c0.4,0,0.8,0.1,1,0.4c0.3,0.2,0.4,0.5,0.4,1c0,0.3-0.1,0.5-0.2,0.7c-0.1,0.2-0.3,0.4-0.5,0.5
		c-0.2,0.1-0.6,0.1-1,0.1h-0.5v2H119.2z M120.6,377.7h-0.7v1.4h0.7c0.3,0,0.5-0.1,0.6-0.2c0.1-0.1,0.2-0.3,0.2-0.5
		C121.5,378,121.2,377.7,120.6,377.7"/>
	<path class="st0" d="M119.2,381.7v-4.6h1.5c0.4,0,0.8,0.1,1,0.4c0.3,0.2,0.4,0.5,0.4,1c0,0.3-0.1,0.5-0.2,0.7
		c-0.1,0.2-0.3,0.4-0.5,0.5c-0.2,0.1-0.6,0.1-1,0.1h-0.5v2H119.2z M120.6,377.7h-0.7v1.4h0.7c0.3,0,0.5-0.1,0.6-0.2
		c0.1-0.1,0.2-0.3,0.2-0.5C121.5,378,121.2,377.7,120.6,377.7z"/>
	<path d="M126.2,377.1c0.7,0,1.3,0.2,1.8,0.7c0.5,0.5,0.7,1,0.7,1.7c0,0.7-0.2,1.2-0.7,1.7c-0.5,0.4-1.1,0.7-1.8,0.7
		c-0.7,0-1.3-0.2-1.7-0.7c-0.5-0.4-0.7-1-0.7-1.7c0-0.7,0.2-1.3,0.7-1.7C124.9,377.3,125.5,377.1,126.2,377.1 M126.3,377.7
		c-0.5,0-1,0.2-1.3,0.5c-0.3,0.3-0.5,0.8-0.5,1.3c0,0.5,0.2,0.9,0.5,1.2c0.3,0.3,0.8,0.5,1.3,0.5c0.5,0,0.9-0.2,1.3-0.5
		c0.3-0.4,0.5-0.8,0.5-1.3c0-0.5-0.2-0.9-0.5-1.2C127.2,377.9,126.8,377.7,126.3,377.7"/>
	<path class="st0" d="M126.2,377.1c0.7,0,1.3,0.2,1.8,0.7c0.5,0.5,0.7,1,0.7,1.7c0,0.7-0.2,1.2-0.7,1.7c-0.5,0.4-1.1,0.7-1.8,0.7
		c-0.7,0-1.3-0.2-1.7-0.7c-0.5-0.4-0.7-1-0.7-1.7c0-0.7,0.2-1.3,0.7-1.7C124.9,377.3,125.5,377.1,126.2,377.1z M126.3,377.7
		c-0.5,0-1,0.2-1.3,0.5c-0.3,0.3-0.5,0.8-0.5,1.3c0,0.5,0.2,0.9,0.5,1.2c0.3,0.3,0.8,0.5,1.3,0.5c0.5,0,0.9-0.2,1.3-0.5
		c0.3-0.4,0.5-0.8,0.5-1.3c0-0.5-0.2-0.9-0.5-1.2C127.2,377.9,126.8,377.7,126.3,377.7z"/>
	<path d="M137.5,377.1h0.5l2.1,4.6h-0.7l-0.6-1.4h-1.9l-0.6,1.4h-0.7L137.5,377.1z M138.5,379.8l-0.7-1.6l-0.7,1.6H138.5z"/>
	<path class="st0" d="M137.5,377.1h0.5l2.1,4.6h-0.7l-0.6-1.4h-1.9l-0.6,1.4h-0.7L137.5,377.1z M138.5,379.8l-0.7-1.6l-0.7,1.6
		H138.5z"/>
	<polygon points="141.4,377.1 145.2,377.1 145.2,377.7 143.6,377.7 143.6,381.7 142.9,381.7 142.9,377.7 141.4,377.7 	"/>
	<polygon class="st0" points="141.4,377.1 145.2,377.1 145.2,377.7 143.6,377.7 143.6,381.7 142.9,381.7 142.9,377.7 141.4,377.7 	
		"/>
	<polygon points="147.2,377.1 149.8,377.1 149.8,377.7 147.8,377.7 147.8,379.1 149.7,379.1 149.7,379.7 147.8,379.7 147.8,381.1 
		149.8,381.1 149.8,381.7 147.2,381.7 	"/>
	<polygon class="st0" points="147.2,377.1 149.8,377.1 149.8,377.7 147.8,377.7 147.8,379.1 149.7,379.1 149.7,379.7 147.8,379.7 
		147.8,381.1 149.8,381.1 149.8,381.7 147.2,381.7 	"/>
	<path d="M151.8,381.7v-4.6h1.6c0.6,0,1.1,0.1,1.5,0.3c0.4,0.2,0.7,0.5,0.9,0.8c0.2,0.4,0.3,0.8,0.3,1.2c0,0.3-0.1,0.6-0.2,0.9
		c-0.1,0.3-0.3,0.5-0.5,0.8c-0.2,0.2-0.5,0.4-0.8,0.5c-0.2,0.1-0.3,0.1-0.5,0.1c-0.1,0-0.4,0-0.8,0H151.8z M153.3,377.7h-0.8v3.4
		h0.8c0.3,0,0.6,0,0.8-0.1c0.2-0.1,0.3-0.1,0.5-0.2c0.1-0.1,0.2-0.2,0.3-0.2c0.3-0.3,0.5-0.8,0.5-1.2c0-0.5-0.2-0.9-0.5-1.2
		c-0.1-0.1-0.3-0.2-0.4-0.3c-0.2-0.1-0.3-0.1-0.5-0.2C153.8,377.7,153.6,377.7,153.3,377.7"/>
	<path class="st0" d="M151.8,381.7v-4.6h1.6c0.6,0,1.1,0.1,1.5,0.3c0.4,0.2,0.7,0.5,0.9,0.8c0.2,0.4,0.3,0.8,0.3,1.2
		c0,0.3-0.1,0.6-0.2,0.9c-0.1,0.3-0.3,0.5-0.5,0.8c-0.2,0.2-0.5,0.4-0.8,0.5c-0.2,0.1-0.3,0.1-0.5,0.1c-0.1,0-0.4,0-0.8,0H151.8z
		 M153.3,377.7h-0.8v3.4h0.8c0.3,0,0.6,0,0.8-0.1c0.2-0.1,0.3-0.1,0.5-0.2c0.1-0.1,0.2-0.2,0.3-0.2c0.3-0.3,0.5-0.8,0.5-1.2
		c0-0.5-0.2-0.9-0.5-1.2c-0.1-0.1-0.3-0.2-0.4-0.3c-0.2-0.1-0.3-0.1-0.5-0.2C153.8,377.7,153.6,377.7,153.3,377.7z"/>
	<path d="M130.9,377h1.1c0.5,0,0.8,0.1,1.1,0.4c0.3,0.2,0.4,0.5,0.4,0.9c0,0.3-0.1,0.5-0.2,0.7c-0.1,0.2-0.3,0.3-0.6,0.4
		c0.2,0.1,0.3,0.2,0.4,0.4c0.1,0.2,0.3,0.5,0.6,0.9c0.2,0.3,0.3,0.5,0.4,0.6l0.2,0.4h-0.8l-0.2-0.3c0,0,0,0,0-0.1l-0.1-0.2l-0.2-0.3
		l-0.2-0.4c-0.1-0.2-0.3-0.3-0.4-0.4c-0.1-0.1-0.2-0.2-0.3-0.2c-0.1,0-0.2-0.1-0.5-0.1h-0.2v2h-0.6 M131.8,377.6h-0.2v1.4h0.3
		c0.3,0,0.6,0,0.7-0.1c0.1,0,0.2-0.2,0.3-0.3c0.1-0.1,0.1-0.2,0.1-0.4c0-0.1,0-0.3-0.1-0.4c-0.1-0.1-0.2-0.2-0.3-0.3
		C132.3,377.6,132.1,377.6,131.8,377.6"/>
	<path class="st0" d="M130.9,377h1.1c0.5,0,0.8,0.1,1.1,0.4c0.3,0.2,0.4,0.5,0.4,0.9c0,0.3-0.1,0.5-0.2,0.7
		c-0.1,0.2-0.3,0.3-0.6,0.4c0.2,0.1,0.3,0.2,0.4,0.4c0.1,0.2,0.3,0.5,0.6,0.9c0.2,0.3,0.3,0.5,0.4,0.6l0.2,0.4h-0.8l-0.2-0.3
		c0,0,0,0,0-0.1l-0.1-0.2l-0.2-0.3l-0.2-0.4c-0.1-0.2-0.3-0.3-0.4-0.4c-0.1-0.1-0.2-0.2-0.3-0.2c-0.1,0-0.2-0.1-0.5-0.1h-0.2v2h-0.6
		 M131.8,377.6h-0.2v1.4h0.3c0.3,0,0.6,0,0.7-0.1c0.1,0,0.2-0.2,0.3-0.3c0.1-0.1,0.1-0.2,0.1-0.4c0-0.1,0-0.3-0.1-0.4
		c-0.1-0.1-0.2-0.2-0.3-0.3C132.3,377.6,132.1,377.6,131.8,377.6z"/>
	<polygon points="115.4,390.4 114.5,391.2 114.5,390.3 115.5,389.3 116.1,389.3 116.1,393.9 115.4,393.9 	"/>
	<polygon class="st0" points="115.4,390.4 114.5,391.2 114.5,390.3 115.5,389.3 116.1,389.3 116.1,393.9 115.4,393.9 	"/>
	<polygon points="127.7,390.4 126.7,391.2 126.7,390.3 127.7,389.3 128.3,389.3 128.3,393.9 127.7,393.9 	"/>
	<polygon class="st0" points="127.7,390.4 126.7,391.2 126.7,390.3 127.7,389.3 128.3,389.3 128.3,393.9 127.7,393.9 	"/>
	<path d="M118.5,390.5c0-0.3,0.1-0.7,0.4-0.9c0.3-0.3,0.6-0.4,1-0.4c0.4,0,0.7,0.1,1,0.4c0.3,0.2,0.4,0.6,0.4,0.9
		c0,0.4-0.2,0.8-0.6,1c0.4,0.3,0.6,0.6,0.6,1.1c0,0.4-0.1,0.7-0.4,0.9c-0.3,0.3-0.6,0.4-1,0.4c-0.4,0-0.8-0.1-1-0.4
		c-0.3-0.2-0.4-0.6-0.4-0.9c0-0.5,0.2-0.8,0.7-1.1c-0.2-0.2-0.3-0.3-0.4-0.5C118.6,390.9,118.5,390.7,118.5,390.5 M120.7,392.7
		L120.7,392.7c0-0.3-0.1-0.5-0.2-0.6c-0.2-0.1-0.4-0.2-0.6-0.2c-0.2,0-0.4,0.1-0.6,0.2c-0.1,0.1-0.2,0.3-0.2,0.5
		c0,0.2,0.1,0.4,0.2,0.5c0.2,0.1,0.4,0.2,0.6,0.2c0.2,0,0.4-0.1,0.6-0.2C120.6,393,120.7,392.9,120.7,392.7 M120.6,390.5
		c0-0.2-0.1-0.4-0.2-0.5c-0.1-0.1-0.3-0.2-0.5-0.2c-0.2,0-0.4,0.1-0.5,0.2c-0.1,0.1-0.2,0.3-0.2,0.5c0,0.2,0.1,0.4,0.2,0.5
		c0.1,0.1,0.3,0.2,0.5,0.2c0.2,0,0.4-0.1,0.5-0.2C120.5,390.9,120.6,390.7,120.6,390.5"/>
	<path class="st0" d="M118.5,390.5c0-0.3,0.1-0.7,0.4-0.9c0.3-0.3,0.6-0.4,1-0.4c0.4,0,0.7,0.1,1,0.4c0.3,0.2,0.4,0.6,0.4,0.9
		c0,0.4-0.2,0.8-0.6,1c0.4,0.3,0.6,0.6,0.6,1.1c0,0.4-0.1,0.7-0.4,0.9c-0.3,0.3-0.6,0.4-1,0.4c-0.4,0-0.8-0.1-1-0.4
		c-0.3-0.2-0.4-0.6-0.4-0.9c0-0.5,0.2-0.8,0.7-1.1c-0.2-0.2-0.3-0.3-0.4-0.5C118.6,390.9,118.5,390.7,118.5,390.5z M120.7,392.7
		L120.7,392.7c0-0.3-0.1-0.5-0.2-0.6c-0.2-0.1-0.4-0.2-0.6-0.2c-0.2,0-0.4,0.1-0.6,0.2c-0.1,0.1-0.2,0.3-0.2,0.5
		c0,0.2,0.1,0.4,0.2,0.5c0.2,0.1,0.4,0.2,0.6,0.2c0.2,0,0.4-0.1,0.6-0.2C120.6,393,120.7,392.9,120.7,392.7z M120.6,390.5
		c0-0.2-0.1-0.4-0.2-0.5c-0.1-0.1-0.3-0.2-0.5-0.2c-0.2,0-0.4,0.1-0.5,0.2c-0.1,0.1-0.2,0.3-0.2,0.5c0,0.2,0.1,0.4,0.2,0.5
		c0.1,0.1,0.3,0.2,0.5,0.2c0.2,0,0.4-0.1,0.5-0.2C120.5,390.9,120.6,390.7,120.6,390.5z"/>
	<polygon points="122.5,389.3 125.4,389.3 123.4,394 122.8,393.7 124.4,389.9 122.5,389.9 	"/>
	<polygon class="st0" points="122.5,389.3 125.4,389.3 123.4,394 122.8,393.7 124.4,389.9 122.5,389.9 	"/>
</g>
</svg>
