<?xml version="1.0" encoding="UTF-8"?>
<svg xmlns="http://www.w3.org/2000/svg" xmlns:xlink="http://www.w3.org/1999/xlink" width="224.87999pt" height="74.999997pt" viewBox="0 0 224.87999 74.999997" version="1.2">
<defs>
<clipPath id="clip1">
  <path d="M 0 0.0195312 L 224.761719 0.0195312 L 224.761719 74.980469 L 0 74.980469 Z M 0 0.0195312 "/>
</clipPath>
<clipPath id="clip2">
  <path d="M 37.5 31 L 61 31 L 61 55.9375 L 37.5 55.9375 Z M 37.5 31 "/>
</clipPath>
<clipPath id="clip3">
  <path d="M 70 31 L 89 31 L 89 55.9375 L 70 55.9375 Z M 70 31 "/>
</clipPath>
<clipPath id="clip4">
  <path d="M 97 20 L 113 20 L 113 55.9375 L 97 55.9375 Z M 97 20 "/>
</clipPath>
<clipPath id="clip5">
  <path d="M 119 18.65625 L 133 18.65625 L 133 55.9375 L 119 55.9375 Z M 119 18.65625 "/>
</clipPath>
<clipPath id="clip6">
  <path d="M 140 18.65625 L 154 18.65625 L 154 55.9375 L 140 55.9375 Z M 140 18.65625 "/>
</clipPath>
<clipPath id="clip7">
  <path d="M 163 31 L 186.960938 31 L 186.960938 55.9375 L 163 55.9375 Z M 163 31 "/>
</clipPath>
</defs>
<g id="surface1">
<g clip-path="url(#clip1)" clip-rule="nonzero">
<path style=" stroke:none;fill-rule:nonzero;fill:rgb(100%,100%,100%);fill-opacity:1;" d="M 0 0.0195312 L 224.878906 0.0195312 L 224.878906 74.980469 L 0 74.980469 Z M 0 0.0195312 "/>
<path style=" stroke:none;fill-rule:nonzero;fill:rgb(45.098877%,45.098877%,45.098877%);fill-opacity:1;" d="M 0 0.0195312 L 224.878906 0.0195312 L 224.878906 74.980469 L 0 74.980469 Z M 0 0.0195312 "/>
</g>
<g clip-path="url(#clip2)" clip-rule="nonzero">
<path style=" stroke:none;fill-rule:nonzero;fill:rgb(100%,100%,100%);fill-opacity:1;" d="M 48.71875 55.9375 C 42.777344 55.9375 37.5 51.378906 37.5 44.007812 C 37.5 36.882812 42.105469 31.992188 49.054688 31.992188 C 56.003906 31.992188 60.359375 37.046875 60.359375 43.757812 C 60.359375 50.386719 56.171875 55.9375 48.71875 55.9375 Z M 48.972656 33.652344 C 43.863281 33.652344 42.523438 39.117188 42.523438 43.675781 C 42.523438 49.308594 44.367188 54.28125 48.972656 54.28125 C 53.410156 54.28125 55.335938 49.476562 55.335938 43.757812 C 55.335938 38.703125 53.828125 33.652344 48.972656 33.652344 Z M 48.972656 33.652344 "/>
</g>
<g clip-path="url(#clip3)" clip-rule="nonzero">
<path style=" stroke:none;fill-rule:nonzero;fill:rgb(100%,100%,100%);fill-opacity:1;" d="M 85.980469 38.621094 C 84.390625 38.621094 83.46875 37.960938 83.46875 36.300781 C 83.46875 35.886719 83.804688 34.976562 83.804688 34.726562 C 81.292969 34.726562 79.367188 37.046875 78.78125 38.125 L 78.78125 51.050781 C 78.78125 52.125 79.199219 52.871094 80.121094 53.203125 C 80.957031 53.535156 82.378906 53.699219 83.386719 53.785156 L 83.386719 55.273438 L 70.65625 55.273438 L 70.65625 53.785156 C 71.578125 53.699219 72.164062 53.699219 72.835938 53.453125 C 73.757812 53.121094 74.175781 52.375 74.175781 51.296875 L 74.175781 37.542969 C 74.089844 36.550781 73.589844 35.472656 72.835938 34.976562 C 72.25 34.5625 71.328125 34.398438 70.40625 34.3125 L 70.40625 32.824219 L 78.363281 32.242188 L 78.695312 32.574219 L 78.695312 35.886719 L 78.78125 35.886719 C 80.875 33.152344 83.300781 31.992188 85.394531 31.992188 C 87.238281 31.992188 88.742188 33.402344 88.742188 35.226562 C 88.742188 37.128906 87.65625 38.621094 85.980469 38.621094 Z M 85.980469 38.621094 "/>
</g>
<g clip-path="url(#clip4)" clip-rule="nonzero">
<path style=" stroke:none;fill-rule:nonzero;fill:rgb(100%,100%,100%);fill-opacity:1;" d="M 104.402344 55.855469 C 102.476562 55.855469 99.460938 55.027344 99.460938 52.042969 C 99.460938 50.882812 99.796875 49.640625 100.464844 47.984375 L 103.730469 39.699219 C 104.402344 37.957031 104.820312 36.382812 104.820312 35.804688 C 104.820312 34.480469 104.402344 34.066406 103.398438 34.066406 C 101.136719 34.066406 99.714844 37.296875 98.539062 40.277344 L 97.035156 39.863281 C 98.792969 35.472656 100.71875 32.324219 104.234375 32.324219 C 106.328125 32.324219 109.007812 33.070312 109.007812 36.46875 C 109.007812 37.628906 108.003906 40.03125 107.5 41.4375 L 104.820312 48.480469 C 104.234375 49.890625 103.730469 51.546875 103.730469 52.292969 C 103.730469 53.867188 104.652344 54.03125 105.40625 54.03125 C 107.667969 54.03125 108.757812 51.710938 110.261719 48.148438 L 111.6875 48.644531 C 109.929688 52.871094 107.917969 55.855469 104.402344 55.855469 Z M 109.007812 26.691406 C 107.332031 26.691406 106.496094 25.449219 106.496094 23.957031 C 106.496094 22.050781 107.835938 20.5625 109.929688 20.5625 C 111.351562 20.5625 112.273438 21.886719 112.273438 23.292969 C 112.1875 25.117188 111.015625 26.691406 109.007812 26.691406 Z M 109.007812 26.691406 "/>
</g>
<g clip-path="url(#clip5)" clip-rule="nonzero">
<path style=" stroke:none;fill-rule:nonzero;fill:rgb(100%,100%,100%);fill-opacity:1;" d="M 120.980469 55.273438 L 120.980469 53.78125 C 121.902344 53.699219 122.488281 53.699219 123.15625 53.453125 C 124.078125 53.121094 124.496094 52.375 124.496094 51.296875 L 124.496094 24.289062 C 124.496094 23.128906 123.910156 22.050781 123.15625 21.472656 C 122.570312 21.058594 120.5625 20.726562 119.726562 20.644531 L 119.726562 19.234375 L 128.683594 18.65625 L 129.019531 18.988281 L 129.019531 50.964844 C 129.019531 52.042969 129.4375 52.789062 130.359375 53.203125 C 131.113281 53.535156 131.613281 53.699219 132.535156 53.78125 L 132.535156 55.273438 Z M 120.980469 55.273438 "/>
</g>
<g clip-path="url(#clip6)" clip-rule="nonzero">
<path style=" stroke:none;fill-rule:nonzero;fill:rgb(100%,100%,100%);fill-opacity:1;" d="M 142.082031 55.273438 L 142.082031 53.78125 C 143 53.699219 143.589844 53.699219 144.257812 53.453125 C 145.179688 53.121094 145.597656 52.375 145.597656 51.296875 L 145.597656 24.289062 C 145.597656 23.128906 145.011719 22.050781 144.257812 21.472656 C 143.671875 21.058594 141.664062 20.726562 140.824219 20.644531 L 140.824219 19.234375 L 149.699219 18.65625 L 150.035156 18.988281 L 150.035156 50.964844 C 150.035156 52.042969 150.453125 52.789062 151.375 53.203125 C 152.128906 53.535156 152.632812 53.699219 153.550781 53.78125 L 153.550781 55.273438 Z M 142.082031 55.273438 "/>
</g>
<g clip-path="url(#clip7)" clip-rule="nonzero">
<path style=" stroke:none;fill-rule:nonzero;fill:rgb(100%,100%,100%);fill-opacity:1;" d="M 181.519531 55.773438 C 179.175781 55.773438 177.917969 54.777344 177.164062 52.457031 L 176.996094 52.457031 C 175.238281 54.527344 172.476562 55.855469 169.542969 55.855469 C 166.113281 55.855469 163.765625 53.699219 163.765625 50.46875 C 163.765625 46.242188 166.113281 44.753906 168.625 43.839844 C 171.46875 42.765625 174.988281 41.769531 177.082031 40.691406 L 177.082031 38.457031 C 177.082031 37.542969 176.914062 33.566406 172.726562 33.566406 C 171.136719 33.566406 169.964844 34.230469 169.460938 34.726562 C 169.460938 35.472656 169.878906 36.714844 169.878906 37.792969 C 169.878906 38.871094 168.792969 39.949219 167.03125 39.949219 C 165.359375 39.949219 164.773438 38.621094 164.773438 37.296875 C 164.773438 34.3125 169.210938 31.910156 172.976562 31.910156 C 177.917969 31.910156 181.601562 32.824219 181.601562 39.367188 C 181.601562 43.757812 181.351562 49.0625 181.351562 50.636719 C 181.351562 51.214844 181.9375 53.039062 183.527344 53.039062 C 184.785156 53.039062 185.285156 51.132812 185.285156 49.390625 L 186.878906 49.390625 C 186.710938 54.03125 184.699219 55.773438 181.519531 55.773438 Z M 168.539062 49.640625 C 168.539062 52.210938 169.796875 53.285156 171.972656 53.285156 C 174.570312 53.285156 175.742188 52.125 176.914062 50.800781 L 177.082031 42.679688 C 172.140625 44.171875 168.539062 45.664062 168.539062 49.640625 Z M 168.539062 49.640625 "/>
</g>
</g>
</svg>
