<?xml version="1.0" encoding="UTF-8"?>
<svg xmlns="http://www.w3.org/2000/svg" xmlns:xlink="http://www.w3.org/1999/xlink" width="37.5pt" height="37.499999pt" viewBox="0 0 37.5 37.499999" version="1.2">
<defs>
<clipPath id="clip1">
  <path d="M 0 8.628906 L 37.007812 8.628906 L 37.007812 28.164062 L 0 28.164062 Z M 0 8.628906 "/>
</clipPath>
<clipPath id="clip2">
  <path d="M 0 18.394531 C 0 23.769531 8.394531 28.125 18.75 28.125 C 29.105469 28.125 37.5 23.769531 37.5 18.394531 C 37.5 13.023438 29.105469 8.667969 18.75 8.667969 C 8.394531 8.667969 0 13.023438 0 18.394531 "/>
</clipPath>
<clipPath id="clip3">
  <path d="M 0 18.394531 C 0 23.769531 8.394531 28.125 18.75 28.125 C 29.105469 28.125 37.5 23.769531 37.5 18.394531 C 37.5 13.023438 29.105469 8.667969 18.75 8.667969 C 8.394531 8.667969 0 13.023438 0 18.394531 "/>
</clipPath>
<radialGradient id="radial0" gradientUnits="userSpaceOnUse" cx="0" cy="0" fx="0" fy="0" r="24.453225" gradientTransform="matrix(1.006872,0,0,0.993128,11.257128,12.087882)">
<stop offset="0" style="stop-color:rgb(68.199158%,69.799805%,83.499146%);stop-opacity:1;"/>
<stop offset="0.25" style="stop-color:rgb(68.199158%,69.799805%,83.499146%);stop-opacity:1;"/>
<stop offset="0.296875" style="stop-color:rgb(68.164062%,69.764709%,83.473206%);stop-opacity:1;"/>
<stop offset="0.300781" style="stop-color:rgb(67.956543%,69.555664%,83.317566%);stop-opacity:1;"/>
<stop offset="0.304688" style="stop-color:rgb(67.608643%,69.20929%,83.059692%);stop-opacity:1;"/>
<stop offset="0.308594" style="stop-color:rgb(67.260742%,68.861389%,82.800293%);stop-opacity:1;"/>
<stop offset="0.3125" style="stop-color:rgb(66.914368%,68.513489%,82.542419%);stop-opacity:1;"/>
<stop offset="0.316406" style="stop-color:rgb(66.566467%,68.167114%,82.28302%);stop-opacity:1;"/>
<stop offset="0.320312" style="stop-color:rgb(66.220093%,67.819214%,82.025146%);stop-opacity:1;"/>
<stop offset="0.324219" style="stop-color:rgb(65.872192%,67.472839%,81.765747%);stop-opacity:1;"/>
<stop offset="0.328125" style="stop-color:rgb(65.525818%,67.124939%,81.506348%);stop-opacity:1;"/>
<stop offset="0.332031" style="stop-color:rgb(65.177917%,66.778564%,81.248474%);stop-opacity:1;"/>
<stop offset="0.335938" style="stop-color:rgb(64.831543%,66.430664%,80.989075%);stop-opacity:1;"/>
<stop offset="0.339844" style="stop-color:rgb(64.483643%,66.08429%,80.731201%);stop-opacity:1;"/>
<stop offset="0.34375" style="stop-color:rgb(64.135742%,65.736389%,80.471802%);stop-opacity:1;"/>
<stop offset="0.347656" style="stop-color:rgb(63.789368%,65.388489%,80.213928%);stop-opacity:1;"/>
<stop offset="0.351562" style="stop-color:rgb(63.441467%,65.042114%,79.954529%);stop-opacity:1;"/>
<stop offset="0.355469" style="stop-color:rgb(63.095093%,64.694214%,79.696655%);stop-opacity:1;"/>
<stop offset="0.359375" style="stop-color:rgb(62.747192%,64.347839%,79.437256%);stop-opacity:1;"/>
<stop offset="0.363281" style="stop-color:rgb(62.400818%,63.999939%,79.179382%);stop-opacity:1;"/>
<stop offset="0.367188" style="stop-color:rgb(62.052917%,63.653564%,78.919983%);stop-opacity:1;"/>
<stop offset="0.371094" style="stop-color:rgb(61.706543%,63.305664%,78.662109%);stop-opacity:1;"/>
<stop offset="0.375" style="stop-color:rgb(61.358643%,62.95929%,78.40271%);stop-opacity:1;"/>
<stop offset="0.378906" style="stop-color:rgb(61.010742%,62.611389%,78.144836%);stop-opacity:1;"/>
<stop offset="0.382812" style="stop-color:rgb(60.664368%,62.263489%,77.885437%);stop-opacity:1;"/>
<stop offset="0.386719" style="stop-color:rgb(60.316467%,61.917114%,77.627563%);stop-opacity:1;"/>
<stop offset="0.390625" style="stop-color:rgb(59.970093%,61.569214%,77.368164%);stop-opacity:1;"/>
<stop offset="0.394531" style="stop-color:rgb(59.622192%,61.222839%,77.108765%);stop-opacity:1;"/>
<stop offset="0.398438" style="stop-color:rgb(59.275818%,60.874939%,76.850891%);stop-opacity:1;"/>
<stop offset="0.402344" style="stop-color:rgb(58.927917%,60.528564%,76.591492%);stop-opacity:1;"/>
<stop offset="0.40625" style="stop-color:rgb(58.581543%,60.180664%,76.333618%);stop-opacity:1;"/>
<stop offset="0.410156" style="stop-color:rgb(58.233643%,59.83429%,76.074219%);stop-opacity:1;"/>
<stop offset="0.414062" style="stop-color:rgb(57.885742%,59.486389%,75.816345%);stop-opacity:1;"/>
<stop offset="0.417969" style="stop-color:rgb(57.539368%,59.138489%,75.556946%);stop-opacity:1;"/>
<stop offset="0.421875" style="stop-color:rgb(57.191467%,58.792114%,75.299072%);stop-opacity:1;"/>
<stop offset="0.425781" style="stop-color:rgb(56.845093%,58.444214%,75.039673%);stop-opacity:1;"/>
<stop offset="0.429688" style="stop-color:rgb(56.497192%,58.097839%,74.781799%);stop-opacity:1;"/>
<stop offset="0.433594" style="stop-color:rgb(56.150818%,57.749939%,74.5224%);stop-opacity:1;"/>
<stop offset="0.4375" style="stop-color:rgb(55.802917%,57.403564%,74.264526%);stop-opacity:1;"/>
<stop offset="0.441406" style="stop-color:rgb(55.456543%,57.055664%,74.005127%);stop-opacity:1;"/>
<stop offset="0.445312" style="stop-color:rgb(55.108643%,56.70929%,73.747253%);stop-opacity:1;"/>
<stop offset="0.449219" style="stop-color:rgb(54.760742%,56.361389%,73.487854%);stop-opacity:1;"/>
<stop offset="0.453125" style="stop-color:rgb(54.414368%,56.013489%,73.22998%);stop-opacity:1;"/>
<stop offset="0.457031" style="stop-color:rgb(54.066467%,55.667114%,72.970581%);stop-opacity:1;"/>
<stop offset="0.460938" style="stop-color:rgb(53.720093%,55.319214%,72.711182%);stop-opacity:1;"/>
<stop offset="0.464844" style="stop-color:rgb(53.372192%,54.972839%,72.453308%);stop-opacity:1;"/>
<stop offset="0.46875" style="stop-color:rgb(53.025818%,54.624939%,72.193909%);stop-opacity:1;"/>
<stop offset="0.472656" style="stop-color:rgb(52.677917%,54.278564%,71.936035%);stop-opacity:1;"/>
<stop offset="0.476562" style="stop-color:rgb(52.331543%,53.930664%,71.676636%);stop-opacity:1;"/>
<stop offset="0.480469" style="stop-color:rgb(51.983643%,53.58429%,71.418762%);stop-opacity:1;"/>
<stop offset="0.484375" style="stop-color:rgb(51.635742%,53.236389%,71.159363%);stop-opacity:1;"/>
<stop offset="0.488281" style="stop-color:rgb(51.289368%,52.888489%,70.901489%);stop-opacity:1;"/>
<stop offset="0.492188" style="stop-color:rgb(50.941467%,52.542114%,70.64209%);stop-opacity:1;"/>
<stop offset="0.496094" style="stop-color:rgb(50.595093%,52.194214%,70.384216%);stop-opacity:1;"/>
<stop offset="0.5" style="stop-color:rgb(50.247192%,51.847839%,70.124817%);stop-opacity:1;"/>
<stop offset="0.503906" style="stop-color:rgb(49.900818%,51.499939%,69.866943%);stop-opacity:1;"/>
<stop offset="0.507812" style="stop-color:rgb(49.552917%,51.153564%,69.607544%);stop-opacity:1;"/>
<stop offset="0.511719" style="stop-color:rgb(49.206543%,50.805664%,69.34967%);stop-opacity:1;"/>
<stop offset="0.515625" style="stop-color:rgb(48.858643%,50.45929%,69.090271%);stop-opacity:1;"/>
<stop offset="0.519531" style="stop-color:rgb(48.510742%,50.111389%,68.832397%);stop-opacity:1;"/>
<stop offset="0.523438" style="stop-color:rgb(48.164368%,49.763489%,68.572998%);stop-opacity:1;"/>
<stop offset="0.527344" style="stop-color:rgb(47.816467%,49.417114%,68.313599%);stop-opacity:1;"/>
<stop offset="0.53125" style="stop-color:rgb(47.470093%,49.069214%,68.055725%);stop-opacity:1;"/>
<stop offset="0.535156" style="stop-color:rgb(47.122192%,48.722839%,67.796326%);stop-opacity:1;"/>
<stop offset="0.539062" style="stop-color:rgb(46.775818%,48.374939%,67.538452%);stop-opacity:1;"/>
<stop offset="0.542969" style="stop-color:rgb(46.427917%,48.028564%,67.279053%);stop-opacity:1;"/>
<stop offset="0.546875" style="stop-color:rgb(46.081543%,47.680664%,67.021179%);stop-opacity:1;"/>
<stop offset="0.550781" style="stop-color:rgb(45.733643%,47.33429%,66.76178%);stop-opacity:1;"/>
<stop offset="0.554688" style="stop-color:rgb(45.385742%,46.986389%,66.503906%);stop-opacity:1;"/>
<stop offset="0.558594" style="stop-color:rgb(45.039368%,46.638489%,66.244507%);stop-opacity:1;"/>
<stop offset="0.5625" style="stop-color:rgb(44.691467%,46.292114%,65.986633%);stop-opacity:1;"/>
<stop offset="0.566406" style="stop-color:rgb(44.345093%,45.944214%,65.727234%);stop-opacity:1;"/>
<stop offset="0.570312" style="stop-color:rgb(43.997192%,45.597839%,65.46936%);stop-opacity:1;"/>
<stop offset="0.574219" style="stop-color:rgb(43.650818%,45.249939%,65.209961%);stop-opacity:1;"/>
<stop offset="0.578125" style="stop-color:rgb(43.302917%,44.903564%,64.952087%);stop-opacity:1;"/>
<stop offset="0.582031" style="stop-color:rgb(42.956543%,44.555664%,64.692688%);stop-opacity:1;"/>
<stop offset="0.585938" style="stop-color:rgb(42.608643%,44.20929%,64.434814%);stop-opacity:1;"/>
<stop offset="0.589844" style="stop-color:rgb(42.260742%,43.861389%,64.175415%);stop-opacity:1;"/>
<stop offset="0.59375" style="stop-color:rgb(41.914368%,43.513489%,63.916016%);stop-opacity:1;"/>
<stop offset="0.597656" style="stop-color:rgb(41.566467%,43.167114%,63.658142%);stop-opacity:1;"/>
<stop offset="0.601562" style="stop-color:rgb(41.220093%,42.819214%,63.398743%);stop-opacity:1;"/>
<stop offset="0.605469" style="stop-color:rgb(40.872192%,42.472839%,63.140869%);stop-opacity:1;"/>
<stop offset="0.609375" style="stop-color:rgb(40.525818%,42.124939%,62.88147%);stop-opacity:1;"/>
<stop offset="0.613281" style="stop-color:rgb(40.177917%,41.778564%,62.623596%);stop-opacity:1;"/>
<stop offset="0.617188" style="stop-color:rgb(39.831543%,41.430664%,62.364197%);stop-opacity:1;"/>
<stop offset="0.621094" style="stop-color:rgb(39.483643%,41.08429%,62.106323%);stop-opacity:1;"/>
<stop offset="0.625" style="stop-color:rgb(39.135742%,40.736389%,61.846924%);stop-opacity:1;"/>
<stop offset="0.628906" style="stop-color:rgb(38.789368%,40.388489%,61.58905%);stop-opacity:1;"/>
<stop offset="0.632812" style="stop-color:rgb(38.441467%,40.042114%,61.329651%);stop-opacity:1;"/>
<stop offset="0.636719" style="stop-color:rgb(38.095093%,39.694214%,61.071777%);stop-opacity:1;"/>
<stop offset="0.640625" style="stop-color:rgb(37.747192%,39.347839%,60.812378%);stop-opacity:1;"/>
<stop offset="0.644531" style="stop-color:rgb(37.400818%,38.999939%,60.554504%);stop-opacity:1;"/>
<stop offset="0.648438" style="stop-color:rgb(37.052917%,38.653564%,60.295105%);stop-opacity:1;"/>
<stop offset="0.652344" style="stop-color:rgb(36.706543%,38.305664%,60.037231%);stop-opacity:1;"/>
<stop offset="0.65625" style="stop-color:rgb(36.358643%,37.95929%,59.777832%);stop-opacity:1;"/>
<stop offset="0.660156" style="stop-color:rgb(36.010742%,37.611389%,59.518433%);stop-opacity:1;"/>
<stop offset="0.664062" style="stop-color:rgb(35.664368%,37.263489%,59.260559%);stop-opacity:1;"/>
<stop offset="0.667969" style="stop-color:rgb(35.316467%,36.917114%,59.00116%);stop-opacity:1;"/>
<stop offset="0.671875" style="stop-color:rgb(34.970093%,36.569214%,58.743286%);stop-opacity:1;"/>
<stop offset="0.675781" style="stop-color:rgb(34.622192%,36.222839%,58.483887%);stop-opacity:1;"/>
<stop offset="0.679688" style="stop-color:rgb(34.275818%,35.874939%,58.226013%);stop-opacity:1;"/>
<stop offset="0.683594" style="stop-color:rgb(33.927917%,35.528564%,57.966614%);stop-opacity:1;"/>
<stop offset="0.6875" style="stop-color:rgb(33.581543%,35.180664%,57.70874%);stop-opacity:1;"/>
<stop offset="0.691406" style="stop-color:rgb(33.233643%,34.83429%,57.449341%);stop-opacity:1;"/>
<stop offset="0.695312" style="stop-color:rgb(32.885742%,34.486389%,57.191467%);stop-opacity:1;"/>
<stop offset="0.699219" style="stop-color:rgb(32.539368%,34.138489%,56.932068%);stop-opacity:1;"/>
<stop offset="0.703125" style="stop-color:rgb(32.191467%,33.792114%,56.674194%);stop-opacity:1;"/>
<stop offset="0.707031" style="stop-color:rgb(31.845093%,33.444214%,56.414795%);stop-opacity:1;"/>
<stop offset="0.710938" style="stop-color:rgb(31.497192%,33.097839%,56.156921%);stop-opacity:1;"/>
<stop offset="0.714844" style="stop-color:rgb(31.150818%,32.749939%,55.897522%);stop-opacity:1;"/>
<stop offset="0.71875" style="stop-color:rgb(30.802917%,32.403564%,55.639648%);stop-opacity:1;"/>
<stop offset="0.722656" style="stop-color:rgb(30.456543%,32.055664%,55.380249%);stop-opacity:1;"/>
<stop offset="0.726562" style="stop-color:rgb(30.108643%,31.70929%,55.122375%);stop-opacity:1;"/>
<stop offset="0.730469" style="stop-color:rgb(29.760742%,31.361389%,54.862976%);stop-opacity:1;"/>
<stop offset="0.734375" style="stop-color:rgb(29.414368%,31.013489%,54.603577%);stop-opacity:1;"/>
<stop offset="0.738281" style="stop-color:rgb(29.066467%,30.667114%,54.345703%);stop-opacity:1;"/>
<stop offset="0.742188" style="stop-color:rgb(28.720093%,30.319214%,54.086304%);stop-opacity:1;"/>
<stop offset="0.746094" style="stop-color:rgb(28.372192%,29.972839%,53.82843%);stop-opacity:1;"/>
<stop offset="1" style="stop-color:rgb(28.199768%,29.798889%,53.69873%);stop-opacity:1;"/>
</radialGradient>
</defs>
<g id="surface1">
<g clip-path="url(#clip1)" clip-rule="nonzero">
<g clip-path="url(#clip2)" clip-rule="nonzero">
<g clip-path="url(#clip3)" clip-rule="nonzero">
<path style=" stroke:none;fill-rule:nonzero;fill:url(#radial0);" d="M 0 8.667969 L 0 28.125 L 37.007812 28.125 L 37.007812 8.667969 Z M 0 8.667969 "/>
</g>
</g>
</g>
<path style=" stroke:none;fill-rule:nonzero;fill:rgb(46.669006%,48.239136%,70.199585%);fill-opacity:1;" d="M 18.75 27.402344 C 28.699219 27.402344 36.765625 23.371094 36.765625 18.394531 C 36.765625 13.421875 28.699219 9.390625 18.75 9.390625 C 8.796875 9.390625 0.730469 13.421875 0.730469 18.394531 C 0.730469 23.371094 8.796875 27.402344 18.75 27.402344 "/>
<path style=" stroke:none;fill-rule:nonzero;fill:rgb(0%,0%,0%);fill-opacity:1;" d="M 10.1875 19.511719 C 11.003906 19.511719 11.617188 19.363281 12.003906 19.070312 C 12.382812 18.78125 12.648438 18.277344 12.785156 17.574219 C 12.914062 16.917969 12.867188 16.460938 12.640625 16.214844 C 12.410156 15.960938 11.910156 15.832031 11.15625 15.832031 L 9.847656 15.832031 L 9.125 19.511719 Z M 5.910156 24.042969 C 5.847656 24.042969 5.792969 24.019531 5.753906 23.972656 C 5.710938 23.921875 5.699219 23.867188 5.710938 23.804688 L 7.632812 14.054688 C 7.652344 13.949219 7.71875 13.894531 7.832031 13.894531 L 11.972656 13.894531 C 13.273438 13.894531 14.242188 14.242188 14.851562 14.929688 C 15.460938 15.621094 15.652344 16.585938 15.410156 17.800781 C 15.3125 18.296875 15.148438 18.753906 14.914062 19.167969 C 14.679688 19.578125 14.371094 19.957031 13.996094 20.296875 C 13.550781 20.710938 13.042969 21.011719 12.488281 21.191406 C 11.945312 21.363281 11.25 21.453125 10.417969 21.453125 L 8.742188 21.453125 L 8.261719 23.882812 C 8.242188 23.992188 8.175781 24.042969 8.0625 24.042969 Z M 5.910156 24.042969 "/>
<path style=" stroke:none;fill-rule:nonzero;fill:rgb(100%,100%,100%);fill-opacity:1;" d="M 10.015625 16.035156 L 11.15625 16.035156 C 12.066406 16.035156 12.382812 16.230469 12.488281 16.347656 C 12.667969 16.542969 12.703125 16.953125 12.585938 17.539062 C 12.457031 18.1875 12.21875 18.652344 11.878906 18.910156 C 11.527344 19.175781 10.957031 19.3125 10.1875 19.3125 L 9.371094 19.3125 Z M 11.972656 13.691406 L 7.832031 13.691406 C 7.609375 13.691406 7.472656 13.800781 7.433594 14.019531 L 5.511719 23.765625 C 5.484375 23.890625 5.515625 24 5.597656 24.097656 C 5.675781 24.195312 5.78125 24.246094 5.910156 24.246094 L 8.0625 24.246094 C 8.285156 24.246094 8.417969 24.136719 8.460938 23.921875 L 8.910156 21.652344 L 10.417969 21.652344 C 11.273438 21.652344 11.988281 21.5625 12.554688 21.378906 C 13.132812 21.195312 13.664062 20.878906 14.136719 20.445312 C 14.527344 20.089844 14.847656 19.695312 15.089844 19.265625 C 15.335938 18.835938 15.511719 18.355469 15.613281 17.839844 C 15.863281 16.5625 15.660156 15.539062 15.003906 14.796875 C 14.355469 14.066406 13.335938 13.691406 11.972656 13.691406 M 8.878906 19.714844 L 10.1875 19.714844 C 11.054688 19.714844 11.703125 19.550781 12.125 19.230469 C 12.550781 18.90625 12.835938 18.367188 12.988281 17.613281 C 13.128906 16.890625 13.0625 16.378906 12.792969 16.078125 C 12.519531 15.78125 11.972656 15.632812 11.15625 15.632812 L 9.679688 15.632812 L 8.878906 19.714844 M 11.972656 14.09375 C 13.21875 14.09375 14.125 14.417969 14.695312 15.0625 C 15.269531 15.707031 15.441406 16.605469 15.210938 17.761719 C 15.117188 18.238281 14.960938 18.675781 14.738281 19.066406 C 14.511719 19.460938 14.222656 19.824219 13.859375 20.152344 C 13.429688 20.546875 12.953125 20.832031 12.425781 21 C 11.902344 21.167969 11.230469 21.253906 10.417969 21.253906 L 8.574219 21.253906 L 8.0625 23.84375 L 5.910156 23.84375 L 7.832031 14.09375 L 11.972656 14.09375 "/>
<path style=" stroke:none;fill-rule:nonzero;fill:rgb(0%,0%,0%);fill-opacity:1;" d="M 20.347656 21.453125 C 20.289062 21.453125 20.230469 21.425781 20.191406 21.378906 C 20.152344 21.332031 20.136719 21.273438 20.148438 21.214844 L 21 16.898438 C 21.078125 16.488281 21.058594 16.195312 20.941406 16.070312 C 20.871094 15.996094 20.65625 15.867188 20.019531 15.867188 L 18.480469 15.867188 L 17.410156 21.289062 C 17.390625 21.398438 17.324219 21.453125 17.210938 21.453125 L 15.074219 21.453125 C 15.011719 21.453125 14.960938 21.429688 14.917969 21.378906 C 14.878906 21.332031 14.863281 21.277344 14.875 21.214844 L 16.796875 11.464844 C 16.820312 11.355469 16.886719 11.300781 16.996094 11.300781 L 19.132812 11.300781 C 19.199219 11.300781 19.25 11.328125 19.289062 11.375 C 19.332031 11.421875 19.34375 11.480469 19.332031 11.539062 L 18.871094 13.894531 L 20.527344 13.894531 C 21.789062 13.894531 22.644531 14.113281 23.140625 14.566406 C 23.648438 15.023438 23.808594 15.761719 23.613281 16.753906 L 22.71875 21.289062 C 22.699219 21.398438 22.628906 21.453125 22.519531 21.453125 Z M 20.347656 21.453125 "/>
<path style=" stroke:none;fill-rule:nonzero;fill:rgb(100%,100%,100%);fill-opacity:1;" d="M 19.132812 11.101562 L 16.996094 11.101562 C 16.773438 11.101562 16.640625 11.210938 16.597656 11.425781 L 14.675781 21.175781 C 14.652344 21.300781 14.679688 21.410156 14.761719 21.507812 C 14.84375 21.605469 14.949219 21.652344 15.074219 21.652344 L 17.210938 21.652344 C 17.4375 21.652344 17.570312 21.546875 17.613281 21.328125 L 18.648438 16.066406 L 20.019531 16.066406 C 20.65625 16.066406 20.789062 16.203125 20.792969 16.207031 C 20.832031 16.25 20.882812 16.4375 20.800781 16.863281 L 19.949219 21.175781 C 19.925781 21.300781 19.953125 21.410156 20.035156 21.507812 C 20.117188 21.605469 20.222656 21.652344 20.347656 21.652344 L 22.519531 21.652344 C 22.742188 21.652344 22.875 21.546875 22.917969 21.328125 L 23.8125 16.792969 C 24.023438 15.726562 23.84375 14.925781 23.277344 14.417969 C 22.742188 13.929688 21.839844 13.691406 20.527344 13.691406 L 19.117188 13.691406 L 19.53125 11.578125 C 19.558594 11.457031 19.527344 11.34375 19.449219 11.246094 C 19.367188 11.148438 19.261719 11.101562 19.132812 11.101562 M 19.132812 11.503906 L 18.621094 14.09375 L 20.527344 14.09375 C 21.722656 14.09375 22.550781 14.300781 23.003906 14.710938 C 23.457031 15.125 23.59375 15.792969 23.414062 16.714844 L 22.519531 21.25 L 20.347656 21.25 L 21.199219 16.9375 C 21.296875 16.449219 21.261719 16.113281 21.09375 15.933594 C 20.925781 15.753906 20.566406 15.667969 20.019531 15.667969 L 18.3125 15.667969 L 17.210938 21.25 L 15.074219 21.25 L 16.996094 11.503906 L 19.132812 11.503906 "/>
<path style=" stroke:none;fill-rule:nonzero;fill:rgb(0%,0%,0%);fill-opacity:1;" d="M 26.992188 19.511719 C 27.8125 19.511719 28.421875 19.363281 28.808594 19.070312 C 29.191406 18.78125 29.453125 18.277344 29.59375 17.574219 C 29.722656 16.917969 29.671875 16.460938 29.445312 16.214844 C 29.214844 15.960938 28.714844 15.832031 27.960938 15.832031 L 26.65625 15.832031 L 25.929688 19.511719 Z M 22.714844 24.042969 C 22.65625 24.042969 22.597656 24.019531 22.558594 23.972656 C 22.519531 23.921875 22.503906 23.867188 22.515625 23.804688 L 24.4375 14.054688 C 24.457031 13.949219 24.523438 13.894531 24.636719 13.894531 L 28.777344 13.894531 C 30.078125 13.894531 31.046875 14.242188 31.65625 14.929688 C 32.269531 15.621094 32.457031 16.585938 32.21875 17.800781 C 32.121094 18.296875 31.953125 18.753906 31.71875 19.167969 C 31.488281 19.578125 31.179688 19.957031 30.804688 20.296875 C 30.355469 20.710938 29.847656 21.011719 29.296875 21.191406 C 28.753906 21.363281 28.054688 21.453125 27.222656 21.453125 L 25.546875 21.453125 L 25.070312 23.882812 C 25.046875 23.992188 24.980469 24.042969 24.867188 24.042969 Z M 22.714844 24.042969 "/>
<path style=" stroke:none;fill-rule:nonzero;fill:rgb(100%,100%,100%);fill-opacity:1;" d="M 26.824219 16.035156 L 27.960938 16.035156 C 28.871094 16.035156 29.1875 16.230469 29.296875 16.347656 C 29.472656 16.542969 29.507812 16.953125 29.394531 17.539062 C 29.265625 18.1875 29.027344 18.652344 28.683594 18.910156 C 28.332031 19.175781 27.765625 19.3125 26.992188 19.3125 L 26.175781 19.3125 Z M 28.777344 13.691406 L 24.636719 13.691406 C 24.414062 13.691406 24.28125 13.800781 24.238281 14.019531 L 22.316406 23.765625 C 22.292969 23.890625 22.320312 24 22.402344 24.097656 C 22.484375 24.195312 22.589844 24.246094 22.714844 24.246094 L 24.871094 24.246094 C 25.09375 24.246094 25.226562 24.136719 25.269531 23.921875 L 25.714844 21.652344 L 27.222656 21.652344 C 28.078125 21.652344 28.796875 21.5625 29.359375 21.378906 C 29.9375 21.195312 30.472656 20.878906 30.941406 20.445312 C 31.332031 20.089844 31.652344 19.695312 31.898438 19.265625 C 32.140625 18.835938 32.316406 18.355469 32.417969 17.839844 C 32.667969 16.5625 32.464844 15.539062 31.808594 14.796875 C 31.160156 14.066406 30.140625 13.691406 28.777344 13.691406 M 25.683594 19.714844 L 26.992188 19.714844 C 27.859375 19.714844 28.507812 19.550781 28.933594 19.230469 C 29.355469 18.90625 29.644531 18.367188 29.792969 17.613281 C 29.933594 16.890625 29.871094 16.378906 29.597656 16.078125 C 29.324219 15.78125 28.78125 15.632812 27.960938 15.632812 L 26.488281 15.632812 L 25.683594 19.714844 M 28.777344 14.09375 C 30.023438 14.09375 30.933594 14.417969 31.503906 15.0625 C 32.074219 15.707031 32.246094 16.605469 32.019531 17.761719 C 31.925781 18.238281 31.765625 18.675781 31.542969 19.066406 C 31.320312 19.460938 31.027344 19.824219 30.667969 20.152344 C 30.234375 20.546875 29.757812 20.832031 29.234375 21 C 28.707031 21.167969 28.039062 21.253906 27.222656 21.253906 L 25.378906 21.253906 L 24.871094 23.84375 L 22.714844 23.84375 L 24.636719 14.09375 L 28.777344 14.09375 "/>
</g>
</svg>
