<?xml version="1.0" encoding="UTF-8"?>
<svg xmlns="http://www.w3.org/2000/svg" xmlns:xlink="http://www.w3.org/1999/xlink" width="37.5pt" height="37.499999pt" viewBox="0 0 37.5 37.499999" version="1.2">
<defs>
<clipPath id="clip1">
  <path d="M 0 0 L 37.007812 0 L 37.007812 37.007812 L 0 37.007812 Z M 0 0 "/>
</clipPath>
</defs>
<g id="surface1">
<g clip-path="url(#clip1)" clip-rule="nonzero">
<path style=" stroke:none;fill-rule:nonzero;fill:rgb(100%,42.349243%,21.569824%);fill-opacity:1;" d="M 33.589844 7.289062 C 33.214844 6.804688 32.816406 6.335938 32.394531 5.890625 C 31.972656 5.441406 31.53125 5.015625 31.070312 4.613281 C 30.605469 4.210938 30.125 3.832031 29.625 3.472656 C 29.125 3.117188 28.605469 2.789062 28.074219 2.480469 C 27.542969 2.175781 26.996094 1.898438 26.433594 1.644531 C 25.875 1.394531 25.304688 1.171875 24.722656 0.976562 C 24.140625 0.78125 23.550781 0.613281 22.949219 0.476562 C 22.351562 0.339844 21.75 0.230469 21.140625 0.152344 C 20.53125 0.0742188 19.917969 0.0273438 19.304688 0.0078125 C 18.691406 -0.0117188 18.078125 0 17.464844 0.0429688 C 16.851562 0.0859375 16.242188 0.15625 15.636719 0.257812 C 15.03125 0.363281 14.433594 0.492188 13.839844 0.652344 C 13.246094 0.8125 12.664062 1.003906 12.089844 1.222656 C 11.515625 1.441406 10.953125 1.6875 10.402344 1.960938 C 9.855469 2.234375 9.320312 2.53125 8.796875 2.859375 C 8.277344 3.183594 7.773438 3.535156 7.289062 3.910156 C 6.800781 4.285156 6.335938 4.683594 5.890625 5.105469 C 5.441406 5.527344 5.015625 5.96875 4.613281 6.429688 C 4.210938 6.894531 3.832031 7.375 3.472656 7.875 C 3.117188 8.378906 2.789062 8.894531 2.480469 9.425781 C 2.175781 9.960938 1.898438 10.503906 1.648438 11.066406 C 1.394531 11.625 1.171875 12.199219 0.976562 12.78125 C 0.78125 13.363281 0.613281 13.953125 0.476562 14.550781 C 0.339844 15.148438 0.230469 15.753906 0.152344 16.363281 C 0.0742188 16.972656 0.0273438 17.582031 0.0078125 18.195312 C -0.0117188 18.808594 0.00390625 19.421875 0.0429688 20.035156 C 0.0859375 20.648438 0.160156 21.257812 0.261719 21.863281 C 0.363281 22.46875 0.492188 23.070312 0.65625 23.660156 C 0.816406 24.253906 1.003906 24.835938 1.222656 25.410156 C 1.441406 25.984375 1.6875 26.546875 1.960938 27.097656 C 2.234375 27.648438 2.535156 28.183594 2.859375 28.703125 C 3.1875 29.222656 3.535156 29.726562 3.914062 30.210938 C 4.289062 30.699219 4.6875 31.164062 5.105469 31.613281 C 5.527344 32.058594 5.96875 32.484375 6.433594 32.886719 C 6.898438 33.289062 7.378906 33.671875 7.878906 34.027344 C 8.378906 34.382812 8.894531 34.710938 9.429688 35.019531 C 9.960938 35.324219 10.507812 35.601562 11.066406 35.851562 C 11.628906 36.105469 12.199219 36.328125 12.78125 36.523438 C 13.363281 36.71875 13.953125 36.886719 14.554688 37.023438 C 15.152344 37.160156 15.753906 37.269531 16.363281 37.347656 C 16.972656 37.425781 17.585938 37.472656 18.199219 37.492188 C 18.8125 37.507812 19.425781 37.496094 20.039062 37.453125 C 20.652344 37.414062 21.261719 37.339844 21.867188 37.238281 C 22.472656 37.136719 23.070312 37.003906 23.664062 36.84375 C 24.257812 36.683594 24.839844 36.492188 25.414062 36.273438 C 25.988281 36.058594 26.550781 35.8125 27.097656 35.539062 C 27.648438 35.265625 28.183594 34.964844 28.703125 34.636719 C 29.226562 34.3125 29.726562 33.960938 30.214844 33.585938 C 38.40625 27.253906 39.917969 15.484375 33.589844 7.289062 Z M 33.589844 7.289062 "/>
</g>
<path style=" stroke:none;fill-rule:nonzero;fill:rgb(100%,100%,100%);fill-opacity:1;" d="M 25.074219 11.945312 L 17.167969 19.914062 L 14.933594 17.617188 C 22.714844 9.835938 23.496094 10.539062 25.074219 11.945312 Z M 25.074219 11.945312 "/>
<path style=" stroke:none;fill-rule:nonzero;fill:rgb(100%,42.349243%,21.569824%);fill-opacity:1;" d="M 17.167969 20.132812 C 17.09375 20.132812 17.03125 20.105469 16.980469 20.054688 L 14.730469 17.804688 C 14.679688 17.75 14.652344 17.683594 14.652344 17.609375 C 14.652344 17.535156 14.679688 17.46875 14.730469 17.414062 C 22.402344 9.742188 23.449219 10.101562 25.261719 11.742188 C 25.324219 11.792969 25.359375 11.867188 25.355469 11.945312 C 25.367188 12.023438 25.335938 12.101562 25.277344 12.148438 L 17.371094 20.054688 C 17.316406 20.105469 17.242188 20.132812 17.167969 20.132812 Z M 15.324219 17.617188 L 17.167969 19.460938 L 24.667969 11.960938 C 24.539062 11.800781 24.382812 11.664062 24.207031 11.558594 C 24.027344 11.453125 23.835938 11.382812 23.628906 11.351562 C 23.425781 11.316406 23.222656 11.320312 23.019531 11.359375 C 22.8125 11.398438 22.625 11.476562 22.449219 11.585938 C 21.089844 12.195312 18.902344 14.054688 15.324219 17.617188 Z M 15.324219 17.617188 "/>
<path style=" stroke:none;fill-rule:nonzero;fill:rgb(100%,100%,100%);fill-opacity:1;" d="M 19.433594 22.117188 L 17.277344 19.914062 L 25.183594 12.101562 C 27.308594 14.179688 24.152344 17.648438 19.433594 22.117188 Z M 19.433594 22.117188 "/>
<path style=" stroke:none;fill-rule:nonzero;fill:rgb(100%,42.349243%,21.569824%);fill-opacity:1;" d="M 19.433594 22.398438 C 19.363281 22.394531 19.300781 22.367188 19.246094 22.320312 L 17.042969 20.164062 C 17.007812 20.082031 17.007812 20 17.042969 19.914062 C 17.019531 19.847656 17.019531 19.777344 17.042969 19.710938 L 24.949219 11.804688 C 25.0625 11.699219 25.242188 11.699219 25.355469 11.804688 C 25.875 12.28125 26.15625 12.960938 26.136719 13.664062 C 26.136719 15.773438 23.730469 18.429688 19.636719 22.304688 C 19.582031 22.359375 19.511719 22.390625 19.433594 22.398438 Z M 17.683594 19.914062 L 19.449219 21.679688 C 22.574219 18.726562 25.558594 15.679688 25.574219 13.617188 C 25.589844 13.164062 25.457031 12.761719 25.167969 12.414062 Z M 17.683594 19.914062 "/>
<path style=" stroke:none;fill-rule:nonzero;fill:rgb(100%,100%,100%);fill-opacity:1;" d="M 14.996094 17.664062 L 16.558594 19.226562 C 16.613281 19.273438 16.613281 19.320312 16.558594 19.367188 L 13.261719 20.070312 C 13.125 20.101562 12.984375 20.035156 12.921875 19.910156 C 12.855469 19.789062 12.878906 19.636719 12.980469 19.539062 L 14.902344 17.632812 C 14.902344 17.632812 14.964844 17.632812 14.996094 17.664062 Z M 14.996094 17.664062 "/>
<path style=" stroke:none;fill-rule:nonzero;fill:rgb(100%,42.349243%,21.569824%);fill-opacity:1;" d="M 13.183594 20.382812 C 12.957031 20.378906 12.785156 20.28125 12.667969 20.085938 C 12.546875 19.855469 12.589844 19.566406 12.777344 19.382812 L 14.683594 17.460938 C 14.753906 17.398438 14.839844 17.367188 14.933594 17.367188 C 15.027344 17.367188 15.113281 17.398438 15.183594 17.460938 L 16.746094 19.023438 C 16.839844 19.113281 16.875 19.246094 16.839844 19.367188 C 16.804688 19.492188 16.703125 19.589844 16.574219 19.617188 L 13.277344 20.320312 Z M 14.933594 18.007812 L 13.167969 19.773438 L 16.089844 19.148438 Z M 15.074219 17.867188 Z M 15.074219 17.867188 "/>
<path style=" stroke:none;fill-rule:nonzero;fill:rgb(100%,100%,100%);fill-opacity:1;" d="M 29.277344 7.554688 C 28.148438 6.464844 26.371094 6.417969 25.183594 7.449219 C 24 8.476562 23.796875 10.246094 24.71875 11.515625 C 25.640625 12.789062 27.382812 13.144531 28.730469 12.335938 L 26.605469 10.210938 Z M 29.277344 7.554688 "/>
<path style=" stroke:none;fill-rule:nonzero;fill:rgb(100%,42.349243%,21.569824%);fill-opacity:1;" d="M 27.167969 13.054688 C 26.503906 13.046875 25.898438 12.855469 25.347656 12.480469 C 24.800781 12.109375 24.398438 11.613281 24.148438 11 C 23.644531 9.769531 23.921875 8.359375 24.851562 7.414062 C 25.164062 7.105469 25.523438 6.871094 25.929688 6.707031 C 26.332031 6.539062 26.753906 6.457031 27.195312 6.457031 C 27.632812 6.457031 28.054688 6.539062 28.460938 6.707031 C 28.867188 6.871094 29.226562 7.105469 29.539062 7.414062 C 29.597656 7.464844 29.632812 7.539062 29.632812 7.617188 C 29.632812 7.699219 29.601562 7.769531 29.539062 7.820312 L 27.007812 10.210938 L 28.929688 12.101562 C 28.996094 12.167969 29.023438 12.246094 29.007812 12.335938 C 28.996094 12.425781 28.953125 12.492188 28.882812 12.539062 C 28.355469 12.867188 27.78125 13.039062 27.164062 13.054688 Z M 27.167969 6.992188 C 26.054688 6.996094 25.058594 7.667969 24.640625 8.691406 C 24.222656 9.714844 24.449219 10.894531 25.230469 11.679688 C 26.027344 12.476562 27.222656 12.707031 28.261719 12.257812 L 26.417969 10.414062 C 26.355469 10.363281 26.320312 10.289062 26.324219 10.210938 C 26.328125 10.136719 26.359375 10.070312 26.417969 10.023438 L 28.855469 7.570312 C 28.371094 7.199219 27.777344 6.996094 27.167969 6.992188 Z M 27.167969 6.992188 "/>
<path style=" stroke:none;fill-rule:nonzero;fill:rgb(100%,100%,100%);fill-opacity:1;" d="M 29.324219 7.601562 L 26.652344 10.257812 L 28.777344 12.382812 C 28.992188 12.261719 29.191406 12.113281 29.371094 11.945312 C 30.527344 10.714844 30.507812 8.800781 29.324219 7.601562 Z M 29.324219 7.601562 "/>
<path style=" stroke:none;fill-rule:nonzero;fill:rgb(100%,42.349243%,21.569824%);fill-opacity:1;" d="M 28.730469 12.617188 C 28.65625 12.621094 28.59375 12.59375 28.542969 12.539062 L 26.417969 10.414062 C 26.355469 10.363281 26.320312 10.289062 26.324219 10.210938 C 26.328125 10.136719 26.359375 10.070312 26.417969 10.023438 L 29.074219 7.414062 C 29.128906 7.332031 29.207031 7.289062 29.308594 7.289062 C 29.410156 7.289062 29.488281 7.332031 29.542969 7.414062 C 29.855469 7.722656 30.101562 8.082031 30.269531 8.488281 C 30.441406 8.894531 30.527344 9.316406 30.527344 9.757812 C 30.527344 10.199219 30.441406 10.621094 30.269531 11.03125 C 30.101562 11.4375 29.855469 11.792969 29.542969 12.101562 C 29.359375 12.296875 29.148438 12.464844 28.917969 12.601562 C 28.855469 12.632812 28.792969 12.636719 28.730469 12.617188 Z M 27.011719 10.210938 L 28.777344 11.976562 C 28.898438 11.890625 29.011719 11.796875 29.121094 11.695312 C 29.660156 11.15625 29.933594 10.507812 29.933594 9.742188 C 29.933594 9.0625 29.710938 8.46875 29.261719 7.960938 Z M 27.011719 10.210938 "/>
<path style=" stroke:none;fill-rule:nonzero;fill:rgb(100%,100%,100%);fill-opacity:1;" d="M 25.402344 12.273438 C 24.960938 11.863281 24.277344 11.863281 23.839844 12.273438 L 16.761719 19.335938 L 17.933594 20.523438 L 25.417969 13.960938 C 25.648438 13.738281 25.777344 13.433594 25.773438 13.113281 C 25.773438 12.792969 25.636719 12.488281 25.402344 12.273438 Z M 25.402344 12.273438 "/>
<path style=" stroke:none;fill-rule:nonzero;fill:rgb(100%,42.349243%,21.569824%);fill-opacity:1;" d="M 17.871094 20.804688 C 17.796875 20.804688 17.734375 20.777344 17.683594 20.726562 L 16.496094 19.539062 C 16.441406 19.484375 16.417969 19.421875 16.417969 19.34375 C 16.417969 19.269531 16.441406 19.203125 16.496094 19.148438 L 23.574219 12.101562 C 24.136719 11.542969 25.042969 11.542969 25.605469 12.101562 C 25.886719 12.382812 26.039062 12.765625 26.027344 13.164062 C 26.011719 13.558594 25.835938 13.929688 25.542969 14.195312 L 18.058594 20.757812 C 18.003906 20.796875 17.9375 20.8125 17.871094 20.804688 Z M 17.042969 19.335938 L 17.824219 20.132812 L 25.167969 13.742188 C 25.347656 13.582031 25.457031 13.359375 25.464844 13.117188 C 25.472656 12.875 25.375 12.640625 25.199219 12.476562 C 24.859375 12.136719 24.304688 12.136719 23.964844 12.476562 Z M 17.042969 19.335938 "/>
<path style=" stroke:none;fill-rule:nonzero;fill:rgb(100%,100%,100%);fill-opacity:1;" d="M 11.277344 27.382812 C 11.230469 27.445312 11.230469 27.507812 11.277344 27.570312 L 11.589844 28.929688 C 11.617188 29.09375 11.539062 29.253906 11.394531 29.339844 C 11.234375 29.433594 11.085938 29.417969 10.949219 29.296875 L 8.808594 27.234375 L 15.480469 20.507812 L 17.792969 20.507812 L 19.355469 22.070312 C 16.90625 24.210938 14.214844 25.984375 11.277344 27.382812 Z M 11.277344 27.382812 "/>
<path style=" stroke:none;fill-rule:nonzero;fill:rgb(100%,42.349243%,21.569824%);fill-opacity:1;" d="M 11.136719 29.679688 C 10.960938 29.675781 10.785156 29.605469 10.667969 29.476562 L 8.621094 27.429688 C 8.558594 27.378906 8.527344 27.304688 8.527344 27.226562 C 8.53125 27.152344 8.5625 27.085938 8.621094 27.039062 L 15.339844 20.304688 C 15.378906 20.265625 15.425781 20.238281 15.480469 20.226562 L 17.808594 20.226562 C 17.871094 20.203125 17.933594 20.203125 17.996094 20.226562 L 19.558594 21.789062 C 19.617188 21.84375 19.648438 21.925781 19.636719 22.007812 C 19.640625 22.089844 19.609375 22.160156 19.542969 22.210938 L 19.417969 22.320312 C 16.960938 24.371094 14.289062 26.082031 11.402344 27.460938 L 11.699219 28.726562 C 11.722656 28.828125 11.722656 28.925781 11.703125 29.023438 C 11.679688 29.125 11.636719 29.214844 11.578125 29.292969 C 11.515625 29.375 11.4375 29.4375 11.347656 29.484375 C 11.257812 29.527344 11.160156 29.554688 11.058594 29.554688 Z M 9.230469 27.226562 L 11.074219 29.085938 C 11.117188 29.121094 11.15625 29.121094 11.199219 29.085938 C 11.226562 29.050781 11.226562 29.011719 11.199219 28.976562 L 10.886719 27.617188 C 10.835938 27.414062 10.933594 27.207031 11.121094 27.117188 C 13.929688 25.757812 16.535156 24.082031 18.933594 22.085938 L 17.652344 20.804688 L 15.558594 20.804688 Z M 11.480469 27.507812 Z M 11.480469 27.507812 "/>
<path style=" stroke:none;fill-rule:nonzero;fill:rgb(100%,100%,100%);fill-opacity:1;" d="M 7.199219 28.835938 L 8.761719 27.273438 L 11.167969 29.679688 L 7.339844 29.414062 C 7.207031 29.40625 7.089844 29.308594 7.058594 29.175781 C 7.027344 29.042969 7.082031 28.90625 7.199219 28.835938 Z M 7.199219 28.835938 "/>
<path style=" stroke:none;fill-rule:nonzero;fill:rgb(100%,42.349243%,21.569824%);fill-opacity:1;" d="M 11.214844 29.914062 L 7.402344 29.648438 C 7.175781 29.628906 6.980469 29.472656 6.902344 29.265625 C 6.820312 29.058594 6.871094 28.8125 7.027344 28.648438 L 8.589844 27.085938 C 8.644531 27.035156 8.710938 27.007812 8.785156 27.007812 C 8.859375 27.007812 8.925781 27.035156 8.980469 27.085938 L 11.371094 29.476562 C 11.4375 29.570312 11.4375 29.695312 11.371094 29.789062 C 11.335938 29.847656 11.28125 29.890625 11.214844 29.914062 Z M 7.402344 29.039062 L 10.527344 29.242188 L 8.808594 27.632812 Z M 7.402344 29.039062 "/>
<path style=" stroke:none;fill-rule:nonzero;fill:rgb(100%,100%,100%);fill-opacity:1;" d="M 18.011719 20.695312 L 14.855469 21.179688 L 16.683594 19.367188 Z M 18.011719 20.695312 "/>
<path style=" stroke:none;fill-rule:nonzero;fill:rgb(100%,42.349243%,21.569824%);fill-opacity:1;" d="M 14.855469 21.476562 C 14.746094 21.480469 14.648438 21.417969 14.605469 21.320312 C 14.527344 21.214844 14.527344 21.113281 14.605469 21.007812 L 16.417969 19.179688 C 16.53125 19.074219 16.710938 19.074219 16.824219 19.179688 L 18.152344 20.507812 C 18.210938 20.601562 18.210938 20.695312 18.152344 20.789062 C 18.125 20.902344 18.050781 20.972656 17.933594 20.992188 L 14.808594 21.476562 Z M 16.683594 19.773438 L 15.667969 20.789062 L 17.417969 20.523438 Z M 16.683594 19.773438 "/>
<path style=" stroke:none;fill-rule:nonzero;fill:rgb(100%,100%,100%);fill-opacity:1;" d="M 18.011719 20.695312 L 15.808594 20.976562 C 15.671875 21.007812 15.570312 20.960938 15.5 20.839844 C 15.433594 20.71875 15.445312 20.609375 15.542969 20.507812 L 16.683594 19.367188 Z M 18.011719 20.695312 "/>
<path style=" stroke:none;fill-rule:nonzero;fill:rgb(100%,42.349243%,21.569824%);fill-opacity:1;" d="M 15.746094 21.273438 C 15.539062 21.273438 15.347656 21.160156 15.246094 20.976562 C 15.109375 20.730469 15.140625 20.503906 15.339844 20.304688 L 16.480469 19.164062 C 16.59375 19.058594 16.773438 19.058594 16.886719 19.164062 L 18.214844 20.492188 C 18.304688 20.578125 18.328125 20.675781 18.285156 20.789062 C 18.246094 20.90625 18.164062 20.96875 18.042969 20.976562 L 15.855469 21.257812 Z M 15.746094 20.695312 L 17.402344 20.492188 L 16.667969 19.757812 L 15.730469 20.695312 Z M 29.339844 9.398438 C 29.269531 9.28125 29.167969 9.25 29.042969 9.304688 C 28.988281 9.332031 28.953125 9.375 28.933594 9.433594 C 28.914062 9.488281 28.921875 9.550781 28.949219 9.601562 C 29.058594 9.832031 29.027344 10.105469 28.871094 10.304688 C 28.828125 10.34375 28.8125 10.398438 28.8125 10.453125 C 28.8125 10.511719 28.832031 10.558594 28.871094 10.601562 C 28.914062 10.617188 28.953125 10.617188 28.996094 10.601562 C 29.074219 10.621094 29.144531 10.601562 29.199219 10.539062 C 29.332031 10.378906 29.410156 10.195312 29.433594 9.988281 C 29.460938 9.78125 29.429688 9.585938 29.339844 9.398438 Z M 29.339844 9.398438 "/>
</g>
</svg>
