<?xml version="1.0" encoding="UTF-8"?>
<svg xmlns="http://www.w3.org/2000/svg" xmlns:xlink="http://www.w3.org/1999/xlink" width="37.5pt" height="37.499999pt" viewBox="0 0 37.5 37.499999" version="1.2">
<defs>
<clipPath id="clip1">
  <path d="M 0 0 L 37.007812 0 L 37.007812 37.007812 L 0 37.007812 Z M 0 0 "/>
</clipPath>
</defs>
<g id="surface1">
<g clip-path="url(#clip1)" clip-rule="nonzero">
<path style=" stroke:none;fill-rule:nonzero;fill:rgb(20.779419%,65.489197%,75.689697%);fill-opacity:1;" d="M 18.71875 0 C 8.378906 0 0 8.382812 0 18.71875 C 0 29.054688 8.378906 37.4375 18.71875 37.4375 C 29.058594 37.4375 37.4375 29.058594 37.4375 18.71875 C 37.4375 8.378906 29.058594 0 18.71875 0 M 18.71875 34.320312 C 10.105469 34.320312 3.121094 27.335938 3.121094 18.71875 C 3.121094 10.105469 10.105469 3.121094 18.71875 3.121094 C 27.335938 3.121094 34.320312 10.109375 34.320312 18.71875 C 34.320312 27.332031 27.332031 34.320312 18.71875 34.320312 "/>
</g>
<path style=" stroke:none;fill-rule:nonzero;fill:rgb(20.779419%,65.489197%,75.689697%);fill-opacity:1;" d="M 23.269531 18.71875 C 23.269531 14.304688 21.535156 10.296875 18.71875 7.332031 C 15.902344 10.296875 14.164062 14.308594 14.164062 18.71875 C 14.164062 20.738281 14.539062 22.671875 15.203125 24.464844 C 14.238281 25.871094 13.527344 27.839844 13.214844 30.105469 C 14.210938 28.929688 15.433594 28.066406 16.789062 27.640625 C 17.355469 28.515625 17.996094 29.347656 18.722656 30.105469 C 19.445312 29.34375 20.089844 28.523438 20.65625 27.640625 C 22.011719 28.058594 23.234375 28.929688 24.234375 30.117188 C 23.921875 27.851562 23.210938 25.878906 22.246094 24.472656 C 22.902344 22.671875 23.273438 20.738281 23.273438 18.71875 M 18.71875 18.761719 C 17.585938 18.761719 16.664062 17.839844 16.664062 16.707031 C 16.664062 15.574219 17.585938 14.652344 18.71875 14.652344 C 19.855469 14.652344 20.777344 15.570312 20.777344 16.714844 C 20.773438 17.824219 19.863281 18.761719 18.71875 18.761719 "/>
</g>
</svg>
