<?xml version="1.0" encoding="UTF-8"?>
<svg xmlns="http://www.w3.org/2000/svg" xmlns:xlink="http://www.w3.org/1999/xlink" width="37.5pt" height="37.499999pt" viewBox="0 0 37.5 37.499999" version="1.2">
<defs>
<clipPath id="clip1">
  <path d="M 26 8 L 37.007812 8 L 37.007812 23 L 26 23 Z M 26 8 "/>
</clipPath>
</defs>
<g id="surface1">
<path style=" stroke:none;fill-rule:nonzero;fill:rgb(93.728638%,79.998779%,63.919067%);fill-opacity:1;" d="M 31.464844 14.910156 C 31.40625 13.621094 31.582031 12.480469 30.996094 11.511719 C 29.589844 9.109375 26.074219 7.707031 19.042969 7.707031 L 19.042969 7.910156 L 18.894531 7.910156 L 19.042969 7.910156 L 19.042969 7.707031 C 12.011719 7.707031 8.320312 9.109375 6.914062 11.542969 C 6.355469 12.539062 6.414062 13.652344 6.328125 14.941406 C 6.269531 15.964844 5.800781 17.050781 6.003906 18.222656 C 6.238281 19.746094 6.328125 21.269531 6.5625 22.675781 C 6.738281 23.816406 8.320312 24.785156 8.464844 25.867188 C 8.875 28.855469 11.980469 30.234375 19.011719 30.234375 L 19.011719 30.46875 L 18.835938 30.46875 L 19.042969 30.46875 L 19.042969 30.234375 C 26.074219 30.234375 29.0625 28.855469 29.441406 25.867188 C 29.589844 24.753906 31.054688 23.816406 31.230469 22.675781 C 31.464844 21.269531 31.550781 19.746094 31.785156 18.222656 C 31.992188 17.050781 31.523438 15.9375 31.464844 14.910156 Z M 31.464844 14.910156 "/>
<path style=" stroke:none;fill-rule:nonzero;fill:rgb(79.998779%,67.449951%,55.288696%);fill-opacity:1;" d="M 18.925781 15.964844 C 20.183594 15.996094 21.0625 16.785156 21.882812 17.519531 C 22.851562 18.367188 24.492188 18.953125 25.164062 19.6875 C 25.839844 20.417969 26.71875 21.152344 27.039062 22.292969 C 27.363281 23.4375 27.449219 24.902344 27.449219 25.28125 C 27.449219 25.664062 27.65625 25.574219 28.242188 25.28125 C 29.617188 24.609375 31.140625 22.792969 31.140625 22.792969 C 30.964844 23.933594 29.472656 24.960938 29.324219 26.042969 C 28.972656 29.03125 26.074219 30.46875 18.894531 30.46875 L 18.867188 30.46875 L 19.042969 30.46875 "/>
<path style=" stroke:none;fill-rule:nonzero;fill:rgb(79.998779%,67.449951%,55.288696%);fill-opacity:1;" d="M 23.554688 13.679688 C 23.816406 14.589844 24.753906 17.664062 22.9375 16.640625 C 22.9375 16.640625 23.699219 17.078125 24.167969 18.75 C 24.667969 20.417969 25.867188 20.625 25.867188 20.625 C 25.867188 20.625 27.832031 21.003906 29.296875 19.746094 C 30.527344 18.691406 30.730469 16.816406 30.203125 15.378906 C 29.675781 13.972656 28.738281 13.535156 27.363281 13.242188 C 25.984375 12.917969 23.230469 12.65625 23.554688 13.679688 Z M 23.554688 13.679688 "/>
<path style=" stroke:none;fill-rule:nonzero;fill:rgb(0%,0%,0%);fill-opacity:1;" d="M 29.617188 17.019531 C 29.617188 17.363281 29.554688 17.691406 29.421875 18.007812 C 29.292969 18.324219 29.105469 18.601562 28.863281 18.84375 C 28.621094 19.085938 28.34375 19.273438 28.027344 19.402344 C 27.710938 19.535156 27.382812 19.597656 27.039062 19.597656 C 26.699219 19.597656 26.371094 19.535156 26.054688 19.402344 C 25.738281 19.273438 25.460938 19.085938 25.21875 18.84375 C 24.976562 18.601562 24.789062 18.324219 24.660156 18.007812 C 24.527344 17.691406 24.460938 17.363281 24.460938 17.019531 C 24.460938 16.679688 24.527344 16.351562 24.660156 16.035156 C 24.789062 15.71875 24.976562 15.441406 25.21875 15.199219 C 25.460938 14.957031 25.738281 14.769531 26.054688 14.640625 C 26.371094 14.507812 26.699219 14.441406 27.039062 14.441406 C 27.382812 14.441406 27.710938 14.507812 28.027344 14.640625 C 28.34375 14.769531 28.621094 14.957031 28.863281 15.199219 C 29.105469 15.441406 29.292969 15.71875 29.421875 16.035156 C 29.554688 16.351562 29.617188 16.679688 29.617188 17.019531 Z M 29.617188 17.019531 "/>
<path style=" stroke:none;fill-rule:nonzero;fill:rgb(100%,100%,100%);fill-opacity:1;" d="M 27.039062 15.878906 C 27.039062 16.066406 26.976562 16.222656 26.84375 16.355469 C 26.710938 16.488281 26.554688 16.550781 26.367188 16.550781 C 26.179688 16.550781 26.023438 16.488281 25.890625 16.355469 C 25.757812 16.222656 25.691406 16.066406 25.691406 15.878906 C 25.691406 15.691406 25.757812 15.535156 25.890625 15.402344 C 26.023438 15.269531 26.179688 15.203125 26.367188 15.203125 C 26.554688 15.203125 26.710938 15.269531 26.84375 15.402344 C 26.976562 15.535156 27.039062 15.691406 27.039062 15.878906 Z M 27.039062 15.878906 "/>
<path style=" stroke:none;fill-rule:nonzero;fill:rgb(93.728638%,79.998779%,63.919067%);fill-opacity:1;" d="M 23.113281 16.902344 C 23.113281 16.902344 25.429688 18.484375 26.6875 20.039062 C 27.949219 21.589844 27.917969 21.882812 27.917969 21.882812 L 27.011719 22.292969 C 27.011719 22.292969 25.722656 19.863281 24.140625 18.953125 C 22.527344 18.046875 22.351562 17.285156 22.351562 17.285156 Z M 23.113281 16.902344 "/>
<path style=" stroke:none;fill-rule:nonzero;fill:rgb(79.998779%,67.449951%,55.288696%);fill-opacity:1;" d="M 19.011719 15.964844 C 17.753906 15.996094 16.816406 16.785156 15.964844 17.519531 C 15 18.367188 13.300781 18.953125 12.625 19.6875 C 11.953125 20.417969 11.042969 21.152344 10.722656 22.292969 C 10.398438 23.4375 10.28125 24.902344 10.28125 25.28125 C 10.28125 25.664062 10.339844 25.691406 9.492188 25.28125 C 8.113281 24.636719 6.589844 22.792969 6.589844 22.792969 C 6.765625 23.933594 8.261719 24.960938 8.40625 26.042969 C 8.816406 29.03125 11.71875 30.46875 18.894531 30.46875 L 19.042969 30.46875 "/>
<path style=" stroke:none;fill-rule:nonzero;fill:rgb(33.729553%,19.999695%,16.859436%);fill-opacity:1;" d="M 25.808594 20.917969 C 24.402344 19.1875 22.148438 17.578125 19.011719 17.578125 L 18.984375 17.578125 C 15.847656 17.578125 13.59375 19.1875 12.1875 20.917969 C 10.722656 22.703125 10.839844 23.40625 10.839844 25.105469 C 10.839844 31.257812 13.007812 29.5 14.441406 30.261719 C 15.90625 30.996094 17.429688 30.761719 18.984375 30.761719 L 19.011719 30.761719 C 20.59375 30.761719 22.089844 30.964844 23.554688 30.234375 C 24.988281 29.5 27.15625 31.316406 27.15625 25.164062 C 27.1875 23.464844 27.273438 22.703125 25.808594 20.917969 Z M 25.808594 20.917969 "/>
<path style=" stroke:none;fill-rule:nonzero;fill:rgb(26.669312%,15.689087%,13.729858%);fill-opacity:1;" d="M 18.867188 19.101562 C 18.867188 19.101562 18.660156 21.941406 18.25 22.5 L 19.011719 22.324219 Z M 18.867188 19.101562 "/>
<path style=" stroke:none;fill-rule:nonzero;fill:rgb(26.669312%,15.689087%,13.729858%);fill-opacity:1;" d="M 19.070312 19.101562 C 19.070312 19.101562 19.277344 21.941406 19.6875 22.5 L 18.925781 22.324219 Z M 19.070312 19.101562 "/>
<path style=" stroke:none;fill-rule:nonzero;fill:rgb(33.729553%,19.999695%,16.859436%);fill-opacity:1;" d="M 16.609375 18.425781 C 16.316406 17.753906 17.371094 16.667969 19.042969 16.640625 C 20.710938 16.640625 21.765625 17.722656 21.472656 18.425781 C 21.179688 19.128906 20.125 19.335938 19.042969 19.363281 C 17.988281 19.335938 16.902344 19.128906 16.609375 18.425781 Z M 16.609375 18.425781 "/>
<path style=" stroke:none;fill-rule:nonzero;fill:rgb(0%,0%,0%);fill-opacity:1;" d="M 19.042969 19.101562 C 19.042969 18.984375 20.039062 18.953125 20.566406 18.601562 C 20.566406 18.601562 19.480469 18.953125 19.246094 18.808594 C 19.011719 18.691406 18.953125 18.339844 18.953125 18.339844 C 18.953125 18.339844 18.867188 18.691406 18.691406 18.808594 C 18.484375 18.925781 17.253906 18.601562 17.253906 18.601562 C 17.253906 18.601562 18.894531 19.011719 18.894531 19.101562 C 18.894531 19.1875 18.867188 19.480469 18.867188 19.6875 C 18.867188 20.417969 18.867188 22.234375 18.984375 22.382812 C 19.160156 22.644531 19.101562 20.417969 19.101562 19.6875 C 19.070312 19.453125 19.070312 19.21875 19.042969 19.101562 Z M 19.042969 19.101562 "/>
<path style=" stroke:none;fill-rule:nonzero;fill:rgb(49.798584%,29.019165%,25.489807%);fill-opacity:1;" d="M 19.101562 23.027344 C 19.597656 23.027344 20.476562 23.378906 21.269531 23.933594 C 20.507812 23.085938 19.597656 22.5 19.101562 22.5 C 18.574219 22.5 17.460938 23.144531 16.667969 24.082031 C 17.488281 23.4375 18.542969 23.027344 19.101562 23.027344 Z M 19.101562 23.027344 "/>
<path style=" stroke:none;fill-rule:nonzero;fill:rgb(26.669312%,15.689087%,13.729858%);fill-opacity:1;" d="M 18.894531 28.210938 C 17.78125 28.210938 16.699219 27.859375 15.703125 27.597656 C 15.496094 27.539062 15.292969 27.683594 15.085938 27.625 C 13.242188 27.039062 11.746094 26.042969 10.839844 24.785156 L 10.839844 25.078125 C 10.839844 31.230469 13.007812 29.5 14.441406 30.234375 C 15.90625 30.964844 17.429688 30.730469 18.984375 30.730469 L 19.011719 30.730469 C 20.59375 30.730469 22.089844 30.9375 23.554688 30.203125 C 24.988281 29.472656 27.15625 31.257812 27.15625 25.105469 C 27.15625 24.871094 27.15625 24.636719 27.1875 24.433594 C 26.335938 25.808594 24.785156 26.894531 22.851562 27.539062 C 22.675781 27.597656 22.265625 27.449219 22.089844 27.480469 C 21.035156 27.832031 20.097656 28.210938 18.894531 28.210938 Z M 18.894531 28.210938 "/>
<path style=" stroke:none;fill-rule:nonzero;fill:rgb(26.669312%,15.689087%,13.729858%);fill-opacity:1;" d="M 16.113281 24.902344 C 16.113281 24.902344 15.378906 27.097656 15.878906 28.066406 L 15.203125 27.773438 C 15.203125 27.773438 15.703125 25.546875 16.113281 24.902344 Z M 21.914062 24.902344 C 21.914062 24.902344 22.644531 27.097656 22.148438 28.066406 L 22.824219 27.773438 C 22.824219 27.773438 22.296875 25.546875 21.914062 24.902344 Z M 21.914062 24.902344 "/>
<path style=" stroke:none;fill-rule:nonzero;fill:rgb(79.998779%,67.449951%,55.288696%);fill-opacity:1;" d="M 14.238281 13.679688 C 13.972656 14.589844 13.035156 17.664062 14.851562 16.640625 C 14.851562 16.640625 14.089844 17.078125 13.621094 18.75 C 13.152344 20.417969 11.921875 20.625 11.921875 20.625 C 11.921875 20.625 9.960938 21.003906 8.496094 19.746094 C 7.265625 18.691406 7.058594 16.816406 7.585938 15.378906 C 8.113281 13.945312 9.050781 13.535156 10.429688 13.242188 C 11.804688 12.917969 14.53125 12.65625 14.238281 13.679688 Z M 14.238281 13.679688 "/>
<path style=" stroke:none;fill-rule:nonzero;fill:rgb(0%,0%,0%);fill-opacity:1;" d="M 19.011719 22.5 C 19.804688 22.5 22.265625 24.199219 22.292969 26.277344 L 22.292969 26.160156 C 22.292969 23.992188 20.300781 22.265625 19.011719 22.265625 C 17.722656 22.265625 15.730469 24.023438 15.730469 26.160156 L 15.730469 26.277344 C 15.761719 24.199219 18.222656 22.5 19.011719 22.5 Z M 19.011719 22.5 "/>
<path style=" stroke:none;fill-rule:nonzero;fill:rgb(19.999695%,9.01947%,7.058716%);fill-opacity:1;" d="M 19.769531 17.960938 C 19.800781 18.078125 19.804688 18.183594 19.78125 18.277344 C 19.757812 18.371094 19.714844 18.425781 19.652344 18.445312 C 19.589844 18.460938 19.527344 18.433594 19.460938 18.359375 C 19.394531 18.289062 19.347656 18.195312 19.316406 18.078125 C 19.285156 17.960938 19.28125 17.851562 19.304688 17.757812 C 19.328125 17.664062 19.371094 17.609375 19.433594 17.59375 C 19.496094 17.578125 19.5625 17.605469 19.625 17.675781 C 19.691406 17.746094 19.738281 17.84375 19.769531 17.960938 Z M 19.769531 17.960938 "/>
<path style=" stroke:none;fill-rule:nonzero;fill:rgb(19.999695%,9.01947%,7.058716%);fill-opacity:1;" d="M 18.5 18.089844 C 18.464844 18.203125 18.414062 18.296875 18.34375 18.367188 C 18.273438 18.433594 18.210938 18.457031 18.148438 18.4375 C 18.085938 18.421875 18.046875 18.363281 18.027344 18.265625 C 18.007812 18.171875 18.019531 18.066406 18.054688 17.949219 C 18.089844 17.835938 18.140625 17.742188 18.210938 17.671875 C 18.28125 17.605469 18.347656 17.582031 18.40625 17.601562 C 18.46875 17.617188 18.507812 17.675781 18.527344 17.773438 C 18.546875 17.867188 18.539062 17.972656 18.5 18.089844 Z M 18.5 18.089844 "/>
<path style=" stroke:none;fill-rule:nonzero;fill:rgb(0%,0%,0%);fill-opacity:1;" d="M 13.476562 17.019531 C 13.476562 17.363281 13.410156 17.691406 13.28125 18.007812 C 13.148438 18.324219 12.964844 18.601562 12.722656 18.84375 C 12.480469 19.085938 12.199219 19.273438 11.886719 19.402344 C 11.570312 19.535156 11.242188 19.597656 10.898438 19.597656 C 10.554688 19.597656 10.226562 19.535156 9.910156 19.402344 C 9.597656 19.273438 9.316406 19.085938 9.074219 18.84375 C 8.832031 18.601562 8.648438 18.324219 8.515625 18.007812 C 8.386719 17.691406 8.320312 17.363281 8.320312 17.019531 C 8.320312 16.679688 8.386719 16.351562 8.515625 16.035156 C 8.648438 15.71875 8.832031 15.441406 9.074219 15.199219 C 9.316406 14.957031 9.597656 14.769531 9.910156 14.640625 C 10.226562 14.507812 10.554688 14.441406 10.898438 14.441406 C 11.242188 14.441406 11.570312 14.507812 11.886719 14.640625 C 12.199219 14.769531 12.480469 14.957031 12.722656 15.199219 C 12.964844 15.441406 13.148438 15.71875 13.28125 16.035156 C 13.410156 16.351562 13.476562 16.679688 13.476562 17.019531 Z M 13.476562 17.019531 "/>
<path style=" stroke:none;fill-rule:nonzero;fill:rgb(100%,100%,100%);fill-opacity:1;" d="M 12.246094 15.878906 C 12.246094 16.066406 12.179688 16.222656 12.046875 16.355469 C 11.917969 16.488281 11.757812 16.550781 11.570312 16.550781 C 11.386719 16.550781 11.226562 16.488281 11.097656 16.355469 C 10.964844 16.222656 10.898438 16.066406 10.898438 15.878906 C 10.898438 15.691406 10.964844 15.535156 11.097656 15.402344 C 11.226562 15.269531 11.386719 15.203125 11.570312 15.203125 C 11.757812 15.203125 11.917969 15.269531 12.046875 15.402344 C 12.179688 15.535156 12.246094 15.691406 12.246094 15.878906 Z M 12.246094 15.878906 "/>
<path style=" stroke:none;fill-rule:nonzero;fill:rgb(49.798584%,29.019165%,25.489807%);fill-opacity:1;" d="M 19.773438 17.050781 C 19.773438 17.019531 19.101562 17.34375 18.925781 17.371094 C 18.75 17.34375 18.074219 17.019531 18.074219 17.050781 Z M 19.773438 17.050781 "/>
<path style=" stroke:none;fill-rule:nonzero;fill:rgb(93.728638%,79.998779%,63.919067%);fill-opacity:1;" d="M 14.648438 16.902344 C 14.648438 16.902344 12.332031 18.484375 11.074219 20.039062 C 9.8125 21.589844 9.84375 21.882812 9.84375 21.882812 L 10.75 22.292969 C 10.75 22.292969 12.039062 19.863281 13.621094 18.953125 C 15.203125 18.046875 15.410156 17.285156 15.410156 17.285156 Z M 14.648438 16.902344 "/>
<path style=" stroke:none;fill-rule:nonzero;fill:rgb(79.998779%,67.449951%,55.288696%);fill-opacity:1;" d="M 9.578125 12.214844 C 9.578125 12.214844 8.789062 14.382812 7.03125 15.292969 C 7.03125 15.292969 9.785156 14.96875 9.578125 12.214844 Z M 28.066406 12.214844 C 28.066406 12.214844 28.855469 14.382812 30.613281 15.292969 C 30.613281 15.292969 27.859375 14.96875 28.066406 12.214844 Z M 23.054688 16.257812 C 23.054688 16.257812 21.328125 14.441406 19.011719 14.382812 L 19.070312 14.382812 C 16.726562 14.441406 15.027344 16.257812 15.027344 16.257812 C 17.050781 14.851562 18.777344 14.882812 19.070312 14.882812 C 19.042969 14.882812 21.035156 14.851562 23.054688 16.257812 Z M 21.035156 12.449219 C 21.035156 12.449219 20.15625 11.21875 18.984375 11.191406 L 19.042969 11.191406 C 18.164062 11.21875 17.019531 12.449219 17.019531 12.449219 C 18.015625 11.484375 19.042969 11.511719 19.042969 11.511719 C 19.042969 11.511719 20.007812 11.484375 21.035156 12.449219 Z M 10.898438 21.445312 C 10.898438 21.445312 9.519531 22.117188 8.523438 21.707031 L 8.496094 21.707031 C 7.617188 21.210938 7.175781 19.714844 7.175781 19.714844 C 7.175781 19.714844 8.054688 22.351562 10.898438 21.445312 Z M 26.953125 21.445312 C 26.953125 21.445312 28.328125 22.117188 29.324219 21.707031 C 30.496094 21.210938 30.671875 19.714844 30.671875 19.714844 C 30.671875 19.714844 29.792969 22.351562 26.953125 21.445312 Z M 26.953125 21.445312 "/>
<path style=" stroke:none;fill-rule:nonzero;fill:rgb(79.998779%,67.449951%,55.288696%);fill-opacity:1;" d="M 12.480469 12.070312 C 13.242188 11.921875 14.5 11.894531 15.496094 12.214844 C 16.757812 12.65625 15.730469 14.265625 15.996094 14.355469 C 16.257812 14.441406 16.609375 13.242188 18.953125 13.359375 C 21.328125 13.476562 21.589844 14.53125 21.914062 14.355469 C 22.234375 14.179688 21.589844 11.425781 25.136719 12.070312 C 25.136719 12.070312 21.414062 11.074219 21.589844 13.769531 C 21.589844 13.769531 19.453125 12.128906 16.464844 13.59375 C 16.492188 13.59375 17.253906 11.074219 12.480469 12.070312 Z M 25.457031 12.070312 C 25.515625 12.070312 25.546875 12.097656 25.574219 12.097656 C 25.605469 12.097656 25.546875 12.070312 25.457031 12.070312 Z M 25.457031 12.070312 Z M 11.453125 8.464844 C 11.453125 8.464844 8.289062 12.449219 7.824219 13.972656 C 7.351562 15.527344 7.003906 21.882812 6.589844 22.792969 L 5.125 16.523438 L 7.824219 9.988281 Z M 26.335938 8.464844 C 26.335938 8.464844 29.5 12.449219 29.96875 13.972656 C 30.4375 15.527344 30.789062 21.882812 31.199219 22.792969 L 32.664062 16.523438 L 29.96875 9.988281 Z M 26.335938 8.464844 "/>
<g clip-path="url(#clip1)" clip-rule="nonzero">
<path style=" stroke:none;fill-rule:nonzero;fill:rgb(33.729553%,19.999695%,16.859436%);fill-opacity:1;" d="M 26.191406 8.464844 C 26.191406 8.464844 29.589844 11.308594 30.585938 14.589844 C 31.582031 17.871094 31.171875 21.855469 31.933594 22.351562 C 33.015625 23.054688 34.246094 18.867188 34.65625 18.425781 C 35.300781 17.722656 37.441406 15.9375 37.585938 15.613281 C 37.734375 15.292969 33.25 10.402344 31.289062 9.433594 C 28.914062 8.320312 25.984375 8.234375 26.191406 8.46875 Z M 26.191406 8.464844 "/>
</g>
<path style=" stroke:none;fill-rule:nonzero;fill:rgb(26.669312%,15.689087%,13.729858%);fill-opacity:1;" d="M 29.089844 10.222656 C 29.089844 10.222656 33.105469 15.351562 33.046875 21.738281 L 34.65625 18.457031 C 34.628906 18.457031 33.222656 14.265625 29.089844 10.222656 Z M 29.089844 10.222656 "/>
<path style=" stroke:none;fill-rule:nonzero;fill:rgb(33.729553%,19.999695%,16.859436%);fill-opacity:1;" d="M 11.453125 8.464844 C 11.453125 8.464844 8.054688 11.308594 7.058594 14.589844 C 6.0625 17.871094 6.472656 21.855469 5.710938 22.351562 C 4.628906 23.054688 3.398438 18.867188 2.988281 18.425781 C 2.34375 17.722656 0.207031 15.9375 0.0585938 15.613281 C -0.0859375 15.292969 4.394531 10.398438 6.359375 9.433594 C 8.730469 8.320312 11.660156 8.230469 11.453125 8.464844 Z M 11.453125 8.464844 "/>
<path style=" stroke:none;fill-rule:nonzero;fill:rgb(26.669312%,15.689087%,13.729858%);fill-opacity:1;" d="M 8.554688 10.222656 C 8.554688 10.222656 4.542969 15.351562 4.597656 21.738281 L 3.019531 18.457031 C 3.019531 18.457031 4.425781 14.265625 8.554688 10.222656 Z M 8.554688 10.222656 "/>
<path style=" stroke:none;fill-rule:nonzero;fill:rgb(79.998779%,67.449951%,55.288696%);fill-opacity:1;" d="M 6.386719 21.855469 C 6.386719 21.855469 6.679688 23.4375 7.148438 23.933594 C 7.617188 24.433594 7.292969 23.554688 7.292969 23.554688 C 7.292969 23.554688 6.796875 23.289062 6.882812 21.269531 C 6.972656 19.246094 6.386719 21.855469 6.386719 21.855469 Z M 31.375 21.855469 C 31.375 21.855469 31.082031 23.4375 30.613281 23.933594 C 30.144531 24.433594 30.46875 23.554688 30.46875 23.554688 C 30.46875 23.554688 30.964844 23.289062 30.878906 21.269531 C 30.789062 19.246094 31.375 21.855469 31.375 21.855469 Z M 31.375 21.855469 "/>
<path style=" stroke:none;fill-rule:nonzero;fill:rgb(26.669312%,15.689087%,13.729858%);fill-opacity:1;" d="M 16.199219 20.652344 C 16.199219 20.808594 16.121094 20.886719 15.964844 20.886719 C 15.808594 20.886719 15.730469 20.808594 15.730469 20.652344 C 15.730469 20.496094 15.808594 20.417969 15.964844 20.417969 C 16.121094 20.417969 16.199219 20.496094 16.199219 20.652344 Z M 16.199219 20.652344 "/>
<path style=" stroke:none;fill-rule:nonzero;fill:rgb(26.669312%,15.689087%,13.729858%);fill-opacity:1;" d="M 14.851562 22.058594 C 14.851562 22.214844 14.773438 22.292969 14.617188 22.292969 C 14.460938 22.292969 14.382812 22.214844 14.382812 22.058594 C 14.382812 21.902344 14.460938 21.824219 14.617188 21.824219 C 14.773438 21.824219 14.851562 21.902344 14.851562 22.058594 Z M 14.851562 22.058594 "/>
<path style=" stroke:none;fill-rule:nonzero;fill:rgb(26.669312%,15.689087%,13.729858%);fill-opacity:1;" d="M 14.414062 20.652344 C 14.414062 20.808594 14.335938 20.886719 14.179688 20.886719 C 14.023438 20.886719 13.945312 20.808594 13.945312 20.652344 C 13.945312 20.496094 14.023438 20.417969 14.179688 20.417969 C 14.335938 20.417969 14.414062 20.496094 14.414062 20.652344 Z M 14.414062 20.652344 "/>
<path style=" stroke:none;fill-rule:nonzero;fill:rgb(26.669312%,15.689087%,13.729858%);fill-opacity:1;" d="M 21.914062 20.652344 C 21.914062 20.808594 21.835938 20.886719 21.679688 20.886719 C 21.523438 20.886719 21.445312 20.808594 21.445312 20.652344 C 21.445312 20.496094 21.523438 20.417969 21.679688 20.417969 C 21.835938 20.417969 21.914062 20.496094 21.914062 20.652344 Z M 21.914062 20.652344 "/>
<path style=" stroke:none;fill-rule:nonzero;fill:rgb(26.669312%,15.689087%,13.729858%);fill-opacity:1;" d="M 23.261719 22.058594 C 23.261719 22.214844 23.183594 22.292969 23.027344 22.292969 C 22.871094 22.292969 22.792969 22.214844 22.792969 22.058594 C 22.792969 21.902344 22.871094 21.824219 23.027344 21.824219 C 23.183594 21.824219 23.261719 21.902344 23.261719 22.058594 Z M 23.261719 22.058594 "/>
<path style=" stroke:none;fill-rule:nonzero;fill:rgb(26.669312%,15.689087%,13.729858%);fill-opacity:1;" d="M 23.699219 20.652344 C 23.699219 20.808594 23.621094 20.886719 23.464844 20.886719 C 23.308594 20.886719 23.230469 20.808594 23.230469 20.652344 C 23.230469 20.496094 23.308594 20.417969 23.464844 20.417969 C 23.621094 20.417969 23.699219 20.496094 23.699219 20.652344 Z M 23.699219 20.652344 "/>
</g>
</svg>
