<?xml version="1.0" encoding="UTF-8"?>
<svg xmlns="http://www.w3.org/2000/svg" xmlns:xlink="http://www.w3.org/1999/xlink" width="37.5pt" height="37.499999pt" viewBox="0 0 37.5 37.499999" version="1.2">
<g id="surface1">
<path style=" stroke:none;fill-rule:nonzero;fill:rgb(38.038635%,85.488892%,98.429871%);fill-opacity:1;" d="M 29.671875 18.453125 C 29.671875 17.035156 27.859375 15.6875 25.082031 14.851562 C 25.722656 12.074219 25.4375 9.863281 24.183594 9.15625 C 23.894531 8.992188 23.554688 8.914062 23.183594 8.914062 L 23.183594 9.886719 C 23.390625 9.886719 23.554688 9.925781 23.691406 10 C 24.296875 10.339844 24.5625 11.636719 24.355469 13.308594 C 24.308594 13.71875 24.226562 14.148438 24.128906 14.589844 C 23.257812 14.382812 22.304688 14.21875 21.300781 14.113281 C 20.703125 13.308594 20.078125 12.574219 19.449219 11.929688 C 20.902344 10.605469 22.265625 9.882812 23.191406 9.882812 L 23.191406 8.90625 C 21.964844 8.90625 20.363281 9.765625 18.742188 11.25 C 17.125 9.773438 15.519531 8.925781 14.296875 8.925781 L 14.296875 9.898438 C 15.21875 9.898438 16.585938 10.621094 18.035156 11.933594 C 17.414062 12.578125 16.789062 13.308594 16.199219 14.113281 C 15.191406 14.21875 14.238281 14.382812 13.367188 14.59375 C 13.265625 14.160156 13.1875 13.734375 13.136719 13.328125 C 12.925781 11.660156 13.183594 10.363281 13.785156 10.015625 C 13.917969 9.9375 14.09375 9.902344 14.296875 9.902344 L 14.296875 8.929688 C 13.921875 8.929688 13.585938 9.007812 13.289062 9.175781 C 12.039062 9.882812 11.761719 12.089844 12.40625 14.859375 C 9.636719 15.695312 7.835938 17.039062 7.835938 18.453125 C 7.835938 19.871094 9.644531 21.21875 12.421875 22.054688 C 11.78125 24.832031 12.066406 27.042969 13.320312 27.75 C 13.613281 27.914062 13.949219 27.992188 14.324219 27.992188 C 15.546875 27.992188 17.148438 27.136719 18.769531 25.652344 C 20.390625 27.128906 21.992188 27.976562 23.214844 27.976562 C 23.589844 27.976562 23.929688 27.898438 24.222656 27.730469 C 25.472656 27.023438 25.753906 24.816406 25.109375 22.046875 C 27.867188 21.214844 29.671875 19.867188 29.671875 18.453125 Z M 23.875 15.539062 C 23.710938 16.101562 23.503906 16.683594 23.273438 17.265625 C 23.09375 16.914062 22.902344 16.566406 22.691406 16.214844 C 22.488281 15.867188 22.269531 15.527344 22.050781 15.195312 C 22.683594 15.285156 23.292969 15.398438 23.875 15.539062 Z M 21.835938 20.191406 C 21.488281 20.78125 21.132812 21.339844 20.765625 21.859375 C 20.101562 21.917969 19.429688 21.949219 18.753906 21.949219 C 18.082031 21.949219 17.40625 21.917969 16.75 21.863281 C 16.378906 21.34375 16.019531 20.789062 15.671875 20.203125 C 15.332031 19.632812 15.027344 19.050781 14.746094 18.464844 C 15.023438 17.882812 15.332031 17.296875 15.667969 16.722656 C 16.015625 16.132812 16.371094 15.574219 16.742188 15.054688 C 17.402344 14.996094 18.074219 14.96875 18.753906 14.96875 C 19.425781 14.96875 20.097656 14.996094 20.753906 15.050781 C 21.125 15.570312 21.484375 16.125 21.832031 16.710938 C 22.171875 17.28125 22.476562 17.863281 22.757812 18.449219 C 22.476562 19.035156 22.171875 19.621094 21.835938 20.191406 Z M 23.273438 19.625 C 23.515625 20.210938 23.71875 20.792969 23.886719 21.363281 C 23.304688 21.503906 22.691406 21.621094 22.054688 21.710938 C 22.273438 21.375 22.492188 21.03125 22.695312 20.675781 C 22.902344 20.328125 23.09375 19.972656 23.273438 19.625 Z M 18.761719 24.285156 C 18.347656 23.867188 17.933594 23.398438 17.523438 22.886719 C 17.925781 22.90625 18.332031 22.917969 18.746094 22.917969 C 19.167969 22.917969 19.582031 22.910156 19.984375 22.886719 C 19.585938 23.398438 19.171875 23.867188 18.761719 24.285156 Z M 15.449219 21.710938 C 14.816406 21.621094 14.207031 21.507812 13.625 21.367188 C 13.789062 20.804688 13.996094 20.222656 14.226562 19.640625 C 14.40625 19.992188 14.597656 20.339844 14.808594 20.691406 C 15.019531 21.039062 15.230469 21.378906 15.449219 21.710938 Z M 18.738281 12.621094 C 19.152344 13.039062 19.566406 13.507812 19.976562 14.019531 C 19.574219 14 19.167969 13.988281 18.753906 13.988281 C 18.332031 13.988281 17.917969 13.996094 17.515625 14.019531 C 17.914062 13.507812 18.328125 13.039062 18.738281 12.621094 Z M 15.445312 15.195312 C 15.226562 15.53125 15.007812 15.875 14.804688 16.230469 C 14.597656 16.578125 14.40625 16.929688 14.226562 17.277344 C 13.984375 16.691406 13.78125 16.105469 13.613281 15.539062 C 14.195312 15.402344 14.808594 15.285156 15.445312 15.195312 Z M 11.417969 20.664062 C 9.839844 20.003906 8.824219 19.140625 8.824219 18.453125 C 8.824219 17.765625 9.839844 16.898438 11.417969 16.242188 C 11.800781 16.082031 12.21875 15.9375 12.648438 15.800781 C 12.902344 16.65625 13.238281 17.550781 13.652344 18.460938 C 13.242188 19.371094 12.914062 20.257812 12.664062 21.109375 C 12.222656 20.972656 11.804688 20.824219 11.417969 20.664062 Z M 13.8125 26.90625 C 13.207031 26.566406 12.945312 25.269531 13.148438 23.597656 C 13.199219 23.1875 13.277344 22.757812 13.375 22.316406 C 14.246094 22.523438 15.199219 22.6875 16.203125 22.792969 C 16.804688 23.597656 17.425781 24.332031 18.054688 24.976562 C 16.601562 26.300781 15.242188 27.023438 14.316406 27.023438 C 14.113281 27.019531 13.945312 26.980469 13.8125 26.90625 Z M 24.371094 23.578125 C 24.578125 25.246094 24.320312 26.542969 23.71875 26.890625 C 23.585938 26.96875 23.414062 27.003906 23.207031 27.003906 C 22.285156 27.003906 20.917969 26.28125 19.46875 24.964844 C 20.09375 24.324219 20.714844 23.59375 21.308594 22.785156 C 22.3125 22.683594 23.265625 22.519531 24.136719 22.304688 C 24.238281 22.746094 24.320312 23.171875 24.371094 23.578125 Z M 26.082031 20.664062 C 25.699219 20.824219 25.28125 20.96875 24.851562 21.105469 C 24.597656 20.25 24.261719 19.359375 23.847656 18.445312 C 24.257812 17.535156 24.585938 16.648438 24.835938 15.796875 C 25.277344 15.933594 25.695312 16.082031 26.085938 16.242188 C 27.664062 16.902344 28.683594 17.765625 28.683594 18.453125 C 28.675781 19.140625 27.660156 20.007812 26.082031 20.664062 Z M 26.082031 20.664062 "/>
<path style=" stroke:none;fill-rule:nonzero;fill:rgb(38.038635%,85.488892%,98.429871%);fill-opacity:1;" d="M 20.78125 18.453125 C 20.78125 18.71875 20.730469 18.972656 20.628906 19.21875 C 20.523438 19.460938 20.375 19.675781 20.1875 19.863281 C 19.996094 20.050781 19.773438 20.195312 19.527344 20.296875 C 19.277344 20.398438 19.015625 20.449219 18.746094 20.449219 C 18.476562 20.449219 18.21875 20.398438 17.96875 20.296875 C 17.71875 20.195312 17.5 20.050781 17.308594 19.863281 C 17.117188 19.675781 16.972656 19.460938 16.867188 19.21875 C 16.765625 18.972656 16.714844 18.71875 16.714844 18.453125 C 16.714844 18.1875 16.765625 17.933594 16.867188 17.6875 C 16.972656 17.445312 17.117188 17.230469 17.308594 17.042969 C 17.5 16.855469 17.71875 16.710938 17.96875 16.609375 C 18.21875 16.507812 18.476562 16.457031 18.746094 16.457031 C 19.015625 16.457031 19.277344 16.507812 19.527344 16.609375 C 19.773438 16.710938 19.996094 16.855469 20.1875 17.042969 C 20.375 17.230469 20.523438 17.445312 20.628906 17.6875 C 20.730469 17.933594 20.78125 18.1875 20.78125 18.453125 Z M 20.78125 18.453125 "/>
</g>
</svg>
