<?xml version="1.0" encoding="UTF-8"?>
<svg xmlns="http://www.w3.org/2000/svg" xmlns:xlink="http://www.w3.org/1999/xlink" width="37.5pt" height="37.499999pt" viewBox="0 0 37.5 37.499999" version="1.2">
<defs>
<clipPath id="clip1">
  <path d="M 0 0 L 37.007812 0 L 37.007812 37.007812 L 0 37.007812 Z M 0 0 "/>
</clipPath>
<clipPath id="clip2">
  <path d="M 0 0 L 37.007812 0 L 37.007812 37.007812 L 0 37.007812 Z M 0 0 "/>
</clipPath>
</defs>
<g id="surface1">
<g clip-path="url(#clip1)" clip-rule="nonzero">
<path style=" stroke:none;fill-rule:nonzero;fill:rgb(13.328552%,13.328552%,13.328552%);fill-opacity:1;" d="M 0 0 L 37.5 0 L 37.5 37.5 L 0 37.5 Z M 0 0 "/>
</g>
<path style=" stroke:none;fill-rule:nonzero;fill:rgb(0%,84.709167%,100%);fill-opacity:1;" d="M 21.855469 18.726562 C 21.855469 19.144531 21.777344 19.542969 21.617188 19.925781 C 21.460938 20.3125 21.234375 20.652344 20.9375 20.945312 C 20.644531 21.238281 20.304688 21.464844 19.921875 21.625 C 19.535156 21.785156 19.136719 21.863281 18.722656 21.863281 C 18.304688 21.863281 17.90625 21.785156 17.519531 21.625 C 17.136719 21.464844 16.796875 21.238281 16.503906 20.945312 C 16.210938 20.652344 15.984375 20.3125 15.824219 19.925781 C 15.664062 19.542969 15.585938 19.144531 15.585938 18.726562 C 15.585938 18.3125 15.664062 17.910156 15.824219 17.527344 C 15.984375 17.144531 16.210938 16.804688 16.503906 16.511719 C 16.796875 16.214844 17.136719 15.988281 17.519531 15.828125 C 17.90625 15.671875 18.304688 15.589844 18.722656 15.589844 C 19.136719 15.589844 19.535156 15.671875 19.921875 15.828125 C 20.304688 15.988281 20.644531 16.214844 20.9375 16.511719 C 21.234375 16.804688 21.460938 17.144531 21.617188 17.527344 C 21.777344 17.910156 21.855469 18.3125 21.855469 18.726562 Z M 21.855469 18.726562 "/>
<g clip-path="url(#clip2)" clip-rule="nonzero">
<path style="fill:none;stroke-width:144.746002;stroke-linecap:butt;stroke-linejoin:miter;stroke:rgb(0%,84.709167%,100%);stroke-opacity:1;stroke-miterlimit:10;" d="M 1806.661672 1191.876561 C 2212.623423 1191.876561 2589.937919 1250.301883 2874.525776 1347.928711 C 3217.538955 1466.287104 3428.24705 1644.955507 3428.24705 1807.038658 C 3428.24705 1975.906684 3204.723078 2165.883214 2836.83202 2287.634045 C 2558.275164 2379.983747 2192.268795 2428.231755 1806.661672 2428.231755 C 1411.254172 2428.231755 1036.955176 2382.999248 755.38282 2286.88017 C 399.176827 2165.129339 184.699356 1972.514246 184.699356 1807.038658 C 184.699356 1646.463258 385.984012 1468.925667 724.097003 1350.944211 C 1009.438735 1251.432696 1396.17667 1191.876561 1806.661672 1191.876561 Z M 1806.661672 1191.876561 " transform="matrix(0.0103631,0,0,0.0103631,0.0000005,0)"/>
<path style="fill:none;stroke-width:144.746002;stroke-linecap:butt;stroke-linejoin:miter;stroke:rgb(0%,84.709167%,100%);stroke-opacity:1;stroke-miterlimit:10;" d="M 1271.033401 1501.342297 C 1473.825807 1149.282617 1713.181157 851.501946 1940.097568 653.986665 C 2213.377298 416.139065 2473.841151 323.035488 2614.061923 403.700126 C 2760.313696 488.134139 2813.461892 776.491371 2735.05888 1156.444431 C 2675.879683 1443.670851 2534.528098 1785.176279 2341.913006 2119.142956 C 2144.397725 2461.779198 1918.235189 2763.329245 1694.334279 2958.959838 C 1411.254172 3206.984752 1137.220567 3296.318953 993.607357 3213.769628 C 854.517398 3133.481928 801.369202 2870.379511 868.08715 2518.696769 C 924.250846 2221.293035 1065.979368 1856.417478 1271.033401 1501.342297 Z M 1271.033401 1501.342297 " transform="matrix(0.0103631,0,0,0.0103631,0.0000005,0)"/>
<path style="fill:none;stroke-width:144.746002;stroke-linecap:butt;stroke-linejoin:miter;stroke:rgb(0%,84.709167%,100%);stroke-opacity:1;stroke-miterlimit:10;" d="M 1271.410338 2119.896832 C 1067.864056 1768.214089 929.527972 1412.385033 871.479588 1117.242925 C 802.123077 761.413869 851.12496 489.264952 991.345732 408.223376 C 1137.597505 323.412426 1413.892735 421.416191 1703.757718 679.241481 C 1923.135378 873.741262 2148.1671 1166.621745 2341.536068 1500.588422 C 2539.428286 1842.470788 2687.941685 2189.253342 2745.613131 2481.003013 C 2818.739018 2850.024883 2759.559821 3132.351115 2616.323548 3215.277378 C 2477.233589 3295.565078 2222.800737 3210.37719 1951.405694 2977.052841 C 1722.227659 2779.53756 1476.841308 2474.972012 1271.410338 2119.896832 Z M 1271.410338 2119.896832 " transform="matrix(0.0103631,0,0,0.0103631,0.0000005,0)"/>
</g>
</g>
</svg>
