<?xml version="1.0" encoding="UTF-8"?>
<svg xmlns="http://www.w3.org/2000/svg" xmlns:xlink="http://www.w3.org/1999/xlink" width="37.5pt" height="37.499999pt" viewBox="0 0 37.5 37.499999" version="1.2">
<defs>
<clipPath id="clip1">
  <path d="M 0 4.671875 L 37.007812 4.671875 L 37.007812 33.171875 L 0 33.171875 Z M 0 4.671875 "/>
</clipPath>
</defs>
<g id="surface1">
<g clip-path="url(#clip1)" clip-rule="nonzero">
<path style=" stroke:none;fill-rule:nonzero;fill:rgb(80.389404%,40.388489%,59.999084%);fill-opacity:1;" d="M 32.269531 21.277344 C 30.964844 21.285156 29.828125 21.605469 28.878906 22.082031 C 28.53125 21.375 28.183594 20.746094 28.121094 20.285156 C 28.054688 19.746094 27.972656 19.414062 28.054688 18.769531 C 28.136719 18.125 28.503906 17.210938 28.496094 17.140625 C 28.492188 17.070312 28.414062 16.742188 27.664062 16.734375 C 26.914062 16.726562 26.261719 16.878906 26.1875 17.082031 C 26.113281 17.285156 25.96875 17.75 25.875 18.226562 C 25.746094 18.925781 24.371094 21.425781 23.585938 22.734375 C 23.332031 22.222656 23.113281 21.773438 23.066406 21.417969 C 23 20.878906 22.917969 20.550781 23 19.90625 C 23.082031 19.261719 23.449219 18.34375 23.441406 18.273438 C 23.4375 18.203125 23.359375 17.875 22.609375 17.867188 C 21.859375 17.859375 21.210938 18.015625 21.132812 18.21875 C 21.058594 18.421875 20.976562 18.898438 20.820312 19.359375 C 20.664062 19.820312 18.839844 23.996094 18.359375 25.074219 C 18.113281 25.625 17.902344 26.066406 17.753906 26.367188 C 17.753906 26.367188 17.746094 26.390625 17.726562 26.425781 C 17.59375 26.683594 17.519531 26.824219 17.519531 26.824219 C 17.519531 26.824219 17.519531 26.824219 17.519531 26.832031 C 17.417969 27.019531 17.308594 27.195312 17.253906 27.195312 C 17.214844 27.195312 17.136719 26.691406 17.269531 26.003906 C 17.539062 24.554688 18.191406 22.300781 18.183594 22.222656 C 18.183594 22.179688 18.304688 21.789062 17.757812 21.585938 C 17.226562 21.382812 17.035156 21.71875 16.988281 21.71875 C 16.941406 21.71875 16.90625 21.839844 16.90625 21.839844 C 16.90625 21.839844 17.5 19.304688 15.773438 19.304688 C 14.691406 19.304688 13.203125 20.515625 12.464844 21.605469 C 12 21.867188 11.011719 22.417969 9.953125 23.015625 C 9.550781 23.246094 9.132812 23.476562 8.742188 23.695312 C 8.714844 23.664062 8.6875 23.628906 8.660156 23.601562 C 6.570312 21.3125 2.703125 19.695312 2.867188 16.621094 C 2.929688 15.5 3.304688 12.558594 10.292969 8.988281 C 16.046875 6.082031 20.621094 6.886719 21.414062 8.671875 C 22.546875 11.222656 18.960938 15.957031 13.019531 16.640625 C 10.75 16.902344 9.5625 16.003906 9.261719 15.667969 C 8.949219 15.320312 8.898438 15.296875 8.785156 15.367188 C 8.59375 15.472656 8.714844 15.789062 8.785156 15.96875 C 8.960938 16.445312 9.691406 17.285156 10.929688 17.699219 C 12.023438 18.0625 14.679688 18.265625 17.894531 16.992188 C 21.496094 15.5625 24.308594 11.59375 23.484375 8.269531 C 22.65625 4.890625 17.191406 3.777344 12.023438 5.664062 C 8.949219 6.78125 5.613281 8.546875 3.21875 10.84375 C 0.367188 13.574219 -0.0820312 15.949219 0.101562 16.945312 C 0.765625 20.472656 5.511719 22.769531 7.410156 24.472656 C 7.316406 24.527344 7.226562 24.574219 7.152344 24.617188 C 6.203125 25.101562 2.582031 27.039062 1.679688 29.09375 C 0.65625 31.417969 1.84375 33.082031 2.628906 33.308594 C 5.066406 34 7.574219 32.753906 8.921875 30.695312 C 10.265625 28.636719 10.101562 25.960938 9.480469 24.738281 C 9.472656 24.722656 9.46875 24.710938 9.453125 24.695312 C 9.699219 24.546875 9.953125 24.394531 10.199219 24.246094 C 10.683594 23.953125 11.160156 23.679688 11.570312 23.457031 C 11.339844 24.105469 11.167969 24.882812 11.085938 26.003906 C 10.984375 27.320312 11.507812 29.03125 12.199219 29.703125 C 12.507812 29.996094 12.867188 30.003906 13.101562 30.003906 C 13.90625 30.003906 14.269531 29.316406 14.671875 28.503906 C 15.164062 27.511719 15.609375 26.355469 15.609375 26.355469 C 15.609375 26.355469 15.054688 29.476562 16.558594 29.476562 C 17.105469 29.476562 17.65625 28.75 17.902344 28.378906 L 17.902344 28.386719 C 17.902344 28.386719 17.917969 28.363281 17.945312 28.316406 C 18 28.222656 18.03125 28.167969 18.03125 28.167969 L 18.03125 28.152344 C 18.25 27.761719 18.742188 26.871094 19.472656 25.394531 C 20.417969 23.492188 21.324219 21.109375 21.324219 21.109375 C 21.324219 21.109375 21.40625 21.691406 21.6875 22.65625 C 21.851562 23.222656 22.191406 23.847656 22.464844 24.449219 C 22.246094 24.765625 22.109375 24.941406 22.109375 24.941406 C 22.109375 24.941406 22.109375 24.941406 22.117188 24.945312 C 21.941406 25.183594 21.75 25.445312 21.535156 25.695312 C 20.792969 26.605469 19.90625 27.648438 19.78125 27.949219 C 19.636719 28.308594 19.671875 28.566406 19.945312 28.777344 C 20.144531 28.929688 20.5 28.953125 20.859375 28.929688 C 21.53125 28.882812 22 28.714844 22.234375 28.609375 C 22.59375 28.476562 23.019531 28.273438 23.414062 27.972656 C 24.144531 27.417969 24.589844 26.628906 24.550781 25.585938 C 24.527344 25.011719 24.34375 24.4375 24.117188 23.898438 C 24.1875 23.796875 24.25 23.699219 24.316406 23.601562 C 25.472656 21.875 26.367188 19.976562 26.367188 19.976562 C 26.367188 19.976562 26.449219 20.558594 26.726562 21.523438 C 26.863281 22.011719 27.144531 22.546875 27.390625 23.0625 C 26.304688 23.964844 25.636719 25.015625 25.394531 25.703125 C 24.964844 26.976562 25.300781 27.550781 25.9375 27.683594 C 26.222656 27.746094 26.632812 27.609375 26.933594 27.476562 C 27.316406 27.347656 27.765625 27.132812 28.195312 26.808594 C 28.925781 26.257812 29.632812 25.484375 29.589844 24.441406 C 29.570312 23.964844 29.445312 23.496094 29.277344 23.042969 C 30.199219 22.648438 31.386719 22.433594 32.902344 22.617188 C 36.15625 23.007812 36.796875 25.085938 36.671875 25.960938 C 36.550781 26.835938 35.867188 27.3125 35.640625 27.460938 C 35.417969 27.609375 35.339844 27.65625 35.363281 27.761719 C 35.390625 27.917969 35.5 27.910156 35.691406 27.882812 C 35.957031 27.832031 37.398438 27.171875 37.460938 25.5625 C 37.5625 23.503906 35.648438 21.257812 32.269531 21.277344 Z M 7.1875 29.945312 C 6.105469 31.152344 4.605469 31.605469 3.953125 31.222656 C 3.257812 30.808594 3.53125 29.03125 4.855469 27.753906 C 5.664062 26.976562 6.699219 26.257812 7.390625 25.816406 C 7.546875 25.71875 7.78125 25.578125 8.058594 25.402344 C 8.109375 25.375 8.136719 25.359375 8.136719 25.359375 C 8.191406 25.324219 8.246094 25.289062 8.300781 25.253906 C 8.785156 27.074219 8.320312 28.679688 7.1875 29.945312 Z M 15.039062 24.472656 C 14.664062 25.410156 13.878906 27.8125 13.402344 27.679688 C 12.992188 27.566406 12.738281 25.746094 13.320312 23.945312 C 13.613281 23.042969 14.234375 21.964844 14.597656 21.542969 C 15.183594 20.871094 15.832031 20.648438 15.992188 20.921875 C 16.1875 21.277344 15.273438 23.882812 15.039062 24.472656 Z M 21.523438 27.648438 C 21.367188 27.734375 21.214844 27.789062 21.148438 27.746094 C 21.101562 27.71875 21.214844 27.609375 21.214844 27.609375 C 21.214844 27.609375 22.027344 26.710938 22.351562 26.304688 C 22.535156 26.066406 22.753906 25.789062 22.984375 25.472656 L 22.984375 25.5625 C 22.984375 26.632812 21.972656 27.355469 21.523438 27.648438 Z M 26.523438 26.480469 C 26.40625 26.398438 26.425781 26.117188 26.816406 25.242188 C 26.96875 24.898438 27.324219 24.324219 27.929688 23.769531 C 28 23.996094 28.046875 24.210938 28.039062 24.414062 C 28.03125 25.765625 27.089844 26.269531 26.523438 26.480469 Z M 26.523438 26.480469 "/>
</g>
</g>
</svg>
