<?xml version="1.0" encoding="UTF-8"?>
<svg xmlns="http://www.w3.org/2000/svg" xmlns:xlink="http://www.w3.org/1999/xlink" width="37.5pt" height="37.499999pt" viewBox="0 0 37.5 37.499999" version="1.2">
<defs>
<clipPath id="clip1">
  <path d="M 2.3125 0 L 35.3125 0 L 35.3125 37.007812 L 2.3125 37.007812 Z M 2.3125 0 "/>
</clipPath>
<clipPath id="clip2">
  <path d="M 23 4 L 35.3125 4 L 35.3125 37.007812 L 23 37.007812 Z M 23 4 "/>
</clipPath>
</defs>
<g id="surface1">
<g clip-path="url(#clip1)" clip-rule="nonzero">
<path style=" stroke:none;fill-rule:nonzero;fill:rgb(58.428955%,74.899292%,27.449036%);fill-opacity:1;" d="M 31.269531 7.367188 C 31.246094 7.179688 31.078125 7.074219 30.941406 7.0625 C 30.804688 7.050781 27.917969 6.839844 27.917969 6.839844 C 27.917969 6.839844 25.910156 4.863281 25.6875 4.644531 C 25.46875 4.425781 25.039062 4.492188 24.871094 4.539062 C 24.847656 4.546875 24.433594 4.675781 23.75 4.882812 C 23.078125 2.96875 21.894531 1.210938 19.8125 1.210938 C 19.757812 1.210938 19.695312 1.214844 19.636719 1.21875 C 19.046875 0.441406 18.3125 0.101562 17.679688 0.101562 C 12.832031 0.101562 10.515625 6.117188 9.789062 9.171875 C 7.90625 9.753906 6.566406 10.164062 6.394531 10.21875 C 5.34375 10.542969 5.308594 10.578125 5.171875 11.5625 C 5.066406 12.304688 2.316406 33.417969 2.316406 33.417969 L 23.757812 37.402344 L 35.375 34.910156 C 35.375 34.910156 31.296875 7.554688 31.269531 7.367188 Z M 22.5625 5.25 L 20.75 5.804688 C 20.75 5.679688 20.75 5.554688 20.75 5.417969 C 20.75 4.226562 20.582031 3.269531 20.316406 2.511719 C 21.390625 2.644531 22.105469 3.855469 22.5625 5.25 Z M 18.988281 2.746094 C 19.285156 3.488281 19.480469 4.550781 19.480469 5.988281 C 19.480469 6.0625 19.476562 6.128906 19.476562 6.195312 C 18.296875 6.558594 17.015625 6.953125 15.730469 7.347656 C 16.453125 4.585938 17.804688 3.25 18.988281 2.746094 Z M 17.546875 1.394531 C 17.753906 1.394531 17.964844 1.464844 18.167969 1.601562 C 16.613281 2.328125 14.949219 4.15625 14.246094 7.804688 L 11.285156 8.714844 C 12.105469 5.929688 14.0625 1.394531 17.546875 1.394531 Z M 17.546875 1.394531 "/>
</g>
<g clip-path="url(#clip2)" clip-rule="nonzero">
<path style=" stroke:none;fill-rule:nonzero;fill:rgb(36.859131%,55.688477%,24.308777%);fill-opacity:1;" d="M 30.941406 7.0625 C 30.804688 7.050781 27.917969 6.839844 27.917969 6.839844 C 27.917969 6.839844 25.910156 4.863281 25.6875 4.644531 C 25.605469 4.5625 25.496094 4.519531 25.378906 4.503906 L 23.757812 37.402344 L 35.375 34.910156 C 35.375 34.910156 31.296875 7.554688 31.269531 7.367188 C 31.246094 7.179688 31.078125 7.074219 30.941406 7.0625 "/>
</g>
<path style=" stroke:none;fill-rule:nonzero;fill:rgb(100%,100%,100%);fill-opacity:1;" d="M 19.8125 13.433594 L 18.382812 17.660156 C 18.382812 17.660156 17.125 16.996094 15.585938 16.996094 C 13.332031 16.996094 13.21875 18.398438 13.21875 18.753906 C 13.21875 20.683594 18.292969 21.425781 18.292969 25.945312 C 18.292969 29.503906 16.015625 31.796875 12.949219 31.796875 C 9.269531 31.796875 7.386719 29.523438 7.386719 29.523438 L 8.371094 26.292969 C 8.371094 26.292969 10.308594 27.941406 11.941406 27.941406 C 13.007812 27.941406 13.441406 27.109375 13.441406 26.5 C 13.441406 23.980469 9.277344 23.867188 9.277344 19.730469 C 9.277344 16.246094 11.796875 12.875 16.886719 12.875 C 18.84375 12.875 19.8125 13.433594 19.8125 13.433594 "/>
</g>
</svg>
