<?xml version="1.0" encoding="UTF-8"?>
<svg xmlns="http://www.w3.org/2000/svg" xmlns:xlink="http://www.w3.org/1999/xlink" width="37.5pt" height="37.499999pt" viewBox="0 0 37.5 37.499999" version="1.2">
<defs>
<clipPath id="clip1">
  <path d="M 0 13 L 19 13 L 19 35.339844 L 0 35.339844 Z M 0 13 "/>
</clipPath>
<clipPath id="clip2">
  <path d="M 18 13 L 37.007812 13 L 37.007812 35.339844 L 18 35.339844 Z M 18 13 "/>
</clipPath>
<clipPath id="clip3">
  <path d="M 7 13 L 30 13 L 30 35.339844 L 7 35.339844 Z M 7 13 "/>
</clipPath>
<clipPath id="clip4">
  <path d="M 7 1.777344 L 19 1.777344 L 19 14 L 7 14 Z M 7 1.777344 "/>
</clipPath>
<clipPath id="clip5">
  <path d="M 18 1.777344 L 30 1.777344 L 30 14 L 18 14 Z M 18 1.777344 "/>
</clipPath>
<clipPath id="clip6">
  <path d="M 29 3 L 37.007812 3 L 37.007812 14 L 29 14 Z M 29 3 "/>
</clipPath>
<clipPath id="clip7">
  <path d="M 7 1.777344 L 30 1.777344 L 30 14 L 7 14 Z M 7 1.777344 "/>
</clipPath>
</defs>
<g id="surface1">
<g clip-path="url(#clip1)" clip-rule="nonzero">
<path style=" stroke:none;fill-rule:evenodd;fill:rgb(91.758728%,42.349243%,0%);fill-opacity:1;" d="M 7.621094 13.835938 L 18.710938 35.300781 L 0.0742188 13.835938 Z M 7.621094 13.835938 "/>
</g>
<g clip-path="url(#clip2)" clip-rule="nonzero">
<path style=" stroke:none;fill-rule:evenodd;fill:rgb(91.758728%,42.349243%,0%);fill-opacity:1;" d="M 29.804688 13.835938 L 18.714844 35.300781 L 37.351562 13.835938 Z M 29.804688 13.835938 "/>
</g>
<g clip-path="url(#clip3)" clip-rule="nonzero">
<path style=" stroke:none;fill-rule:evenodd;fill:rgb(99.21875%,67.83905%,0%);fill-opacity:1;" d="M 7.621094 13.835938 L 29.800781 13.835938 L 18.710938 35.300781 Z M 7.621094 13.835938 "/>
</g>
<g clip-path="url(#clip4)" clip-rule="nonzero">
<path style=" stroke:none;fill-rule:evenodd;fill:rgb(99.21875%,82.348633%,19.219971%);fill-opacity:1;" d="M 18.710938 1.941406 L 8.207031 3.039062 L 7.621094 13.835938 Z M 18.710938 1.941406 "/>
</g>
<g clip-path="url(#clip5)" clip-rule="nonzero">
<path style=" stroke:none;fill-rule:evenodd;fill:rgb(99.21875%,82.348633%,19.219971%);fill-opacity:1;" d="M 18.710938 1.941406 L 29.214844 3.039062 L 29.800781 13.835938 Z M 18.710938 1.941406 "/>
</g>
<g clip-path="url(#clip6)" clip-rule="nonzero">
<path style=" stroke:none;fill-rule:evenodd;fill:rgb(99.21875%,67.83905%,0%);fill-opacity:1;" d="M 37.351562 13.835938 L 29.21875 3.039062 L 29.804688 13.835938 Z M 37.351562 13.835938 "/>
</g>
<path style=" stroke:none;fill-rule:evenodd;fill:rgb(99.21875%,67.83905%,0%);fill-opacity:1;" d="M 0.0742188 13.835938 L 8.207031 3.039062 L 7.621094 13.835938 Z M 0.0742188 13.835938 "/>
<g clip-path="url(#clip7)" clip-rule="nonzero">
<path style=" stroke:none;fill-rule:evenodd;fill:rgb(99.609375%,93.328857%,71.759033%);fill-opacity:1;" d="M 18.710938 1.941406 L 7.621094 13.835938 L 29.800781 13.835938 Z M 18.710938 1.941406 "/>
</g>
</g>
</svg>
