<?xml version="1.0" encoding="UTF-8"?>
<svg xmlns="http://www.w3.org/2000/svg" xmlns:xlink="http://www.w3.org/1999/xlink" width="37.5pt" height="37.499999pt" viewBox="0 0 37.5 37.499999" version="1.2">
<defs>
<clipPath id="clip1">
  <path d="M 0.0390625 0 L 18 0 L 18 18 L 0.0390625 18 Z M 0.0390625 0 "/>
</clipPath>
<clipPath id="clip2">
  <path d="M 20 0 L 37.007812 0 L 37.007812 18 L 20 18 Z M 20 0 "/>
</clipPath>
<clipPath id="clip3">
  <path d="M 20 19 L 37.007812 19 L 37.007812 37.007812 L 20 37.007812 Z M 20 19 "/>
</clipPath>
<clipPath id="clip4">
  <path d="M 0.0390625 19 L 18 19 L 18 37.007812 L 0.0390625 37.007812 Z M 0.0390625 19 "/>
</clipPath>
</defs>
<g id="surface1">
<g clip-path="url(#clip1)" clip-rule="nonzero">
<path style=" stroke:none;fill-rule:evenodd;fill:rgb(21.179199%,77.249146%,94.119263%);fill-opacity:1;" d="M 13.804688 -0.0351562 C 11.730469 -0.0351562 10.050781 1.644531 10.050781 3.710938 C 10.050781 5.777344 11.730469 7.453125 13.804688 7.457031 L 17.5625 7.457031 L 17.5625 3.710938 C 17.5625 1.644531 15.882812 -0.03125 13.804688 -0.0351562 M 13.804688 9.953125 L 3.792969 9.953125 C 1.71875 9.957031 0.0351562 11.632812 0.0390625 13.699219 C 0.0351562 15.765625 1.714844 17.441406 3.792969 17.445312 L 13.804688 17.445312 C 15.878906 17.445312 17.5625 15.765625 17.558594 13.699219 C 17.5625 11.632812 15.878906 9.957031 13.804688 9.953125 Z M 13.804688 9.953125 "/>
</g>
<g clip-path="url(#clip2)" clip-rule="nonzero">
<path style=" stroke:none;fill-rule:evenodd;fill:rgb(18.03894%,71.369934%,49.01886%);fill-opacity:1;" d="M 37.585938 13.699219 C 37.585938 11.632812 35.90625 9.957031 33.828125 9.953125 C 31.753906 9.957031 30.074219 11.632812 30.074219 13.699219 L 30.074219 17.445312 L 33.828125 17.445312 C 35.90625 17.445312 37.585938 15.765625 37.585938 13.699219 Z M 27.574219 13.699219 L 27.574219 3.710938 C 27.574219 1.644531 25.894531 -0.03125 23.820312 -0.0351562 C 21.742188 -0.0351562 20.0625 1.644531 20.0625 3.710938 L 20.0625 13.699219 C 20.058594 15.765625 21.742188 17.441406 23.816406 17.445312 C 25.894531 17.445312 27.574219 15.765625 27.574219 13.699219 Z M 27.574219 13.699219 "/>
</g>
<g clip-path="url(#clip3)" clip-rule="nonzero">
<path style=" stroke:none;fill-rule:evenodd;fill:rgb(92.549133%,69.799805%,18.03894%);fill-opacity:1;" d="M 23.816406 37.421875 C 25.894531 37.421875 27.574219 35.746094 27.574219 33.679688 C 27.574219 31.613281 25.894531 29.933594 23.816406 29.933594 L 20.0625 29.933594 L 20.0625 33.679688 C 20.058594 35.742188 21.742188 37.421875 23.816406 37.421875 Z M 23.816406 27.433594 L 33.828125 27.433594 C 35.90625 27.429688 37.585938 25.753906 37.585938 23.6875 C 37.589844 21.621094 35.90625 19.945312 33.832031 19.941406 L 23.820312 19.941406 C 21.742188 19.941406 20.0625 21.621094 20.0625 23.6875 C 20.0625 25.753906 21.742188 27.429688 23.816406 27.433594 Z M 23.816406 27.433594 "/>
</g>
<g clip-path="url(#clip4)" clip-rule="nonzero">
<path style=" stroke:none;fill-rule:evenodd;fill:rgb(87.838745%,11.759949%,35.289001%);fill-opacity:1;" d="M 0.0390625 23.6875 C 0.0351562 25.753906 1.71875 27.429688 3.792969 27.433594 C 5.867188 27.429688 7.550781 25.753906 7.550781 23.6875 L 7.550781 19.941406 L 3.792969 19.941406 C 1.71875 19.945312 0.0351562 21.621094 0.0390625 23.6875 Z M 10.050781 23.6875 L 10.050781 33.675781 C 10.046875 35.742188 11.730469 37.421875 13.804688 37.421875 C 15.878906 37.421875 17.5625 35.746094 17.558594 33.679688 L 17.558594 23.691406 C 17.5625 21.625 15.882812 19.949219 13.804688 19.945312 C 11.730469 19.945312 10.050781 21.621094 10.050781 23.6875 "/>
</g>
</g>
</svg>
