<?xml version="1.0" encoding="UTF-8"?>
<svg xmlns="http://www.w3.org/2000/svg" xmlns:xlink="http://www.w3.org/1999/xlink" width="37.5pt" height="37.499999pt" viewBox="0 0 37.5 37.499999" version="1.2">
<defs>
<clipPath id="clip1">
  <path d="M 0 3.816406 L 37.007812 3.816406 L 37.007812 33.816406 L 0 33.816406 Z M 0 3.816406 "/>
</clipPath>
</defs>
<g id="surface1">
<g clip-path="url(#clip1)" clip-rule="nonzero">
<path style=" stroke:none;fill-rule:nonzero;fill:rgb(10.198975%,9.799194%,9.408569%);fill-opacity:1;" d="M 23.726562 9.8125 C 23.019531 9.101562 21.878906 9.101562 21.175781 9.8125 L 9.695312 21.398438 C 8.285156 22.820312 6 22.820312 4.589844 21.398438 C 3.179688 19.976562 3.179688 17.671875 4.589844 16.25 L 15.851562 4.886719 C 14.441406 3.464844 12.15625 3.464844 10.75 4.886719 L 2.039062 13.675781 C -0.777344 16.519531 -0.777344 21.128906 2.039062 23.972656 C 4.859375 26.816406 9.425781 26.816406 12.246094 23.972656 L 23.726562 12.386719 C 24.429688 11.675781 24.429688 10.523438 23.726562 9.8125 Z M 27.554688 5.953125 C 24.734375 3.105469 20.164062 3.105469 17.347656 5.953125 L 5.867188 17.535156 C 5.164062 18.246094 5.164062 19.402344 5.867188 20.113281 C 6.570312 20.824219 7.714844 20.824219 8.417969 20.113281 L 19.898438 8.527344 C 21.308594 7.105469 23.59375 7.105469 25 8.527344 C 25.707031 9.238281 26.847656 9.238281 27.554688 8.527344 C 28.257812 7.816406 28.257812 6.664062 27.554688 5.953125 Z M 31.378906 17.535156 C 30.675781 16.828125 29.53125 16.828125 28.828125 17.535156 L 17.347656 29.121094 C 15.9375 30.542969 13.652344 30.542969 12.246094 29.121094 C 11.539062 28.410156 10.398438 28.410156 9.695312 29.121094 C 8.988281 29.832031 8.988281 30.984375 9.695312 31.695312 C 12.511719 34.539062 17.082031 34.539062 19.898438 31.695312 L 31.378906 20.113281 C 32.085938 19.402344 32.085938 18.246094 31.378906 17.535156 Z M 35.207031 13.675781 C 32.390625 10.832031 27.820312 10.832031 25.003906 13.675781 L 13.519531 25.261719 C 12.816406 25.972656 12.816406 27.125 13.519531 27.835938 C 14.226562 28.546875 15.367188 28.546875 16.070312 27.835938 L 27.554688 16.25 C 28.960938 14.828125 31.246094 14.828125 32.65625 16.25 C 34.066406 17.671875 34.066406 19.976562 32.65625 21.398438 L 21.394531 32.761719 C 22.804688 34.183594 25.089844 34.183594 26.5 32.761719 L 35.207031 23.972656 C 38.027344 21.128906 38.027344 16.519531 35.207031 13.675781 Z M 35.207031 13.675781 "/>
</g>
</g>
</svg>
