<?xml version="1.0" encoding="UTF-8"?>
<svg xmlns="http://www.w3.org/2000/svg" xmlns:xlink="http://www.w3.org/1999/xlink" width="37.5pt" height="37.499999pt" viewBox="0 0 37.5 37.499999" version="1.2">
<g id="surface1">
<path style=" stroke:none;fill-rule:evenodd;fill:rgb(38.819885%,35.688782%,100%);fill-opacity:1;" d="M 33.171875 19.0625 C 33.171875 16.980469 32.179688 15.335938 30.28125 15.335938 C 28.375 15.335938 27.21875 16.980469 27.21875 19.046875 C 27.21875 21.496094 28.582031 22.734375 30.535156 22.734375 C 31.492188 22.734375 32.210938 22.515625 32.757812 22.207031 L 32.757812 20.578125 C 32.210938 20.855469 31.585938 21.027344 30.792969 21.027344 C 30.015625 21.027344 29.328125 20.75 29.238281 19.789062 L 33.15625 19.789062 C 33.15625 19.683594 33.171875 19.257812 33.171875 19.0625 Z M 29.214844 18.289062 C 29.214844 17.371094 29.769531 16.988281 30.273438 16.988281 C 30.761719 16.988281 31.28125 17.371094 31.28125 18.289062 Z M 29.214844 18.289062 "/>
<path style=" stroke:none;fill-rule:evenodd;fill:rgb(38.819885%,35.688782%,100%);fill-opacity:1;" d="M 24.125 15.335938 C 23.339844 15.335938 22.835938 15.710938 22.554688 15.972656 L 22.453125 15.464844 L 20.6875 15.464844 L 20.6875 24.957031 L 22.691406 24.527344 L 22.699219 22.222656 C 22.988281 22.433594 23.414062 22.734375 24.117188 22.734375 C 25.554688 22.734375 26.859375 21.5625 26.859375 18.984375 C 26.851562 16.621094 25.527344 15.335938 24.125 15.335938 Z M 23.644531 20.945312 C 23.171875 20.945312 22.894531 20.773438 22.699219 20.5625 L 22.691406 17.542969 C 22.902344 17.304688 23.1875 17.144531 23.644531 17.144531 C 24.375 17.144531 24.878906 17.972656 24.878906 19.039062 C 24.878906 20.128906 24.382812 20.945312 23.644531 20.945312 Z M 23.644531 20.945312 "/>
<path style=" stroke:none;fill-rule:evenodd;fill:rgb(38.819885%,35.688782%,100%);fill-opacity:1;" d="M 17.933594 14.855469 L 19.945312 14.417969 L 19.945312 12.765625 L 17.933594 13.195312 Z M 17.933594 14.855469 "/>
<path style=" stroke:none;fill-rule:evenodd;fill:rgb(38.819885%,35.688782%,100%);fill-opacity:1;" d="M 17.933594 15.472656 L 19.945312 15.472656 L 19.945312 22.597656 L 17.933594 22.597656 Z M 17.933594 15.472656 "/>
<path style=" stroke:none;fill-rule:evenodd;fill:rgb(38.819885%,35.688782%,100%);fill-opacity:1;" d="M 15.777344 16.078125 L 15.648438 15.472656 L 13.917969 15.472656 L 13.917969 22.597656 L 15.921875 22.597656 L 15.921875 17.769531 C 16.394531 17.144531 17.195312 17.257812 17.445312 17.347656 L 17.445312 15.472656 C 17.1875 15.375 16.25 15.199219 15.777344 16.078125 Z M 15.777344 16.078125 "/>
<path style=" stroke:none;fill-rule:evenodd;fill:rgb(38.819885%,35.688782%,100%);fill-opacity:1;" d="M 11.769531 13.707031 L 9.816406 14.132812 L 9.808594 20.652344 C 9.808594 21.855469 10.695312 22.742188 11.882812 22.742188 C 12.539062 22.742188 13.019531 22.621094 13.285156 22.472656 L 13.285156 20.820312 C 13.027344 20.929688 11.761719 21.300781 11.761719 20.097656 L 11.761719 17.207031 L 13.285156 17.207031 L 13.285156 15.472656 L 11.761719 15.472656 Z M 11.769531 13.707031 "/>
<path style=" stroke:none;fill-rule:evenodd;fill:rgb(38.819885%,35.688782%,100%);fill-opacity:1;" d="M 6.355469 17.542969 C 6.355469 17.222656 6.609375 17.101562 7.035156 17.101562 C 7.644531 17.101562 8.414062 17.289062 9.023438 17.625 L 9.023438 15.710938 C 8.355469 15.441406 7.699219 15.335938 7.035156 15.335938 C 5.410156 15.335938 4.328125 16.199219 4.328125 17.640625 C 4.328125 19.886719 7.371094 19.527344 7.371094 20.496094 C 7.371094 20.871094 7.050781 20.992188 6.601562 20.992188 C 5.9375 20.992188 5.089844 20.714844 4.414062 20.34375 L 4.414062 22.277344 C 5.160156 22.605469 5.914062 22.742188 6.601562 22.742188 C 8.269531 22.742188 9.414062 21.90625 9.414062 20.449219 C 9.40625 18.023438 6.355469 18.453125 6.355469 17.542969 Z M 6.355469 17.542969 "/>
</g>
</svg>
