<?xml version="1.0" encoding="UTF-8"?>
<svg xmlns="http://www.w3.org/2000/svg" xmlns:xlink="http://www.w3.org/1999/xlink" width="37.5pt" height="37.499999pt" viewBox="0 0 37.5 37.499999" version="1.2">
<defs>
<clipPath id="clip1">
  <path d="M 0.0664062 0 L 37.007812 0 L 37.007812 37.007812 L 0.0664062 37.007812 Z M 0.0664062 0 "/>
</clipPath>
</defs>
<g id="surface1">
<g clip-path="url(#clip1)" clip-rule="nonzero">
<path style=" stroke:none;fill-rule:nonzero;fill:rgb(14.898682%,14.898682%,15.289307%);fill-opacity:1;" d="M 17.894531 0.0703125 C 22.75 -0.328125 26.234375 0.953125 29.988281 4.671875 C 34.035156 8.691406 36.730469 13.894531 37.457031 19.441406 C 38.261719 25.609375 37.152344 30.210938 33.730469 33.582031 C 30.460938 36.800781 25.683594 37.863281 19.304688 37.335938 L 19.039062 37.3125 C 13.605469 36.816406 9.761719 35.046875 6.039062 31.304688 C 2.058594 27.304688 -0.0351562 22.765625 0.0742188 18 C 0.128906 15.667969 0.796875 13.679688 2.078125 11.730469 C 2.921875 10.449219 3.777344 9.453125 5.566406 7.625 L 6.160156 7.015625 L 6.820312 6.355469 C 11.058594 2.128906 13.847656 0.398438 17.894531 0.0703125 Z M 29.699219 4.957031 C 26.03125 1.320312 22.664062 0.0859375 17.929688 0.472656 C 13.9375 0.800781 11.199219 2.527344 6.910156 6.839844 L 6.597656 7.152344 C 4.511719 9.261719 3.53125 10.339844 2.667969 11.585938 L 2.542969 11.769531 L 2.421875 11.953125 C 1.175781 13.839844 0.535156 15.757812 0.484375 18.011719 C 0.375 22.65625 2.421875 27.09375 6.328125 31.019531 C 10.042969 34.753906 13.859375 36.476562 19.335938 36.933594 L 19.609375 36.953125 C 25.746094 37.421875 30.320312 36.371094 33.445312 33.292969 C 36.761719 30.023438 37.84375 25.546875 37.050781 19.492188 C 36.335938 14.039062 33.6875 8.914062 29.699219 4.957031 Z M 24.621094 13.628906 L 24.621094 15.605469 L 20.386719 15.605469 L 20.386719 26.945312 L 18.277344 26.945312 L 18.277344 15.605469 L 14.042969 15.605469 L 14.042969 13.628906 Z M 24.621094 13.628906 "/>
</g>
</g>
</svg>
