<?xml version="1.0" encoding="UTF-8"?>
<svg xmlns="http://www.w3.org/2000/svg" xmlns:xlink="http://www.w3.org/1999/xlink" width="37.5pt" height="37.499999pt" viewBox="0 0 37.5 37.499999" version="1.2">
<defs>
<clipPath id="clip1">
  <path d="M 0 0 L 37.007812 0 L 37.007812 37.007812 L 0 37.007812 Z M 0 0 "/>
</clipPath>
</defs>
<g id="surface1">
<g clip-path="url(#clip1)" clip-rule="nonzero">
<path style=" stroke:none;fill-rule:nonzero;fill:rgb(86.669922%,28.239441%,7.839966%);fill-opacity:1;" d="M 37.445312 18.703125 C 37.445312 29.03125 29.074219 37.40625 18.742188 37.40625 C 8.414062 37.40625 0.0390625 29.03125 0.0390625 18.703125 C 0.0390625 8.375 8.414062 0 18.742188 0 C 29.074219 0 37.445312 8.375 37.445312 18.703125 Z M 37.445312 18.703125 "/>
</g>
<path style=" stroke:none;fill-rule:nonzero;fill:rgb(100%,100%,100%);fill-opacity:1;" d="M 6.023438 16.207031 C 4.644531 16.207031 3.527344 17.324219 3.527344 18.703125 C 3.527344 20.082031 4.644531 21.199219 6.023438 21.199219 C 7.40625 21.199219 8.523438 20.082031 8.523438 18.703125 C 8.523438 17.324219 7.40625 16.207031 6.023438 16.207031 Z M 23.855469 27.554688 C 22.660156 28.246094 22.25 29.773438 22.941406 30.964844 C 23.628906 32.160156 25.15625 32.570312 26.351562 31.878906 C 27.542969 31.191406 27.953125 29.664062 27.265625 28.46875 C 26.574219 27.277344 25.046875 26.867188 23.855469 27.554688 Z M 11.449219 18.703125 C 11.449219 16.234375 12.675781 14.054688 14.550781 12.734375 L 12.726562 9.679688 C 10.539062 11.136719 8.914062 13.371094 8.238281 15.984375 C 9.027344 16.625 9.53125 17.605469 9.53125 18.703125 C 9.53125 19.800781 9.027344 20.78125 8.238281 21.421875 C 8.914062 24.039062 10.539062 26.269531 12.726562 27.730469 L 14.550781 24.671875 C 12.675781 23.351562 11.449219 21.171875 11.449219 18.703125 Z M 18.742188 11.410156 C 22.554688 11.410156 25.679688 14.332031 26.007812 18.054688 L 29.566406 18.003906 C 29.390625 15.253906 28.191406 12.785156 26.34375 10.96875 C 25.394531 11.328125 24.296875 11.273438 23.347656 10.726562 C 22.398438 10.175781 21.804688 9.253906 21.640625 8.25 C 20.691406 7.988281 19.726562 7.855469 18.742188 7.855469 C 17.054688 7.855469 15.449219 8.226562 13.9375 8.976562 L 15.671875 12.085938 C 16.644531 11.632812 17.667969 11.40625 18.742188 11.410156 Z M 18.742188 25.996094 C 17.667969 26 16.644531 25.773438 15.671875 25.320312 L 13.9375 28.429688 C 15.449219 29.179688 17.054688 29.554688 18.742188 29.550781 C 19.726562 29.550781 20.691406 29.417969 21.640625 29.15625 C 21.804688 28.152344 22.398438 27.230469 23.347656 26.679688 C 24.296875 26.132812 25.394531 26.078125 26.34375 26.4375 C 28.191406 24.621094 29.390625 22.152344 29.566406 19.402344 L 26.007812 19.351562 C 25.679688 23.078125 22.554688 25.996094 18.742188 25.996094 Z M 23.855469 9.851562 C 25.046875 10.539062 26.574219 10.132812 27.265625 8.9375 C 27.953125 7.742188 27.546875 6.214844 26.351562 5.527344 C 25.15625 4.835938 23.628906 5.246094 22.941406 6.441406 C 22.25 7.632812 22.660156 9.160156 23.855469 9.851562 Z M 23.855469 9.851562 "/>
</g>
</svg>
