<?xml version="1.0" encoding="UTF-8"?>
<svg xmlns="http://www.w3.org/2000/svg" xmlns:xlink="http://www.w3.org/1999/xlink" width="37.5pt" height="37.499999pt" viewBox="0 0 37.5 37.499999" version="1.2">
<defs>
<clipPath id="clip1">
  <path d="M 0 9 L 28 9 L 28 37.007812 L 0 37.007812 Z M 0 9 "/>
</clipPath>
<clipPath id="clip2">
  <path d="M 25 0.148438 L 37.007812 0.148438 L 37.007812 37.007812 L 25 37.007812 Z M 25 0.148438 "/>
</clipPath>
</defs>
<g id="surface1">
<g clip-path="url(#clip1)" clip-rule="nonzero">
<path style=" stroke:none;fill-rule:nonzero;fill:rgb(14.118958%,53.729248%,79.219055%);fill-opacity:1;" d="M 0.742188 13.613281 C 0.742188 13.613281 -0.152344 12.957031 0.921875 12.085938 L 3.417969 9.816406 C 3.417969 9.816406 4.132812 9.054688 4.886719 9.71875 L 27.933594 27.441406 L 27.933594 35.9375 C 27.933594 35.9375 27.921875 37.273438 26.234375 37.125 Z M 0.742188 13.613281 "/>
</g>
<path style=" stroke:none;fill-rule:nonzero;fill:rgb(6.269836%,43.919373%,70.199585%);fill-opacity:1;" d="M 6.683594 19.089844 L 0.742188 24.574219 C 0.742188 24.574219 0.132812 25.035156 0.742188 25.859375 L 3.5 28.40625 C 3.5 28.40625 4.15625 29.121094 5.121094 28.308594 L 11.417969 23.460938 Z M 6.683594 19.089844 "/>
<path style=" stroke:none;fill-rule:nonzero;fill:rgb(3.138733%,46.669006%,72.549438%);fill-opacity:1;" d="M 17.109375 19.132812 L 28.003906 10.6875 L 27.933594 2.234375 C 27.933594 2.234375 27.464844 0.390625 25.914062 1.347656 L 11.417969 14.75 Z M 17.109375 19.132812 "/>
<g clip-path="url(#clip2)" clip-rule="nonzero">
<path style=" stroke:none;fill-rule:nonzero;fill:rgb(23.529053%,59.999084%,83.139038%);fill-opacity:1;" d="M 26.234375 37.136719 C 26.867188 37.792969 27.632812 37.578125 27.632812 37.578125 L 36.121094 33.328125 C 37.210938 32.578125 37.058594 31.644531 37.058594 31.644531 L 37.058594 6.269531 C 37.058594 5.15625 35.933594 4.769531 35.933594 4.769531 L 28.574219 1.167969 C 26.96875 0.160156 25.914062 1.347656 25.914062 1.347656 C 25.914062 1.347656 27.269531 0.359375 27.933594 2.234375 L 27.933594 35.78125 C 27.933594 36.011719 27.882812 36.238281 27.785156 36.445312 C 27.59375 36.839844 27.171875 37.210938 26.164062 37.054688 Z M 26.234375 37.136719 "/>
</g>
</g>
</svg>
