<?xml version="1.0" encoding="UTF-8"?>
<svg xmlns="http://www.w3.org/2000/svg" xmlns:xlink="http://www.w3.org/1999/xlink" width="37.5pt" height="37.499999pt" viewBox="0 0 37.5 37.499999" version="1.2">
<defs>
<clipPath id="clip1">
  <path d="M 0 4.320312 L 37.007812 4.320312 L 37.007812 32.472656 L 0 32.472656 Z M 0 4.320312 "/>
</clipPath>
</defs>
<g id="surface1">
<g clip-path="url(#clip1)" clip-rule="nonzero">
<path style=" stroke:none;fill-rule:nonzero;fill:rgb(19.219971%,57.249451%,90.589905%);fill-opacity:1;" d="M 31.097656 4.320312 C 28.171875 4.320312 25.734375 6.21875 24.988281 9.058594 C 23.640625 4.792969 20.191406 4.324219 18.75 4.324219 C 17.3125 4.324219 13.863281 4.792969 12.511719 9.058594 C 11.765625 6.21875 9.328125 4.324219 6.402344 4.324219 C 2.816406 4.324219 0.00390625 6.828125 0.00390625 10.023438 C 0.00390625 11.4375 0.363281 12.5625 0.792969 13.789062 L 5.667969 27.230469 C 7.296875 31.691406 10.621094 32.355469 12.457031 32.355469 C 15.335938 32.355469 17.578125 30.917969 18.75 28.367188 C 19.921875 30.929688 22.164062 32.375 25.042969 32.375 C 26.878906 32.375 30.195312 31.707031 31.835938 27.234375 L 36.734375 13.742188 L 36.773438 13.632812 C 36.828125 13.457031 36.886719 13.296875 36.941406 13.140625 C 37.199219 12.390625 37.496094 11.535156 37.496094 10.488281 C 37.496094 6.914062 34.804688 4.320312 31.097656 4.320312 Z M 33.40625 12.59375 L 28.507812 26.082031 C 27.910156 27.714844 26.914062 28.929688 25.042969 28.929688 C 23.289062 28.929688 22.253906 27.976562 21.738281 26.339844 L 18.789062 17.363281 L 18.710938 17.363281 L 15.761719 26.339844 C 15.246094 27.976562 14.210938 28.910156 12.457031 28.910156 C 10.585938 28.910156 9.589844 27.707031 8.992188 26.074219 L 4.132812 12.664062 C 3.734375 11.539062 3.535156 10.839844 3.535156 10.023438 C 3.535156 8.777344 4.730469 7.769531 6.402344 7.769531 C 7.796875 7.769531 8.792969 8.667969 9.113281 9.988281 L 12.417969 20.683594 L 12.496094 20.683594 L 15.84375 10.222656 C 16.28125 8.707031 17.078125 7.769531 18.75 7.769531 C 20.421875 7.769531 21.21875 8.707031 21.65625 10.222656 L 25.003906 20.683594 L 25.082031 20.683594 L 28.390625 9.988281 C 28.707031 8.667969 29.703125 7.765625 31.097656 7.765625 C 32.769531 7.765625 33.964844 8.777344 33.964844 10.488281 C 33.964844 11.109375 33.683594 11.734375 33.40625 12.59375 Z M 33.40625 12.59375 "/>
</g>
</g>
</svg>
