<?xml version="1.0" encoding="UTF-8"?>
<svg xmlns="http://www.w3.org/2000/svg" xmlns:xlink="http://www.w3.org/1999/xlink" width="37.5pt" height="37.499999pt" viewBox="0 0 37.5 37.499999" version="1.2">
<defs>
<clipPath id="clip1">
  <path d="M 20 11.214844 L 23 11.214844 L 23 15 L 20 15 Z M 20 11.214844 "/>
</clipPath>
<clipPath id="clip2">
  <path d="M 0 11.214844 L 37.007812 11.214844 L 37.007812 26 L 0 26 Z M 0 11.214844 "/>
</clipPath>
</defs>
<g id="surface1">
<g clip-path="url(#clip1)" clip-rule="nonzero">
<path style=" stroke:none;fill-rule:nonzero;fill:rgb(100%,79.60968%,16.079712%);fill-opacity:1;" d="M 21.214844 11.847656 C 20.46875 12.234375 20.203125 12.871094 20.203125 14.632812 C 20.203125 14.632812 20.574219 14.277344 21.128906 14.078125 C 21.53125 13.945312 21.871094 13.726562 22.074219 13.578125 C 22.699219 13.128906 22.785156 12.558594 22.785156 11.589844 C 22.785156 11.589844 21.765625 11.554688 21.214844 11.847656 Z M 21.214844 11.847656 "/>
</g>
<g clip-path="url(#clip2)" clip-rule="nonzero">
<path style=" stroke:none;fill-rule:nonzero;fill:rgb(18.03894%,19.219971%,19.999695%);fill-opacity:1;" d="M 16.859375 12.265625 C 16.261719 12.785156 16.082031 13.609375 16.082031 13.609375 L 14.085938 21.136719 L 12.4375 14.964844 C 12.28125 14.320312 11.980469 13.496094 11.527344 12.953125 C 10.953125 12.265625 9.773438 12.222656 9.644531 12.222656 C 9.519531 12.222656 8.328125 12.265625 7.742188 12.964844 C 7.285156 13.515625 6.988281 14.328125 6.832031 14.976562 L 5.183594 21.144531 L 3.207031 13.609375 C 3.207031 13.609375 3.039062 12.777344 2.433594 12.265625 C 1.457031 11.421875 0 11.597656 0 11.597656 L 3.792969 25.710938 C 3.792969 25.710938 5.046875 25.804688 5.671875 25.480469 C 6.492188 25.074219 6.894531 24.75 7.394531 22.824219 C 7.839844 21.113281 9.082031 16.089844 9.199219 15.726562 C 9.253906 15.546875 9.328125 15.121094 9.644531 15.121094 C 9.972656 15.121094 10.039062 15.539062 10.089844 15.726562 C 10.207031 16.082031 11.441406 21.113281 11.898438 22.824219 C 12.398438 24.742188 12.789062 25.054688 13.617188 25.480469 C 14.246094 25.804688 15.5 25.710938 15.5 25.710938 L 19.289062 11.609375 C 19.289062 11.609375 17.835938 11.433594 16.859375 12.265625 Z M 22.785156 13.902344 C 22.785156 13.902344 22.550781 14.257812 22.011719 14.570312 C 21.660156 14.757812 21.332031 14.890625 20.96875 15.058594 C 20.375 15.339844 20.203125 15.664062 20.203125 16.144531 L 20.203125 25.710938 C 20.203125 25.710938 21.171875 25.824219 21.785156 25.523438 C 22.59375 25.117188 22.773438 24.730469 22.785156 22.96875 Z M 32.261719 18.6875 L 37.074219 11.640625 C 37.074219 11.640625 35.042969 11.296875 34.035156 12.203125 C 33.386719 12.777344 32.664062 13.808594 32.664062 13.808594 L 30.902344 16.332031 C 30.804688 16.457031 30.710938 16.601562 30.53125 16.601562 C 30.347656 16.601562 30.230469 16.464844 30.15625 16.332031 L 28.371094 13.820312 C 28.371094 13.820312 27.660156 12.785156 27.003906 12.214844 C 26.003906 11.308594 23.964844 11.652344 23.964844 11.652344 L 28.789062 18.675781 L 23.964844 25.691406 C 23.964844 25.691406 26.089844 25.960938 27.085938 25.054688 C 27.734375 24.480469 28.363281 23.53125 28.363281 23.53125 L 30.125 21.019531 C 30.222656 20.894531 30.316406 20.75 30.496094 20.75 C 30.679688 20.75 30.792969 20.886719 30.871094 21.019531 L 32.632812 23.53125 C 32.632812 23.53125 33.292969 24.460938 33.929688 25.054688 C 34.925781 25.960938 37.019531 25.691406 37.019531 25.691406 Z M 32.261719 18.6875 "/>
</g>
</g>
</svg>
