<?xml version="1.0" encoding="UTF-8"?>
<svg xmlns="http://www.w3.org/2000/svg" xmlns:xlink="http://www.w3.org/1999/xlink" width="37.5pt" height="37.499999pt" viewBox="0 0 37.5 37.499999" version="1.2">
<defs>
<clipPath id="clip1">
  <path d="M 0 0.464844 L 37.007812 0.464844 L 37.007812 37.007812 L 0 37.007812 Z M 0 0.464844 "/>
</clipPath>
</defs>
<g id="surface1">
<g clip-path="url(#clip1)" clip-rule="nonzero">
<path style=" stroke:none;fill-rule:nonzero;fill:rgb(100%,14.898682%,74.508667%);fill-opacity:1;" d="M 30.859375 37.402344 L 6.640625 37.402344 C 2.96875 37.402344 0 34.40625 0 30.695312 L 0 7.171875 C 0 3.464844 2.96875 0.464844 6.640625 0.464844 L 30.859375 0.464844 C 34.53125 0.464844 37.5 3.464844 37.5 7.171875 L 37.5 30.695312 C 37.5 34.40625 34.53125 37.402344 30.859375 37.402344 Z M 30.859375 37.402344 "/>
</g>
<path style=" stroke:none;fill-rule:nonzero;fill:rgb(18.03894%,0%,12.159729%);fill-opacity:1;" d="M 30.265625 35.824219 L 7.234375 35.824219 C 4.109375 35.824219 1.5625 33.25 1.5625 30.09375 L 1.5625 7.773438 C 1.5625 4.617188 4.109375 2.042969 7.234375 2.042969 L 30.25 2.042969 C 33.390625 2.042969 35.921875 4.617188 35.921875 7.773438 L 35.921875 30.078125 C 35.9375 33.25 33.390625 35.824219 30.265625 35.824219 Z M 30.265625 35.824219 "/>
<path style=" stroke:none;fill-rule:nonzero;fill:rgb(100%,85.099792%,94.898987%);fill-opacity:1;" d="M 14.828125 17.75 L 19.203125 26.242188 C 19.28125 26.367188 19.234375 26.496094 19.109375 26.496094 L 16.390625 26.496094 C 16.214844 26.496094 16.136719 26.449219 16.058594 26.289062 C 15.058594 24.207031 14.042969 22.125 12.996094 19.882812 L 12.964844 19.882812 C 12.027344 21.996094 10.996094 24.222656 9.996094 26.308594 C 9.917969 26.433594 9.839844 26.480469 9.714844 26.480469 L 7.140625 26.480469 C 6.984375 26.480469 6.96875 26.355469 7.046875 26.261719 L 11.328125 18.019531 L 7.1875 9.683594 C 7.09375 9.558594 7.1875 9.464844 7.28125 9.464844 L 9.96875 9.464844 C 10.125 9.464844 10.1875 9.496094 10.25 9.636719 C 11.234375 11.722656 12.234375 13.867188 13.171875 15.96875 L 13.203125 15.96875 C 14.109375 13.882812 15.109375 11.722656 16.078125 9.652344 C 16.15625 9.527344 16.203125 9.449219 16.359375 9.449219 L 18.875 9.449219 C 19 9.449219 19.046875 9.542969 18.96875 9.667969 Z M 19.96875 20.324219 C 19.96875 16.644531 22.390625 13.773438 26.234375 13.773438 C 26.5625 13.773438 26.734375 13.773438 27.046875 13.804688 L 27.046875 9.621094 C 27.046875 9.527344 27.125 9.464844 27.203125 9.464844 L 29.671875 9.464844 C 29.796875 9.464844 29.828125 9.511719 29.828125 9.589844 L 29.828125 24.082031 C 29.828125 24.507812 29.828125 25.042969 29.90625 25.628906 C 29.90625 25.722656 29.875 25.753906 29.78125 25.804688 C 28.46875 26.433594 27.09375 26.71875 25.78125 26.71875 C 22.390625 26.730469 19.96875 24.617188 19.96875 20.324219 Z M 27.046875 16.28125 C 26.828125 16.1875 26.515625 16.125 26.140625 16.125 C 24.171875 16.125 22.796875 17.65625 22.796875 20.199219 C 22.796875 23.105469 24.203125 24.273438 25.96875 24.273438 C 26.34375 24.273438 26.75 24.226562 27.046875 24.097656 Z M 27.046875 16.28125 "/>
</g>
</svg>
