<?xml version="1.0" encoding="UTF-8"?>
<svg xmlns="http://www.w3.org/2000/svg" xmlns:xlink="http://www.w3.org/1999/xlink" width="37.5pt" height="37.499999pt" viewBox="0 0 37.5 37.499999" version="1.2">
<defs>
<clipPath id="clip1">
  <path d="M 0 0.21875 L 37.007812 0.21875 L 37.007812 36.667969 L 0 36.667969 Z M 0 0.21875 "/>
</clipPath>
</defs>
<g id="surface1">
<g clip-path="url(#clip1)" clip-rule="nonzero">
<path style=" stroke:none;fill-rule:nonzero;fill:rgb(44.309998%,61.178589%,25.099182%);fill-opacity:1;" d="M 33.082031 21.882812 C 31.441406 22.789062 29.65625 23.21875 27.898438 23.21875 C 26.753906 23.21875 25.621094 23.03125 24.664062 22.65625 C 22.914062 24.210938 21.03125 25.296875 20.082031 25.804688 C 21.453125 27.945312 23.636719 29.59375 26.335938 30.253906 C 27.15625 30.453125 27.984375 30.554688 28.828125 30.554688 C 30.675781 30.554688 32.449219 30.058594 33.957031 29.257812 C 34.183594 28.40625 34.292969 27.539062 34.292969 26.65625 C 34.292969 25.035156 33.898438 23.398438 33.082031 21.882812 M 30.941406 9.105469 C 30.632812 11.140625 29.734375 12.953125 28.480469 14.304688 C 28.546875 14.660156 28.589844 15.054688 28.589844 15.464844 C 28.585938 17.847656 27.335938 19.921875 25.773438 21.589844 C 26.21875 21.644531 26.671875 21.675781 27.117188 21.675781 C 29.34375 21.675781 31.589844 20.972656 33.488281 19.515625 C 35.683594 17.824219 37.003906 15.4375 37.382812 13 C 35.90625 11.089844 33.734375 9.71875 31.316406 9.121094 C 31.191406 9.09375 31.078125 9.042969 30.949219 9.023438 L 30.941406 9.105469 M 29.292969 7.363281 C 29.292969 4.617188 28.195312 2.128906 26.476562 0.328125 L 26.328125 0.328125 C 23.859375 0.328125 21.695312 1.191406 19.734375 2.9375 C 21.609375 4.894531 22.28125 7.378906 22.28125 9.863281 C 22.28125 10.066406 22.277344 10.261719 22.269531 10.457031 C 22.6875 10.351562 23.109375 10.300781 23.539062 10.300781 L 23.648438 10.300781 C 25.261719 10.332031 26.886719 11.121094 27.816406 12.605469 C 28.753906 11.070312 29.292969 9.28125 29.292969 7.363281 M 10.671875 0.507812 C 10.519531 0.507812 10.371094 0.507812 10.316406 0.480469 C 8.628906 2.300781 7.617188 4.707031 7.617188 7.328125 C 7.617188 7.367188 7.617188 7.398438 7.605469 7.417969 C 7.722656 7.417969 7.839844 7.417969 7.960938 7.417969 C 10.800781 7.417969 13.398438 8.527344 15.238281 10.320312 C 16.785156 10.425781 18.367188 11.234375 19.199219 12.835938 C 19.648438 11.972656 20.3125 11.34375 21.011719 11.023438 C 21.011719 10.910156 21.019531 10.789062 21.019531 10.671875 C 21.019531 7.867188 19.835938 5.066406 17.539062 3.066406 C 15.566406 1.34375 13.113281 0.507812 10.671875 0.507812 M 13.566406 10.460938 C 12.015625 9.574219 10.234375 9.074219 8.363281 9.074219 C 7.761719 9.074219 7.152344 9.125 6.546875 9.234375 C 3.796875 9.71875 1.496094 11.222656 0.00390625 13.203125 C 0.410156 15.648438 1.722656 17.953125 3.847656 19.582031 C 5.398438 17.535156 7.574219 16.214844 9.820312 15.789062 C 9.820312 15.6875 9.816406 15.570312 9.816406 15.460938 C 9.8125 12.6875 11.5625 10.96875 13.566406 10.460938 M 4.46875 21.90625 C 3.648438 23.425781 3.253906 25.054688 3.253906 26.664062 C 3.253906 27.625 3.394531 28.574219 3.605469 29.417969 C 5.152344 30.253906 6.808594 30.667969 8.574219 30.667969 C 9.40625 30.667969 10.246094 30.570312 11.097656 30.367188 C 10.835938 29.441406 10.710938 28.519531 10.710938 27.605469 C 10.710938 25.425781 11.410156 23.335938 12.65625 21.605469 C 11.457031 20.332031 10.4375 18.828125 10.019531 17.121094 C 7.714844 17.964844 5.707031 19.605469 4.46875 21.90625 M 18.820312 36.617188 C 21.140625 35.628906 23.101562 33.816406 24.191406 31.386719 C 21.542969 30.308594 19.589844 28.285156 18.601562 25.949219 C 17.753906 25.519531 15.570312 24.316406 13.582031 22.515625 C 12.8125 23.980469 12.429688 25.539062 12.429688 27.183594 C 12.429688 28.566406 12.707031 29.972656 13.328125 31.320312 C 14.46875 33.832031 16.515625 35.660156 18.820312 36.617188 "/>
</g>
</g>
</svg>
