<?xml version="1.0" encoding="UTF-8"?>
<svg xmlns="http://www.w3.org/2000/svg" xmlns:xlink="http://www.w3.org/1999/xlink" width="37.5pt" height="37.499999pt" viewBox="0 0 37.5 37.499999" version="1.2">
<defs>
<clipPath id="clip1">
  <path d="M 5 9 L 37.007812 9 L 37.007812 26 L 5 26 Z M 5 9 "/>
</clipPath>
<clipPath id="clip2">
  <path d="M 5 13 L 37.007812 13 L 37.007812 31 L 5 31 Z M 5 13 "/>
</clipPath>
<clipPath id="clip3">
  <path d="M 5 13 L 37.007812 13 L 37.007812 28 L 5 28 Z M 5 13 "/>
</clipPath>
<clipPath id="clip4">
  <path d="M 5 11 L 37.007812 11 L 37.007812 26 L 5 26 Z M 5 11 "/>
</clipPath>
<clipPath id="clip5">
  <path d="M 17 4.664062 L 25 4.664062 L 25 34.664062 L 17 34.664062 Z M 17 4.664062 "/>
</clipPath>
</defs>
<g id="surface1">
<path style=" stroke:none;fill-rule:nonzero;fill:rgb(99.21875%,74.119568%,22.349548%);fill-opacity:1;" d="M 5.765625 25.363281 L 3.804688 26.082031 L 3.703125 31.925781 L 10.488281 29.441406 C 8.15625 28.660156 6.460938 27.28125 5.765625 25.363281 "/>
<path style=" stroke:none;fill-rule:nonzero;fill:rgb(96.469116%,59.609985%,19.999695%);fill-opacity:1;" d="M 6.792969 19.179688 L -0.0117188 21.671875 L 3.804688 26.082031 L 5.765625 25.363281 C 5.074219 23.453125 5.5 21.292969 6.792969 19.179688 "/>
<g clip-path="url(#clip1)" clip-rule="nonzero">
<path style=" stroke:none;fill-rule:nonzero;fill:rgb(99.609375%,81.17981%,19.999695%);fill-opacity:1;" d="M 18.238281 10.746094 C 9.578125 13.917969 3.992188 20.460938 5.765625 25.363281 L 37.136719 13.878906 C 35.359375 8.976562 26.902344 7.574219 18.238281 10.746094 "/>
</g>
<g clip-path="url(#clip2)" clip-rule="nonzero">
<path style=" stroke:none;fill-rule:nonzero;fill:rgb(93.328857%,40.388489%,13.729858%);fill-opacity:1;" d="M 24.660156 28.496094 C 33.324219 25.324219 38.917969 18.808594 37.136719 13.878906 L 5.765625 25.363281 C 7.550781 30.292969 16 31.667969 24.660156 28.496094 "/>
</g>
<g clip-path="url(#clip3)" clip-rule="nonzero">
<path style=" stroke:none;fill-rule:nonzero;fill:rgb(96.469116%,59.609985%,19.999695%);fill-opacity:1;" d="M 37.136719 13.878906 L 5.765625 25.363281 C 6.378906 27.0625 8.722656 27.898438 12.007812 27.898438 C 15.214844 27.898438 19.316406 27.101562 23.589844 25.539062 C 32.253906 22.367188 38.347656 17.230469 37.136719 13.878906 "/>
</g>
<g clip-path="url(#clip4)" clip-rule="nonzero">
<path style=" stroke:none;fill-rule:nonzero;fill:rgb(99.21875%,74.119568%,22.349548%);fill-opacity:1;" d="M 30.890625 11.34375 C 27.6875 11.34375 23.585938 12.140625 19.308594 13.703125 C 10.648438 16.875 4.554688 22.011719 5.765625 25.363281 L 37.136719 13.878906 C 36.519531 12.179688 34.179688 11.34375 30.890625 11.34375 "/>
</g>
<path style=" stroke:none;fill-rule:nonzero;fill:rgb(93.328857%,40.388489%,13.729858%);fill-opacity:1;" d="M 29.160156 32.234375 C 28.234375 32.234375 26.875 31.402344 25.113281 29.753906 C 23.027344 27.804688 20.640625 24.949219 18.386719 21.710938 C 16.132812 18.476562 14.285156 15.242188 13.175781 12.605469 C 11.96875 9.730469 11.796875 7.964844 12.664062 7.351562 C 12.863281 7.214844 13.101562 7.144531 13.34375 7.148438 C 14.050781 7.148438 15.425781 7.675781 17.96875 10.1875 L 18.027344 10.238281 L 18.019531 10.316406 C 18 10.5 17.984375 10.679688 17.972656 10.859375 L 17.945312 11.214844 L 17.695312 10.960938 C 14.953125 8.195312 13.75 7.898438 13.355469 7.898438 C 13.242188 7.898438 13.15625 7.917969 13.089844 7.964844 C 12.714844 8.230469 12.691406 9.527344 13.859375 12.3125 C 14.949219 14.90625 16.773438 18.089844 18.996094 21.285156 C 21.21875 24.476562 23.570312 27.289062 25.621094 29.203125 C 27.828125 31.269531 28.824219 31.492188 29.148438 31.492188 C 29.261719 31.492188 29.351562 31.46875 29.417969 31.421875 C 29.816406 31.140625 29.816406 29.75 28.511719 26.75 L 28.449219 26.613281 L 28.582031 26.542969 C 28.710938 26.472656 28.839844 26.402344 28.957031 26.332031 L 29.113281 26.242188 L 29.1875 26.410156 C 30.113281 28.535156 30.980469 31.234375 29.84375 32.035156 C 29.644531 32.171875 29.402344 32.242188 29.160156 32.234375 Z M 29.160156 31.90625 L 29.160156 32.070312 Z M 29.160156 31.90625 "/>
<g clip-path="url(#clip5)" clip-rule="nonzero">
<path style=" stroke:none;fill-rule:nonzero;fill:rgb(93.328857%,40.388489%,13.729858%);fill-opacity:1;" d="M 24.871094 28.40625 L 24.859375 28.566406 C 24.640625 31.285156 24.0625 34.546875 22.558594 34.679688 C 22.527344 34.683594 22.496094 34.683594 22.46875 34.683594 C 21.445312 34.683594 20.480469 33.21875 19.597656 30.324219 C 18.757812 27.589844 18.109375 23.914062 17.769531 19.980469 C 17.425781 16.046875 17.429688 12.3125 17.78125 9.472656 C 18.164062 6.375 18.894531 4.757812 19.949219 4.664062 C 19.980469 4.664062 20.011719 4.660156 20.042969 4.660156 C 20.785156 4.660156 21.902344 5.503906 23.046875 9.417969 L 22.300781 9.5625 C 21.917969 8.253906 21.503906 7.191406 21.089844 6.457031 C 20.707031 5.78125 20.335938 5.410156 20.042969 5.410156 C 20.035156 5.410156 20.027344 5.410156 20.015625 5.410156 C 19.558594 5.449219 18.890625 6.5625 18.519531 9.5625 C 18.175781 12.355469 18.167969 16.03125 18.507812 19.914062 C 18.84375 23.800781 19.484375 27.417969 20.304688 30.105469 C 20.671875 31.308594 21.078125 32.300781 21.472656 32.972656 C 21.839844 33.59375 22.191406 33.9375 22.46875 33.9375 C 22.476562 33.9375 22.484375 33.9375 22.496094 33.933594 C 22.933594 33.898438 23.757812 32.738281 24.105469 28.667969 Z M 24.871094 28.40625 "/>
</g>
</g>
</svg>
